<svg width="74" height="67" fill="none" xmlns="http://www.w3.org/2000/svg"><path d="M10.833 5.643h38.69V1l7.739 7.738-7.738 7.738v-4.643H21.667m32.5 21.667H65v-4.643l7.738 7.738L65 44.333v-4.642h-9.286m-9.286 15.476h7.739v-4.643l7.738 7.738L54.167 66v-4.643H23.214M0 52.071h18.571" stroke="#323232" stroke-miterlimit="10" stroke-linejoin="round"/><path d="M32.5 41.238a4.643 4.643 0 100-9.286 4.643 4.643 0 000 9.286z" stroke="#1476F2" stroke-miterlimit="10"/><path d="M50.762 32.417L48.75 27.31l-4.643 1.547c-.928-1.393-2.012-2.476-3.25-3.405l1.703-4.797-4.953-2.167-2.321 4.488c-1.548-.31-3.096-.31-4.643-.154l-2.167-4.489-5.107 2.012 1.393 4.798c-1.393.928-2.476 2.012-3.405 3.25L16.56 26.69l-2.167 4.953 4.488 2.321c-.31 1.548-.31 3.096-.155 4.643l-4.488 2.167 2.012 5.107 4.798-1.393c.928 1.393 2.012 2.476 3.25 3.405l-1.703 4.797 4.953 2.167 2.321-4.488c1.548.31 3.095.31 4.643.155l2.167 4.488L41.786 53l-1.548-4.798c1.393-.928 2.476-2.011 3.405-3.25l4.797 1.703 2.167-4.953-4.488-2.321c.31-1.548.31-3.095.155-4.643l4.488-2.321z" stroke="#1476F2" stroke-miterlimit="10"/><path d="M18.571 19.571H4.643" stroke="#323232" stroke-miterlimit="10" stroke-linejoin="round"/></svg>