<svg width="67" height="67" fill="none" xmlns="http://www.w3.org/2000/svg"><path d="M7.352 23.16c2.955-7.24 8.569-12.853 15.807-15.808" stroke="#323232" stroke-miterlimit="10"/><path d="M33.5 66a4.432 4.432 0 100-8.864 4.432 4.432 0 000 8.864zm0-56.136A4.432 4.432 0 1033.5 1a4.432 4.432 0 000 8.864zm28.068 28.068a4.432 4.432 0 100-8.864 4.432 4.432 0 000 8.864zm-56.136 0a4.432 4.432 0 100-8.864 4.432 4.432 0 000 8.864z" stroke="#1476F2" stroke-miterlimit="10"/><path d="M15.773 5.727l7.386 1.625-1.625 7.534m38.557 29.25c-2.807 7.239-8.568 12.853-15.807 15.807" stroke="#323232" stroke-miterlimit="10"/><path d="M51.818 61.568l-7.534-1.625 1.625-7.386M23.16 60.091c-7.092-2.955-12.853-8.716-15.66-15.807" stroke="#323232" stroke-miterlimit="10"/><path d="M5.875 51.67L7.5 44.284l7.386 1.625M44.284 7.352c7.091 2.807 12.852 8.569 15.807 15.807" stroke="#323232" stroke-miterlimit="10"/><path d="M61.568 15.625l-1.477 7.534-7.534-1.625" stroke="#323232" stroke-miterlimit="10"/><path d="M37.932 33.5c0 2.511-2.068 4.432-4.432 4.432-2.511 0-4.432-2.068-4.432-4.432 0-2.511 2.068-4.432 4.432-4.432 2.511 0 4.432 1.92 4.432 4.432z" stroke="#1476F2" stroke-miterlimit="10"/><path d="M43.84 33.5c0-.886-.147-1.625-.295-2.364l2.955-1.625-2.955-5.17-2.954 1.625c-1.182-1.182-2.66-1.92-4.136-2.364v-3.397h-5.91v3.397c-1.625.444-2.954 1.33-4.136 2.364l-2.954-1.625-2.955 5.17 2.954 1.773c-.147.739-.295 1.477-.295 2.364 0 .886.148 1.625.296 2.363L20.5 37.784l2.954 5.17 2.955-1.772c1.182 1.034 2.512 1.92 4.137 2.363v3.25h5.909v-3.397c1.625-.443 2.954-1.33 4.136-2.364l2.954 1.773 2.955-5.17-2.955-1.626c.148-.886.296-1.772.296-2.511z" stroke="#1476F2" stroke-miterlimit="10"/></svg>