<svg width="61" height="64" fill="none" xmlns="http://www.w3.org/2000/svg"><path d="M60.065 48.196l-19.5-14.13v24.02c0 .707.707.99 1.272.425l5.51-5.228 5.23 9.326c.423.706 1.553.847 2.26.282l2.26-1.413c.849-.565 1.131-1.554.707-2.26l-5.087-8.762h6.642c.847 0 1.271-1.837.706-2.26zm-19.5-20.348v-4.24M34.913 33.5h-4.239m19.782 0h-4.239m-9.891-4.24L33.5 26.436m2.826 11.304L33.5 40.564M44.804 29.26l2.826-2.825" stroke="#323232" stroke-miterlimit="10"/><path d="M19.37 26.435v1.413a2.834 2.834 0 002.826 2.826h2.826a2.834 2.834 0 002.826-2.826V27c0-1.272-.707-2.26-1.978-2.685l-4.664-1.554c-1.13-.424-1.978-1.413-1.978-2.685v-.707a2.834 2.834 0 012.826-2.825h2.826a2.834 2.834 0 012.826 2.825v1.414m-4.097-4.239v-4.24m0 18.37v4.24" stroke="#2A82F2" stroke-miterlimit="10"/><path d="M32.087 44.522c-2.544.989-5.51 1.695-8.478 1.695C11.174 46.217 1 36.044 1 23.61S11.174 1 23.609 1c12.01 0 21.902 9.326 22.608 21.196" stroke="#2A82F2" stroke-miterlimit="10"/></svg>