<svg width="144" height="75" xmlns="http://www.w3.org/2000/svg"><g fill="#FFF" fill-rule="evenodd"><path d="M89.69 37.716l15.218-6.612v15.361l-15.219-8.749zm16.404-6.612l15.218 6.612-15.218 8.75V31.103zm-1.186-19.809v18.563L89 36.77l15.908-25.475zm1.186 18.563V11.295L122 36.77l-15.906-6.912z"/><path d="M105.5 51.17L122 41l-16.5 24L89 41l16.5 10.17zM25.781 19.356l.038-5.022 7.938.062-.04 5.018 3.578.03.039-5.021 7.938.06-.04 5.107a9.622 9.622 0 017.23 4.94 9.76 9.76 0 01-.214 9.706 9.658 9.658 0 01-2.514 2.761 10.206 10.206 0 014.384 4.223 10.34 10.34 0 01-.225 10.281 10.208 10.208 0 01-8.176 4.92l-.001.023-.786.002-.182 4.434-7.938-.061.182-4.435-3.575-.027-.184 4.436-7.938-.061.184-4.435L21 56.264l.057-7.717 2.498.017.162-21.508-2.496-.018.059-7.717 4.501.035zM34.886 35.9l3.336.024c.431.002.858-.05 1.27-.154 2.018-.526 3.44-2.284 3.457-4.279l.002-.227c.019-2.463-2.069-4.481-4.654-4.5l-3.338-.024-.073 9.16zm-.153 14.985l4.301.035c.45.003.897-.059 1.329-.181 2.114-.608 3.6-2.656 3.617-4.976l.001-.27c.02-2.866-2.164-5.213-4.871-5.236l-4.301-.033-.076 10.661z"/><path d="M0 37.5C0 16.789 16.789 0 37.5 0S75 16.789 75 37.5 58.211 75 37.5 75 0 58.211 0 37.5zm1.415 0c0 19.929 16.156 36.085 36.085 36.085 19.929 0 36.085-16.156 36.085-36.085 0-19.929-16.156-36.085-36.085-36.085-19.929 0-36.085 16.156-36.085 36.085zM106 0C93.801 0 82.952 5.679 76 14.495c.265.436.52.877.77 1.323C83.444 7.07 94.051 1.415 106 1.415c20.194 0 36.566 16.156 36.566 36.085 0 19.929-16.372 36.085-36.567 36.085-11.948 0-22.555-5.656-29.229-14.403-.25.446-.505.887-.77 1.323C82.953 69.321 93.802 75 106 75c20.987 0 38-16.789 38-37.5S126.987 0 106 0"/></g></svg>