<svg width="103" height="71" xmlns="http://www.w3.org/2000/svg"><path d="M7.32 56.63c0 .266-.13.756-.347 1.103h-.26c-.217 0-.455-.061-.714-.143a3.211 3.211 0 00-1.148-.245c-.065 0-.13 0-.239.02-1.256.103-2.144 1.165-2.144 3.513 0 2.819 1.235 3.411 2.513 3.411.67 0 1.429-.225 1.992-.49.108.306.195.633.195.776-.022.307-.26.654-.563.878-.433.286-1.17.47-2.014.47-2.404 0-4.483-.837-4.483-4.943 0-2.144.758-3.492 1.624-4.248.866-.755 1.992-1 3.075-1 1.365 0 2.404.612 2.513.878v.02m8.402 1.532v6.434c0 .326-.021.571-.216.837-.347.245-.672.265-2.08.265.022-1.082.044-2.47.044-4.044l.022-3.41c0-.654-.13-1.124-.282-1.532.173-.164.455-.327.931-.51.13-.042.217-.042.303-.042.455 0 .65.123.78.409.412-.266.867-.45 1.278-.592.368-.144.844-.225 1.256-.164.628.061 1.018.266 1.083.572 0 .306-.087.878-.39 1.287-.152.04-.152.04-.346.04a5.35 5.35 0 01-.628-.04c-.152-.041-.217-.041-.282-.041-.585 0-1.061.143-1.473.531m6.714 0v6.434c0 .326-.022.571-.217.837-.346.245-.671.265-2.079.265.022-1.082.044-2.47.044-4.044l.021-3.41c0-.654-.13-1.124-.281-1.532.173-.164.455-.327.93-.51.13-.042.218-.042.304-.042.455 0 .65.123.78.409.411-.266.866-.45 1.278-.592.368-.144.844-.225 1.256-.164.628.061 1.018.266 1.083.572 0 .306-.087.878-.39 1.287-.152.04-.152.04-.347.04a5.35 5.35 0 01-.628-.04c-.151-.041-.216-.041-.281-.041-.585 0-1.062.143-1.473.531m6.93.245l-.216 3.676c0 1.736.541 2.104 1.43 2.104.649.04 1.298-.245 1.645-.633v-6.372c0-.45.043-.715.26-.98.303-.246.541-.246 1.494-.266h.563a200.672 200.672 0 00-.043 4.023v3.432c0 .653.087 1.123.238 1.531-.151.143-.433.307-.91.51-.13.042-.26.042-.303.042a.848.848 0 01-.78-.45 4.646 4.646 0 01-1.277.634 4.5 4.5 0 01-1.408.224c-2.642-.102-3.162-1.327-3.205-3.533l.195-4.208c0-.755-.108-1.307-.282-1.797.174-.143.499-.347 1.083-.612.174-.041.26-.041.303-.041.607 0 .888.408.975.755.13.47.238.92.238 1.961m11.197-2.635c1.364.102 2.014.633 2.1.92 0 .265-.194.755-.432 1.04-.087-.02-.325-.06-.434-.08-.238-.042-.476-.082-.714-.164a2.742 2.742 0 00-.975-.184c-.758 0-1.234.388-1.234.94 0 .326.13.612.584.96.239.163.564.388.91.612.411.307.888.613 1.256.879.91.714 1.343 1.43 1.343 2.287 0 1.94-1.69 2.92-3.79 2.92-1.408 0-2.62-.408-2.88-.98 0-.306.173-.776.433-1.103h.216c.195 0 .412.062.65.184v-.02c.455.184 1.018.327 1.538.327.108 0 .26-.02.39-.041.65-.062 1.039-.49 1.039-1.103 0-.45-.217-.838-.823-1.226-.087-.061-.303-.204-.26-.163a21.759 21.759 0 01-1.473-1.082l-.541-.409c-.671-.633-.996-1.266-.996-1.981 0-1.614 1.407-2.573 3.465-2.573.238 0 .476.02.628.04m12.244.225c.173.327.195.613.195 1.47v6.843c0 .47-.087.796-.304 1.123-.151.225-.52.225-2.014.265v-1.674c0-.593.022-1.226.022-1.88v-3.553c0-.92-.022-1.552-.043-2.083.26-.511.996-.572 1.97-.572l.174.06m4.764 2.227l.065-.061v6.29c0 .45-.043.695-.26.98-.303.246-.54.246-1.494.266h-.563c.021-1.082.043-2.47.043-4.023v-3.431c0-.654-.087-1.124-.238-1.532.151-.164.433-.327.91-.51.13-.042.26-.042.303-.042.39 0 .65.184.78.43.432-.287.887-.49 1.277-.613a4.497 4.497 0 011.408-.225c2.707 0 3.227 1.307 3.227 3.635v3.084c0 1.103.021 2.104.043 2.9-.281.246-.672.327-2.1.327a1.82 1.82 0 01-.239-.919v-5.35c0-1.471-.368-2.002-1.472-2.002-.694 0-1.257.347-1.69.796m11.392-2.451c1.364.102 2.014.633 2.1.92 0 .265-.194.755-.433 1.04-.086-.02-.324-.06-.433-.08a4.49 4.49 0 01-.715-.164 2.74 2.74 0 00-.974-.184c-.758 0-1.234.388-1.234.94 0 .326.13.612.584.96.238.163.563.388.91.612.411.307.888.613 1.256.879.91.714 1.343 1.43 1.343 2.287 0 1.94-1.69 2.92-3.79 2.92-1.408 0-2.62-.408-2.88-.98 0-.306.173-.776.433-1.103h.216c.195 0 .412.062.65.184v-.02c.455.184 1.017.327 1.537.327.109 0 .26-.02.39-.041.65-.062 1.04-.49 1.04-1.103 0-.45-.217-.838-.823-1.226-.087-.061-.303-.204-.26-.163a21.922 21.922 0 01-1.473-1.082l-.541-.409c-.672-.633-.996-1.266-.996-1.981 0-1.614 1.407-2.573 3.465-2.573.238 0 .476.02.628.04m6.15.225c.173.327.195.613.195 1.47v6.843c0 .47-.087.796-.303 1.123-.152.225-.52.225-2.014.265v-1.674c0-.593.021-1.226.021-1.88v-3.553c0-.92-.021-1.552-.043-2.083.26-.511.997-.572 1.971-.572l.173.06m4.44 3.248c.108 1.287.628 2.084 1.69 2.084.973 0 1.363-.96 1.255-2.247-.13-1.246-.671-1.981-1.646-1.981-.845 0-1.451.694-1.3 2.144m1.43 3.472c-.39 0-.65-.02-.91-.06l-.433.408a.4.4 0 00-.108.286c0 .183.39.367 1.105.428l.844.062c.347.02.693.061 1.04.081.281.021.585.041.78.082 1.342.245 2.273.96 2.338 2.165 0 1.797-1.97 3.84-4.656 4.432a12.01 12.01 0 01-2.014.184c-1.083 0-2.08-.225-2.296-.899-.216-1.02 1.971-2.778 3.335-3.635.542.265.672.96.282 1.307-.693.551-1.451 1.266-1.364 1.634.043.163.26.204.54.204.434 0 1.062-.122 1.452-.184 1.43-.367 2.534-1.654 2.512-2.491v-.286c-.173-.43-.39-.776-1.126-.858a16.639 16.639 0 00-1.45-.102c-.131 0-.282-.02-.412-.02-.997-.082-1.646-.287-1.646-.287-1.062-.306-1.603-.857-1.625-1.47 0-.143.109-.286.282-.49.303-.286.715-.613 1.04-.899.108-.082.086-.102.172-.184-.93-.551-1.385-1.511-1.385-2.777 0-2.308 1.602-3.615 3.833-3.615.758 0 1.43.245 1.927.47-.043-.021-.065-.042 0-.083.477-.02 1.084-.04 1.538-.06h-.021c.28-.021.736-.042.952-.042.087.164.174.409.174.695 0 .53-.26.919-.78.919-.303 0-.433 0-.693-.02.347.51.498 1 .498 1.654 0 2.185-1.408 3.451-3.725 3.451m5.956 2.88c.021-1.164.043-2.532.043-4.187v-7.7c0-.837-.022-1.43-.043-1.879.281-.53.974-.633 2.057-.633.173.307.239.593.239 1.43v3.88a7.208 7.208 0 011.039-.53c.39-.144.888-.245 1.473-.245 2.252 0 2.88 1.123 2.88 3.88v2.962c0 1.102 0 2.062.022 2.798-.26.265-.585.326-2.123.326a2.696 2.696 0 01-.195-1.02v-4.882c0-.368 0-.633-.043-.838-.065-1.204-.52-1.531-1.17-1.531-.736 0-1.407.388-1.883.817v6.107c0 .408-.044.735-.24 1.061-.389.286-.648.286-1.862.286l-.194-.102m15.376-1.593c.022.123.043.286.043.47s0 .409-.021.572c-.043.143-.152.265-.303.388-.499.306-1.321.49-2.014.49-2.166 0-2.578-1.818-2.578-3.493v-4.86a3.224 3.224 0 01-1.277-.286c0-.593.021-.593.194-.756.325-.204.65-.286.932-.368.173-.04.216 0 .346-.06.022-.573.087-1.206.109-1.778.173-.47.736-.858 2.035-.94v.328c-.021.857-.043 1.51-.043 2.287h2.75c-.064 1.144-.238 1.41-.67 1.49-.153.021-.37.042-.542.042-.433.02-.737.02-1.538.02-.022.899-.043 1.777-.043 2.635 0 .47.021.899.021 1.327v1.001c.087 1.063.238 1.818.931 1.818.282.02 1.148-.266 1.3-.388l.368.061m-91.399-8.006c.173.327.195.613.195 1.47v6.843c0 .47-.087.796-.304 1.123-.151.225-.52.225-2.014.265v-1.674c0-.593.022-1.226.022-1.88v-3.553c0-.92-.022-1.552-.044-2.083.26-.511.997-.572 1.971-.572l.174.06m43.288-34.064c7.066-7.14 3.488-11.982 1.185-12.598-5.53-1.384-9.907 1.077-12.901 3.998-8.678 9.38-4.73 20.378-4.355 21.983-4.16-3.543-7.463-10.76-5.697-19.139C35.277 5.106 44.637.948 52.11.956c2.328.016 15.411.845 13.645 12.76-1.153 4.23-6.407 7.765-11.552 8.216zm-4.44-3.291c-2.849 7.453-.039 13.893 6.343 13.967 7.751.094 14.502-6.871 15.87-11.444.023 8.904-5.847 14.285-8.961 16.34-3.117 2.052-9.172 4.506-16.563 2.392-3.417-4.184-4.4-17.149 3.311-21.255z" fill="#fff" fill-rule="evenodd"/></svg>