<svg xmlns="http://www.w3.org/2000/svg" width="56" height="57"><g fill="none" fill-rule="evenodd"><path d="M-32-7H88v70H-32z"/><path d="M27.831 47.772a4.489 4.489 0 00-4.478 4.495 4.489 4.489 0 004.487 4.486 4.489 4.489 0 004.487-4.486 4.489 4.489 0 00-4.478-4.495h-.018m-14.401.23a4.484 4.484 0 00.714 4.928 4.474 4.474 0 007.798-2.767 4.482 4.482 0 00-2.546-4.278 4.585 4.585 0 00-1.964-.451 4.422 4.422 0 00-4.002 2.57m22.809-2.191a4.46 4.46 0 00.526 8.223 4.453 4.453 0 004.784-1.276 4.462 4.462 0 00.652-4.912 4.374 4.374 0 00-3.963-2.5 4.573 4.573 0 00-2 .465M6.344 39.847a4.483 4.483 0 00-.656 6.302 4.474 4.474 0 006.297.657 4.503 4.503 0 001.372-4.973 4.496 4.496 0 00-4.197-2.995 4.481 4.481 0 00-2.816 1.009m36.619.563a4.419 4.419 0 00.077 5.488 4.409 4.409 0 005.36 1.172 4.417 4.417 0 00-1.93-8.38 4.473 4.473 0 00-3.506 1.72M3.472 29.413a4.48 4.48 0 002.066 8.719 4.484 4.484 0 003.392-4.867 4.481 4.481 0 00-4.403-3.974c-.355 0-.709.04-1.055.121m43.208 3.205a4.455 4.455 0 108.7 1.926 4.46 4.46 0 00-3.385-5.317 4.544 4.544 0 00-1.011-.115 4.42 4.42 0 00-4.303 3.506M.111 22.185A4.65 4.65 0 000 23.13v.12a4.397 4.397 0 003.503 4.284 4.48 4.48 0 004.649-1.795 4.49 4.49 0 00.118-4.986 4.48 4.48 0 00-8.159 1.432m49.872-3.577a4.396 4.396 0 001.602 8.627 4.395 4.395 0 003.846-4.634 4.393 4.393 0 00-5.448-3.993M5.505 10.793a4.463 4.463 0 002.838 7.222 4.454 4.454 0 004.155-1.693 4.468 4.468 0 00.532-4.712 4.46 4.46 0 00-4.005-2.534 4.471 4.471 0 00-3.52 1.717m38.061-.863a4.483 4.483 0 002.294 7.953 4.475 4.475 0 004.417-2.287 4.483 4.483 0 00-.42-4.96 4.501 4.501 0 00-3.518-1.71 4.321 4.321 0 00-2.773 1.003M15.29 2.89a4.456 4.456 0 00-2.206 5.497 4.45 4.45 0 008.61-2.01A4.452 4.452 0 0015.29 2.89m18.745 2a4.482 4.482 0 002.098 5.978 4.474 4.474 0 005.973-2.1 4.482 4.482 0 00-2.098-5.978 4.546 4.546 0 00-1.972-.453 4.373 4.373 0 00-4 2.555M27.556 0a4.421 4.421 0 00-4.446 4.512 4.479 4.479 0 004.528 4.39 4.48 4.48 0 004.425-4.495A4.442 4.442 0 0027.605 0h-.05zm2.532 19.613a1.667 1.667 0 112.627 1.947 1.667 1.667 0 01-1.838.264 1.647 1.647 0 01-.789-2.211m3.546 1.876a1.666 1.666 0 012.71 1.471 1.668 1.668 0 01-2.96.864 1.65 1.65 0 01.25-2.335m2.389 3.231a1.666 1.666 0 011.808 2.5 1.666 1.666 0 01-3.042-.505 1.648 1.648 0 011.234-1.995m.748 3.954a1.668 1.668 0 11-1.978 1.261 1.647 1.647 0 011.978-1.261m-1.033 3.884a1.669 1.669 0 01-.824 2.974 1.666 1.666 0 01-1.504-2.694 1.647 1.647 0 012.328-.28m-2.613 3.048a1.67 1.67 0 01-2.032 2.32 1.668 1.668 0 01-.188-3.08 1.645 1.645 0 012.22.76m-3.677 1.618a1.668 1.668 0 01-2.835 1.212 1.67 1.67 0 011.163-2.858 1.645 1.645 0 011.672 1.646m-4.018-.14a1.667 1.667 0 11-2.63-1.94c.5-.453 1.224-.56 1.834-.27a1.646 1.646 0 01.796 2.21m-3.555-1.867a1.666 1.666 0 01-2.714-1.464 1.668 1.668 0 012.958-.87 1.647 1.647 0 01-.244 2.334m-2.399-3.229a1.666 1.666 0 01-1.808-2.5 1.666 1.666 0 013.042.505 1.65 1.65 0 01-1.234 1.995m-.759-3.945a1.668 1.668 0 111.975-1.268 1.647 1.647 0 01-1.975 1.268m1.025-3.889a1.669 1.669 0 01.818-2.975 1.666 1.666 0 011.51 2.69 1.646 1.646 0 01-2.328.285m2.6-3.054a1.67 1.67 0 012.023-2.33 1.668 1.668 0 01.2 3.08 1.644 1.644 0 01-2.223-.75m3.676-1.625a1.668 1.668 0 012.831-1.22 1.67 1.67 0 01-1.152 2.862 1.645 1.645 0 01-1.679-1.642m2.439-7.315c-.43 1.56 1.466 5.572 1.512 5.667.12-.081 3.775-2.532 4.2-4.09a2.964 2.964 0 10-5.712-1.577m7.009 1.956c-1.07 1.235-1.062 5.767-1.062 5.767s4.476-.651 5.547-1.89a2.968 2.968 0 00-1.673-4.885 2.962 2.962 0 00-2.812 1.008m5.335 4.789c-1.502.646-3.477 4.72-3.477 4.72s4.309 1.379 5.813.735a2.969 2.969 0 001.513-3.878 2.964 2.964 0 00-3.849-1.577m-2.311 9.478s3.303 3.091 4.935 3.155a2.965 2.965 0 003.033-2.854 2.966 2.966 0 00-2.81-3.075h-.053c-1.659 0-5.11 2.776-5.11 2.776m-.938 4.521s1.603 4.234 3.045 5.01a2.962 2.962 0 004.367-2.702 2.967 2.967 0 00-1.558-2.524 3.978 3.978 0 00-1.762-.295 22.534 22.534 0 00-4.093.511m-2.386 9.702a2.962 2.962 0 004.144.633 2.969 2.969 0 00.633-4.148c-.97-1.321-5.383-2.32-5.383-2.32s-.363 4.514.606 5.833m-6.911 1.698a2.964 2.964 0 105.831-1.069c-.295-1.615-3.827-4.44-3.827-4.44s-2.3 3.894-2.004 5.51m-7.055-1.314a2.964 2.964 0 105.727 1.536c.424-1.581-1.554-5.654-1.554-5.654s-3.75 2.534-4.176 4.117m-5.611-4.202a2.97 2.97 0 001.71 4.846 2.963 2.963 0 002.795-.989c1.066-1.245 1.033-5.773 1.033-5.773s-4.475.673-5.539 1.916m-3.429-6.305a2.967 2.967 0 00-1.497 3.918 2.962 2.962 0 003.915 1.497c1.494-.665 3.406-4.772 3.406-4.772a20.259 20.259 0 00-4.622-.833c-.41-.018-.82.047-1.204.19M8.994 28.13a2.966 2.966 0 002.857 3.07c1.634.06 5.155-2.784 5.155-2.784s-3.308-3.085-4.946-3.145h-.108a2.964 2.964 0 00-2.958 2.862m1.826-7.968a2.966 2.966 0 001.267 3.998c1.454.756 5.85-.3 5.85-.3s-1.667-4.21-3.12-4.964a2.96 2.96 0 00-3.997 1.266m5.367-6.607a2.97 2.97 0 00-.609 4.151C16.554 19.024 20.972 20 20.972 20s.342-4.517-.635-5.83a2.963 2.963 0 00-4.15-.612m7.534-3.518a2.968 2.968 0 00-2.328 3.488c.32 1.606 3.891 4.384 3.891 4.384s2.24-3.933 1.92-5.54a2.963 2.963 0 00-3.484-2.331" fill="#000"/></g></svg>