<svg width="96" height="98" xmlns="http://www.w3.org/2000/svg"><path d="M47.71 82.134c-4.244.008-7.68 3.467-7.676 7.728.005 4.261 3.447 7.713 7.692 7.713s7.687-3.452 7.691-7.713c.004-4.26-3.43-7.72-7.676-7.728h-.03m-24.689.396a7.727 7.727 0 001.225 8.472 7.656 7.656 0 008.267 2.105 7.7 7.7 0 005.1-6.861 7.708 7.708 0 00-4.364-7.356 7.84 7.84 0 00-3.366-.776 7.58 7.58 0 00-6.862 4.42m39.101-3.768a7.672 7.672 0 00-4.254 7.372 7.662 7.662 0 005.157 6.766c2.924 1 6.16.135 8.2-2.194a7.69 7.69 0 001.119-8.446 7.497 7.497 0 00-6.795-4.298 7.82 7.82 0 00-3.427.8M10.876 68.509C7.584 71.189 7.08 76.04 9.75 79.344a7.654 7.654 0 0010.795 1.129 7.756 7.756 0 002.351-8.55 7.71 7.71 0 00-7.194-5.15 7.669 7.669 0 00-4.827 1.736m62.777.966a7.614 7.614 0 00.131 9.438 7.544 7.544 0 009.186 2.015 7.6 7.6 0 004.042-8.522 7.57 7.57 0 00-7.35-5.887 7.66 7.66 0 00-6.01 2.956M5.952 50.57c-4.124.982-6.674 5.133-5.696 9.273.978 4.14 5.114 6.7 9.238 5.717 3.763-.918 6.256-4.505 5.815-8.367-.44-3.862-3.676-6.79-7.548-6.832-.609 0-1.216.07-1.809.207m74.07 5.511c-.91 4.134 1.69 8.225 5.808 9.14 4.118.914 8.194-1.695 9.106-5.828.913-4.133-1.685-8.226-5.802-9.143a7.769 7.769 0 00-1.733-.198 7.581 7.581 0 00-7.376 6.029M.19 38.143A8.018 8.018 0 000 39.765v.208a7.554 7.554 0 006.006 7.364 7.67 7.67 0 007.969-3.086 7.737 7.737 0 00.203-8.572 7.672 7.672 0 00-7.814-3.463A7.696 7.696 0 00.19 38.142m85.496-6.15c-3.861.968-6.304 4.786-5.577 8.713.727 3.928 4.374 6.609 8.323 6.12 3.95-.49 6.838-3.98 6.593-7.966-.245-3.988-3.539-7.095-7.519-7.092-.613 0-1.225.076-1.82.225M9.437 18.556a7.692 7.692 0 00-1.17 7.631 7.645 7.645 0 006.035 4.786 7.626 7.626 0 007.124-2.91 7.7 7.7 0 00.911-8.103 7.645 7.645 0 00-6.866-4.355 7.656 7.656 0 00-6.034 2.951m65.248-1.484a7.72 7.72 0 00-2.586 8.156 7.682 7.682 0 006.518 5.519 7.666 7.666 0 007.573-3.933 7.727 7.727 0 00-.722-8.529 7.708 7.708 0 00-6.03-2.94 7.394 7.394 0 00-4.753 1.727M26.213 4.97c-3.468 1.73-5.094 5.793-3.784 9.45 1.31 3.658 5.142 5.75 8.913 4.867s6.285-4.462 5.847-8.324c-.437-3.862-3.687-6.782-7.56-6.793a7.692 7.692 0 00-3.416.8m32.132 3.438c-1.833 3.836-.222 8.437 3.598 10.277 3.82 1.841 8.404.224 10.238-3.61 1.834-3.835.224-8.437-3.596-10.278a7.774 7.774 0 00-3.38-.779 7.496 7.496 0 00-6.858 4.392M47.239 0a7.568 7.568 0 00-5.44 2.266 7.627 7.627 0 00-2.182 5.49c.086 4.229 3.55 7.597 7.763 7.548 4.213-.05 7.598-3.498 7.586-7.727C54.93 3.37 51.514-.017 47.323 0h-.084zm4.341 33.72a2.858 2.858 0 012.724-1.65 2.86 2.86 0 012.558 1.9 2.877 2.877 0 01-.78 3.098 2.85 2.85 0 01-3.15.455 2.828 2.828 0 01-1.47-1.617 2.842 2.842 0 01.118-2.186m6.079 3.226a2.848 2.848 0 013.166-.297 2.87 2.87 0 011.479 2.826 2.865 2.865 0 01-2.041 2.448 2.85 2.85 0 01-3.032-.962 2.843 2.843 0 01.428-4.015m4.095 5.555a2.852 2.852 0 012.984 1.107c.68.942.725 2.202.115 3.19a2.853 2.853 0 01-5.214-.867 2.84 2.84 0 01.342-2.16 2.82 2.82 0 011.773-1.27m1.282 6.798a2.873 2.873 0 01.931 5.222 2.848 2.848 0 01-3.18-.073 2.873 2.873 0 01-1.142-2.98 2.832 2.832 0 011.243-1.797 2.812 2.812 0 012.148-.372m-1.77 6.679a2.874 2.874 0 01.999 3.031 2.854 2.854 0 01-5.248.631 2.877 2.877 0 01.258-3.182 2.817 2.817 0 013.991-.48m-4.48 5.239a2.877 2.877 0 01-.411 3.166 2.85 2.85 0 01-3.073.822 2.867 2.867 0 01-1.927-2.539 2.87 2.87 0 011.606-2.755 2.813 2.813 0 012.175-.147 2.827 2.827 0 011.63 1.453m-6.303 2.782a2.869 2.869 0 01-1.734 2.677 2.85 2.85 0 01-3.126-.593 2.876 2.876 0 01-.643-3.126 2.857 2.857 0 012.636-1.787 2.816 2.816 0 012.023.812c.54.532.843 1.258.844 2.017m-6.889-.24a2.856 2.856 0 01-2.719 1.656 2.858 2.858 0 01-2.56-1.893 2.876 2.876 0 01.77-3.098c.857-.78 2.1-.964 3.145-.464a2.827 2.827 0 011.476 1.612 2.84 2.84 0 01-.112 2.187M37.5 60.55a2.848 2.848 0 01-3.166.305 2.87 2.87 0 01-1.486-2.823 2.865 2.865 0 012.036-2.453 2.85 2.85 0 013.034.957 2.838 2.838 0 01-.418 4.013m-4.113-5.551a2.852 2.852 0 01-2.984-1.107 2.877 2.877 0 01-.115-3.191 2.853 2.853 0 015.214.868 2.845 2.845 0 01-.344 2.158 2.825 2.825 0 01-1.771 1.272m-1.3-6.784a2.873 2.873 0 01-.948-5.219 2.848 2.848 0 013.18.063 2.873 2.873 0 011.152 2.976 2.832 2.832 0 01-1.237 1.802 2.81 2.81 0 01-2.147.378m1.757-6.686a2.874 2.874 0 01-1.006-3.03 2.854 2.854 0 015.246-.644 2.877 2.877 0 01-.249 3.184 2.814 2.814 0 01-3.991.49m4.456-5.252a2.877 2.877 0 01.398-3.168 2.85 2.85 0 013.07-.835 2.866 2.866 0 011.938 2.532 2.87 2.87 0 01-1.596 2.762 2.812 2.812 0 01-2.174.155 2.825 2.825 0 01-1.635-1.446m6.302-2.793a2.869 2.869 0 011.727-2.68 2.85 2.85 0 013.126.583 2.876 2.876 0 01.654 3.124 2.857 2.857 0 01-2.63 1.796 2.816 2.816 0 01-2.028-.806 2.838 2.838 0 01-.85-2.017m4.182-12.576c-.737 2.683 2.513 9.58 2.59 9.742.206-.138 6.473-4.352 7.202-7.031.644-2.676-.944-5.382-3.588-6.114a5.078 5.078 0 00-6.204 3.403m12.015 3.363c-1.834 2.123-1.82 9.914-1.82 9.914s7.673-1.119 9.508-3.249a5.114 5.114 0 001.007-5.039 5.086 5.086 0 00-3.875-3.36 5.07 5.07 0 00-4.82 1.734m9.146 8.233c-2.576 1.111-5.96 8.116-5.96 8.116s7.385 2.37 9.964 1.263a5.11 5.11 0 002.594-6.667 5.076 5.076 0 00-6.598-2.712M65.981 48.8s5.664 5.314 8.461 5.423c2.779.067 5.096-2.119 5.2-4.907.105-2.788-2.041-5.143-4.817-5.286h-.091c-2.843 0-8.76 4.772-8.76 4.772m-1.608 7.773s2.748 7.28 5.221 8.613a5.064 5.064 0 005.079-.153 5.105 5.105 0 002.407-4.492 5.103 5.103 0 00-2.671-4.338 6.8 6.8 0 00-3.02-.508 38.48 38.48 0 00-7.018.878m-4.089 16.682a5.069 5.069 0 007.104 1.087 5.114 5.114 0 001.084-7.13c-1.662-2.273-9.228-3.99-9.228-3.99s-.621 7.76 1.04 10.028m-11.849 2.92c.506 2.771 3.153 4.606 5.914 4.099 2.76-.507 4.589-3.165 4.083-5.936-.506-2.777-6.56-7.636-6.56-7.636s-3.943 6.696-3.437 9.473m-12.094-2.257c-.727 2.721.882 5.519 3.593 6.248 2.712.73 5.498-.886 6.225-3.607.727-2.72-2.664-9.722-2.664-9.722s-6.427 4.356-7.159 7.08m-9.619-7.225a5.116 5.116 0 00-.93 5.015 5.087 5.087 0 003.862 3.316 5.071 5.071 0 004.791-1.7c1.828-2.141 1.77-9.925 1.77-9.925s-7.67 1.156-9.493 3.294m-5.881-10.84a5.105 5.105 0 00-2.564 6.735 5.072 5.072 0 006.71 2.575c2.561-1.144 5.84-8.205 5.84-8.205a34.638 34.638 0 00-7.924-1.432 5.207 5.207 0 00-2.064.327m-5.406-7.484a5.109 5.109 0 001.359 3.657 5.07 5.07 0 003.538 1.62c2.8.103 8.837-4.786 8.837-4.786s-5.67-5.305-8.479-5.408h-.185c-2.734.004-4.975 2.179-5.07 4.922m3.131-13.7a5.114 5.114 0 00-.335 3.889 5.091 5.091 0 002.506 2.985c2.491 1.298 10.028-.518 10.028-.518s-2.857-7.237-5.348-8.532a5.06 5.06 0 00-3.875-.338 5.083 5.083 0 00-2.977 2.513m9.2-11.359a5.115 5.115 0 00-1.043 7.137c1.673 2.26 9.245 3.94 9.245 3.94s.588-7.767-1.088-10.024a5.065 5.065 0 00-7.112-1.052m12.914-6.048c-2.75.55-4.537 3.234-3.991 5.996.548 2.762 6.67 7.538 6.67 7.538s3.84-6.762 3.292-9.524a5.095 5.095 0 00-2.157-3.25 5.06 5.06 0 00-3.816-.76" fill="#FFF"/></svg>