<svg xmlns="http://www.w3.org/2000/svg" width="73" height="33"><g fill="#171717" fill-rule="evenodd"><path d="M0 31.742V28.37h.933v1.376l1.125-1.376h.958l-1.22 1.495 1.315 1.876h-.98l-.886-1.354-.312.357v.997z"/><path fill-rule="nonzero" d="M4.595 31.765c-.239 0-.454-.047-.67-.142a1.995 1.995 0 01-.502-.38 1.606 1.606 0 01-.335-.546 2.02 2.02 0 01-.12-.64c0-.215.048-.428.12-.642.071-.214.191-.38.335-.546.143-.166.31-.285.526-.38.192-.095.407-.142.646-.142.24 0 .455.047.67.142.192.095.36.238.503.38.144.166.24.356.335.546.072.214.12.427.12.641 0 .214-.048.427-.12.641-.072.214-.191.38-.335.546a1.427 1.427 0 01-.526.38 1.435 1.435 0 01-.647.142zm-.67-1.709c0 .119.024.214.048.332.024.095.072.19.12.285.048.072.12.143.215.19a.667.667 0 00.311.072c.12 0 .216-.024.311-.072a.468.468 0 00.216-.213c.048-.095.096-.19.12-.285.024-.119.047-.214.047-.333 0-.118-.023-.213-.047-.332a1.446 1.446 0 00-.12-.285.564.564 0 00-.216-.19.667.667 0 00-.31-.071.667.667 0 00-.312.071c-.096.048-.143.119-.215.19-.048.095-.096.19-.12.285-.048.142-.048.237-.048.356z"/><path d="M9.646 28.37v3.372h-.934v-1.33H7.587v1.33h-.933V28.37h.933v1.234h1.125V28.37z"/><path fill-rule="nonzero" d="M10.268 31.742V28.37h1.556a.98.98 0 01.454.094c.144.072.264.167.36.262.095.118.167.237.239.38.048.142.095.284.095.427 0 .19-.047.38-.12.546a1.185 1.185 0 01-.358.403l.766 1.235h-1.053l-.647-1.045h-.359v1.045l-.933.024zm.933-1.852h.599c.048 0 .12-.024.167-.095a.424.424 0 00.072-.261c0-.119-.024-.214-.096-.261a.208.208 0 00-.167-.095H11.2v.712z"/><path d="M16.108 31.742v-1.78l-.575 1.257h-.502l-.575-1.258v1.78h-.933v-3.37h1.03l.717 1.59.742-1.59h1.03v3.37z"/><path fill-rule="nonzero" d="M17.257 31.742l1.268-3.371h.766l1.269 3.37h-.982l-.215-.664h-.91l-.191.665h-1.005zm1.651-2.422l-.311 1.14h.622l-.31-1.14z"/><path d="M21.709 30.08v1.662h-.934V28.37h.742l1.364 1.709v-1.71h.934v3.372h-.742zm3.183 2.873v-5.936h.143v5.936zm1.22-2.137s.024.024.072.024c.024.023.072.023.12.047s.096.024.167.048c.072.023.12.023.192.023a.716.716 0 00.24-.047c.071-.024.095-.071.143-.143.024-.07.048-.166.072-.285 0-.118.024-.237.024-.403v-1.71h.933v1.71c0 .261-.024.498-.048.688a1.36 1.36 0 01-.191.546c-.096.143-.24.262-.407.357-.192.07-.431.118-.742.118-.287 0-.527-.071-.742-.213l.167-.76z"/><path fill-rule="nonzero" d="M28.147 31.742l1.268-3.371h.766l1.269 3.37h-.981l-.216-.664h-.91l-.19.665h-1.006zm1.651-2.422l-.31 1.14h.622l-.312-1.14z"/><path d="M31.354 30.032c0-.213.048-.403.12-.617.072-.19.191-.38.31-.546.145-.166.312-.285.527-.38.192-.095.431-.142.695-.142.31 0 .574.071.79.19.215.142.382.308.502.522l-.718.499c-.024-.072-.072-.143-.12-.214-.048-.048-.095-.095-.143-.119-.048-.024-.12-.047-.168-.071-.072-.024-.12-.024-.167-.024a.667.667 0 00-.312.071c-.095.048-.143.12-.215.214-.048.095-.096.19-.12.285a1.38 1.38 0 00-.047.309c0 .118.023.237.047.332a.54.54 0 00.144.285c.048.071.12.142.215.19a.641.641 0 00.288.071c.048 0 .12 0 .167-.024.048-.023.12-.047.168-.07a.66.66 0 00.143-.12.467.467 0 00.096-.19l.766.452a1.079 1.079 0 01-.55.57c-.12.07-.264.118-.407.142a2.665 2.665 0 01-.407.047c-.24 0-.455-.047-.647-.142a1.636 1.636 0 01-.502-.404 1.71 1.71 0 01-.335-.57c-.072-.118-.12-.332-.12-.546zm3.327 1.71V28.37h.933v1.376l1.125-1.376h.958l-1.22 1.495 1.315 1.876h-.98l-.886-1.354-.312.357v.997zm5.385-2.279c-.096-.048-.191-.12-.287-.143a1.399 1.399 0 00-.287-.095 1.411 1.411 0 00-.311-.047.454.454 0 00-.192.047.13.13 0 00-.072.119c0 .047.024.071.048.119a.528.528 0 00.12.07c.048.025.12.048.191.072.072.024.168.048.264.071.167.048.287.095.43.166.12.048.24.12.312.19a.649.649 0 01.215.285c.048.119.072.238.072.404 0 .214-.048.38-.12.498a.969.969 0 01-.287.333c-.12.071-.263.142-.407.166-.144.047-.311.047-.455.047-.12 0-.263 0-.383-.023-.12-.024-.263-.048-.383-.071a2.367 2.367 0 01-.383-.12 1.452 1.452 0 01-.335-.165l.407-.808c.12.072.24.143.36.19.095.048.215.095.334.12.12.023.264.047.383.047a.481.481 0 00.216-.048c.048-.024.048-.071.048-.095a.18.18 0 00-.048-.119c-.048-.023-.096-.07-.168-.095-.072-.023-.143-.047-.24-.07-.095-.025-.19-.048-.286-.096-.144-.047-.288-.095-.383-.166-.12-.047-.192-.119-.264-.19a.565.565 0 01-.143-.261 1.39 1.39 0 01-.048-.332c0-.19.024-.357.096-.499.071-.142.167-.261.287-.356.12-.095.263-.166.407-.214a1.56 1.56 0 01.478-.071c.12 0 .24.024.36.024.12.024.239.047.335.095.12.047.215.07.31.118.096.048.192.072.264.12l-.455.783z"/><path fill-rule="nonzero" d="M42.388 31.765c-.24 0-.455-.047-.67-.142a1.995 1.995 0 01-.503-.38 1.606 1.606 0 01-.335-.546 2.02 2.02 0 01-.12-.64c0-.215.048-.428.12-.642.072-.214.191-.38.335-.546a1.43 1.43 0 01.527-.38c.191-.095.407-.142.646-.142.24 0 .455.047.67.142.192.095.359.238.503.38.143.166.239.356.335.546.072.214.12.427.12.641 0 .214-.048.427-.12.641-.072.214-.192.38-.335.546a1.427 1.427 0 01-.527.38 1.435 1.435 0 01-.646.142zm-.67-1.709c0 .119.024.214.048.332.024.095.071.19.12.285a.544.544 0 00.215.19.667.667 0 00.31.072c.12 0 .216-.024.312-.072a.468.468 0 00.215-.213c.048-.095.096-.19.12-.285.024-.119.048-.214.048-.333 0-.118-.024-.213-.048-.332a1.444 1.444 0 00-.12-.285.564.564 0 00-.215-.19.667.667 0 00-.311-.071.667.667 0 00-.311.071c-.096.048-.144.119-.216.19-.048.095-.095.19-.12.285-.047.142-.047.237-.047.356z"/><path d="M45.38 30.08v1.662h-.934V28.37h.718l1.365 1.709v-1.71h.933v3.372h-.742zm3.183 2.873v-5.936h.12v5.936zm1.292-1.211V28.37h.934v1.376l1.125-1.376h.957l-1.244 1.495 1.316 1.876h-.957l-.91-1.354-.287.357v.997z"/><path fill-rule="nonzero" d="M53.158 31.742V28.37h1.556c.168 0 .311.023.455.094.143.072.263.167.359.262.096.118.167.237.24.38.047.142.095.284.095.427 0 .19-.048.38-.12.546a1.185 1.185 0 01-.359.403l.766 1.235h-1.053l-.646-1.045h-.36v1.045l-.933.024zm.934-1.852h.598a.21.21 0 00.168-.095.424.424 0 00.072-.261c0-.119-.024-.214-.096-.261a.208.208 0 00-.168-.095h-.574v.712zm2.13 1.852l1.268-3.371h.766l1.269 3.37h-.981l-.216-.664h-.91l-.19.665h-1.006zm1.651-2.422l-.31 1.14h.622l-.312-1.14z"/><path d="M60.674 30.08v1.662h-.934V28.37h.742l1.365 1.709v-1.71h.91v3.372h-.719zm5.266-.902h-.982v2.564h-.933v-2.564h-.982v-.807h2.896zm.143 1.875l1.604-1.875h-1.532v-.807h2.609v.688l-1.508 1.876h1.532v.807h-2.705zM7.85 14.22h-.07v9.426H0V0h7.755v8.713h.048L14.169 0h9.43l-8.951 10.826 9.382 12.82h-9.813z"/><path d="M37.84 14.79v-3.774h2.705V0h-8.042v15.218c0 .546-.096.973-.263 1.33-.192.356-.527.522-1.053.522-.407 0-.718-.143-.958-.428a2.11 2.11 0 01-.479-.95l-6.869 2.612c.216.855.623 1.638 1.173 2.374a8.035 8.035 0 002.01 1.9c.766.546 1.652.95 2.61 1.258a9.967 9.967 0 003.063.475c1.82 0 3.303-.285 4.452-.879 1.149-.57 2.034-1.33 2.704-2.231a8.105 8.105 0 001.34-3.04c.24-1.115.36-2.207.36-3.275v-.095H37.84zm21.541-3.964L68.357 0h-9.43L52.56 8.713h-.072V0h-7.73v9.568h2.68v3.727h-2.68v10.351h7.778v-9.425h.048l6.366 9.425h9.838z"/><path fill-rule="nonzero" d="M43.106 8.072v2.896h2.92v.903h-3.83v-3.8h.91zm.503-.499H41.67v4.796h4.835v-1.923h-2.92V7.573h.024z"/><path fill-rule="nonzero" d="M43.106 12.44v3.799h-.934v-2.897h-2.896v-.925l3.83.023zm.503-.498h-4.835v1.923h2.896v2.896h1.939v-4.819zm27.668-8.951a1.496 1.496 0 100-2.991 1.496 1.496 0 100 2.991zm0-.166a1.312 1.312 0 01-1.317-1.33c0-.735.575-1.305 1.317-1.305s1.316.593 1.316 1.33c-.024.712-.574 1.305-1.316 1.305zm-.55-.546h.239v-.688h.335l.383.688h.263l-.383-.712c.215-.048.359-.19.359-.451 0-.309-.215-.475-.598-.475h-.575c-.024.024-.024 1.638-.024 1.638zm.239-.878V.855h.335c.239 0 .383.07.383.26 0 .214-.144.286-.383.286h-.335z"/></g></svg>