<svg width="71" height="48" fill="none" xmlns="http://www.w3.org/2000/svg"><path fill-rule="evenodd" clip-rule="evenodd" d="M.723 5.616C.723 2.528 3.21 0 6.255 0h58.43c3.044 0 5.535 2.528 5.535 5.616v36.602c0 3.085-2.5 5.585-5.586 5.585H6.309a5.586 5.586 0 01-5.586-5.585V5.616zm45.375 17.662h15.016c.469 0 .85-.386.85-.862V18.36a.856.856 0 00-.85-.862H46.098a.856.856 0 00-.85.862v4.056c0 .476.381.862.85.862zm-1.429-12.696c-3.442 0-6.235 2.833-6.235 6.328l.001 19.452c0 .477.38.863.85.863h4.021a.855.855 0 00.848-.863l-.001-18.014c0-1.084.866-1.963 1.933-1.963l15.11.003a.856.856 0 00.848-.863V11.44a.856.856 0 00-.849-.862l-16.526.004zM12.843 36.783l10.396-18.952a2.786 2.786 0 012.438-1.449l4.01.003c1.069 0 1.934.879 1.934 1.963l-.002 18.015c0 .476.38.863.848.863h4.021c.47 0 .85-.387.85-.863V16.91c0-3.495-2.793-6.328-6.235-6.328l-5.44.003c-3.21 0-6.007 1.802-7.46 4.465L6.723 35.972a.854.854 0 00-.099.4c0 .47.374.85.837.85l4.65-.001c.316 0 .59-.177.732-.438zm11.35-18.399l-9.65 17.588a.871.871 0 00-.098.401c0 .469.374.849.835.849l4.652-.001c.316 0 .59-.177.732-.438l7.17-13.073a.831.831 0 01.727-.432h1.123c.47 0 .85-.386.85-.862V18.36a.856.856 0 00-.85-.862h-4.003c-.64 0-1.197.357-1.488.886z" fill="#171717"/></svg>