<svg xmlns="http://www.w3.org/2000/svg" width="47" height="41"><path d="M44.55 33.85H1.969a.966.966 0 01-.968-.966V1.966A.965.965 0 011.968 1H44.55c.535 0 .968.432.968.966v30.918a.966.966 0 01-.968.966zm-16.452 1.933v3.864m-8.71 0v-3.864m12.581 3.864H15.517M1 28.053h44.519m-23.227 2.899h2.903M3.903 4.865h7.743M7.775 8.729h2.903m.968 0h11.613M7.775 12.594h8.71m.968 0h3.871m-13.549 7.73h2.903m.968 0h18.388M7.775 24.188h8.71m.968 0h3.871M3.903 16.459h8.711" fill="none" stroke="#1476F2" stroke-linecap="round" stroke-width="1.5"/></svg>