<svg xmlns="http://www.w3.org/2000/svg" width="42" height="42"><g fill="none" fill-rule="evenodd" stroke="#1476F2" stroke-linecap="round" stroke-width="1.5"><path d="M31.44 17.772H10.128v-6.809c0-.47.38-.85.852-.85h19.607a.85.85 0 01.853.85v6.809zm0 0v7.66H10.128v-7.66"/><path d="M31.44 25.432v6.808c0 .47-.381.851-.853.851H10.98a.85.85 0 01-.852-.85v-6.81m2.557-11.063h1.705m-1.705 7.659h1.705m-1.705 7.66h1.705M4.16 19.474V7.56a3.407 3.407 0 013.41-3.404h13.64"/><path d="M18.652 1.602l2.558 2.553-2.558 2.553M6.718 24.581L4.16 22.027l-2.557 2.554M23.767 4.155H34.85a3.407 3.407 0 013.41 3.404v13.617m0 2.554v11.063a3.408 3.408 0 01-3.41 3.405H21.21"/><path d="M23.767 35.644l-2.557 2.554 2.557 2.553m-5.115-2.553H7.57a3.408 3.408 0 01-3.41-3.405V22.027m31.542-3.404l2.558 2.553 2.557-2.553"/></g></svg>