<svg xmlns="http://www.w3.org/2000/svg" width="48" height="42"><g fill="none" fill-rule="evenodd" stroke="#1476F2" stroke-linecap="round" stroke-width="1.5"><path d="M36.059 28h4.006c3.873 0 7.012-3.134 7.012-7s-3.14-7-7.012-7c-.744 0-1.46.117-2.133.332.083-.432.13-.876.13-1.333 0-3.866-3.14-7-7.012-7-1.752 0-3.35.646-4.578 1.707C25.105 3.804 21.395 1 17.02 1 11.489 1 7.003 5.478 7.003 11.002c0 1.055.165 2.07.469 3.024C3.852 14.303 1 17.315 1 21c0 3.865 3.14 7 7.012 7h3.005"/><path d="M7.47 14.02a6.983 6.983 0 014.245 1.035M26.488 7.7c.255.73.43 1.5.509 2.297m10.938 4.336a6.954 6.954 0 01-.875 2.274M31.05 41H16.025a3.002 3.002 0 01-3.005-3v-1c0-1.657 1.345-3 3.005-3H31.05a3.002 3.002 0 013.005 3v1c0 1.657-1.345 3-3.005 3zm0-7H16.025a3.002 3.002 0 01-3.005-3v-1c0-1.657 1.345-3 3.005-3H31.05a3.002 3.002 0 013.005 3v1c0 1.657-1.345 3-3.005 3zm0-7H16.025a3.002 3.002 0 01-3.005-3v-1c0-1.657 1.345-3 3.005-3H31.05a3.002 3.002 0 013.005 3v1c0 1.657-1.345 3-3.005 3z"/></g></svg>