<svg xmlns="http://www.w3.org/2000/svg" width="44" height="42"><g fill="none" fill-rule="evenodd" stroke="#1476F2" stroke-linecap="round" stroke-width="1.5"><path d="M42.28 19.182a3.639 3.639 0 01-3.642 3.636 3.64 3.64 0 01-3.642-3.636c0-2.009 1.63-3.637 3.642-3.637s3.643 1.628 3.643 3.637zm0-14.546a3.639 3.639 0 01-3.642 3.637 3.64 3.64 0 01-3.642-3.637c0-2.008 1.63-3.636 3.642-3.636s3.643 1.628 3.643 3.636zm-33.995 0a3.64 3.64 0 01-3.643 3.637A3.64 3.64 0 011 4.636C1 2.628 2.63 1 4.642 1s3.643 1.628 3.643 3.636zm30.353 3.637l-.075 7.227M34.996 4.636H8.285M1 22.818c0-2.008 1.63-3.636 3.642-3.636s3.643 1.628 3.643 3.636a3.64 3.64 0 01-3.643 3.637A3.64 3.64 0 011 22.818zm0 14.546c0-2.009 1.63-3.637 3.642-3.637s3.643 1.628 3.643 3.637A3.639 3.639 0 014.642 41 3.64 3.64 0 011 37.364zm33.996 0c0-2.009 1.63-3.637 3.642-3.637s3.643 1.628 3.643 3.637A3.639 3.639 0 0138.638 41a3.64 3.64 0 01-3.642-3.636zM4.642 33.728l-.136-7.227m3.778 10.863h26.711M19.143 20.97a2.859 2.859 0 002.862 2.857 2.859 2.859 0 002.861-2.857 2.858 2.858 0 00-2.861-2.857 2.86 2.86 0 00-2.862 2.857z"/><path d="M31.991 18.717l-1.057-2.747-2.623.776a7.56 7.56 0 00-1.754-1.842l.914-2.577-2.694-1.197-1.306 2.404a7.535 7.535 0 00-2.545-.069L19.748 11l-2.752 1.056.777 2.619a7.544 7.544 0 00-1.845 1.751l-2.58-.911-1.2 2.687 2.409 1.304a7.513 7.513 0 00-.069 2.541l-2.47 1.176 1.056 2.748 2.625-.776a7.478 7.478 0 001.754 1.84l-.914 2.578 2.693 1.197 1.306-2.403a7.562 7.562 0 002.545.068l1.178 2.465 2.753-1.055-.778-2.619a7.54 7.54 0 001.844-1.751l2.582.912 1.199-2.69-2.407-1.303a7.532 7.532 0 00.068-2.54l2.47-1.177z"/></g></svg>