<svg width="138" height="38" fill="none" xmlns="http://www.w3.org/2000/svg"><path fill-rule="evenodd" clip-rule="evenodd" d="M136.294 13.68h-11.913a.646.646 0 01-.646-.646v-.863c0-.357.241-.7.671-.749.37-.042 11.887-1.178 11.887-1.178.539-.054.985.44.985.987v1.461a.986.986 0 01-.984.988zm-6.065 1.924c5.181 0 7.462 3.868 7.462 7.74 0 .823-.397 1.307-1.284 1.307h-9.632c.103 1.743 1.478 3.314 3.463 3.314 1.404 0 2.353-.508 3.001-1.463.202-.298.539-.496.95-.496h2.265c.521.001.771.49.691.861-.59 2.757-3.715 4.436-6.886 4.436-4.631 0-7.509-3.726-7.509-7.959 0-3.972 2.687-7.74 7.479-7.74zm3.449 6.085c-.154-1.713-1.682-2.977-3.449-2.977-1.77 0-3.27 1.265-3.426 2.977h6.875zm-13.31 9.331h-1.727a1.17 1.17 0 01-1.166-1.174V11.691c0-.649.52-1.176 1.166-1.176h1.726c.646 0 1.166.525 1.166 1.173v18.155a1.171 1.171 0 01-1.165 1.177zm-4.525-12.037h-2.628l.003 6.72c0 1.317.795 2.22 2.215 2.22l.239-.003a.89.89 0 01.891.89v1.32a.89.89 0 01-.889.892h-1.585c-2.963 0-4.829-2.26-4.829-4.775l-.002-7.265h-.849a.819.819 0 01-.817-.82v-1.216a.82.82 0 01.82-.82l.846.001-.002-4.466a1.138 1.138 0 011.137-1.144h1.685c.628 0 1.137.515 1.137 1.148v4.462h2.626a.82.82 0 01.82.82v1.216c0 .454-.367.82-.818.82zm-9.29 1.417h-1.866c-.467 0-.807-.079-.982-.49-.366-.853-1.381-1.349-2.738-1.349-1.27 0-2.287.377-2.287 1.484 0 .731.791 1.01 1.64 1.231.476.123 2.666.682 3.577.916 2.329.594 3.761 2.083 3.761 4.234 0 3.713-3.838 4.863-6.593 4.863-3.884 0-6.7-2.208-6.7-4.319v-.244c0-.435.381-.72.712-.72h1.898c.565 0 .937.076 1.15.612.368.922 1.65 1.5 2.938 1.5 1.356 0 2.602-.404 2.602-1.59 0-.752-.781-1.02-1.654-1.25-.81-.214-2.472-.627-3.447-.883-2.137-.56-3.874-1.877-3.874-4.088 0-2.89 2.487-4.705 6.276-4.705 3.663 0 6.249 1.946 6.249 4.127a.68.68 0 01-.662.671zm-.533-6.62H77.542l.001 15.948c0 .713-.573 1.292-1.283 1.292h-2.356c-.96 0-1.624-.487-2.015-1.144-.29-.485-7.079-12.814-7.079-12.814l.104 12.663a1.29 1.29 0 01-1.283 1.295h-1.646c-.71 0-1.283-.579-1.283-1.292V11.663c0-.712.573-1.29 1.283-1.29h2.565c.98 0 1.688.538 2.017 1.125.351.622 7.074 12.83 7.074 12.83l-.107-12.318c0-.713.573-1.292 1.282-1.292h31.202a.88.88 0 01.879.88v1.303a.873.873 0 01-.877.88zM53.98 31.992a44.24 44.24 0 01-3.742-2.348l1.428 4.221c.366 1.08 0 1.208-.644 1.208-.645 0-1.227-.153-1.58.076-.355.228-.798.853-1.329 1.4-.468.482-1.15.356-1.289-.548l-1.713-10.418a39.167 39.167 0 01-3.127-3.15c-.438-.19-.873-.387-1.304-.592-.062 1.151.048 2.286.157 2.652.003.023.002.056-.022.08-.244.245-.88.957-.88.957l.013 1.882c0 .058-.019.086-.07.158a4.198 4.198 0 01-.54.586c-.437.426-3.107 2.288-4.374 2.852-1.27.591-2.598.96-3.193 1.156a26.25 26.25 0 01-2.1.101c-.674 0-3.517-.074-4.488-.089-.36-.007-1.597.176-2.652.383-.589.115-1.057.28-1.422.362-.238.054-.463.051-.53.051-1.17 0-2.302-.483-2.99-.858-1.309.635-4.267 3.158-4.798 3.577-.53.42-1.072.781-1.264.94-.897.343-1.842.627-2.7.627-.372 0-.654-.039-.795-.232-.366-.509-1.2-1.1-2.265-1.077-.392.01-.642.047-.756.097-.575-.269-1.043-.682-1.529-1.605-.487-.923-.717-2.299-.717-2.736 0-.496-.008-.983.047-1.42.077-.61.26-1.15.435-1.456.266-.152.584-.352.866-.387 1.41-.178 3.37-.979 4.35-1.366-.72-.68-1.716-1.997-1.897-2.213-.512-.617-.417-1.248-.53-1.82l-.9-1.925c-.127-.229-.134-.276.028-.458.185-.208.413-.439.413-.67 0-.139-.479-.854-.575-.988-.095-.133-.08-.23.142-.37.342-.218.522-.395.522-.878 0-.204-.076-.42-.076-.61 0-1.154 2.075-1.794 5.182-2.149.29-.393.588-.775.892-1.145-1.002.06-3.417.345-4.036.406l.465-.829c.828.113 3.26-.122 4.195-.308.066-.075.131-.15.198-.224-.878-1.017-3.24-3.415-3.445-3.632 0 0 .211-.582.426-.849.545 1.135 2.55 3.214 3.532 3.926 1.878-1.988 3.846-3.54 5.39-4.554.713-.469.977-.814 1.396-1.63.797-1.554 1.64-3.307 3.647-3.307.834 0 1.38.304 1.944.972l2.164.694-1.406.773 1.394.572c-1.989.758-4.065 1.857-4.674 3.74.521.132.935.407 1.267.708l1.903.711-1.397.78 1.258.695c-1.772.551-2.923 1.266-3.722 2.117 1.238-.013 2.485-.06 3.716-.06 3.67 0 6.371.165 8.234.483-1.423-2.717-.905-4.014-1.664-5.209-.628-.989-3.676-.373-4.18-.267l.88-1.468-1.738.14 1.473-1.76c.161-.228.237-.437.407-1.048.26-.927 1.053-2.51 3.373-2.51 2.575 0 3.373 2.094 4.496 3.004a69.64 69.64 0 014.434 3.927c.726-.43 1.635-1.13 2.26-2.096.725-1.12 1.314-2.508 1.315-3.767l3.071.292c-.432.551-1.144 1.81-1.414 2.711-.14.471-.134.846.037.974.325.245.895-.147 1.45-.743.78-.843 1.543-2.114 1.881-2.568L52.415 6.5c-.987.526-1.944 1.126-1.754 1.464.174.308.807.215 1.5.001a8.061 8.061 0 001.648-.72v3.02c-1.07-.016-2.885.185-4.632.718.415.59 1.608.805 2.366.911l-.379 2.45c-1.91-.808-3.386-1.278-5.703-1.322-.196.205-.37.43-.52.671 3.1 4.55 6.951 13.245 8.654 17.227.165.384.282.775.385 1.073zM49.446 33.7c.135.512.35.673.943.7.594.025.721-.205.594-.597l-1.509-4.699c-.48-.347-.954-.702-1.422-1.065l1.394 5.661zm-2.028 1.626c.115.534.57.446.936-.024.367-.47.506-.598.367-1.22l-1.455-6.663a52.74 52.74 0 01-1.398-1.166l1.55 9.073zM25.88 15.428c-1.456 0-2.939.054-4.404.072-.593.933-.924 1.99-1.26 3.143l-.67-.152c.91-3.482 2.478-5.304 5.006-6.099l-.885-.546 1.056-.649-.967-.318c-.455-.43-1.024-.66-1.555-.66-1.08 0-1.632.764-2.143 1.791-.26.524-.777 1.068-1.864 1.805l-5.512 3.71-.82-.115 5.965-4.18c.746-.508 1.258-.775 1.58-1.447.476-.994 1.181-2.182 2.64-2.26.757-1.963 2.628-3.302 3.997-3.689l-1.049-.419 1.027-.699-1.015-.304c-.367-.458-.9-.827-1.554-.827-1.4 0-2.207 1.35-3.06 3.103-.35.72-.579 1.106-1.58 1.765-2.756 1.813-6.033 4.792-9.184 9.377l-.51-.286c.308-.55.64-1.084.986-1.6-2.012.25-3.263.593-3.263 1.2 0 .79 1.933 1.736 2.607 1.736.55 0 1.321-.603 2.142-.603 1.391 0 3.894 1.137 5.044 1.95l-.884.35c-1.297-.642-2.676-1.33-3.878-1.33-.54 0-1.008.161-1.349.34-.349.18-.79.38-1.378.55-.228-.145-1.393-.689-2.003-1.083a2.794 2.794 0 01-.547-.442 3.139 3.139 0 01-.142.581c-.048.114.01.181.057.305.48 1.25 2.565 2.33 4.208 2.33.196 0 .493 0 .636-.043l.445.52c-.284.254-.73.514-1.213.514-.319 0-.605-.049-.928-.11-1.132-.219-2.233-.767-2.979-1.498-.17-.16-.303-.284-.425-.455-.017.124-.064.28-.066.448-.001.22.061.435.18.62.411.645 1.01 1.197 1.696 1.695.534.387 1.367.873 1.793 1.05.242.1 1.351.238 2.125.238 1.413 0 2.298-.39 2.63-.82.265-.342.487-.402.895-.402.863 0 3.342.857 4.054 1.191l-.537.277c-.16.077-.265.096-.522.02-.255-.077-1.64-.634-2.557-.634-.853 0-1.3.605-1.3 1.024 0 .606 1.374.84 2.83.84 1.032 0 3.284-.248 4.051-.37l.541.598c-1.109.267-2.986.487-4.72.487-.877 0-2.457-.05-3.026-.273-.366-.143-.396-.63-.857-.847-.685-.32-1.513-.175-2.215-.175-.492 0-1.017-.05-1.42-.174-.462-.148-.928-.415-1.338-.648-.29-.166-.599-.328-.844-.514-.253-.194-.449-.435-.652-.653.07.298.262.894.371 1.04.19.254.896.884 1.043 1.068.335.418.593.71 1.292.706.474-.002.733-.228 1.308-.228.894 0 2.147.677 2.82 1.144.623.433.967.811 1.811.811.24 0 .62-.083.985-.083.607 0 1.384.34 1.792.75.498.5.828 1.196.935 1.832l-.616.45c-.338-1.11-1.015-2.192-2.197-2.192-.853 0-1.162.413-1.327.686-1.005-.99-2.66-2.458-4.33-2.458-.682 0-1.396.254-1.656.267-1.24.567-3.793 1.544-5.069 1.716-.198.58-.567 1.738-.567 2.472 0 1.225.776 2.762 1.56 3.24 1.277-.249 2.528.418 3.034 1.104.161.22.413.24.79.235a3.5 3.5 0 001.447-.317c.246-.117.497-.23.677-.583.13-.256.545-.97.75-1.887.077-.35.16-.8.141-1.125-.03-.516-.048-.748-.094-.858-.114-.266-.556-.763-.825-.857-.459-.16-1.23-.339-1.502-.433-.238-.084-.456-.036-.619.012-.148.045-2.146.602-2.468.726l1.854-1.234-1.46-.282 1.266-.414 1.364.414c.172.04.296.074.55.124.865.171 2.4.756 2.95 1.678.055.095.047.167.037.257-.057.505-.664 3.03-.72 3.421.514-.745 2.018-1.424 2.366-2.142.682.495 1.855-1.14 2.382-1.405.27-.135.538-.253.645-.285.743.362 1.953.832 2.875.832.494 0 .6-.17 1.024-.279.936-.239 3.882-.448 5.31-.448 1.428 0 3.874.072 4.342.086.332-.115.842-.267 1.214-.372 1.242-.354 2.036-.673 2.878-1.144a12.582 12.582 0 003.177-2.529c.113-.124.151-.269.21-.385.048-.1.174-.42.174-.554 0-.188-.296-.366-.966-.366-.758 0-1.422.24-2.04.584l-.365-.103c.661-.754 2.493-1.325 3.454-1.479a6.672 6.672 0 001.033-3.409 6.262 6.262 0 00-.467-.202c-.473.573-.928 1.211-1.459 1.668-.282.243-.475.382-.89.382-.13 0-.289-.002-.438-.086-.159-.09-.308-.27-.474-.525-.125-.192-.31-.44-.474-.714-.339-.57-.703-1.288-1.033-1.868-.37-.65-.687-1.138-.73-1.219-.066-.124-.246-.277-.246-.277-.18.295-.314.867-.314 1.182l-.644-.219c.085-.429.256-.982.35-1.249 0-.229-.256-.533-.464-.533-.294 0-.597.324-.749.943l-.654.286c.076-1 .417-2.097 1.403-2.097.796 0 1.29.61 1.668 1.182.38.571 1.622 2.278 1.887 2.611l.711-1.543a27.687 27.687 0 01-2.289-3.15c-1.74-.516-4.966-.682-8.85-.682zm24.738-2.044l.138-.927c-.874-.116-1.974-.615-2.44-1.18-.76.287-1.48.645-2.088 1.082 1.708.036 3.42.534 4.39 1.025zm2.496-3.87V8.311c-.328.102-.683.217-1.01.295-.465.112-.89.217-1.252.207-.362-.009-.655-.154-.79-.349-.348-.498-.026-1.252 1.112-1.956l-.898-.75c-.692.902-1.373 1.898-2.068 2.494-.63.54-1.29.81-1.824.41-.288-.216-.396-.315-.424-.877.038-.827.538-2.09.98-2.904l-1.063-.126c-.189 1.246-.697 2.308-1.24 3.185-.679 1.093-1.552 1.86-2.452 2.487.761.782 1.54 1.586 2.256 2.56 1.671-2.24 6.085-3.29 8.673-3.475zm-2.18 17.283c-3.69-2.097-7.42-5.95-9.159-9.26l.765.09c1.618 2.875 5.483 6.712 7.765 7.827-2.087-4.453-4.804-10.095-6.924-12.523-2.63-3.009-5.502-5.338-6.874-6.55-1.352-1.194-1.909-2.693-3.855-2.693-1.606 0-2.449 1.162-2.772 2.334-.066.23-.104.372-.265.61l-.758.915 1.64-.2-.949 1.334s2.57-.58 3.471.648c.97 1.324.343 2.81 1.934 5.7.7 1.27 2.391 3.552 2.957 4.06l-1.11 2.342c.086.391.252.618.332.743.171.267.361.248.616.01.117-.109.493-.416.856-.798.316-.33.623-.733.747-.937.361.163 1.035.487 1.577.728-2.327-2.884-4.555-6.382-5.52-8.76-.4-.984.38-1.313.757-.344 1.024 2.63 4.02 7.281 6.22 9.72 2.542 2.82 7.204 6.9 10.238 8.54-.439-.863-1.02-2.102-1.69-3.537zM31.897 6.545a.628.628 0 01-.626-.629c0-.348.28-.63.626-.63.345 0 .625.282.625.63 0 .347-.28.63-.625.63zM28.04 20.88c-.512 0-1.058-.038-1.565-.087-.895-.087-1.67-.206-1.936-.206-.724 0-1.767.34-2.462.932 0 0-.47-.13-.635-.144.296-.395.655-.74 1.062-1.019.643-.437 1.316-.677 2.335-.739.277-.016.841-.07 1.156-.057.284.013.765.032 1.207.114.313.06.605.147.848.185.147.023.661.016.84-.013.721-.114 1.586-.394 2.042-.643l.19.695c-.974.5-2.074.982-3.082.982zm-9.023-.01c-.403.162-.546.4-.546.734 0 .486.54.676 1.141.858.354.11.752.135 1.086.135.413 0 1.205-.156 1.987-.33.944-.209 1.821-.457 2.078-.553l.341.617c-1.05.356-2.125.695-3.123.9-.563.114-1.1.186-1.58.186-.8 0-1.669-.338-2.383-.68-.602-.288-1.14-.574-1.62-.574-.54 0-1.048.187-1.549.475-.245.141-.983.651-1.64.912-.506.2-.917.311-1.428.311-.456 0-.728-.064-.964-.249l.792-.487c.102.101.285.12.398.12.114 0 .25-.014.561-.144.204-.097.4-.209.588-.335.312-.202.416-.32.54-.418.24-.19.328-.443.022-.718a3.262 3.262 0 00-.486-.379c-.274-.165-.472-.327-.968-.327-.584 0-.996.162-1.223.28l-.389-.267c.327-.262.687-.48 1.071-.648.22-.092.47-.138.651-.138.436 0 .812.184 1.178.38.58.31 1.231.675 1.73.675.19 0 .372-.045.587-.045.494 0 .968.222 1.24.222.163 0 .277-.148.385-.304.272-.394.648-.685 1.127-.888.515-.216 1.135-.303 1.81-.303.53 0 1.04.077 1.304.134 0 0-.405.491-.506.6-.536 0-1.556-.019-2.212.248zm-1.813-2.506l-.256-.276c.714-.667 1.47-1.73 1.593-2.355.113-.58.944-.488.786.144-.2.807-1.185 1.782-2.123 2.487zm7.245 5.186c.797-.127 1.708-.222 2.231-.4.241.61.715 1.262 1.4 1.262.248 0 .657-.19 1.068-.372.463-.204.927-.428 1.167-.537.26-.115 1.104-.488 1.82-.808.272-.122 1.023-.48 1.065-.505l.481.261c-.144.635-.385 1.415-.655 1.974-.105.22-.21.4-.325.53a5.943 5.943 0 01-.986.864c-.48.343-1.067.695-1.688 1.054-.485.28-.972.564-1.466.793l-.256-.468c.762-.433 1.535-.98 2.216-1.488.322-.24.633-.482.855-.686.133-.118.251-.253.351-.4.203-.299.532-.883.632-1.163-.284.14-1.358.65-1.838.902-.543.286-1.422.738-1.915.971-.388.185-.734.286-.983.286-.55 0-.8-.399-.936-.64-.347-.623-.72-.68-1.7-.693-1.138-.015-2.699.457-3.628 1.105l-.915-.42c1.27-.647 3.21-1.295 4.005-1.422zm1.29 2.79c.24 0 .253.108.322.22.19.304 1.682 2.445 1.834 2.611 1.266-.392 2.563-.964 3.312-1.687.78-.754 1.427-1.629 2.052-2.306.242-.26.54-.498.687-.577.648-.346 2.662-.376 3.508-.338l-.502.715c-1.492 0-2.326.155-2.702.438-.159.12-.399.362-.627.661-.509.668-1.065 1.581-1.288 1.76.436.305.914.571 1.672.571 1.264 0 2.17-.795 2.665-1.243l.425.254c-.314.41-.673.828-1.13 1.142-.509.347-1.149.573-1.527.677-.733-.14-2.349-.468-2.728-.543-1.397.571-3.672 1.496-4.436 1.728-.11.033-.29.06-.515.082-.604.034-1.445.03-2.21.02-.543-.008-1.057-.004-1.314-.052l-.674-.708c.594.115.826.15 1.381.15 1.315 0 2.161-.22 2.44-.293.234-.06.273-.197.203-.409-.11-.34-.305-.66-.6-1.006a4.979 4.979 0 00-.665-.606c-.18-.123-.357-.154-.853.015-.46.158-1.887.934-2.503 1.263-.304.163-.54.21-1.086.081-.58-.136-1.962-.644-2.517-.982l.607-.252c.556.216 1.36.462 1.92.462.336 0 .614-.122.842-.224.18-.08 2.202-1.078 3.206-1.444.32-.116.643-.18.801-.18zm6.936-5.02c-.327 0-.62.026-.827.134-.234.121-.375.304-.594.484-.291.23-.618.41-.968.532-.416.155-.932.26-1.702.26-1.015 0-1.565-.17-1.88-.21 0 0-.135-.545-.197-.742 0 0 .158-.053.367-.053.341 0 1.184.095 1.533.095 1.317 0 1.803-.416 2.19-.767.33-.299.668-.542 1.564-.542.79 0 1.697.32 1.956.447l-.057.722a3.04 3.04 0 00-1.385-.36zM22.32 11.015a.521.521 0 110 1.042.521.521 0 010-1.042zm1.18-6.643a.528.528 0 01.373.904.529.529 0 11-.374-.904zM3.074 12.31c.72-.78 2.097-1.804 2.99-2.179l.207.311c-.758.781-2.162 1.824-2.907 2.186l-.29-.318zm1.351-8.874c.95.483 2.8 2.142 3.451 2.911l-.366.455c-.99-.656-2.95-2.415-3.393-3.05l.31-.317zm10.218 4.198c-.206 2.168-2.24 2.45-3.556 1.42-.742-.582-1.046-1.388-1.189-1.996-.15-.644-.15-1.22-.782-1.882-.476-.5-1.327-.483-1.327-.483 0-1.576-1.467-3.019-3.287-2.32-.645-.558-1.442-.614-2.013.077-.333.401-.515 1.455.51 1.938-.055 1.435 1.035 2.352 2.627 2.225.063.763.905 1.472 1.65 1.574l-.007.383c-.795-.076-1.226.203-1.756.864-1.872-.089-3.183.748-3.129 2.098-1.314.251-1.56 1.636-.815 2.373.746.737 1.84.448 2.212-.432 1.328.254 2.5-.702 2.553-1.804 1.24 0 1.783-.494 1.985-1.639l.468.038c.138 1.234-.43 2.404-1.909 2.265-.038 1.472-1.46 2.296-2.787 1.788-.619 1.17-2.039 1.637-3.23.496-1.15-1.102-.73-2.99.775-3.447.034-1.444 1.095-2.816 3.157-2.287 0 0 .265-.645.91-.683-.43-.178-.755-.417-.844-.86-1.555.332-2.876-1.107-2.522-2.555C.935 4.04.912 2.648 1.608 1.82 2.333.957 3.541.767 4.622 1.696c1.831-1.019 3.9.23 3.774 2.325 1.281-.085 2.057 1.04 1.915 2.211.212-.516.458-.755.931-.859-.834-1.753.627-3.545 2.42-3.132a2.144 2.144 0 013.134-.897c1.15.7 1.394 2.506.171 3.382.576 1.687-.573 3.065-2.323 2.907zm1.564-5.444c-.853-.514-1.656-.317-2.167.673-1.367-.1-2.675.98-2.166 2.79-1.314.571-1.507 1.926-.585 2.74 1.112.98 2.945.126 2.77-1.374 1.49.077 2.452-1.472 2.214-2.559.664-.57.73-1.79-.066-2.27zM12.41 6.463c.646-1.053 2.03-2.794 2.611-3.328l.31.222c-.6 1.273-1.663 2.626-2.573 3.37l-.348-.264zm73.926 9.141c5.181 0 7.463 3.868 7.463 7.74 0 .823-.397 1.307-1.284 1.307h-9.633c.104 1.743 1.48 3.314 3.463 3.314 1.405 0 2.353-.508 3.001-1.463a1.13 1.13 0 01.95-.496h2.266c.521.001.771.49.69.861-.59 2.757-3.715 4.436-6.885 4.436-4.632 0-7.509-3.726-7.509-7.959 0-3.972 2.686-7.74 7.478-7.74zm3.45 6.085c-.154-1.713-1.682-2.977-3.45-2.977-1.769 0-3.27 1.265-3.425 2.977h6.875z" fill="#171717"/></svg>