<svg xmlns="http://www.w3.org/2000/svg" width="91" height="74"><g fill="none" fill-rule="evenodd" stroke="#323232" stroke-linecap="round" stroke-linejoin="round" opacity=".6"><path d="M.57 73.424h89.86m-84.44-.576V31.385h28.813v41.751M12.552 11.518V26.49m-2.852 0V6.047h2.852v3.167m15.404 0V6.047h2.853V26.49m-2.853 0V11.23M24.818.864v8.35m-8.843 0V.864"/><path d="M5.932 31.434L4.649 29.37H21.68"/><path d="M34.687 31.434l1.393-2.064H18.828M5.99 29.082V26.49h28.242v2.592M9.7 26.778v2.016m1.71-2.016v2.016m4.565-2.016v2.016m1.997-2.016v2.016m3.994-2.016v2.016m1.996-2.016v2.016m4.565-2.016v2.016m1.711-2.016v2.016M10.27 9.502h6.56v1.728H9.7m20.538-1.728h-6.56v1.728h7.13M15.12 25.914v-8.178c0-.676.412-1.223.998-1.223.585 0 .998.547.998 1.223v8.466m1.997-.288v-8.178c0-.676.413-1.223.998-1.223.586 0 .999.547.999 1.223v8.466m1.997-.288v-8.178c0-.676.413-1.223.998-1.223.586 0 .998.547.998 1.223v8.466M16.26 3.167h8.273M22.13 6.982c0 .978-.785 1.77-1.753 1.77a1.763 1.763 0 01-1.754-1.77c0-.978.785-1.77 1.754-1.77.968 0 1.754.792 1.754 1.77zm-6.155 6.263v.864m3.994-.864v.864m3.993-.864v.864M6.561 41.463h27.671M6.561 52.117h27.671M9.129 57.875h1.711v-2.879H9.13zm5.134 0h1.712v-2.879h-1.712zm5.135 0h1.712v-2.879h-1.712zm5.135 0h1.712v-2.879h-1.712zm5.135 0h1.711v-2.879h-1.711zM9.129 63.634h1.711v-2.88H9.13zm5.134 0h1.712v-2.88h-1.712zm5.991-2.987c-.502 0-.856.366-.856.816v2.171h1.712v-2.171c0-.45-.354-.816-.856-.816zm4.279 2.987h1.712v-2.88h-1.712zm5.135 0h1.711v-2.88h-1.711zm-17.402 9.214v-4.075c0-1.258.875-2.279 1.997-2.279 1.123 0 1.997 1.02 1.997 2.28v4.362m6.847-.288v-4.075c0-1.258.732-2.279 1.854-2.279s1.854 1.02 1.854 2.28v4.362m-18.542-.288v-3.455h1.711v3.455m8.844 0v-3.455h1.711v3.455m8.843 0v-3.455h1.712v3.455M20.73 66.457a.913.913 0 01-.908.918.913.913 0 01-.91-.918c0-.507.407-.917.91-.917.501 0 .908.41.908.917zM14.834.576h11.125M11.981 51.253v-7.774h4.28v8.062m2.281-.288v-7.774h3.994v8.062m2.282-.288v-7.774h4.28v8.062M11.981 41.175v-7.198h4.28v7.486m2.281-.288v-7.198h3.994v7.486m2.282-.288v-7.198h4.28v7.486m1.711 10.077v-3.226c0-.619.496-1.121.998-1.121s.999.502.999 1.121v2.939m-1.997-10.078v-3.258c0-.619.496-1.12.998-1.12s.999.501.999 1.12v2.97M8.273 51.54v-3.226c0-.619.353-1.121.856-1.121.502 0 .855.502.855 1.121v2.939M8.273 41.175v-3.258c0-.619.353-1.12.856-1.12.502 0 .855.501.855 1.12v2.97m47.355 31.961V31.385h28.526v41.751M63.9 11.518V26.49m-3.138 0V6.047H63.9v3.167m15.119 0V6.047h3.138V26.49m-3.138 0V11.23M75.88.864v8.35m-8.557 0V.864"/><path d="M57.205 31.434l-1.358-2.064h17.181"/><path d="M85.817 31.434l1.46-2.064H69.89m-12.551-.288V26.49h27.956v2.592m-24.533-2.304v2.016m1.997-2.016v2.016m4.564-2.016v2.016m1.711-2.016v2.016m4.279-2.016v2.016m1.712-2.016v2.016m4.565-2.016v2.016m1.996-2.016v2.016M61.332 9.502h6.847v1.728h-7.417m20.824-1.728H74.74v1.728h7.417M66.182 25.914v-8.178c0-.676.555-1.223 1.14-1.223.587 0 1.142.547 1.142 1.223v8.466m1.712-.288v-8.178c0-.676.555-1.223 1.14-1.223.586 0 1.142.547 1.142 1.223v8.466m1.712-.288v-8.178c0-.676.412-1.223.998-1.223.585 0 .998.547.998 1.223v8.466M67.608 3.167h7.988m-2.267 3.815c0 .978-.786 1.77-1.754 1.77-.969 0-1.754-.792-1.754-1.77s.785-1.77 1.754-1.77c.968 0 1.754.792 1.754 1.77zm-6.006 6.263v.864m3.708-.864v.864m3.994-.864v.864M57.91 41.463h27.385M57.91 52.117h27.385m-25.104 5.758h1.997v-2.879h-1.997zm5.135 0h1.997v-2.879h-1.997zm5.134 0h1.998v-2.879H70.46zm5.136 0h1.996v-2.879h-1.996zm5.134 0h1.997v-2.879H80.73zm-20.539 5.759h1.997v-2.88h-1.997zm5.135 0h1.997v-2.88h-1.997zm6.134-2.987c-.503 0-1 .366-1 .816v2.171h1.998v-2.171c0-.45-.497-.816-.999-.816zm4.136 2.987h1.996v-2.88h-1.996zm5.134 0h1.997v-2.88H80.73zm-17.116 9.214v-4.075c0-1.258.875-2.279 1.997-2.279 1.123 0 1.997 1.02 1.997 2.28v4.362m6.562-.288v-4.075c0-1.258.874-2.279 1.996-2.279 1.122 0 1.997 1.02 1.997 2.28v4.362m-18.828-.288v-3.455h1.712v3.455m8.843 0v-3.455h1.997v3.455m8.558 0v-3.455h1.997v3.455m-10.514-6.391a.913.913 0 01-.909.918.913.913 0 01-.908-.918c0-.507.407-.917.908-.917.502 0 .91.41.91.917zM65.897.576h11.41M63.33 51.253v-7.774h4.278v8.062m1.997-.288v-7.774h4.279v8.062m1.996-.288v-7.774h4.28v8.062M63.33 41.175v-7.198h4.278v7.486m1.997-.288v-7.198h4.279v7.486m1.996-.288v-7.198h4.28v7.486m1.997 10.077v-3.226c0-.619.353-1.121.856-1.121.502 0 .855.502.855 1.121v2.939m-1.711-10.078v-3.258c0-.619.353-1.12.856-1.12.502 0 .855.501.855 1.12v2.97M59.335 51.54v-3.226c0-.619.354-1.121.856-1.121s.856.502.856 1.121v2.939m-1.712-10.078v-3.258c0-.619.354-1.12.856-1.12s.856.501.856 1.12v2.97"/></g></svg>