<svg xmlns="http://www.w3.org/2000/svg" xmlns:xlink="http://www.w3.org/1999/xlink" width="91" height="58"><defs><path id="a" d="M0 58h91V0H0z"/></defs><g fill="none" fill-rule="evenodd" opacity=".6"><path stroke="#323232" stroke-linecap="round" stroke-linejoin="round" d="M72.232 9.886c0 2.043-1.654 3.7-3.691 3.7a3.695 3.695 0 01-3.69-3.7c0-2.043 1.651-3.7 3.69-3.7a3.696 3.696 0 013.69 3.7z"/><path stroke="#323232" stroke-linecap="round" stroke-linejoin="round" d="M68.567 7.41v2.556l1.593.48m20.345 47.058H.495"/><mask id="b" fill="#fff"><use xlink:href="#a"/></mask><path stroke="#323232" stroke-linecap="round" stroke-linejoin="round" d="M4.946 50.068h81.108v-2.726H4.946zm2.225.248v6.94m76.658-6.94v6.94m-40.06 0v-5.205h3.215v5.205m1.978 0v-5.205h3.215v5.205m2.225-1.486h2.226v-3.72h-2.226zm3.957 0h2.225v-3.72H58.36zm4.204 0h2.225v-3.72h-2.225zm3.956 0h2.226v-3.72h-2.226zm3.957 0H72.7v-3.72h-2.225zm4.204 0h2.225v-3.72h-2.226zm3.956 0h2.225v-3.72h-2.225zm-68.992 0h2.226v-3.72H9.644zm0-8.428h2.226v-2.974H9.644zm4.204 0h2.225v-2.974h-2.225zm4.451 0h2.225v-2.974H18.3zm4.204 0h2.225v-2.974h-2.225zm4.204 0h2.225v-2.974h-2.225zm4.451 0h2.225v-2.974h-2.225zm4.203 0h2.226v-2.974h-2.226zm4.452 0h2.225v-2.974h-2.225zm4.203 0h2.226v-2.974h-2.226zm4.204 0h2.226v-2.974H48.22zm4.451 0h2.226v-2.974H52.67zm4.204 0h2.226v-2.974h-2.226zm4.204 0h2.225v-2.974H61.08zm4.451 0h2.225v-2.974H65.53zm4.204 0h2.225v-2.974h-2.225zm4.451 0h2.225v-2.974h-2.225zm4.204 0h2.225v-2.974H78.39zm-68.745-6.94h2.226V35.94H9.644zm4.204 0h2.225V35.94h-2.225zm4.451 0h2.225V35.94H18.3zm4.204 0h2.225V35.94h-2.225zm4.204 0h2.225V35.94h-2.225zm4.451 0h2.225V35.94h-2.225zm4.203 0h2.226V35.94h-2.226zm4.452 0h2.225V35.94h-2.225zm4.203 0h2.226V35.94h-2.226zm4.204 0h2.226V35.94H48.22zm4.451 0h2.226V35.94H52.67zm4.204 0h2.226V35.94h-2.226zm4.204 0h2.225V35.94H61.08zm4.451 0h2.225V35.94H65.53zm4.204 0h2.225V35.94h-2.225zm4.451 0h2.225V35.94h-2.225zm4.204 0h2.225V35.94H78.39zM13.6 55.77h2.226v-3.72h-2.225zm4.204 0h2.226v-3.72h-2.226zm3.956 0h2.226v-3.72h-2.225zm3.957 0h2.226v-3.72h-2.226zm4.204 0h2.226v-3.72H29.92zm3.957 0h2.225v-3.72h-2.225zm4.698 1.486v-5.205h3.215v5.205" mask="url(#b)"/><path stroke="#323232" stroke-linecap="round" stroke-linejoin="round" d="M82.592 47.342v-5.205H7.913v5.205" mask="url(#b)"/><path stroke="#323232" stroke-linecap="round" stroke-linejoin="round" d="M82.592 42.632v-2.23H7.913v2.23m74.679-2.726V22.803H7.913v17.103m7.171-17.103h15.579V.496H15.084z" mask="url(#b)"/><path stroke="#323232" stroke-linecap="round" stroke-linejoin="round" d="M16.815 20.82H18.3v-4.46h-1.484zm3.462 0h1.484v-4.46h-1.484zm3.215 0h1.484v-4.46h-1.484zm3.462 0h1.483v-4.46h-1.483zM15.084 3.718h15.332M22.75 2.23v7.437m38.082 13.136H76.41V.496H60.832z" mask="url(#b)"/><path stroke="#323232" stroke-linecap="round" stroke-linejoin="round" d="M62.563 20.82h1.483v-4.46h-1.484zm3.461 0h1.484v-4.46h-1.484zm3.216 0h1.483v-4.46h-1.484zm3.461 0h1.484v-4.46H72.7zM60.832 3.718h15.331M7.913 35.692h74.68m-16.074 0h4.946v-8.18h-4.946zm-4.204-2.974h1.978v-1.24h-1.978zm11.128 0h1.978v-1.24h-1.978z" mask="url(#b)"/></g></svg>