<svg width="213" height="40" fill="none" xmlns="http://www.w3.org/2000/svg"><path d="M1 19h211m-5-6l5 6-5 6M6 25l-5-6 5-6" stroke="#2A82F2"/><path d="M127 20c0 11.046-8.954 20-20 20s-20-8.954-20-20 8.954-20 20-20 20 8.954 20 20z" fill="#DCEBFF"/><path d="M112.052 24.434V26h-9.054v-1.224l5.13-4.95c.624-.6 1.044-1.116 1.26-1.548.216-.444.324-.888.324-1.332 0-.66-.234-1.17-.702-1.53-.456-.372-1.116-.558-1.98-.558-1.392 0-2.466.456-3.222 1.368l-1.224-1.062c.492-.6 1.134-1.068 1.926-1.404.804-.336 1.698-.504 2.682-.504 1.32 0 2.37.318 3.15.954.78.624 1.17 1.476 1.17 2.556 0 .672-.144 1.308-.432 1.908-.288.6-.834 1.284-1.638 2.052l-3.852 3.708h6.462z" fill="#2A82F2"/></svg>