<svg width="213" height="40" fill="none" xmlns="http://www.w3.org/2000/svg"><path d="M1 19h211m-5-6l5 6-5 6M6 25l-5-6 5-6" stroke="#2A82F2"/><path d="M127 20c0 11.046-8.954 20-20 20s-20-8.954-20-20 8.954-20 20-20 20 8.954 20 20z" fill="#DCEBFF"/><path d="M108.038 18.692c1.236.12 2.178.504 2.826 1.152.648.636.972 1.452.972 2.448 0 .72-.18 1.374-.54 1.962-.36.576-.9 1.038-1.62 1.386-.708.336-1.578.504-2.61.504a8.48 8.48 0 01-2.592-.396c-.828-.276-1.506-.654-2.034-1.134l.828-1.422c.432.408.984.738 1.656.99a6.32 6.32 0 002.142.36c.936 0 1.662-.198 2.178-.594.528-.396.792-.942.792-1.638s-.258-1.236-.774-1.62c-.516-.384-1.296-.576-2.34-.576h-1.008v-1.26l3.168-3.888h-6.066V13.4h8.316v1.224l-3.294 4.068z" fill="#2A82F2"/></svg>