<svg width="247" height="62" fill="none" xmlns="http://www.w3.org/2000/svg"><path d="M125 61V51m-95 1v9h190v-7.677M29.412 40.235c-3.095 0-5.412-2.587-5.412-5.8v-1.928c0-3.197 2.317-5.801 5.412-5.801 3.095 0 5.412 2.587 5.412 5.8v1.929c0 3.213-2.317 5.8-5.412 5.8zM19.941 47v-1.353c0-3.704 6.106-5.412 9.471-5.412s9.47 1.675 9.47 5.378V47" stroke="#1476F2"/><path d="M18.587 14.53c-3.094 0-5.411-2.588-5.411-5.801V6.8c0-3.213 2.317-5.8 5.411-5.8C21.682 1 24 3.587 24 6.8v1.93c0 3.213-2.317 5.8-5.412 5.8z" stroke="#53A0FD"/><path d="M9.117 21.294v-1.353c0-3.704 6.105-5.412 9.47-5.412 3.366 0 9.471 1.675 9.471 5.378v1.387m13.529-6.764c-3.094 0-5.411-2.588-5.411-5.801V6.8c0-3.213 2.317-5.8 5.411-5.8C44.682 1 47 3.587 47 6.8v1.93c0 3.213-2.317 5.8-5.412 5.8z" stroke="#53A0FD"/><path d="M32.117 21.294v-1.353c0-3.704 6.105-5.412 9.47-5.412 3.366 0 9.471 1.675 9.471 5.378v1.387" stroke="#53A0FD"/><path d="M10.47 40.235c-3.094 0-5.411-2.587-5.411-5.8v-1.928c0-3.197 2.317-5.801 5.411-5.801 3.095 0 5.412 2.587 5.412 5.8v1.929c0 3.213-2.317 5.8-5.412 5.8zM1 47v-1.353c0-3.704 6.105-5.412 9.47-5.412 3.366 0 9.471 1.675 9.471 5.378V47m28.411-6.765c-3.095 0-5.412-2.587-5.412-5.8v-1.928c0-3.197 2.317-5.801 5.412-5.801 3.095 0 5.412 2.587 5.412 5.8v1.929c0 3.213-2.317 5.8-5.412 5.8zM38.882 47v-1.353c0-3.704 6.105-5.412 9.47-5.412 3.366 0 9.471 1.675 9.471 5.378V47m65.844-6.765c-3.095 0-5.412-2.587-5.412-5.8v-1.928c0-3.197 2.317-5.801 5.412-5.801 3.095 0 5.411 2.587 5.411 5.8v1.929c0 3.213-2.316 5.8-5.411 5.8zM114.196 47v-1.353c0-3.704 6.105-5.412 9.471-5.412 3.365 0 9.47 1.675 9.47 5.378V47" stroke="#1476F2"/><path d="M112.842 14.53c-3.094 0-5.411-2.588-5.411-5.801V6.8c0-3.214 2.317-5.801 5.411-5.801 3.095 0 5.412 2.587 5.412 5.8V8.73c0 3.213-2.317 5.8-5.412 5.8z" stroke="#53A0FD"/><path d="M103.372 21.294v-1.353c0-3.704 6.105-5.412 9.471-5.412 3.365 0 9.47 1.675 9.47 5.378v1.387m13.53-6.764c-3.094 0-5.411-2.588-5.411-5.801V6.8c0-3.214 2.317-5.801 5.411-5.801 3.095 0 5.412 2.587 5.412 5.8V8.73c0 3.213-2.317 5.8-5.412 5.8z" stroke="#53A0FD"/><path d="M126.372 21.294v-1.353c0-3.704 6.105-5.412 9.471-5.412 3.365 0 9.47 1.675 9.47 5.378v1.387" stroke="#53A0FD"/><path d="M104.725 40.235c-3.095 0-5.411-2.587-5.411-5.8v-1.928c0-3.197 2.316-5.801 5.411-5.801 3.095 0 5.412 2.587 5.412 5.8v1.929c0 3.213-2.317 5.8-5.412 5.8zM95.255 47v-1.353c0-3.704 6.105-5.412 9.47-5.412 3.366 0 9.471 1.675 9.471 5.378V47m28.412-6.765c-3.095 0-5.412-2.587-5.412-5.8v-1.928c0-3.197 2.317-5.801 5.412-5.801 3.095 0 5.412 2.587 5.412 5.8v1.929c0 3.213-2.317 5.8-5.412 5.8zM133.137 47v-1.353c0-3.704 6.105-5.412 9.47-5.412 3.366 0 9.471 1.675 9.471 5.378V47m65.844-6.765c-3.095 0-5.412-2.587-5.412-5.8v-1.928c0-3.197 2.317-5.801 5.412-5.801 3.094 0 5.411 2.587 5.411 5.8v1.929c0 3.213-2.317 5.8-5.411 5.8zM208.451 47v-1.353c0-3.704 6.105-5.412 9.471-5.412 3.365 0 9.47 1.675 9.47 5.378V47" stroke="#1476F2"/><path d="M207.097 14.53c-3.095 0-5.411-2.588-5.411-5.801V6.8c0-3.214 2.316-5.801 5.411-5.801 3.095 0 5.412 2.587 5.412 5.8V8.73c0 3.213-2.317 5.8-5.412 5.8z" stroke="#53A0FD"/><path d="M197.627 21.294v-1.353c0-3.704 6.105-5.412 9.471-5.412 3.365 0 9.47 1.675 9.47 5.378v1.387m13.53-6.764c-3.095 0-5.411-2.588-5.411-5.801V6.8c0-3.214 2.316-5.801 5.411-5.801 3.095 0 5.412 2.587 5.412 5.8V8.73c0 3.213-2.317 5.8-5.412 5.8z" stroke="#53A0FD"/><path d="M220.627 21.294v-1.353c0-3.704 6.105-5.412 9.471-5.412 3.365 0 9.47 1.675 9.47 5.378v1.387" stroke="#53A0FD"/><path d="M198.98 40.235c-3.095 0-5.412-2.587-5.412-5.8v-1.928c0-3.197 2.317-5.801 5.412-5.801 3.095 0 5.412 2.587 5.412 5.8v1.929c0 3.213-2.317 5.8-5.412 5.8zM189.51 47v-1.353c0-3.704 6.105-5.412 9.47-5.412 3.366 0 9.471 1.675 9.471 5.378V47m28.412-6.765c-3.095 0-5.412-2.587-5.412-5.8v-1.928c0-3.197 2.317-5.801 5.412-5.801 3.095 0 5.412 2.587 5.412 5.8v1.929c0 3.213-2.317 5.8-5.412 5.8zM227.392 47v-1.353c0-3.704 6.105-5.412 9.47-5.412 3.366 0 9.471 1.675 9.471 5.378V47" stroke="#1476F2"/></svg>