<svg width="62" height="61" fill="none" xmlns="http://www.w3.org/2000/svg"><path d="M37.52 41.435c2.87 0 5.218-2.74 5.218-5.218V24.478c0-4.304-7.174-6.522-11.74-6.522-4.564 0-11.738 2.218-11.738 6.522v11.74c0 2.478 2.348 5.217 5.217 5.217M31 14.043c3 0 5.217-2.086 5.217-5.217V6.217C36.217 3.087 34 1 31 1c-3 0-5.218 2.087-5.218 5.217v2.61c0 3.13 2.218 5.216 5.218 5.216zM37.523 61V27.087m-13.046 0V61M31 40.13V61" stroke="#323232" stroke-width="1.348" stroke-miterlimit="10" stroke-linejoin="round"/><path d="M1 31h13.043m-7.826 5.218L1 31l5.217-5.217m9.131-6.523l-9.13-9.13m0 6.522V10.13h6.521m2.609 32.61l-9.13 9.13m0-6.522v6.521h6.521M61 31H47.958m7.824 5.218L61 31l-5.218-5.217m-9.13-6.523l9.13-9.13m0 6.522V10.13H49.26m-2.608 32.61l9.13 9.13m0-6.522v6.521H49.26" stroke="#909090" stroke-width="1.348" stroke-miterlimit="10" stroke-linejoin="round"/></svg>