<svg width="67" height="61" fill="none" xmlns="http://www.w3.org/2000/svg"><path d="M27.342 15.634V1H65.39v40.975H27.34V31.732" stroke="#909090" stroke-width="1.348" stroke-miterlimit="10" stroke-linejoin="round"/><path d="M14.171 15.634c3.366 0 5.854-2.78 5.854-6.293V7.293C20.025 3.78 17.537 1 14.17 1S8.317 3.78 8.317 7.293V9.34c0 3.513 2.488 6.293 5.854 6.293zM21.488 61V25.877h8.78c4.39 0 5.854-2.634 5.854-5.854H8.317C3.05 20.024 1 22.219 1 28.804v10.244c0 3.073 1.317 5.854 4.39 5.854h1.464m7.316-4.39V61M6.854 28.805V61" stroke="#323232" stroke-width="1.348" stroke-miterlimit="10" stroke-linejoin="round"/><path d="M33.195 33.195h7.317l2.927-5.854h7.317l5.854-14.634H61" stroke="#909090" stroke-width="1.348" stroke-miterlimit="10" stroke-linejoin="round"/></svg>