<svg width="57" height="62" fill="none" xmlns="http://www.w3.org/2000/svg"><path d="M20.565 31h-3.913v7.956c0 1.174-1.565 1.827-2.348.783L7.522 31H4.913C2.696 31 1 29.304 1 27.087V4.913C1 2.696 2.696 1 4.913 1H51.87c2.217 0 3.913 1.696 3.913 3.913v22.174c0 2.217-1.696 3.913-3.913 3.913H41.435M19.26 15.348h3.914m2.608 0h3.913m2.61 0h3.913" stroke="#53A0FD"/><path d="M31 40.13c3.651 0 6.521-2.87 6.521-6.521V31c0-3.652-2.87-6.522-6.522-6.522s-6.521 2.87-6.521 6.522v2.609c0 3.652 2.87 6.521 6.521 6.521zM45.347 61v-9.13c0-5.218-9.522-7.826-14.348-7.826-4.826 0-14.348 2.608-14.348 7.826V61m22.174 0v-6.522m-15.651 0V61M12.74 61h36.52m-39.13 0H7.521m-2.609 0H2.304m52.174 0h-2.609" stroke="#1476F2"/></svg>