<svg width="62" height="61" fill="none" xmlns="http://www.w3.org/2000/svg"><path d="M51.87 34.913c-2.984 0-5.218-2.495-5.218-5.592v-1.86c0-3.08 2.234-5.591 5.218-5.591 2.983 0 5.217 2.494 5.217 5.592v1.859c0 3.097-2.234 5.592-5.217 5.592zm-9.13 5.217c0-3.57 5.885-5.217 9.13-5.217 3.244 0 9.13 1.614 9.13 5.185m-9.13 15.685c-2.984 0-5.218-2.495-5.218-5.593v-1.858c0-3.082 2.234-5.593 5.218-5.593 2.983 0 5.217 2.495 5.217 5.593v1.858c0 3.098-2.234 5.593-5.217 5.593zM42.74 61c0-3.57 5.885-5.217 9.13-5.217 3.244 0 9.13 1.614 9.13 5.184m-9.13-46.924c-2.984 0-5.218-2.494-5.218-5.592V6.592C46.652 3.495 48.886 1 51.87 1c2.983 0 5.217 2.495 5.217 5.592v1.86c0 3.097-2.234 5.591-5.217 5.591zm-9.13 5.217c0-3.57 5.885-5.217 9.13-5.217 3.244 0 9.13 1.615 9.13 5.185" stroke="#53A0FD"/><path d="M10.13 34.913c-2.983 0-5.217-2.495-5.217-5.592v-1.86c0-3.08 2.234-5.591 5.217-5.591 2.984 0 5.218 2.494 5.218 5.592v1.859c0 3.097-2.234 5.592-5.218 5.592zM1 40.13c0-3.57 5.886-5.217 9.13-5.217 3.245 0 9.13 1.614 9.13 5.185M21.87 31h7.825m0 0h9.13m.001-20.87H31c-.718 0-1.305.587-1.305 1.305v39.13c0 .718.587 1.305 1.305 1.305h7.826" stroke="#1476F2"/></svg>