<svg width="64" height="62" fill="none" xmlns="http://www.w3.org/2000/svg"><path d="M39.028 44.662v-4.225c0-1.55-3.944-4.226-7.042-4.226-3.099 0-7.043 2.677-7.043 4.226v4.225" stroke="#323232" stroke-width="1.348" stroke-miterlimit="10" stroke-linejoin="round"/><path d="M31.986 50.296c8.557 0 15.493-6.937 15.493-15.493 0-8.557-6.936-15.493-15.493-15.493-8.556 0-15.493 6.936-15.493 15.493 0 8.556 6.937 15.493 15.493 15.493z" stroke="#909090" stroke-width="1.348" stroke-miterlimit="10" stroke-linejoin="round"/><path d="M31.985 36.211c-2.535 0-4.225-2.113-4.225-4.789v-1.549c0-2.676 1.69-4.789 4.225-4.789 2.535 0 4.226 2.113 4.226 4.79v1.548c0 2.536-1.69 4.79-4.226 4.79zM27.76 16.493c0-1.55-3.943-4.226-7.042-4.226-3.099 0-7.042 2.676-7.042 4.226v4.225" stroke="#323232" stroke-width="1.348" stroke-miterlimit="10" stroke-linejoin="round"/><path d="M20.718 12.268c-2.535 0-4.225-2.113-4.225-4.79v-1.69C16.493 3.114 18.183 1 20.72 1c2.535 0 4.225 2.113 4.225 4.789v1.549c0 2.676-1.69 4.93-4.226 4.93zm15.492 4.225c0-1.55 3.945-4.226 7.043-4.226 3.099 0 7.042 2.676 7.042 4.226v4.225" stroke="#323232" stroke-width="1.348" stroke-miterlimit="10" stroke-linejoin="round"/><path d="M43.254 12.268c2.535 0 4.225-2.113 4.225-4.79v-1.69c0-2.675-1.69-4.788-4.225-4.788-2.535 0-4.226 2.113-4.226 4.789v1.549c0 2.676 1.69 4.93 4.226 4.93zm19.718 30.985v-4.225c0-1.55-3.944-4.225-7.042-4.225-1.972 0-4.226.986-5.634 2.112m5.634-2.112c-2.536 0-4.226-2.113-4.226-4.789v-1.55c0-2.675 1.69-4.788 4.225-4.788 2.536 0 4.226 2.113 4.226 4.789v1.55c0 2.534-1.69 4.788-4.226 4.788zM1 43.253v-4.225c0-1.55 3.944-4.225 7.042-4.225 1.972 0 4.226.986 5.634 2.112m-5.634-2.112c2.535 0 4.225-2.113 4.225-4.789v-1.55c0-2.816-1.69-4.929-4.225-4.929-2.535 0-4.226 2.113-4.226 4.789v1.55c0 2.675 1.69 4.929 4.226 4.929z" stroke="#323232" stroke-width="1.348" stroke-miterlimit="10" stroke-linejoin="round"/><path d="M45.085 43.253l11.972 11.972c1.126 1.127 1.126 2.817 0 3.944l-.986.986c-1.127 1.127-2.817 1.127-3.944 0L40.155 48.183" stroke="#909090" stroke-width="1.348" stroke-miterlimit="10" stroke-linejoin="round"/></svg>