<svg width="55" height="50" fill="none" xmlns="http://www.w3.org/2000/svg"><path d="M35.892 17h10.34v-4.57l8.031 9.141-8.03 8v-4.57h-5.746M15.21 27.285H9.467v-4.572l-8.043 9.143 8.043 8v-4.57h13.787m5.744 0h-3.447M38.191 25h-3.448m-13.788 2.286H17.51m9.19 0h-3.447M19.806 17h4.17c.952 0 1.723-.768 1.723-1.714 0-.947-.77-1.715-1.723-1.715h-1.149a1.72 1.72 0 01-1.723-1.714 1.72 1.72 0 011.723-1.714H26.7M23.253 17v3.43m0-10.287V6.714" stroke="#1476F2"/><path clip-rule="evenodd" d="M33.594 13.57c0-5.68-4.663-10.284-10.415-10.284-5.752 0-10.414 4.604-10.414 10.285 0 5.682 4.662 10.286 10.414 10.286s10.415-4.604 10.415-10.286z" stroke="#1476F2"/><path d="M32.71 4.04A4.595 4.595 0 0137.04 1c2.539 0 4.597 2.047 4.597 4.572 0 2.524-2.058 4.571-4.596 4.571-.388 0-.775-.048-1.151-.145m-3.445 24.145c0-2.525 2.058-4.572 4.596-4.572 2.538 0 4.595 2.047 4.595 4.572 0 2.524-2.057 4.571-4.595 4.571s-4.596-2.047-4.596-4.571zM22.104 44.429c0-2.525 2.058-4.572 4.596-4.572 2.538 0 4.596 2.047 4.596 4.572 0 2.524-2.058 4.571-4.596 4.571-2.538 0-4.596-2.047-4.596-4.571z" stroke="#323232"/></svg>