<svg width="198" height="147" fill="none" xmlns="http://www.w3.org/2000/svg"><path fill="#CED1D6" fill-opacity=".6" d="M91.238 147v-3.722h3.724V147zm-52.136 0v-3.722h3.724V147zm52.135-78.152v-3.722h3.724v3.722zm-52.135 0v-3.722h3.724v3.722zm52.136 65.127v-3.722h3.724v3.722zm-52.136 0v-3.722h3.724v3.722zm52.136-78.153V52.1h3.724v3.722zm-52.136.001V52.1h3.724v3.722zm52.136 65.126v-3.722h3.724v3.722zm-52.136.001v-3.723h3.724v3.722zm52.135-78.153v-3.722h3.724v3.722zm-52.135 0v-3.722h3.724v3.722zm52.136 65.127v-3.722h3.724v3.722zm-52.136 0v-3.722h3.724v3.722zm52.135-78.152V26.05h3.724v3.722zm-52.135 0V26.05h3.724v3.722zm52.136 65.126v-3.722h3.724v3.722zm-52.136.001v-3.722h3.724v3.722zm52.136-78.153v-3.722h3.724v3.722zm-52.136.001v-3.722h3.724v3.722zm52.136 65.126v-3.722h3.724v3.722zm-52.135.001v-3.722h3.724v3.722zM91.237 3.721V-.001h3.724v3.722zm-52.135.001V0h3.724v3.722zM78.203 147v-3.723h3.724V147zm-52.135 0v-3.722h3.724V147zm52.135-78.152v-3.722h3.724v3.722zm-52.135 0v-3.722h3.724v3.722zm52.135 65.127v-3.722h3.724v3.722zm-52.135 0v-3.722h3.724v3.722zm52.136-78.153V52.1h3.724v3.722zm-52.136.001V52.1h3.724v3.722zm52.135 65.125v-3.721h3.724v3.721zm-52.135.002v-3.723h3.724v3.722zm52.135-78.153v-3.722h3.724v3.722zm-52.135 0v-3.721h3.724v3.721zm52.135 65.127v-3.722h3.724v3.722zm-52.135 0v-3.722h3.724v3.722zm52.135-78.152V26.05h3.724v3.722zm-52.135 0V26.05h3.724v3.722zm52.136 65.126v-3.722h3.724v3.722zm-52.136.001v-3.722h3.724v3.722zm52.136-78.153v-3.722h3.724v3.722zm-52.136.001v-3.722h3.724v3.722zm52.136 65.126v-3.722h3.724v3.722zm-52.135.001v-3.722h3.724v3.722zM78.203 3.72V0h3.724v3.72zm-52.135.002V0h3.724v3.722zM65.17 147v-3.722h3.724V147zm-52.135 0v-3.722h3.723V147zM65.17 68.848v-3.722h3.724v3.722zm-52.136.001v-3.722h3.724v3.722zm52.136 65.126v-3.722h3.724v3.722zm-52.136 0v-3.722h3.724v3.722zM65.17 55.823V52.1h3.724v3.722zm-52.135 0v-3.722h3.724v3.722zm52.135 65.126v-3.722h3.724v3.722zm-52.136.001v-3.723h3.724v3.723zM65.17 42.797v-3.722h3.723v3.722zm-52.136.001v-3.722h3.724v3.722zm52.136 65.126v-3.722h3.724v3.722zm-52.136 0v-3.722h3.724v3.723zM65.17 29.772V26.05h3.723v3.722zm-52.136.001V26.05h3.724v3.722zM65.17 94.898v-3.722h3.724v3.722zm-52.135.002v-3.723h3.724V94.9zM65.17 16.746v-3.721h3.724v3.721zm-52.135.001v-3.722h3.724v3.722zM65.17 81.873v-3.722h3.724v3.722zm-52.135.001v-3.722h3.724v3.722zM65.17 3.721V0h3.723v3.722zm-52.136.001V0h3.724v3.722zM52.137 147v-3.722h3.724V147zM0 147v-3.722h3.724V147zm52.137-78.152v-3.722h3.724v3.722zM0 68.848v-3.722h3.724v3.722zm52.137 65.127v-3.722h3.724v3.722zm-52.137 0v-3.722h3.724v3.722zm52.137-78.153V52.1h3.724v3.722zM0 55.823V52.1h3.724v3.722zm52.137 65.126v-3.722h3.724v3.722zm-52.137 0v-3.722h3.724v3.722zm52.136-78.152v-3.722h3.724v3.722zM0 42.797v-3.722h3.724v3.722zm52.137 65.127v-3.722h3.724v3.722zm-52.137 0v-3.722h3.724v3.722zm52.136-78.152V26.05h3.724v3.722zM0 29.772V26.05h3.724v3.722zm52.137 65.126v-3.722h3.724v3.722zM0 94.899v-3.722h3.724v3.722zm52.137-78.153v-3.722h3.724v3.722zM0 16.747v-3.722h3.724v3.722zm52.137 65.126v-3.722h3.724v3.722zM0 81.874v-3.722h3.725v3.722zM52.136 3.721V0h3.724v3.722zM0 3.721V0h3.724v3.722zM194.238 147v-3.722h3.724V147zm-52.136 0v-3.722h3.724V147zm52.136-78.152v-3.722h3.724v3.722zm-52.136 0v-3.722h3.724v3.722zm52.136 65.127v-3.722h3.724v3.722zm-52.136 0v-3.722h3.724v3.722zm52.136-78.152V52.1h3.724v3.722zm-52.136 0V52.1h3.724v3.722zm52.136 65.126v-3.722h3.724v3.722zm-52.136 0v-3.722h3.724v3.722zm52.136-78.152v-3.722h3.724v3.722zm-52.136 0v-3.722h3.724v3.722zm52.136 65.127v-3.722h3.724v3.722zm-52.136 0v-3.722h3.724v3.722zm52.136-78.152V26.05h3.724v3.722zm-52.136 0V26.05h3.724v3.722zm52.136 65.127v-3.722h3.724v3.722zm-52.136 0v-3.722h3.724v3.722zm52.136-78.152v-3.722h3.724v3.722zm-52.136 0v-3.722h3.724v3.722zm52.136 65.126v-3.722h3.724v3.722zm-52.136.001v-3.722h3.724v3.722zm52.136-78.153V0h3.724v3.722zm-52.136 0V0h3.724v3.722zM181.204 147v-3.722h3.724V147zm-52.136 0v-3.722h3.724V147zm52.136-78.152v-3.722h3.724v3.722zm-52.136 0v-3.722h3.724v3.722zm52.136 65.127v-3.722h3.724v3.722zm-52.136 0v-3.722h3.724v3.722zm52.136-78.152V52.1h3.724v3.722zm-52.136 0V52.1h3.724v3.722zm52.136 65.126v-3.722h3.724v3.722zm-52.136 0v-3.722h3.724v3.722zm52.136-78.152v-3.722h3.724v3.722zm-52.136 0v-3.722h3.724v3.722zm52.136 65.127v-3.722h3.724v3.722zm-52.136 0v-3.722h3.724v3.722zm52.136-78.152V26.05h3.724v3.722zm-52.136 0V26.05h3.724v3.722zm52.136 65.127v-3.722h3.724v3.722zm-52.136 0v-3.722h3.724v3.722zm52.136-78.152v-3.722h3.724v3.722zm-52.136 0v-3.722h3.724v3.722zm52.136 65.126v-3.722h3.724v3.722zm-52.136.001v-3.722h3.724v3.722zm52.136-78.153V0h3.724v3.722zm-52.136 0V0h3.724v3.722zM168.17 147v-3.722h3.724V147zm-52.135 0v-3.722h3.724V147zm52.135-78.152v-3.722h3.724v3.722zm-52.135 0v-3.722h3.724v3.722zm52.135 65.127v-3.722h3.724v3.722zm-52.135 0v-3.722h3.724v3.722zm52.135-78.152V52.1h3.724v3.722zm-52.135 0V52.1h3.724v3.722zm52.135 65.126v-3.722h3.724v3.722zm-52.135 0v-3.722h3.724v3.722zm52.135-78.152v-3.722h3.724v3.722zm-52.135 0v-3.722h3.724v3.722zm52.135 65.127v-3.722h3.724v3.722zm-52.135 0v-3.722h3.724v3.722zm52.135-78.152V26.05h3.724v3.722zm-52.135 0V26.05h3.724v3.722zm52.135 65.127v-3.722h3.724v3.722zm-52.135 0v-3.722h3.724v3.722zm52.135-78.152v-3.722h3.724v3.722zm-52.135 0v-3.722h3.724v3.722zm52.135 65.127v-3.722h3.724v3.722zm-52.135 0v-3.722h3.724v3.722zM168.17 3.721V0h3.724v3.722zm-52.135 0V0h3.724v3.722zM155.137 147v-3.722h3.724V147zM103 147v-3.722h3.724V147zm52.137-78.152v-3.722h3.724v3.722zm-52.137 0v-3.722h3.724v3.722zm52.137 65.127v-3.722h3.724v3.722zm-52.137 0v-3.722h3.724v3.722zm52.137-78.152V52.1h3.724v3.722zm-52.137 0V52.1h3.724v3.722zm52.137 65.126v-3.722h3.724v3.722zm-52.137 0v-3.722h3.724v3.722zm52.137-78.152v-3.722h3.724v3.722zm-52.137 0v-3.722h3.724v3.722zm52.137 65.127v-3.722h3.724v3.722zm-52.137 0v-3.722h3.724v3.722zm52.137-78.152V26.05h3.724v3.722zm-52.137 0V26.05h3.724v3.722zm52.137 65.127v-3.722h3.724v3.722zm-52.137 0v-3.722h3.724v3.722zm52.137-78.152v-3.722h3.724v3.722zm-52.137 0v-3.722h3.724v3.722zm52.137 65.126v-3.722h3.724v3.722zm-52.137 0v-3.722h3.724v3.722zm52.137-78.152V0h3.724v3.722zm-52.137 0V0h3.724v3.722z"/></svg>