<svg width="49" height="56" fill="none" xmlns="http://www.w3.org/2000/svg"><path clip-rule="evenodd" d="M24.498 1C22.215 4.08 6.98 10.394 1 10.394v22.31C1 43.195 23.18 54.67 24.485 55c1.305-.331 23.485-12.608 23.485-21.121V10.394c-6.524 0-21.188-6.314-23.472-9.394z" stroke="#505050" stroke-width=".771"/><path clip-rule="evenodd" d="M37.402 38.56H11.568a1.175 1.175 0 01-1.174-1.174v-16.44c0-.648.526-1.174 1.174-1.174h25.834c.649 0 1.174.527 1.174 1.175v16.44c0 .647-.525 1.173-1.174 1.173z" stroke="#3F7FE7" stroke-width=".771"/><path d="M20.962 19.772V16.25c0-.649.526-1.175 1.174-1.175h4.697c.65 0 1.175.527 1.175 1.175v3.522m-5.872 9.394v2.349c0 .648.527 1.174 1.175 1.174h2.348c.65 0 1.174-.526 1.174-1.174v-2.349m11.743-2.348c0 1.296-6.31 2.348-14.091 2.348-7.782 0-14.091-1.052-14.091-2.348" stroke="#3F7FE7" stroke-width=".771"/></svg>