<svg width="40" height="56" fill="none" xmlns="http://www.w3.org/2000/svg"><path d="M17.625 51.478h4.75M35.438 55H4.561C2.595 55 1 53.423 1 51.478V4.522C1 2.577 2.595 1 4.563 1h30.875C37.404 1 39 2.577 39 4.522v46.956C39 53.423 37.405 55 35.437 55h.001zM18.813 4.522h5.937-5.937zm-4.75 0h2.374-2.374zM1 47.957h38H1zM1 8.043h38H1z" stroke="#323232"/><path d="M12.875 19.783h19.779c.796 0 1.366.758 1.138 1.51l-2.85 9.392a1.188 1.188 0 01-1.138.837H14.062" stroke="#1476F2"/><path d="M29.5 36.217H16.437c-.55 0-1.03-.652-1.187-1.174L9.312 17.435h-4.75m9.501 22.305h2.374m10.688 0H29.5" stroke="#1476F2"/></svg>