<svg width="186" height="52" xmlns="http://www.w3.org/2000/svg"><g fill="#0054B2" fill-rule="evenodd"><path d="M26.182 0c14.46 0 26.182 11.64 26.182 26S40.642 52 26.182 52C11.722 52 0 40.36 0 26S11.722 0 26.182 0zM11.63 36.656c-1.681 0-3.045 1.353-3.045 3.023 0 1.67 1.364 3.024 3.045 3.024 1.682 0 3.045-1.354 3.045-3.024s-1.363-3.023-3.045-3.023zm8.46-10.736c-3.578 0-6.478 2.88-6.478 6.433 0 3.554 2.9 6.434 6.478 6.434s6.478-2.88 6.478-6.434c0-3.553-2.9-6.433-6.478-6.433zm15.371-19.1c-6.74 0-12.203 5.425-12.203 12.118 0 6.693 5.464 12.118 12.203 12.118 6.74 0 12.203-5.425 12.203-12.118 0-6.693-5.463-12.118-12.203-12.118z"/><path d="M27.491 23.325v-8.897h1.465v8.897h-1.465zm9.384 0h-5.069v-8.897h5.069v1.23H33.27v2.421h3.377v1.217H33.27v2.794h3.604v1.235zm5.748-7.777c-.841 0-1.503.296-1.985.888-.483.592-.724 1.41-.724 2.453 0 1.091.232 1.917.696 2.477.464.56 1.135.84 2.013.84.38 0 .748-.038 1.103-.113a12.8 12.8 0 001.11-.29v1.248c-.703.264-1.5.396-2.39.396-1.312 0-2.32-.395-3.022-1.184-.703-.789-1.054-1.918-1.054-3.386 0-.926.17-1.735.512-2.429a3.637 3.637 0 011.48-1.594c.645-.37 1.403-.554 2.273-.554.916 0 1.761.19 2.538.572l-.527 1.211a7.902 7.902 0 00-.96-.374 3.478 3.478 0 00-1.063-.161z" fill-rule="nonzero"/><path d="M104.055 9.964c1.786 0 3.126.474 4.03 1.421.899.948 1.347 2.304 1.347 4.07v1.288h-7.96c.034.53.146.974.34 1.333.197.356.448.642.77.853.31.21.672.361 1.088.454.416.092.868.137 1.36.137.423 0 .839-.045 1.245-.139a5.783 5.783 0 001.12-.363c.297-.127.573-.27.825-.42.253-.15.458-.282.617-.4h.384v2.959c-.297.114-.57.222-.816.321-.245.1-.582.2-1.01.303-.395.102-.801.182-1.217.24-.42.056-.93.087-1.533.087-2.199 0-3.883-.52-5.057-1.553-1.172-1.037-1.757-2.513-1.757-4.429 0-1.872.545-3.367 1.64-4.486 1.09-1.117 2.62-1.676 4.584-1.676zm11.828 0c.818 0 1.574.08 2.266.24.686.161 1.267.354 1.74.577v2.913h-.29a8.796 8.796 0 00-1.385-.798 5.76 5.76 0 00-1.029-.339 5.149 5.149 0 00-1.162-.131c-.528 0-.975.088-1.34.265-.364.178-.546.413-.546.705 0 .26.09.466.27.617.182.149.573.296 1.18.439.31.074.671.149 1.077.22.41.072.801.17 1.176.294.84.265 1.477.656 1.914 1.172.431.516.653 1.201.653 2.055 0 .538-.13 1.054-.387 1.543a3.52 3.52 0 01-1.094 1.234c-.501.362-1.092.641-1.768.842-.68.196-1.492.296-2.437.296-.86 0-1.676-.092-2.448-.277-.765-.183-1.4-.401-1.9-.646v-3.03h.3c.174.128.37.27.596.427.22.157.53.321.925.491.341.157.724.29 1.154.405.425.113.888.168 1.389.168.515 0 .968-.078 1.362-.235.39-.156.589-.406.589-.748 0-.264-.092-.466-.274-.604-.179-.135-.53-.265-1.051-.387a19.28 19.28 0 00-1.055-.224 9.463 9.463 0 01-1.127-.27c-.92-.28-1.61-.694-2.07-1.244-.462-.552-.693-1.272-.693-2.168 0-.513.118-.997.361-1.451.239-.453.59-.858 1.059-1.215.462-.347 1.04-.624 1.725-.828.684-.207 1.458-.308 2.32-.308zm10.149-2.802v3.277h3.468v2.49h-3.468v4.058c0 .4.004.75.011 1.048.008.302.06.57.165.806.095.238.268.427.512.566.24.14.595.209 1.06.209a3.2 3.2 0 00.76-.12c.31-.08.528-.153.653-.22h.307v2.507c-.39.1-.807.18-1.247.237a12.88 12.88 0 01-1.62.088c-1.472 0-2.54-.298-3.213-.898-.668-.596-1.006-1.575-1.006-2.934v-5.347h-1.38v-2.49h1.38V7.162h3.618zm30.7 2.802c1.787 0 3.127.474 4.03 1.421.9.948 1.348 2.304 1.348 4.07v1.288h-7.96c.034.53.146.974.34 1.333.195.356.448.642.77.853.309.21.672.361 1.088.454.416.092.868.137 1.36.137a5.52 5.52 0 001.245-.139 5.783 5.783 0 001.12-.363c.297-.127.571-.27.825-.42.253-.15.458-.282.617-.4h.384v2.959c-.297.114-.57.222-.816.321-.245.1-.582.2-1.01.303-.395.102-.803.182-1.217.24-.42.056-.93.087-1.533.087-2.199 0-3.883-.52-5.059-1.553-1.17-1.037-1.756-2.513-1.756-4.429 0-1.872.544-3.367 1.64-4.486 1.09-1.117 2.62-1.676 4.585-1.676zm-86.897.376v11.456h-3.572V10.34h3.572zm10.195-.376c1.195 0 2.11.37 2.742 1.114.632.739.948 1.814.948 3.222v7.496h-3.674v-5.71c0-.466-.018-.929-.056-1.39-.037-.461-.111-.801-.214-1.02a1.142 1.142 0 00-.542-.559c-.235-.114-.552-.17-.947-.17a2.65 2.65 0 00-.905.165 4.38 4.38 0 00-.98.521v8.163h-3.656V10.277h3.657v1.276a9.107 9.107 0 011.746-1.17 4.202 4.202 0 011.881-.419zm8.734.311l2.382 7.617 2.343-7.617h3.714l-4.158 11.521h-3.943l-4.127-11.52h3.789zm56.353-.31c.539 0 1.021.083 1.452.253.427.172.788.43 1.085.772.324.368.566.808.728 1.316.162.51.245 1.174.245 1.994v7.496h-3.65v-5.752c0-.568-.01-1.047-.03-1.435-.023-.39-.083-.708-.19-.955a1.015 1.015 0 00-.478-.537c-.218-.114-.52-.17-.912-.17-.276 0-.548.06-.818.18a5.496 5.496 0 00-.875.506v8.163h-3.651v-5.752a21.5 21.5 0 00-.039-1.431c-.021-.392-.085-.712-.191-.959a1.022 1.022 0 00-.483-.537c-.214-.114-.521-.17-.905-.17-.298 0-.59.07-.871.205a6.485 6.485 0 00-.83.481v8.163h-3.636V10.277h3.636v1.276a10.08 10.08 0 011.68-1.17 3.728 3.728 0 011.774-.419c.71 0 1.336.166 1.875.5.539.337.95.837 1.238 1.498.693-.642 1.353-1.135 1.967-1.48.62-.346 1.245-.518 1.879-.518zm-41.34 2.303c-.708 0-1.26.207-1.656.622-.4.417-.619.982-.661 1.697h4.393c-.023-.757-.201-1.332-.537-1.725-.335-.396-.85-.594-1.54-.594zm52.677 0c-.707 0-1.258.207-1.655.622-.4.417-.619.982-.661 1.697h4.393c-.023-.757-.201-1.332-.537-1.725-.337-.396-.85-.594-1.54-.594zm-86.53-6.352v2.79H66.16v-2.79h3.763zm11.243 28.335c1.787 0 3.127.474 4.026 1.422.9.949 1.35 2.304 1.35 4.07v1.287h-7.961c.033.53.149.974.342 1.334.193.357.449.64.768.852.31.213.674.363 1.088.455a6.35 6.35 0 001.36.139 5.69 5.69 0 001.245-.14c.408-.09.779-.212 1.12-.364a8.271 8.271 0 001.442-.818h.385v2.956a78.32 78.32 0 00-.814.321 6.986 6.986 0 01-1.014.303c-.394.103-.8.183-1.218.24a11.54 11.54 0 01-1.531.087c-2.197 0-3.883-.517-5.057-1.552-1.171-1.037-1.757-2.513-1.757-4.427 0-1.874.545-3.37 1.64-4.488 1.092-1.117 2.621-1.677 4.586-1.677zm24.502 0c1.89 0 3.354.54 4.397 1.625 1.039 1.082 1.561 2.566 1.561 4.452 0 1.88-.52 3.36-1.557 4.443-1.038 1.082-2.505 1.624-4.401 1.624-1.883 0-3.347-.542-4.392-1.624-1.045-1.082-1.565-2.563-1.565-4.443 0-1.9.52-3.387 1.565-4.462 1.045-1.076 2.509-1.615 4.392-1.615zm18.098.312v5.71c0 .597.015 1.08.047 1.458.03.374.104.693.223.953.11.239.284.42.515.543.233.122.557.185.973.185.257 0 .56-.063.911-.185.35-.123.674-.29.974-.503v-8.161h3.658v11.519h-3.658v-1.276c-.632.522-1.213.915-1.741 1.184-.529.272-1.158.405-1.887.405-1.16 0-2.065-.359-2.714-1.08-.65-.723-.975-1.808-.975-3.255v-7.497h3.674zm30.503-.312c1.89 0 3.356.54 4.395 1.625 1.043 1.082 1.564 2.566 1.564 4.452 0 1.88-.52 3.36-1.558 4.443-1.037 1.082-2.505 1.624-4.4 1.624-1.884 0-3.347-.542-4.392-1.624-1.045-1.082-1.565-2.563-1.565-4.443 0-1.9.52-3.387 1.565-4.462 1.045-1.076 2.508-1.615 4.391-1.615zm-63.625.312l2.38 7.616 2.343-7.616h3.717l-4.158 11.52h-3.944l-4.127-11.52h3.79zm46.99-3.425v3.277h3.467v2.49h-3.468v4.058c0 .4.004.75.01 1.05.007.3.061.57.165.806.094.238.265.426.51.564.241.142.598.21 1.063.21.194 0 .444-.041.757-.12.311-.08.53-.154.651-.22h.312v2.506c-.394.1-.81.18-1.249.238-.44.058-.98.087-1.62.087-1.47 0-2.541-.298-3.211-.896-.669-.598-1.005-1.575-1.005-2.934v-5.349h-1.381v-2.49h1.38v-3.277h3.618zm31.762 3.113c1.193 0 2.108.371 2.74 1.114.631.741.948 1.814.948 3.222v7.497h-3.675v-5.711c0-.464-.017-.928-.056-1.39-.037-.46-.11-.8-.214-1.02a1.138 1.138 0 00-.54-.558c-.237-.113-.554-.17-.948-.17-.297 0-.6.055-.906.164a4.43 4.43 0 00-.979.523v8.162h-3.657v-11.52h3.657v1.277a9.062 9.062 0 011.747-1.17 4.174 4.174 0 011.883-.42zm-52.126-4.359v15.88h-3.763v-15.88h3.763zm28.76 4.423v11.457h-3.57V34.315h3.57zm-40.362 2.5c-.322 0-.61.048-.871.147-.26.098-.5.284-.718.563-.204.265-.369.627-.491 1.086-.123.46-.184 1.04-.184 1.738 0 .697.057 1.26.172 1.69.117.43.268.774.454 1.032.189.263.428.456.715.578.287.123.605.184.955.184.285 0 .578-.061.875-.184a1.63 1.63 0 00.713-.548c.21-.29.371-.642.48-1.05.112-.41.165-.978.165-1.702 0-.677-.055-1.242-.17-1.69-.113-.452-.268-.812-.465-1.083-.213-.284-.452-.483-.718-.593a2.31 2.31 0 00-.912-.169zm48.601 0c-.321 0-.61.048-.87.147-.26.098-.5.284-.718.563-.205.265-.37.627-.492 1.086-.122.46-.183 1.04-.183 1.738 0 .697.057 1.26.174 1.69.115.43.266.774.45 1.032.19.263.43.456.717.578.287.123.605.184.953.184.287 0 .58-.061.876-.184.297-.122.534-.303.712-.548.212-.29.373-.642.482-1.05.111-.41.165-.978.165-1.702 0-.677-.056-1.242-.169-1.69-.112-.452-.27-.812-.466-1.083-.213-.284-.452-.483-.718-.593a2.303 2.303 0 00-.913-.169zm-73.383-.26c-.706 0-1.26.21-1.656.623-.398.416-.618.981-.659 1.697h4.39c-.02-.756-.198-1.332-.534-1.726-.337-.396-.85-.594-1.541-.594zm65.232-6.663v2.791h-3.763v-2.79h3.763zm28.751-8.052h-3.654v-5.69c0-.464-.02-.925-.058-1.385-.037-.459-.109-.797-.215-1.016a1.114 1.114 0 00-.536-.556c-.234-.114-.55-.17-.943-.17a2.6 2.6 0 00-.9.165 4.23 4.23 0 00-.974.519v8.133h-3.641V10.364h3.641v1.27a8.993 8.993 0 011.736-1.166 4.168 4.168 0 011.874-.416c1.185 0 2.096.369 2.726 1.109.627.736.944 1.808.944 3.21v7.469m7.164.222c-1.48 0-2.56-.298-3.23-.9-.678-.597-1.014-1.579-1.014-2.941v-5.36h-1.39v-2.497h1.39V7.077h3.64v3.287h3.491v2.496h-3.49v4.069c0 .401.004.751.011 1.05.004.302.06.57.163.809.098.237.267.428.514.567.244.14.604.209 1.071.209.194 0 .447-.04.76-.12.317-.08.536-.154.66-.22h.311v2.513c-.396.1-.816.18-1.259.238-.44.057-.986.087-1.628.087"/></g></svg>