<svg width="65" height="62" xmlns="http://www.w3.org/2000/svg"><g fill="none" fill-rule="evenodd"><path d="M25.286 23.857a1.43 1.43 0 01-1.429-1.428V19.57c0-1.628 4.722-4.285 8.574-4.285h-.005c3.853 0 8.574 2.657 8.574 4.285v2.858a1.43 1.43 0 01-1.429 1.428H25.286z" stroke="#1476F2"/><path d="M32.429 15.286c3.435 0 5.714-2.74 5.714-6.122V7.123C38.143 3.74 35.864 1 32.429 1c-3.436 0-5.715 2.74-5.715 6.123v2.041c0 3.382 2.279 6.122 5.715 6.122zM25.286 61a1.43 1.43 0 01-1.429-1.429v-2.857c0-1.628 4.722-4.285 8.574-4.285h-.005c3.853 0 8.574 2.657 8.574 4.285v2.857A1.43 1.43 0 0139.571 61H25.286zm7.143-8.571c3.435 0 5.714-2.74 5.714-6.122v-2.041c0-3.383-2.279-6.123-5.714-6.123-3.436 0-5.715 2.74-5.715 6.123v2.041c0 3.382 2.279 6.122 5.715 6.122zm-30-8.572A1.43 1.43 0 011 42.43v-2.86c0-1.628 4.721-4.285 8.574-4.285H9.57c3.852 0 8.574 2.657 8.574 4.285v2.858a1.43 1.43 0 01-1.429 1.428H2.43z" stroke="#1476F2"/><path d="M9.571 35.286c3.436 0 5.715-2.74 5.715-6.122v-2.041C15.286 23.74 13.007 21 9.57 21c-3.435 0-5.714 2.74-5.714 6.123v2.041c0 3.382 2.279 6.122 5.714 6.122zm38.572 8.571a1.43 1.43 0 01-1.429-1.428V39.57c0-1.628 4.722-4.285 8.575-4.285h-.006c3.853 0 8.574 2.657 8.574 4.285v2.858a1.43 1.43 0 01-1.428 1.428H48.143z" stroke="#1476F2"/><path d="M55.286 35.286c3.435 0 5.714-2.74 5.714-6.122v-2.041C61 23.74 58.721 21 55.286 21c-3.436 0-5.715 2.74-5.715 6.123v2.041c0 3.382 2.279 6.122 5.715 6.122z" stroke="#1476F2"/><path d="M10.295 16.714a27.232 27.232 0 0112.133-9.527m-2.857 49.152a27.277 27.277 0 01-9.277-8.196m44.268-31.429a27.232 27.232 0 00-12.133-9.527m2.856 49.152a27.277 27.277 0 009.277-8.196" stroke="#323232"/></g></svg>