<svg width="62" height="62" xmlns="http://www.w3.org/2000/svg"><g fill="none" fill-rule="evenodd"><path d="M35.814 6.01a13.13 13.13 0 00-3.068 3.072L29.64 8.048l-2.111 5.098 2.925 1.464a13.177 13.177 0 00-.002 4.341l-2.923 1.464 2.11 5.096 3.102-1.032a13.162 13.162 0 003.073 3.068l-1.033 3.104 5.096 2.112 1.464-2.927c1.419.238 2.883.247 4.341.004l1.464 2.923" stroke="#1476F2"/><path d="M47.411 19.902c-1.029 1.78-3.154 2.846-5.454 2.278-1.704-.42-3.076-1.813-3.483-3.52a4.877 4.877 0 013.508-5.902m-18.77 36.125a13.207 13.207 0 003.068-3.072l3.104 1.034 2.112-5.098-2.926-1.464c.237-1.418.246-2.88.004-4.342l2.922-1.463-2.112-5.096-3.101 1.03a13.176 13.176 0 00-3.072-3.066l1.033-3.105-5.097-2.11-1.464 2.924a13.177 13.177 0 00-4.341-.002l-1.463-2.923-5.099 2.11 1.034 3.103a13.13 13.13 0 00-3.068 3.072" stroke="#1476F2"/><path d="M10.333 38.333a5.341 5.341 0 016.59-5.189c1.928.44 3.493 2.005 3.934 3.933a5.342 5.342 0 01-5.19 6.59" stroke="#1476F2"/><path d="M51.667 26.333c0 13.991-11.343 25.334-25.334 25.334C12.343 51.667 1 40.324 1 26.333 1 12.343 12.343 1 26.333 1c13.991 0 25.334 11.343 25.334 25.333zM49 45l12 12-4 4-12-12" stroke="#323232"/></g></svg>