<svg width="66" height="61" xmlns="http://www.w3.org/2000/svg"><g stroke-width=".857" fill="none" fill-rule="evenodd"><path d="M26.325 21.416l.206-.206a5.105 5.105 0 013.61-1.495h2.99a1.7 1.7 0 011.7 1.7v8.507a1.7 1.7 0 01-1.7 1.702h-5.105a1.7 1.7 0 01-1.7-1.702V11.208a1.7 1.7 0 011.7-1.701h5.104c.94 0 1.702.762 1.702 1.7v3.404m15.312 13.61a3.404 3.404 0 01-3.403 3.403h-3.403a3.404 3.404 0 01-3.402-3.403V12.91a3.404 3.404 0 013.402-3.402h3.403a3.404 3.404 0 013.403 3.402v15.312zm-35.728-8.506h6.805m-8.506 8.506v1.701c0 .94.762 1.702 1.7 1.702h5.105c.939 0 1.701-.762 1.701-1.702V11.208a1.7 1.7 0 00-1.701-1.701h-5.104a1.7 1.7 0 00-1.701 1.7v1.702m52.741-6.805a5.104 5.104 0 11-10.208 0 5.104 5.104 0 0110.208 0z" stroke="#1476F2"/><path stroke="#323232" d="M28.026 46.936l6.806 6.805-6.806 6.805"/><path d="M10.208 24.506C4.191 27.6 1.13 31.931 1.13 36.727c0 9.397 13.806 17.014 32.584 17.014h1.416m20.873-29.422c6.05 3.103 9.127 7.514 9.127 12.408 0 8.43-10.467 15.43-26 16.779" stroke="#323232"/></g></svg>