<svg width="58" height="61" xmlns="http://www.w3.org/2000/svg"><g fill="none" fill-rule="evenodd"><path stroke="#323232" d="M24.72 12.15l5.582-5.582L24.721.987M12.894 47.833l-7.878-.814-.719 7.986M47.91 39.578l2.042 7.626 7.624-2.045"/><path d="M2.934 43.036A26.42 26.42 0 011 33.08C1 18.438 12.87 6.568 27.51 6.568h2.79m16.952 44.208c-4.854 5.411-11.9 8.815-19.74 8.815-9.474 0-17.789-4.97-22.476-12.445m29.452-39.65c11.257 3.061 19.535 13.356 19.535 25.584a26.39 26.39 0 01-4.07 14.123" stroke="#323232"/><path d="M35.883 47.033v-4.186c0-3.721-4.607-5.581-8.372-5.581-3.763 0-8.372 1.86-8.372 5.581v4.186m8.373-9.767c3.355 0 5.581-2.41 5.581-5.38v-1.798c0-2.97-2.226-5.38-5.581-5.38-3.356 0-5.582 2.41-5.582 5.38v1.797c0 2.971 2.226 5.38 5.582 5.38z" stroke="#1476F2"/><path d="M44.256 33.08c0 9.247-7.497 16.744-16.744 16.744S10.767 42.327 10.767 33.08s7.498-16.745 16.745-16.745 16.744 7.498 16.744 16.745z" stroke="#1476F2"/></g></svg>