<svg xmlns="http://www.w3.org/2000/svg" width="128" height="128"><g fill="#FFF" fill-rule="evenodd"><path d="M48 83.5L54.837 44l12.56.027c4.956.018 8.654.959 11.096 2.822 2.442 1.862 3.554 4.476 3.337 7.84-.271 4.16-2.55 7.108-6.837 8.844 1.538.543 2.736 1.524 3.595 2.943.86 1.42 1.225 3.125 1.099 5.114-.253 3.816-1.759 6.755-4.517 8.817-2.758 2.062-6.534 3.093-11.327 3.093H48zm12.208-16.793l-1.655 9.468 5.562.027c1.736 0 3.183-.43 4.34-1.288 1.158-.86 1.845-2.003 2.062-3.432.507-3.02-.65-4.603-3.472-4.748l-6.837-.027zm1.058-6.24l4.368.028c4.033-.09 6.294-1.637 6.782-4.64.434-2.966-1.103-4.458-4.612-4.476l-4.937-.027-1.6 9.115z"/><path fill-rule="nonzero" d="M63.775 99.93c-19.719 0-35.705-15.986-35.705-35.705 0-19.72 15.986-35.706 35.705-35.706 19.72 0 35.706 15.986 35.706 35.706 0 19.719-15.986 35.705-35.706 35.705zm0-1.348c18.976 0 34.358-15.382 34.358-34.357 0-18.976-15.382-34.358-34.358-34.358-18.975 0-34.357 15.382-34.357 34.358 0 18.975 15.382 34.357 34.357 34.357z" opacity=".8"/><path fill-rule="nonzero" d="M63.775 109.81c-25.176 0-45.586-20.409-45.586-45.585 0-25.177 20.41-45.586 45.586-45.586 25.177 0 45.586 20.41 45.586 45.586s-20.41 45.586-45.586 45.586zm0-1.347c24.433 0 44.239-19.806 44.239-44.238 0-24.433-19.806-44.239-44.239-44.239-24.432 0-44.238 19.806-44.238 44.239 0 24.432 19.806 44.238 44.238 44.238z" opacity=".6"/><path fill-rule="nonzero" d="M64 119.242C33.49 119.242 8.758 94.51 8.758 64 8.758 33.49 33.49 8.758 64 8.758c30.51 0 55.242 24.733 55.242 55.242 0 30.51-24.733 55.242-55.242 55.242zm0-1.347c29.765 0 53.895-24.13 53.895-53.895 0-29.765-24.13-53.895-53.895-53.895-29.765 0-53.895 24.13-53.895 53.895 0 29.765 24.13 53.895 53.895 53.895z" opacity=".4"/><path fill-rule="nonzero" d="M64 127.775C28.778 127.775.225 99.222.225 64 .225 28.778 28.778.225 64 .225c35.222 0 63.775 28.553 63.775 63.775 0 35.222-28.553 63.775-63.775 63.775zm0-1.347c34.478 0 62.428-27.95 62.428-62.428 0-34.478-27.95-62.428-62.428-62.428C29.522 1.572 1.572 29.522 1.572 64c0 34.478 27.95 62.428 62.428 62.428z" opacity=".2"/></g></svg>