<svg width="99" height="99" fill="none" xmlns="http://www.w3.org/2000/svg"><circle cx="49.5" cy="49.5" r="49.5" fill="#fff"/><path d="M62.4 55.3c0-.581-.058-1.143-.136-1.705l3.023-2.81-3.72-6.451-3.953 1.2a12.895 12.895 0 00-2.964-1.724l-.93-4.01h-7.44l-.93 4.01a12.23 12.23 0 00-2.965 1.725l-3.952-1.201-3.72 6.451 3.022 2.81A12.391 12.391 0 0037.6 55.3c0 .581.058 1.143.135 1.705l-3.022 2.81 3.72 6.451 3.952-1.201a12.89 12.89 0 002.965 1.724l.93 4.01h7.44l.93-4.01a12.23 12.23 0 002.964-1.724l3.953 1.201 3.72-6.452-3.023-2.81A12.39 12.39 0 0062.4 55.3z" stroke="#2A82F2" stroke-width="2"/><path d="M50 59.95a4.65 4.65 0 100-9.3 4.65 4.65 0 000 9.3zm.65-35.65a4.65 4.65 0 100-9.3 4.65 4.65 0 000 9.3zM44 33.6v-4.65c0-2.577 2.775-4.65 6.2-4.65 3.425 0 6.2 2.073 6.2 4.65v4.65M25.2 73.9a4.65 4.65 0 100-9.3 4.65 4.65 0 000 9.3z" stroke="#2A82F2" stroke-width="2"/><path d="M19 83.2v-4.65c0-2.577 2.77-4.65 6.2-4.65s6.2 2.073 6.2 4.65v4.65m43.4-9.3a4.65 4.65 0 100-9.3 4.65 4.65 0 000 9.3z" stroke="#2A82F2" stroke-width="2"/><path d="M68.6 83.2v-4.65c0-2.577 2.77-4.65 6.2-4.65 3.429 0 6.2 2.073 6.2 4.65v4.65M22.274 58.516A29.273 29.273 0 0122.1 55.3c0-10.366 5.657-19.414 14.027-24.219m26.35 49.174A27.785 27.785 0 0150 83.2a27.784 27.784 0 01-12.477-2.945m40.202-21.739c.116-1.046.175-2.131.175-3.216 0-10.366-5.658-19.414-14.028-24.219" stroke="#2A82F2" stroke-width="2"/></svg>