<svg width="100" height="100" fill="none" xmlns="http://www.w3.org/2000/svg"><circle cx="50" cy="50" r="50" fill="#fff"/><path d="M43.26 80.652v-6.739c0-4.448-7.951-6.74-12.13-6.74-4.178 0-12.13 2.292-12.13 6.74v6.74M31.13 63.13c3.1 0 5.392-2.156 5.392-5.39v-2.696c0-3.235-2.291-5.392-5.391-5.392s-5.392 2.157-5.392 5.392v2.695c0 3.235 2.292 5.392 5.392 5.392zm32.348-22.913L51.348 51l-5.392-8.087m5.392-14.826v5.391m21.565 16.174h-5.391M51.348 71.218v-5.392" stroke="#2A82F2" stroke-width="2"/><path d="M27.356 45.608c2.022-11.456 11.996-20.217 23.992-20.217 13.343 0 24.26 10.918 24.26 24.261s-10.917 24.26-24.26 24.26c-1.348 0-2.696-.134-4.044-.269" stroke="#2A82F2" stroke-width="2"/><path d="M21.695 49.652A29.567 29.567 0 0151.347 20 29.567 29.567 0 0181 49.652a29.567 29.567 0 01-29.653 29.652c-1.347 0-2.695-.134-4.043-.27" stroke="#2A82F2" stroke-width="2"/></svg>