<svg width="100" height="100" fill="none" xmlns="http://www.w3.org/2000/svg"><circle cx="50" cy="50" r="50" fill="#fff"/><path d="M65.467 72.489C74.598 72.489 82 65.087 82 55.956s-7.402-16.534-16.533-16.534-16.533 7.403-16.533 16.534c0 9.13 7.402 16.533 16.533 16.533zM50.312 29.778c-3.152 0-5.511-2.635-5.511-5.907v-1.964c0-3.272 2.36-5.907 5.51-5.907 3.153 0 5.512 2.635 5.512 5.907v1.963c0 3.273-2.36 5.908-5.511 5.908zm-9.646 8.266V35.29c0-3.772 6.217-5.511 9.644-5.511 2.928 0 7.854 1.24 9.266 3.927m-29.932 8.472c-3.152 0-5.511-2.635-5.511-5.908v-1.963c0-3.272 2.36-5.907 5.51-5.907 3.153 0 5.512 2.635 5.512 5.907v1.963c0 3.273-2.36 5.908-5.511 5.908zm8.939 3.444c-1.722-2.342-6.218-3.444-8.939-3.444-3.427 0-9.644 1.74-9.644 5.51v2.756m16.534 13.778c-3.152 0-5.511-2.635-5.511-5.907v-1.963c0-3.255 2.359-5.908 5.51-5.908 3.152 0 5.512 2.635 5.512 5.908v1.963c0 3.272-2.36 5.907-5.511 5.907zm-9.644 8.267v-2.756c0-3.771 6.217-5.51 9.644-5.51 3.427 0 9.645 1.704 9.645 5.476v2.79m19.287-24.8v16.533m8.267-8.266H57.199" stroke="#2A82F2" stroke-width="2"/></svg>