<svg width="100" height="100" fill="none" xmlns="http://www.w3.org/2000/svg"><circle cx="50" cy="50" r="50" fill="#fff"/><path d="M34.09 75.364v-2.818c0-1.603-3.874-4.21-7.045-4.21-3.17 0-7.045 2.607-7.045 4.21V81m7.046-12.735c2.536 0 4.227-2.149 4.227-4.808v-1.603c0-2.66-1.691-4.809-4.227-4.809-2.537 0-4.228 2.15-4.228 4.809v1.603c0 2.66 1.691 4.808 4.228 4.808zM51 64.09v-2.817c0-1.603-3.875-4.21-7.045-4.21s-7.046 2.607-7.046 4.21v5.636m7.046-9.916c2.536 0 4.227-2.149 4.227-4.809v-1.602c0-2.66-1.69-4.81-4.227-4.81-2.537 0-4.227 2.15-4.227 4.81v1.602c0 2.66 1.69 4.809 4.227 4.809zm15.499-12.629v-4.228c0-1.602-3.875-4.21-7.045-4.21s-7.046 2.608-7.046 4.21v1.41m7.046-5.69c2.536 0 4.227-2.149 4.227-4.808v-1.603c0-2.66-1.69-4.809-4.227-4.809-2.536 0-4.227 2.15-4.227 4.809v1.603c0 2.66 1.69 4.808 4.227 4.808z" stroke="#2A82F2" stroke-width="2"/><path d="M69.952 71.33c3.435-4.14 5.002-9.212 5.002-15.694V31.682h4.228L71.255 19l-7.573 12.682h4.227v23.954c0 14.532-12.154 23.955-25.364 23.955H29.863" stroke="#2A82F2" stroke-width="2"/><path d="M50.313 70.82c7.38-3.629 7.978-10.815 8.19-13.457.176-2.114.229-2.801.229-2.801" stroke="#2A82F2" stroke-width="2"/></svg>