<svg width="99" height="99" fill="none" xmlns="http://www.w3.org/2000/svg"><circle cx="49.5" cy="49.5" r="49.5" fill="#fff"/><path d="M58.739 43.26a5.391 5.391 0 100-10.782 5.391 5.391 0 000 10.783z" stroke="#2A82F2" stroke-width="2"/><path d="M50.651 50.674c1.483.943 2.965 1.617 4.718 1.887l.674 4.043h5.39l.675-4.043c1.752-.404 3.235-1.078 4.717-1.887l3.37 2.426 3.909-3.909-2.561-3.235c.943-1.482 1.617-2.965 1.887-4.717l4.043-.674v-5.391L73.43 34.5c-.405-1.752-1.079-3.235-1.887-4.717l2.426-3.37-3.909-3.909-3.235 2.561c-1.482-.943-2.965-1.617-4.717-1.887L61.434 19h-5.391l-.674 4.044c-1.752.404-3.235 1.078-4.718 1.886l-3.37-2.426-3.908 3.909 2.56 3.37c-.943 1.482-1.617 2.965-1.886 4.717M26.391 62.13C23.426 62.13 21 59.3 21 56.74V44.608c0-4.448 7.413-6.74 12.13-6.74 4.718 0 13.479 2.292 13.479 6.74v16.174M33.13 33.826c-3.1 0-5.39-2.157-5.39-5.391v-2.696c0-3.235 2.29-5.391 5.39-5.391 3.1 0 5.392 2.156 5.392 5.391v2.696c0 3.234-2.291 5.39-5.391 5.39zM26.392 81V47.304m14.826 0v13.478m0 12.131V81M33.13 60.783V81" stroke="#2A82F2" stroke-width="2"/><path d="M38.522 72.913h14.826v-12.13H38.522v12.13z" stroke="#2A82F2" stroke-width="2"/></svg>