<svg width="180" height="70" fill="none" xmlns="http://www.w3.org/2000/svg"><mask id="a" maskUnits="userSpaceOnUse" x="0" y="0" width="180" height="70"><path fill="#C4C4C4" d="M0 0h180v70H0z"/></mask><g mask="url(#a)" fill-rule="evenodd" clip-rule="evenodd" fill="#171717"><path d="M50.143 37.337l-.873-.893a666.978 666.978 0 01-2.034-2.086c-.125-.13-.19-.061-.266.02a1.599 1.599 0 01-.026.026l-2.808 2.865-.006.006a.521.521 0 00-.128.18h6.205a.497.497 0 01-.042-.078.144.144 0 00-.022-.04zm-3.417 3.293l.059.001c.084.003.169.005.248-.042a69.132 69.132 0 01-1.6-1.635 22.084 22.084 0 00-.493-.495c-.326-.32-.652-.64-.94-1a.109.109 0 01-.03 0l.004-.003h-.019a.186.186 0 01-.074-.054l-.916-.939-.001-.001a339.15 339.15 0 01-1.987-2.046c-.155-.162-.235-.139-.377.008-.576.595-1.156 1.186-1.736 1.776l-.996 1.017-.02.021c-.054.052-.12.116-.108.218h6.215l.015.003c-.749.765-1.467 1.49-2.176 2.206v.001l-.002.002-.93.939c.011.008.013.02.004.03l.032.005.027.004.062.01c.154-.001.307-.004.46-.007.273-.006.545-.011.817-.012l1.488-.002 2.974-.005zm-2.357 3.703c-.409-.415-.412-.412-.828.01l-.005.005c-.354.359-.707.72-1.063 1.083-.536.547-1.077 1.1-1.632 1.658h6.232c-.662-.7-1.3-1.342-1.931-1.977-.258-.26-.516-.518-.773-.779zm-6.641 6.005h6.144a.29.29 0 00-.132-.208.443.443 0 01-.053-.044l-.19-.194c-.84-.86-1.684-1.723-2.516-2.59-.16-.166-.236-.124-.372.017-.703.725-1.411 1.449-2.118 2.172l-.59.604a1.336 1.336 0 01-.036.035c-.057.054-.12.113-.137.208zm3.183 3.36l-.027-.031c-.032-.04-.067-.084-.134-.06v-.021c0-.028-.002-.053-.02-.074.017.02.02.047.02.074v.016c-.002.032-.018.036-.048.026a780.554 780.554 0 01-3.011 3.093h6.186l-.058-.065a1.353 1.353 0 00-.054-.06c-.54-.552-1.08-1.099-1.62-1.646-.411-.417-.823-.833-1.234-1.252zm-9.545 3.075h6.212l-.056-.076c-.024-.031-.038-.05-.054-.067-.958-.978-1.916-1.955-2.876-2.932a.356.356 0 01-.026-.03c-.032-.04-.066-.084-.134-.052l-.044.027-.611.628-.002.001c-.477.49-.954.98-1.43 1.473a89.033 89.033 0 00-.98 1.028zm-3.075-3.344l-.008.007c-.034.03-.075.068.012.105l.434-.006c.317-.005.635-.01.953-.01.815-.002 1.63-.002 2.445-.002l1.948-.001a.83.83 0 01.07.002c.08.003.16.007.237-.032l-.604-.617-2.32-2.375-.002-.002c-.087-.089-.15-.154-.271-.03-.643.662-1.287 1.32-1.932 1.978v.001l-.953.973a.202.202 0 01-.01.01zm-3.223-3.149h6.145l-.01-.017c-.024-.045-.033-.062-.05-.079l-1.12-1.14a343.422 343.422 0 01-1.748-1.786c-.129-.132-.197-.077-.295.024-.522.534-1.045 1.067-1.57 1.599l-1.202 1.224a.742.742 0 00-.053.065.669.669 0 01-.097.11zm.056-6.441h6.114a.466.466 0 01-.093-.107.338.338 0 00-.034-.044 358 358 0 00-1.056-1.071l-.001-.001c-.592-.6-1.184-1.199-1.772-1.806-.13-.136-.188-.077-.275.012l-.01.011c-.469.48-.938.956-1.406 1.432l-.001.001c-.453.46-.906.921-1.359 1.384a.387.387 0 01-.037.032c-.044.034-.087.067-.07.157zm.18-6.395c1.895.002 3.79.001 5.684-.002.017 0 .035.003.053.005.06.008.123.016.149-.053.024-.066-.026-.105-.074-.143a.463.463 0 01-.042-.036l-.989-1.01v-.001c-.587-.6-1.175-1.199-1.759-1.801-.126-.13-.199-.146-.333-.005-.49.517-.992 1.023-1.493 1.529l-.052.051c-.316.319-.634.635-.956.954v.001l-.431.428c.094.09.16.087.216.084h.027zm3.823-4.194c-.303.3-.613.609-.942.956h6.188l-.005-.022c-.009-.04-.011-.05-.021-.06-.97-.991-1.943-1.989-2.91-2.985-.117-.122-.175-.062-.252.018l-.017.017-.309.317a197.557 197.557 0 01-1.732 1.759zm2.435-2.487a.408.408 0 01-.037.032c-.044.035-.09.072-.08.162h6.112l-.1-.114a3.48 3.48 0 00-.123-.139l-.875-.89c-.6-.61-1.199-1.219-1.792-1.836-.167-.174-.25-.136-.397.015-.573.593-1.15 1.181-1.728 1.77l-.98 1zm9.151 9.838l-.738-.753-.001-.001c-.732-.747-1.464-1.493-2.189-2.248-.147-.153-.215-.082-.302.01l-.028.03-1.679 1.712-.795.81-.088.09c-.098.1-.197.2-.291.302-.083.089-.02.098.04.106a.693.693 0 01.024.003l.407-.007c.3-.006.599-.012.899-.013l2.63-.001a2242.86 2242.86 0 001.893.002c.075.003.15.007.218-.042zM34.59 47.09h6.121l-.036-.062a.279.279 0 00-.04-.059l-.487-.499c-.794-.811-1.59-1.624-2.379-2.438-.13-.135-.194-.076-.293.025a444.87 444.87 0 01-2.234 2.28c-.164.166-.335.328-.505.49l-.205.194c.006.007.012.01.018.014.013.008.026.015.04.055zm-3.12-3.024c-.121-.127-.222-.147-.327-.029-.54.605-1.11 1.18-1.68 1.753-.373.376-.746.752-1.11 1.136a.2.2 0 01-.036.027c-.037.025-.075.05-.043.137h6.107c-.117-.213-.27-.354-.42-.492-.055-.05-.109-.1-.16-.152l-.486-.493a243.096 243.096 0 01-1.845-1.887zm-.071-6.61h6.192a.872.872 0 00-.138-.165l-.026-.026-.29-.297a334.02 334.02 0 01-2.457-2.527c-.176-.184-.265-.145-.421.016-.64.662-1.285 1.32-1.93 1.979a1095.893 1095.893 0 00-.796.812c-.057.054-.12.114-.134.209zm.13.21c-.163-.169-.252-.18-.42-.005-.644.669-1.294 1.33-1.945 1.993l-.759.774a1.564 1.564 0 01-.037.036.43.43 0 00-.11.137c-.019.05.017.052.052.054.015 0 .03.001.04.006l.358-.007c.258-.005.515-.01.773-.01 1.51-.003 3.021-.002 4.532-.002.058 0 .115.006.173.011l.08.007c.229-.07.1-.136.024-.176a.22.22 0 01-.041-.025c-.406-.42-.814-.836-1.222-1.253-.5-.511-1.002-1.023-1.498-1.54zm5.239 5.36l-.005-.005a451.808 451.808 0 01-2.165-2.218c-.12-.124-.173-.069-.25.011l-.015.015-2.854 2.915c-.008.009-.018.015-.027.022-.032.021-.062.042-.032.132h6.16a.403.403 0 00-.112-.157l-.7-.715zm-5.353 7.313h6.141c-.047-.1-.066-.118-.086-.137a772.647 772.647 0 01-2.878-2.952c-.125-.13-.186-.062-.255.015a1770.451 1770.451 0 00-1.943 1.986l-.802.82a.343.343 0 01-.05.043.285.285 0 00-.127.225zm9.033 3.187c.086.004.172.009.254-.031l-.717-.733-.004-.004a323.374 323.374 0 01-2.161-2.221c-.154-.16-.232-.144-.377.005-.61.63-1.225 1.255-1.84 1.88l-.93.948a.463.463 0 01-.028.026c-.04.034-.08.07-.069.136l1.099-.001h.015l4.676-.008.082.003zm3.147-9.998c-.919-.935-1.832-1.869-2.748-2.808a1.171 1.171 0 00-.067.026.96.96 0 01-.068.027l-.871.885c-.717.726-1.439 1.456-2.177 2.24h6.193a.255.255 0 01.056-.083.412.412 0 00.02-.022l-.037-.026-.038-.028c-.092-.066-.186-.133-.263-.211zm-5.83-12.384c-.127-.13-.194-.061-.275.024l-.02.02-.363.372a281.284 281.284 0 01-1.638 1.666c-.309.31-.625.626-.963.981h6.204a.7.7 0 01-.038-.062.305.305 0 00-.04-.059c-.956-.977-1.916-1.96-2.867-2.942zm.333-.628l-.397.4c.115.074.201.07.279.066l.049-.002h.183c1.71.002 3.421.004 5.132-.002.043 0 .093.007.143.014.135.02.274.04.321-.077.036-.09-.068-.166-.172-.242a.994.994 0 01-.127-.103 280.68 280.68 0 00-1.27-1.31l-.001-.001a306.72 306.72 0 01-1.205-1.242c-.174-.18-.286-.22-.485-.003-.382.42-.783.823-1.184 1.226l-.396.4-.87.876zm5.983.627c-.126-.13-.19-.063-.272.023l-.02.022-.391.4a377.613 377.613 0 01-1.97 2.018h-.001v.001l-.588.6h6.18c-.037-.092-.056-.108-.076-.124a835.97 835.97 0 01-2.862-2.94zm3.36 2.766a.66.66 0 01-.043.04c-.06.05-.123.105-.081.193.038.082.119.074.194.067a.617.617 0 01.064-.005l.282.002c.721.003 1.443.006 2.164-.004.198-.003.256.046.256.252 0 .237-.003.475-.006.713-.007.67-.014 1.342.026 2.012.012.192-.059.327-.189.459-.896.905-1.787 1.816-2.676 2.728a1.312 1.312 0 01-.067.061c-.07.06-.14.12-.157.222l2.875.011.125.002c.035-.013.05.001.05.037.002.236-.002.473-.006.71-.01.548-.018 1.096.036 1.636.032.319-.006.581-.106.816a.308.308 0 00-.115-.172.796.796 0 01-.04-.037c-.187-.193-.377-.384-.566-.576a78.283 78.283 0 01-.878-.898 25.047 25.047 0 00-.465-.468c-.322-.32-.644-.64-.93-.995a.711.711 0 00-.06.012l-.06.011c0 .031-.016.048-.044.038l-.825.845c-.72.736-1.447 1.48-2.196 2.277h6.174c-.102.232-.267.428-.488.635a67.1 67.1 0 00-1.894 1.88l-.61.619c.093.08.18.075.26.069a.819.819 0 01.059-.003c.844.002 1.688.001 2.532-.001h.02c.12-.001.218-.002.218.185-.003.665 0 1.329.003 1.993v.003l.003.904a.193.193 0 01-.014.059 1.348 1.348 0 00-.02.063l-.108-.105a10.259 10.259 0 01-.203-.199 1738.173 1738.173 0 01-2.681-2.74c-.075-.08-.135-.144-.26-.014-.677.699-1.357 1.394-2.038 2.09h-.001l-.87.89a.558.558 0 00-.06.078l-.023.032-.056.044c-.04.032-.082.064-.118.101-.94.956-1.88 1.913-2.816 2.871-.011.012-.024.022-.037.033-.044.037-.09.075-.077.15l6.056.005.036-.003a2.05 2.05 0 01.084-.007 761.07 761.07 0 01-2.885-2.955c-.019-.019-.04-.036-.06-.053-.058-.047-.117-.095-.126-.181l1.399-.003 2.967-.007h1.924l-1.682 1.706-.002.002-1.478 1.499a.208.208 0 01-.024.018c-.017.012-.034.023-.034.035-.58.589-1.151 1.178-1.723 1.766-.44.453-.88.906-1.322 1.357l-.97.99-.002.001c-.689.7-1.377 1.4-2.058 2.107-.175.182-.262.158-.421-.006-.456-.472-.916-.94-1.376-1.408-.465-.475-.93-.95-1.393-1.427-.141-.146-.214-.144-.354 0-.58.599-1.163 1.194-1.747 1.788l-1.064 1.086c-.106.109-.18.172-.32.028a472.67 472.67 0 00-1.89-1.935v-.001l-.98-1c-.009-.01-.019-.018-.029-.027-.038-.033-.078-.068-.068-.131-.083 0-.127-.056-.17-.11a.648.648 0 00-.044-.052l-2.208-2.248c-1.235-1.257-2.47-2.515-3.707-3.77a.752.752 0 01-.242-.582c.012-.89.012-1.778 0-2.667-.002-.208.063-.258.258-.256.684.007 1.369.006 2.056.005l.733-.001c.008-.11-.056-.162-.116-.211a.473.473 0 01-.052-.046 352.505 352.505 0 00-2.655-2.703.713.713 0 01-.223-.56c.01-.699.01-1.398.01-2.097l.002-.772c.015-.06.063-.065.11-.065l2.628.015.267.001c.054-.105-.012-.155-.072-.2-.018-.014-.035-.027-.048-.041-.89-.912-1.78-1.824-2.678-2.725a.686.686 0 01-.218-.535c.008-.899.01-1.798 0-2.698-.002-.2.05-.261.252-.259.614.009 1.227.008 1.84.006h1.048c-.724-.74-1.422-1.438-2.115-2.132-.34-.34-.68-.68-1.02-1.023a.483.483 0 01.335-.074l.071.003h5.492a.61.61 0 01.07.005c.076.009.157.018.19-.057.037-.08-.027-.128-.087-.174a.42.42 0 01-.054-.046l-1.78-1.82c-.265-.269-.53-.538-.793-.808a7.761 7.761 0 01-.173-.184l-.085-.091c.077-.056.15-.05.22-.044l.063.003c1.514-.002 3.028-.002 4.542-.002h.959c.054.002.108.003.161-.003h.046c.05.002.103.004.127-.06.024-.066-.019-.102-.06-.136l-.03-.027c-.225-.23-.454-.458-.683-.685-.513-.508-1.025-1.016-1.493-1.564-.495-.578-1.03-.764-1.77-.74-1.234.038-2.47.03-3.706.023-.5-.003-1-.006-1.5-.006-.021-.093.032-.138.083-.18a.317.317 0 00.039-.034l2.18-2.225.002-.003c1.27-1.296 2.54-2.592 3.807-3.89.117-.12.176-.123.293-.003 1.01 1.034 2.024 2.065 3.037 3.097l2.132 2.174c1.34 1.367 2.677 2.739 4.012 4.112.11.112.222.154.376.153 1.331-.003 2.663-.002 3.995-.001h2.061c.013 0 .025.024.038.048a.336.336 0 00.018.032l-.456.443h-.001v.001a84.57 84.57 0 00-.91.888c-.49.49-.975.985-1.46 1.481l-.051.052-.043.039c-.053.044-.11.091-.08.164.03.072.102.064.171.057a.561.561 0 01.06-.005c1.028.002 2.055 0 3.083-.004.84-.002 1.682-.004 2.523-.004h.358c-.331.365-.636.668-.933.962a45.06 45.06 0 00-.379.379c-.338.343-.676.692-1.014 1.04l-.554.57zm-.252 6.8l.003-.012-.004.012zM25.494 17.194h-.515l.204-.215c.126-.134.238-.252.351-.368l1.42-1.446c1.379-1.404 2.757-2.808 4.13-4.218.188-.195.284-.177.462.005 3.014 3.082 6.032 6.158 9.056 9.23.169.171.159.266-.005.43a239 239 0 00-2.777 2.83c-.157.164-.235.136-.378-.01-.985-1.01-1.972-2.017-2.959-3.023v-.001c-.99-1.01-1.981-2.021-2.97-3.034a.597.597 0 00-.471-.2c-1.452.008-2.904.013-4.357.017l-1.19.003zm24.158 6.66l.001.002.476.486c.03.03.059.063.096.106l.111.126h-.404c-1.914 0-3.83-.003-5.744-.01a.53.53 0 00-.422.177c-.346.357-.694.712-1.042 1.067-.43.437-.859.875-1.284 1.317-.148.154-.227.155-.377-.001a252.832 252.832 0 00-2.794-2.85c-.149-.149-.16-.225-.005-.382 1.849-1.873 3.69-3.754 5.53-5.635l.013-.013c.108-.111.18-.185.339-.021 1.83 1.88 3.669 3.756 5.506 5.631zM38.264 16.96c-.174-.174-.181-.267-.002-.448a1447.79 1447.79 0 005.49-5.593c.124-.126.198-.187.357-.024 1.576 1.616 3.157 3.23 4.737 4.842h.001l1.247 1.273.026.024c.04.036.086.076.08.171h-.526c-1.8 0-3.602 0-5.402-.012a.716.716 0 00-.57.24c-.347.36-.697.716-1.047 1.073-.407.415-.815.83-1.218 1.25-.156.163-.243.194-.418.012-.908-.946-1.828-1.88-2.755-2.808zm-.825-.847a527.16 527.16 0 00-2.896-2.954c-.112-.113-.124-.185-.008-.304a804.134 804.134 0 002.9-2.95 1.78 1.78 0 01.082-.077.313.313 0 00.032-.03c.068 0 .101.038.132.073a.511.511 0 00.02.023l.916.932c.674.687 1.348 1.373 2.025 2.057.106.107.073.164-.013.252-.975.989-1.947 1.979-2.916 2.973-.103.105-.166.116-.274.005zm10.727 43.712c-.851.008-1.537-.738-1.539-1.673 0-.895.68-1.625 1.518-1.626.852-.001 1.542.73 1.544 1.636.003.906-.684 1.655-1.523 1.663zm-.016-3.614c-1.055 0-1.91.86-1.908 1.923.001 1.13.824 2 1.893 2 1.093 0 1.911-.844 1.912-1.972.001-1.109-.817-1.95-1.897-1.951zm-.341 1.66c-.02.104-.04.215.168.22.333.009.572-.151.57-.38-.003-.221-.21-.366-.514-.38-.243-.012-.237.124-.23.272a.99.99 0 010 .12c.026.036.016.09.006.147zm1.078-.398c.09.294.005.495-.316.74.232.167.27.41.308.655.016.106.033.213.066.313.023.07-.02.112-.087.113-.017 0-.034.002-.052.004-.096.007-.197.014-.234-.115a2.787 2.787 0 01-.056-.252 2.62 2.62 0 00-.035-.172c-.038-.163-.088-.308-.276-.366-.328-.1-.4-.054-.4.294l-.001.107c-.001.11-.002.219.001.328.004.119-.038.177-.163.175-.122 0-.196-.03-.195-.176.004-.618.003-1.236 0-1.854-.001-.14.068-.19.19-.193l.176-.005c.15-.006.3-.012.448 0 .273.02.53.092.626.404zm23.344-28.9l.002-.66c.002-.496.004-.991-.005-1.486-.016-.924-.38-1.29-1.286-1.33h-.056a.547.547 0 01-.086-.002c-.03-.004-.062-.003-.095-.003-.106.003-.217.005-.22-.145-.004-.176.169-.173.283-.171h.028c.347.003.695.013 1.042.023.372.01.744.02 1.116.022.633.003 1.266-.018 1.899-.045a2.04 2.04 0 01.45.024c.083.015.153.05.153.142-.001.108-.08.142-.175.149a4.695 4.695 0 01-.065.004c-.082.005-.165.01-.245.026-.698.132-.885.363-.929 1.084-.066 1.089-.06 2.179-.054 3.268.003.582.006 1.164-.001 1.746a5.446 5.446 0 01-.015.291l-.004.056c-.014.214-.128.342-.316.439-.857.44-1.777.663-2.717.793a12.016 12.016 0 01-4.787-.284c-1.491-.398-2.838-1.082-3.905-2.25-1.025-1.122-1.62-2.47-1.886-3.96-.326-1.831-.142-3.62.632-5.32 1.005-2.207 2.7-3.562 5.01-4.118 1.709-.411 3.434-.39 5.165-.147.3.042.599.1.897.158.575.112 1.15.224 1.741.223.213 0 .334.104.303.348-.12.95-.132 1.906-.128 2.863a.628.628 0 01-.017.126.878.878 0 00-.013.074c-.012.09-.03.176-.143.183-.13.007-.148-.088-.164-.19l-.028-.172c-.03-.19-.06-.38-.104-.567-.183-.77-.687-1.266-1.356-1.62-.82-.432-1.698-.65-2.609-.746-1.098-.118-2.197-.118-3.27.172-2.108.57-3.465 1.937-3.976 4.103-.654 2.774-.24 5.372 1.509 7.64 1.126 1.46 2.669 2.282 4.473 2.574 1.07.173 2.133.15 3.176-.172.647-.2.788-.407.788-1.084v-2.059h-.012zm14.234 13.51v3.13c0 .497.032.535.516.665.684.184 1.381.198 2.081.18.873-.022 1.527-.425 1.931-1.208.622-1.201.654-2.475.375-3.772-.191-.89-.607-1.643-1.36-2.164-1.025-.709-2.158-.671-3.31-.476-.227.038-.233.218-.233.399v3.246zm10.561 11.33h-.096l-.133.002c-.511.002-1.023.005-1.53-.083-.947-.164-1.618-.763-2.203-1.483-1.099-1.352-2.106-2.774-3.113-4.196l-.34-.48c-.21-.296-.428-.455-.815-.445h-.014c-.666.018-1.336.035-2.002-.038-.234-.026-.318.08-.32.318-.01 1.097.017 2.194.042 3.291l.021.94c.006.27.037.54.081.805.133.783.345.97 1.123 1.021.166.011.331.027.496.044l.07.006c.078.008.156.022.151.13-.004.096-.076.14-.15.146-.178.014-.357.017-.535.02h-.062c-.368.007-.736-.01-1.104-.029-.475-.023-.95-.046-1.424-.017-.473.028-.946.041-1.42.048a1.135 1.135 0 01-.28-.03.14.14 0 01-.111-.15c.005-.083.063-.106.137-.116.085-.011.171-.025.257-.038.093-.014.184-.029.276-.04.314-.04.483-.238.567-.532.08-.279.134-.564.149-.852a41.11 41.11 0 00.066-1.998c.004-3.317 0-6.633-.007-9.95 0-.289-.024-.58-.06-.866-.064-.509-.434-.815-1.022-.862a4.13 4.13 0 00-.236-.01 4.548 4.548 0 01-.218-.01c-.095-.006-.207-.02-.213-.144-.007-.141.11-.173.216-.174l.305-.005a10.2 10.2 0 01.974.013c.796.061 1.589.035 2.383.008l.428-.014c1.138-.035 2.272-.022 3.376.337a3.611 3.611 0 012.53 3.56c-.034 1.27-.514 2.38-1.283 3.37-.319.41-.657.801-1.033 1.155-.128.12-.124.201-.019.336.357.456.708.916 1.06 1.376v.001c1.004 1.316 2.009 2.632 3.131 3.847.774.838 1.69 1.433 2.872 1.455.072.002.143.012.215.022l.123.016c.079.007.164.017.17.115.006.108-.082.15-.168.163-.109.016-.22.017-.33.017h-.01c-.25.002-.498.001-.747.001h-.221zm-18.48-31.95v.958h.015l-.002 1.12c-.003.864-.005 1.729.006 2.593.013.986.097 1.966.382 2.916.444 1.479 1.296 2.618 2.706 3.25 1.68.752 3.424.842 5.154.25 1.678-.574 2.84-1.739 3.386-3.487.325-1.04.452-2.113.465-3.196.016-1.451.014-2.903.012-4.355l-.002-1.447c0-.628.006-1.255.055-1.882.046-.602.257-.865.837-.989.112-.024.228-.034.344-.043l.05-.004c.093-.008.178-.034.178-.143 0-.106-.083-.144-.176-.15a2.431 2.431 0 00-.228-.004c-.197.005-.394.013-.592.022-.437.018-.874.037-1.31.018a50.33 50.33 0 00-1.647-.035l-.343-.004c-.104-.002-.23.004-.236.147-.006.148.115.148.22.147h.006c.277 0 .548.042.813.118a.818.818 0 01.614.654c.076.35.094.709.096 1.064.007 1.72.008 3.44.01 5.16v1.628c.001.862-.06 1.718-.227 2.563-.184.931-.485 1.82-1.169 2.498-.97.963-2.15 1.344-3.503 1.246-1.686-.122-2.828-1.013-3.515-2.533-.467-1.035-.563-2.16-.573-3.284-.012-1.388-.01-2.776-.007-4.163l.003-1.581v-.235c0-.685 0-1.37.05-2.054.05-.68.242-.92.906-1.035.102-.017.205-.035.308-.043.104-.007.204-.027.198-.153-.006-.122-.112-.142-.212-.143h-.298l-.3-.001c-.31-.003-.619.008-.928.02-.485.018-.97.037-1.455-.002a12.76 12.76 0 00-1.136-.021c-.153.001-.305.003-.457.002h-.003c-.103 0-.233 0-.24.138-.01.146.097.152.198.157l.047.002.125.01c.156.013.313.025.468.052.496.085.784.358.845.807.034.258.058.52.059.779.004.889.004 1.777.003 2.666v.001zm49.863 32.243c-1.799 0-3.386-.183-4.868-.88-2.475-1.166-3.968-3.122-4.414-5.88-.297-1.83-.092-3.595.713-5.273 1.037-2.161 2.709-3.506 5.006-4.041 1.504-.35 3.021-.337 4.548-.19.499.049.991.138 1.484.227.578.105 1.156.21 1.743.248.212.014.241.15.222.324a23.527 23.527 0 00-.128 2.573c0 .203-.015.406-.031.609l-.008.113a.77.77 0 00-.003.07c-.005.138-.009.296-.186.284-.171-.012-.164-.176-.158-.316l.002-.064a3.29 3.29 0 00-.135-.943c-.201-.698-.6-1.237-1.243-1.581-.887-.475-1.836-.701-2.827-.792-1.125-.104-2.236-.026-3.32.286-1.895.547-3.086 1.859-3.603 3.756-.526 1.927-.555 3.884.21 5.765 1.056 2.598 2.963 4.174 5.698 4.639a8.034 8.034 0 003.106-.104c1.204-.268 1.943-1.02 2.229-2.24l.037-.153c.024-.099.049-.197.069-.297.022-.112.052-.218.189-.204.138.014.153.139.15.242a4.74 4.74 0 01-.05.517c-.1.735-.209 1.469-.387 2.19a.857.857 0 01-.556.64c-.499.197-1.023.282-1.548.345-.705.085-1.414.146-1.941.13zM103.531 50.4l-.174.415-.041-.094c-.02-.044-.035-.076-.046-.108l-.896-2.43-.002-.004-.001-.005h-.001c-.882-2.395-1.765-4.789-2.64-7.185a30.373 30.373 0 00-.24-.633c-.216-.562-.433-1.124-.576-1.713-.086-.35.021-.526.36-.628.139-.042.281-.046.424-.049.075-.002.15-.003.224-.01.084-.009.179-.028.192-.138.014-.12-.08-.137-.158-.151l-.01-.002a2.147 2.147 0 00-.31-.029c-.388-.015-.776.006-1.164.027-.408.022-.815.044-1.222.024-.7-.034-1.401-.066-2.103-.052h-.026c-.096.002-.19.003-.28.045-.056.026-.101.058-.101.124s.04.11.1.124a.955.955 0 00.223.032c.997-.012 1.625.484 1.989 1.419 1.222 3.143 2.454 6.282 3.687 9.421l.002.005.587 1.496c.388.987.784 1.971 1.18 2.955l.062.156c.059.147.148.285.325.285.16 0 .22-.134.275-.255l.014-.03.128-.276v-.001c.216-.467.432-.933.633-1.407 1-2.343 1.96-4.703 2.921-7.063v-.001h.001v-.002l.001-.001a895.23 895.23 0 011.28-3.136c.105-.255.204-.514.304-.772.271-.703.542-1.406.924-2.06.279-.478.686-.696 1.214-.731.035-.003.075-.001.116 0 .151.007.318.014.314-.179-.005-.175-.179-.161-.329-.15-.035.003-.07.006-.1.006-.298 0-.596.012-.894.025-.563.023-1.125.047-1.69-.014a6.333 6.333 0 00-.805-.017l-.247.005h-.014c-.127 0-.297.002-.294.169.004.148.134.15.251.152a3.607 3.607 0 00.246.008c.082.002.165.003.246.012.393.044.563.286.49.68-.077.41-.21.802-.347 1.192-1.149 3.273-2.389 6.51-3.666 9.733-.107.269-.219.535-.336.814v.001zm-28.52-8.824c0 .25 0 .499.002.748 0 .66.002 1.32-.007 1.979-.003.244.077.313.31.31.416-.008.833-.009 1.25-.01a67.61 67.61 0 001.623-.017l.04-.001c.465-.012.948-.025 1.267-.48.04-.056.112-.122.195-.061.078.056.062.148.05.224l-.004.018a13.788 13.788 0 00-.202 1.904c-.008.21-.017.42-.03.63l-.001.024c-.006.109-.012.235-.158.235-.141 0-.149-.115-.155-.22a1.57 1.57 0 00-.003-.04c-.004-.049-.005-.099-.006-.149 0-.047-.001-.093-.005-.14-.046-.577-.356-.937-.917-1.005-1.003-.122-2.012-.124-3.02-.127h-.016c-.164 0-.213.08-.213.232.002.583.001 1.165 0 1.748-.001 1.284-.003 2.567.02 3.85.017.9.324 1.208 1.22 1.327a9.184 9.184 0 002.579-.023c.802-.12 1.2-.545 1.365-1.375.028-.141.058-.283.093-.422.019-.078.057-.153.151-.144.084.008.102.078.118.144l.007.028a.717.717 0 01-.009.329 1.46 1.46 0 00-.02.13l-.001.006a21.498 21.498 0 01-.204 1.541c-.11.602-.25.7-.842.703a74.967 74.967 0 01-4.83-.112 12.115 12.115 0 00-1.325.02c-.316.017-.631.033-.948.031h-.099c-.09 0-.18.001-.27-.004-.103-.005-.19-.042-.191-.167 0-.11.074-.118.147-.125a9.728 9.728 0 01.345-.047c.478-.058.648-.208.763-.679.12-.49.155-.994.16-1.493.046-3.8.035-7.6.01-11.4a4.647 4.647 0 00-.062-.692c-.078-.49-.418-.76-1.023-.824a2.742 2.742 0 00-.23-.012 3.755 3.755 0 01-.168-.007l-.041-.002c-.103-.004-.217-.008-.217-.15 0-.146.132-.173.251-.172l.362-.002c.326-.003.652-.006.975.019.389.03.776.037 1.164.038 1.442.003 2.883.002 4.325-.008.434-.003.872-.01 1.286-.18.199-.082.217.056.203.189a3.612 3.612 0 01-.06.34c-.017.085-.034.17-.047.256-.05.336-.073.674-.094 1.013-.01.162-.021.324-.035.486-.002.03-.002.064-.002.1 0 .155 0 .342-.2.337-.176-.004-.17-.173-.166-.322.001-.037.002-.072 0-.104-.04-.798-.377-1.13-1.287-1.236-.666-.078-1.334-.076-2.002-.074-.317 0-.635.002-.952-.006-.213-.005-.22.12-.22.279.002.711.002 1.423.002 2.135v.679zm63.907.733l-.001-.759v-.688c.001-.699.002-1.398-.002-2.097-.001-.182.028-.29.245-.284.335.01.67.01 1.005.01.612 0 1.225 0 1.836.063 1.006.106 1.292.395 1.377 1.426l.001.012v.011a.2.2 0 00.002.035l.002.009c.017.094.036.194.158.193.124 0 .151-.11.162-.203.034-.277.054-.555.074-.834.036-.51.072-1.02.194-1.52.03-.122-.016-.266-.212-.183-.402.17-.831.181-1.256.184a459.1 459.1 0 01-4.296.008 17.151 17.151 0 01-1.278-.04c-.313-.024-.627-.02-.942-.017l-.366.003c-.113 0-.218.032-.214.173.004.129.115.139.207.147h.003c.072.007.145.009.219.01.069.002.138.004.207.01.655.054.986.347 1.06.955a7.1 7.1 0 01.055.837l.002.317c.007 1.345.013 2.69.004 4.035-.005.782 0 1.563.004 2.345.009 1.635.018 3.27-.06 4.905-.018.395-.058.79-.177 1.17-.083.268-.245.452-.536.49-.111.015-.221.032-.332.05l-.083.013-.118.017c-.079.012-.158.03-.153.132.004.088.07.143.148.151.141.015.285.025.426.014 1.316-.1 2.633-.04 3.947.019.793.035 1.586.037 2.379.038.287 0 .575.001.862.004.489.003.66-.153.75-.644l.016-.086a5.88 5.88 0 00.072-.456c.017-.155.038-.31.059-.465.048-.342.095-.684.087-1.031-.002-.088-.006-.186-.12-.198-.112-.012-.14.084-.161.167-.043.168-.08.338-.115.508-.142.684-.528 1.123-1.22 1.24a9.298 9.298 0 01-2.971.012c-.51-.078-.818-.398-.897-.942a8.903 8.903 0 01-.084-1.24c-.001-1.124.009-2.248.019-3.371l.011-1.268c0-.02.002-.039 0-.058-.023-.196.074-.24.251-.242.864-.009 1.726.025 2.586.077 1.007.06 1.283.356 1.338 1.365l.001.028c.005.102.01.212.139.212.17 0 .173-.16.175-.275v-.005c.017-.85.067-1.697.237-2.533.017-.084.021-.184-.072-.232-.083-.044-.152.016-.194.078-.313.45-.79.462-1.249.474h-.033c-.507.014-1.015.016-1.523.017-.45.001-.9.003-1.35.012-.264.006-.314-.094-.311-.336.008-.657.007-1.313.006-1.968zM95.785 24.226v-1.362c.001-1.344.002-2.688-.003-4.033 0-.307-.028-.616-.095-.919-.077-.346-.29-.555-.619-.647a3.055 3.055 0 00-.813-.118c-.107 0-.227-.003-.22-.156.007-.127.117-.14.214-.139l.464.005c.537.005 1.074.01 1.61.031.228.01.455.019.682.018.406-.002.813 0 1.22.002 1.024.004 2.048.008 3.072-.037a26.1 26.1 0 01.125-.004c.326-.012.652-.024.962-.163.163-.073.258.04.221.184-.13.498-.165 1.007-.199 1.515-.019.28-.038.56-.073.838-.013.099-.051.206-.162.207-.131.001-.149-.116-.165-.22l-.002-.01c-.004-.024-.003-.05-.003-.075a.28.28 0 000-.04c-.027-.861-.349-1.2-1.193-1.324-.338-.05-.676-.057-1.014-.066a11.363 11.363 0 01-.715-.031 7.875 7.875 0 00-.828-.015c-.112.001-.225.003-.338.003-.37-.001-.372 0-.372.392v4.748c.002.245.003.489-.004.733-.006.208.061.285.278.28.37-.007.74-.007 1.11-.006.692.001 1.383.002 2.073-.05.379-.027.735-.086.981-.426.052-.072.129-.133.219-.095.111.047.089.156.071.245l-.002.01c-.159.797-.212 1.605-.23 2.417l.001.026c0 .02.001.042-.005.06a.477.477 0 00-.018.098c-.012.096-.024.195-.154.183-.14-.013-.142-.148-.144-.267l-.001-.017v-.02c-.027-.913-.354-1.255-1.245-1.295l-1.124-.046c-.496-.02-.992-.04-1.487-.063-.224-.01-.325.051-.324.304.007 1.144.01 2.288.011 3.433v.002l.005 1.989c0 .134.017.27.041.401.128.678.365.943 1.032 1.041.885.13 1.779.135 2.663-.004.913-.143 1.267-.529 1.446-1.458l.013-.069c.017-.09.034-.182.059-.27.025-.084.067-.17.179-.145.091.02.093.097.095.17v.016c.012.396-.043.785-.098 1.175-.017.116-.033.233-.048.35a6.36 6.36 0 01-.142.736c-.059.236-.207.378-.462.4-.63.056-1.26.042-1.89.027a83.134 83.134 0 00-.353-.007c-.112-.002-.225-.007-.338-.012-.123-.005-.247-.01-.371-.012a56.503 56.503 0 01-1.303-.038c-.882-.031-1.764-.063-2.647-.018l-.137.007c-.229.012-.457.025-.685.02-.113-.002-.282-.013-.273-.184.006-.133.117-.134.217-.136l.054-.001c.74-.046.909-.178 1.042-.917.129-.714.139-1.44.142-2.163.005-1.182.004-2.363.003-3.544v-1.445h-.006zm26.873 1.209c.002-.529.003-1.057.003-1.586h-.006v-1.315c0-1.496.001-2.991-.005-4.487 0-.21.045-.293.267-.281.225.012.451.012.677.01.144 0 .288 0 .432.003.187.004.375.004.562.005.693.001 1.387.003 2.068.174.639.16 1.112.473 1.082 1.201a.334.334 0 00.015.092.468.468 0 01.019.09c.012.085.025.175.135.175.14.001.154-.119.157-.23l.023-.896.038-1.45c.006-.208-.066-.27-.276-.22a7.314 7.314 0 01-1.633.183c-1.55.01-3.1.007-4.651.005l-.926-.001-.737.002c-.882.005-1.765.01-2.646-.06a6.039 6.039 0 00-.193-.014c-.341-.022-.686-.045-1-.207-.235-.122-.348-.043-.414.194-.204.733-.348 1.48-.49 2.228-.018.098-.021.205.097.24.101.03.156-.05.198-.128.032-.058.057-.12.081-.18l.002-.004c.303-.748.843-1.107 1.645-1.15.64-.035 1.281-.038 1.921-.04a48.942 48.942 0 001.518-.022c.226-.008.289.063.288.293-.005 2.147-.007 4.295-.009 6.442l-.006 5.162c-.001.666-.022 1.333-.183 1.984-.083.335-.256.579-.634.598-.087.005-.173.018-.26.03a2.97 2.97 0 01-.161.023h-.006c-.086.01-.169.02-.183.132-.017.136.085.165.178.174.16.017.322.029.482.018a29.864 29.864 0 013.579 0c.235.012.473-.004.709-.02.101-.007.227-.03.214-.177-.011-.114-.103-.12-.19-.125l-.031-.002a24.34 24.34 0 01-.38-.033l-.327-.028c-.533-.043-.768-.242-.882-.771-.134-.627-.142-1.269-.149-1.904l-.001-.114c-.017-1.338-.014-2.675-.011-4.013zm-11.784-8.872c.564-.044 1.153.075 1.748.196l.328.066.026.007.028.008h.003c.515.093.526.095.466.635-.041.373-.041.747-.042 1.12 0 .148 0 .296-.003.443l-.001.094c0 .075 0 .15-.007.225a.658.658 0 00-.005.065c-.007.119-.015.253-.154.264-.156.012-.162-.12-.167-.236v-.001a1.296 1.296 0 00-.004-.066c-.154-1.493-1.09-1.926-2.294-2.057-.626-.069-1.252-.039-1.826.28-1.195.666-1.575 2.284-.813 3.467.439.68 1.04 1.201 1.64 1.722l.041.035c.266.231.54.452.814.673.447.36.894.72 1.306 1.123.767.75 1.441 1.568 1.716 2.648.605 2.378-.582 5.055-3.539 5.536-1.257.205-2.49.122-3.681-.372-.475-.197-.523-.274-.526-.801-.005-.676.043-1.349.09-2.022l.022-.32a.573.573 0 01.031-.141c.026-.086.063-.174.17-.16.105.013.124.104.128.196.003.067.004.135.004.202.001.146.003.292.027.434.211 1.258 1.081 2.07 2.342 2.238.842.112 1.655.066 2.384-.413 1.383-.91 1.652-2.894.598-4.319-.541-.73-1.23-1.31-1.918-1.887l-.287-.24h-.001c-.866-.721-1.734-1.443-2.352-2.415-.876-1.376-1.041-2.835-.288-4.31.585-1.145 1.626-1.65 2.831-1.857.366-.063.735-.07 1.165-.06zM61.316 53.185c.83.373 1.701.511 2.6.52.332.014.663-.015.991-.063.896-.13 1.74-.407 2.432-1.026 1.716-1.533 1.977-4.148.621-6.028-.664-.922-1.517-1.638-2.386-2.342l-.13-.106c-.788-.638-1.577-1.277-2.188-2.104-.913-1.234-.608-3.397 1.286-3.852a3.687 3.687 0 012.364.218c.63.271 1.016.755 1.113 1.459l.013.092c.015.113.03.225.054.336l.005.02c.018.086.04.189.154.19.102 0 .121-.081.14-.158l.013-.054a.367.367 0 00.01-.117v-.027c0-.676.01-1.352.059-2.027.032-.443.018-.444-.426-.482h-.003a1.601 1.601 0 01-.224-.035c-.985-.227-1.979-.338-2.987-.198-.994.138-1.889.502-2.562 1.294-.828.973-.987 2.12-.76 3.345.224 1.199.957 2.083 1.788 2.893.416.404.861.774 1.307 1.144.318.265.637.53.945.806.618.558 1.232 1.13 1.555 1.933.535 1.335.222 2.915-1.066 3.687-.704.422-1.472.468-2.258.356-.756-.107-1.424-.393-1.905-1.03-.392-.521-.53-1.121-.515-1.768l.002-.036c.004-.093.01-.197-.124-.216-.158-.021-.177.108-.191.21l-.003.02a5.8 5.8 0 00-.055.633c-.026.637-.05 1.274-.065 1.91-.006.287.124.48.396.603zm85.837-2.322c.017-.22.035-.45.04-.678a.595.595 0 01.021-.125l.004-.018a.49.49 0 00.008-.039c.021-.102.044-.21.187-.19.127.018.12.114.114.203a.504.504 0 00-.003.053c.001.74.174 1.42.694 1.965.476.5 1.08.74 1.744.828.774.102 1.538.074 2.231-.352 1.098-.672 1.457-1.76 1.281-2.985-.143-1-.763-1.702-1.449-2.358-.38-.363-.784-.698-1.187-1.034h-.001a29.369 29.369 0 01-.874-.745c-.96-.86-1.884-1.766-2.216-3.086-.37-1.474-.16-2.825.988-3.906.642-.605 1.437-.88 2.289-.997.999-.139 1.983-.023 2.96.2.064.014.13.026.195.032h.003c.472.046.481.047.455.543l-.005.117c-.031.607-.062 1.214-.05 1.823a.711.711 0 01-.019.201l-.006.025c-.02.075-.042.16-.143.158-.107-.001-.127-.096-.144-.176l-.002-.01a5.824 5.824 0 01-.076-.455c-.11-.811-.595-1.292-1.327-1.539-.81-.272-1.635-.345-2.451-.038-1.515.568-1.716 2.214-1.275 3.235.322.75.913 1.274 1.499 1.795l.064.056c.332.296.676.58 1.02.862.702.579 1.405 1.157 2.014 1.846 1.431 1.616 1.676 3.785.587 5.595-.643 1.068-1.626 1.661-2.809 1.897-1.328.264-2.639.192-3.907-.334-.439-.181-.486-.252-.487-.73v-.805c-.013-.25.009-.535.033-.834zm-33.497-6.998v1.89c-.008.456-.003.996.002 1.591.009 1.194.021 2.612-.055 4.029a5.25 5.25 0 01-.167 1.141c-.095.34-.322.508-.656.546l-.238.03-.213.026c-.063.007-.114.037-.126.099a.136.136 0 00.097.158c.08.024.166.039.249.037.455-.013.909-.028 1.363-.048.54-.024 1.08-.002 1.619.02.464.02.928.04 1.392.029.104-.002.209-.006.31-.027.075-.016.139-.066.129-.164-.009-.09-.076-.1-.144-.107a31.291 31.291 0 00-.594-.05c-.761-.057-.981-.257-1.096-1.017a8.83 8.83 0 01-.1-1.269c-.008-2.155-.016-4.31-.015-6.465 0-1.702.002-3.403.024-5.103.011-.902.252-1.149 1.11-1.246l.026-.002c.02-.002.039-.003.058-.008a.387.387 0 01.061-.013c.084-.014.17-.029.154-.155-.016-.135-.136-.149-.241-.15l-.228-.001c-.256-.003-.512-.006-.767.013a14.62 14.62 0 01-2.185 0 8.79 8.79 0 00-.737-.014l-.286.002c-.119 0-.251.018-.257.165-.006.123.097.137.188.15l.043.006c.055.01.112.012.168.014.039.001.077.002.116.006.553.056.799.265.904.824.058.31.086.632.088.948.006 1.275.005 2.549.004 4.115z"/></g></svg>