<svg fill="none" height="60" width="60" xmlns="http://www.w3.org/2000/svg"><mask id="a" height="60" maskUnits="userSpaceOnUse" width="60" x="0" y="0"><path d="M0 0h60v60H0z" fill="#c4c4c4"/></mask><g mask="url(#a)" stroke="#1476f2" stroke-linecap="round" stroke-width="1.5"><path d="M18.73 37.365l5.325-1.133c.68 0 1.02-.68.793-1.246-.453-.793-.793-1.586-.68-1.813.113-.34.68-.453 2.04-1.246 1.36-.793 1.246-1.926.68-2.72-.567-.793-4.193-5.551-4.306-7.024-.113-.907 1.02-3.286.226-7.025-.34-1.7-1.472-5.099-4.078-8.158M6.266 53.228c.68-2.946 4.306-7.478 5.552-8.045"/><path d="M4 37.932c1.586 2.833 4.079 6.232 5.099 6.572 1.473.453 7.704 2.492 10.084 1.586s2.153-1.926 2.266-2.606c.226-1.586 1.813-1.813 1.813-3.852m4.532-.34l3.059-5.325c.567-.907 1.813-.68 2.04.34l1.699 7.138c.34 1.246 2.04 1.133 2.266-.114l1.586-9.97c.227-1.247 2.04-1.247 2.266 0l1.813 13.37c.114 1.246 2.04 1.359 2.266 0l1.7-9.292c.226-1.133 1.813-1.246 2.153-.226l1.586 4.192c.34.906 1.473 1.02 2.04.227 0 0 .906-1.36 1.472-1.927.567-.566 1.36-.566 1.36-.566M31.193 50.962h-5.665v-5.665m23.794 5.665h5.665v-5.665m-5.665-21.528h5.665v5.665M18.73 20.596s-6.345-.793-9.065 1.133m3.399 2.04h4.532"/></g></svg>