<svg fill="none" height="60" width="60" xmlns="http://www.w3.org/2000/svg"><mask id="a" height="60" maskUnits="userSpaceOnUse" width="60" x="0" y="0"><path d="M0 0h60v60H0z" fill="#c4c4c4"/></mask><g mask="url(#a)" stroke="#1476f2" stroke-linecap="round" stroke-width="1.5"><path d="M9.976 55a6.22 6.22 0 100-12.439 6.22 6.22 0 000 12.44zm37.317 0a6.22 6.22 0 100-12.439 6.22 6.22 0 000 12.44zM28.634 40.073a6.22 6.22 0 100-12.439 6.22 6.22 0 000 12.44zM15 52.512h27M8.732 42.561l14.927-12.439m24.878 12.439L33.61 30.122m-12.315-1.244l-5.349-11.941c-1.617-3.732 1.12-7.961 5.225-7.961 2.239 0 4.229 1.368 5.224 3.358l5.722 12.812"/><path d="M18.683 8.976V6.488A2.495 2.495 0 0121.17 4h31.097v11.195H28.39m23.878-8.707l4.976 1.244v3.731l-4.976 1.244m-32.341 1.244h2.488"/></g></svg>