<svg fill="none" height="60" width="60" xmlns="http://www.w3.org/2000/svg"><mask id="a" height="60" maskUnits="userSpaceOnUse" width="60" x="0" y="0"><path d="M0 0h60v60H0z" fill="#c4c4c4"/></mask><g mask="url(#a)" stroke="#1476f2" stroke-linecap="round" stroke-width="1.5"><path d="M17.826 14.283H5.652C3.582 14.283 2 15.865 2 17.935m37.74 1.217v-4.87H28.782m14.609 25.566v9.739H5.652C3.582 49.587 2 48.004 2 45.935v-28c0 2.07 1.583 3.652 3.652 3.652h37.74v8.522m9.738 8.521L58 33.76l-4.87-4.869m-6.086 4.87H58"/><path d="M8.087 21.587L25.131 9.413l8.521 12.174m9.739 8.522H32.435c-2.678 0-4.87 2.19-4.87 4.87s2.192 4.869 4.87 4.869H43.39c.73 0 1.218-.487 1.218-1.218v-7.304c0-.73-.487-1.217-1.218-1.217zm-10.956 4.869h2.435"/></g></svg>