<svg fill="none" height="60" width="60" xmlns="http://www.w3.org/2000/svg"><mask id="a" height="60" maskUnits="userSpaceOnUse" width="60" x="0" y="0"><path d="M0 0h60v60H0z" fill="#c4c4c4"/></mask><g mask="url(#a)" stroke="#1476f2" stroke-linecap="round" stroke-width="1.5"><path d="M17.348 30.109h-2.391m21.521 0h-2.391m7.173 0h-2.39M28.109 16.956h-2.392m-2.391 0h-2.391m-2.391 0h-2.392M30.5 30.109c0 2.63-2.152 4.782-4.783 4.782s-4.782-2.152-4.782-4.782 2.152-4.783 4.782-4.783S30.5 27.478 30.5 30.11zm20.326-11.957c0 2.033 1.554 3.587 3.587 3.587 2.033 0 3.587-1.554 3.587-3.587 0-2.033-1.554-3.587-3.587-3.587-2.033 0-3.587 1.555-3.587 3.587zm0 11.957c0 2.032 1.554 3.587 3.587 3.587 2.033 0 3.587-1.555 3.587-3.587s-1.554-3.587-3.587-3.587c-2.033 0-3.587 1.554-3.587 3.587zM40.065 8.587c0 2.033 1.555 3.587 3.587 3.587s3.587-1.554 3.587-3.587C47.24 6.554 45.685 5 43.652 5s-3.587 1.554-3.587 3.587zm14.348 29.891c2.033 0 3.587 1.555 3.587 3.587s-1.554 3.587-3.587 3.587c-2.033 0-3.587-1.554-3.587-3.587s1.554-3.587 3.587-3.587zM40.065 51.63c0-2.032 1.555-3.587 3.587-3.587s3.587 1.555 3.587 3.587-1.554 3.587-3.587 3.587-3.587-1.554-3.587-3.587z"/><path d="M36.478 21.74h4.783l3.587-3.588h5.978m0 23.913h-5.978l-3.587-3.587H11.37c0-2.391-1.555-3.587-3.587-3.587v-9.565c2.032 0 3.587-1.196 3.587-3.587h22.717M30.5 16.956h4.783l5.978-5.978"/><path d="M19.74 43.26H3V16.958h10.76m27.5 32.282l-5.977-5.979h-3.587m19.13-13.152h-7.174m-19.13 13.152H22.13m7.174 0h-2.391"/></g></svg>