<svg fill="none" height="60" width="60" xmlns="http://www.w3.org/2000/svg"><mask id="a" height="60" maskUnits="userSpaceOnUse" width="60" x="0" y="0"><path d="M0 0h60v60H0z" fill="#c4c4c4"/></mask><g mask="url(#a)" stroke="#1476f2" stroke-linecap="round" stroke-width="1.5"><path d="M36.333 40.833v11.611c0 1.162-.95 2.112-2.11 2.112H13.11A2.117 2.117 0 0111 52.444V8.111C11 6.95 11.95 6 13.111 6h21.111c1.161 0 2.111.95 2.111 2.111v6.333M11 48.222h25.333m-14.778 3.167h4.223"/><path d="M46.889 38.722H32.11l-3.167 3.167-3.166-3.167h-2.111a2.117 2.117 0 01-2.111-2.11V18.666c0-1.161.95-2.111 2.11-2.111H46.89c1.161 0 2.111.95 2.111 2.11V36.61c0 1.161-.95 2.111-2.111 2.111z"/><path d="M32.111 29.222v1.056c0 1.055.95 2.11 2.111 2.11h2.111c1.161 0 2.111-1.055 2.111-2.11v-.317c0-.844-.527-1.583-1.477-1.794l-3.484-1.056c-.844-.211-1.477-.95-1.477-1.794V25c0-1.056.95-2.111 2.11-2.111h2.112c1.16 0 2.11 1.056 2.11 2.111v1.056m-3.06-3.167v-3.167m0 12.667v3.167"/></g></svg>