<svg fill="none" height="60" width="60" xmlns="http://www.w3.org/2000/svg"><mask id="a" height="60" maskUnits="userSpaceOnUse" width="60" x="0" y="0"><path d="M0 0h60v60H0z" fill="#c4c4c4"/></mask><g mask="url(#a)" stroke="#1476f2" stroke-linecap="round" stroke-width="1.5"><path d="M21.9 44.8l-2.7-1.6-3.8 2.1-2.7-2.7 2.1-3.8-1.6-2.7-4.3-.1-.9-3.7 3.8-2.2v-3.2L8 24.7 9 21l4.3-.1 1.5-2.7-2.1-3.8 2.7-2.7 3.8 2.1 2.7-1.6.1-4.3 3.7-.9 2.2 3.8h3.2L33.3 7 37 8l.1 4.3 2.7 1.5 3.8-2.1 2.7 2.7-2.1 3.8 1.6 2.7 4.4.1 1.1 3.7-3.5 2.2v3.2l3.5 2.2-1.1 3.7-4.4.1-1.6 2.7 2.1 3.8-2.7 2.7-3.8-2.1-2.7 1.6"/><path d="M18.8 30.8a3 3 0 100-6 3 3 0 000 6zm20-5a3 3 0 100-6 3 3 0 000 6zm-10-5a3 3 0 100-6 3 3 0 000 6zm0 0v32"/><path d="M36.8 24.8l-4 4v6m-12-5l4 4v19m15-17a3 3 0 100-6 3 3 0 000 6z"/><path d="M37.8 34.8l-5 5v13"/></g></svg>