<svg width="348" height="379" fill="none" xmlns="http://www.w3.org/2000/svg"><g opacity=".2"><path d="M309.5 205.913c0 74.438-60.663 134.786-135.5 134.786S38.5 280.351 38.5 205.913 99.163 71.127 174 71.127s135.5 60.348 135.5 134.786z" stroke="#000" stroke-opacity=".1"/><path d="M309.5 205.913c0 74.438-60.663 134.786-135.5 134.786S38.5 280.351 38.5 205.913 99.163 71.127 174 71.127s135.5 60.348 135.5 134.786z" stroke="#000" stroke-opacity=".1"/><path d="M309.5 205.913c0 74.438-60.663 134.786-135.5 134.786S38.5 280.351 38.5 205.913 99.163 71.127 174 71.127s135.5 60.348 135.5 134.786z" stroke="#2A82F2"/></g><g filter="url(#filter0_d)"><ellipse cx="174.5" cy="206.411" rx="84.5" ry="84.056" fill="#fff"/></g><path fill-rule="evenodd" clip-rule="evenodd" d="M194.341 190.218c-.129 1.168-1.007 2.132-1.742 2.132h-6.103c-1.629 0-2.036 2.047-2.036 2.047l-6.719 25.609s-.407 2.048-2.239 2.048h-20.565c-.814 0-1.221-.338-1.221-.952 0-.989.814-2.517 2.036-2.517h9.115c1.221 0 3.004-.903 3.508-2.867.505-1.964 6.312-23.152 6.719-24.38.408-1.229 1.018-2.048 2.24-2.048h15.881c.815 0 1.219.086 1.126.928zm-38.385 23.44c.407-1.228 5.904-21.296 6.312-22.525.407-1.229.61-2.048 2.036-2.048h6.719c.814 0 1.172.813.814 2.048-.358 1.234-5.908 21.102-6.312 22.525-.403 1.423-1.114 2.048-1.928 2.048h-6.611c-1.018 0-1.437-.614-1.03-2.048zm18.323-48.94c-22.396 0-40.72 18.429-40.72 40.954 0 22.525 18.324 40.955 40.72 40.955 22.397 0 40.721-18.43 40.721-40.955s-18.324-40.954-40.721-40.954z" fill="url(#paint0_linear)"/><g opacity=".2"><path d="M347.5 205.913c0 95.315-77.676 172.587-173.5 172.587S.5 301.228.5 205.913C.5 110.599 78.176 33.327 174 33.327s173.5 77.272 173.5 172.586z" stroke="#000" stroke-opacity=".1"/><path d="M347.5 205.913c0 95.315-77.676 172.587-173.5 172.587S.5 301.228.5 205.913C.5 110.599 78.176 33.327 174 33.327s173.5 77.272 173.5 172.586z" stroke="#000" stroke-opacity=".1"/><path d="M347.5 205.913c0 95.315-77.676 172.587-173.5 172.587S.5 301.228.5 205.913C.5 110.599 78.176 33.327 174 33.327s173.5 77.272 173.5 172.586z" stroke="#2A82F2"/></g><ellipse rx="6" ry="5.968" transform="matrix(-1 0 0 1 193 32.827)" fill="#fff"/><path d="M187.5 32.827c0 3.017 2.46 5.468 5.5 5.468s5.5-2.45 5.5-5.468-2.46-5.469-5.5-5.469-5.5 2.451-5.5 5.469z" stroke="#17CA8E" stroke-opacity=".2"/><ellipse rx="6" ry="5.968" transform="matrix(-1 0 0 1 307 181.045)" fill="#fff"/><path d="M301.5 181.045c0 3.017 2.46 5.468 5.5 5.468s5.5-2.451 5.5-5.468c0-3.018-2.46-5.469-5.5-5.469s-5.5 2.451-5.5 5.469z" stroke="#17CA8E" stroke-opacity=".2"/><ellipse rx="6" ry="5.968" transform="matrix(-1 0 0 1 282 341.199)" fill="#fff"/><path d="M276.5 341.199c0 3.018 2.46 5.469 5.5 5.469s5.5-2.451 5.5-5.469c0-3.017-2.46-5.468-5.5-5.468s-5.5 2.451-5.5 5.468z" stroke="#17CA8E" stroke-opacity=".2"/><defs><linearGradient id="paint0_linear" x1="141.967" y1="197.121" x2="229.165" y2="192.166" gradientUnits="userSpaceOnUse"><stop stop-color="#2A82F2"/><stop offset=".969" stop-color="#2074DE"/></linearGradient><filter id="filter0_d" x="70" y="112.354" width="209" height="208.113" filterUnits="userSpaceOnUse" color-interpolation-filters="sRGB"><feFlood flood-opacity="0" result="BackgroundImageFix"/><feColorMatrix in="SourceAlpha" values="0 0 0 0 0 0 0 0 0 0 0 0 0 0 0 0 0 0 127 0"/><feOffset dy="10"/><feGaussianBlur stdDeviation="10"/><feColorMatrix values="0 0 0 0 0.313321 0 0 0 0 0.313321 0 0 0 0 0.313321 0 0 0 0.1 0"/><feBlend in2="BackgroundImageFix" result="effect1_dropShadow"/><feBlend in="SourceGraphic" in2="effect1_dropShadow" result="shape"/></filter></defs></svg>