<svg width="332" height="130" xmlns="http://www.w3.org/2000/svg"><g fill="none" fill-rule="evenodd"><path d="M116.928 47.734V80.45h-5.025l-18.59-26.206V80.45H88.79V47.734h5.192l18.256 26.04v-26.04zm26.295 18.027v7.011c0 1.836-.67 8.012-10.217 8.012-9.546 0-10.384-6.176-10.384-8.012 0-4.84 4.355-7.678 11.557-7.678 1.507 0 3.014.167 4.522.334-.168-4.34-2.01-6.01-6.7-6.01-2.847 0-5.192.668-6.699 1.17v-3.84c1.842-.668 4.355-1.335 7.37-1.335 6.699 0 10.55 3.672 10.55 10.348zm-4.522 3.005a30.86 30.86 0 00-4.355-.334c-2.177 0-7.202.668-7.202 4.173 0 2.838 2.01 4.173 5.862 4.173 3.685 0 5.695-1.335 5.695-4.006v-4.006zm30.984-12.853l-9.379 24.37h-4.69l-9.378-24.37h4.857l6.867 19.029 6.866-19.029zm9.882-3.839h-4.857v-4.673h4.857v4.673zm-4.69 3.84h4.523v24.37h-4.523v-24.37zm30.818 7.176v18.195c0 3.839-1.843 8.512-10.72 8.512-2.68 0-5.024-.333-7.201-1.001v-4.34c2.01.668 4.354 1.002 6.867 1.002 6.7 0 6.7-2.671 6.7-4.34v-2.17c-1.676.5-3.35.668-5.025.668-7.035 0-10.887-4.34-10.887-12.018 0-7.178 3.015-12.52 10.552-12.52 5.694.335 9.714 3.005 9.714 8.013zm-4.522-.166c0-.835 0-3.505-5.36-3.505-2.847 0-6.03 1.001-6.03 8.512 0 7.01 3.015 7.845 6.365 7.845 1.675 0 3.35-.333 5.025-1.001V62.924zm15.911-10.85h-4.857v-4.673h4.857v4.673zm-4.522 3.84h4.522v24.37h-4.522v-24.37zm11.891 24.369V57.916c.167-.167 4.69-2.503 10.384-2.503 6.197 0 9.882 3.505 9.882 9.18v15.69h-4.522V64.26c0-2.337-.67-4.673-5.527-4.673-2.178 0-4.188.333-5.695.834v19.863h-4.522zm46.058-5.174v4.006c-2.345 1.001-5.192 1.669-8.709 1.669-5.192 0-11.221-2.17-11.221-12.352 0-3.171 0-12.852 10.886-12.852 6.532 0 10.887 4.673 10.887 11.85 0 1.169 0 2.337-.168 3.339H255.27c.67 5.007 3.685 6.176 6.867 6.176 3.517 0 6.364-.835 8.374-1.836zm-15.408-8.513h12.561c-.167-2.838-1.507-7.177-6.364-7.177-4.02 0-5.862 2.003-6.197 7.177z" fill="#222428"/><g transform="translate(1.196 33.19)"><ellipse fill="#3362A3" cx="32.492" cy="32.404" rx="32.325" ry="32.215"/><ellipse fill="#3363A4" cx="32.492" cy="32.404" rx="32.157" ry="32.048"/><ellipse fill="#3464A4" cx="32.492" cy="32.404" rx="31.99" ry="31.881"/><ellipse fill="#3465A5" cx="32.492" cy="32.404" rx="31.822" ry="31.714"/><ellipse fill="#3466A6" cx="32.492" cy="32.404" rx="31.655" ry="31.547"/><ellipse fill="#3567A6" cx="32.492" cy="32.404" rx="31.487" ry="31.38"/><ellipse fill="#3568A7" cx="32.492" cy="32.404" rx="31.32" ry="31.213"/><ellipse fill="#3569A8" cx="32.492" cy="32.404" rx="31.152" ry="31.046"/><ellipse fill="#366AA8" cx="32.492" cy="32.404" rx="30.985" ry="30.88"/><ellipse fill="#366BA9" cx="32.492" cy="32.404" rx="30.817" ry="30.713"/><ellipse fill="#366CAA" cx="32.492" cy="32.404" rx="30.65" ry="30.546"/><ellipse fill="#376DAA" cx="32.492" cy="32.404" rx="30.482" ry="30.379"/><ellipse fill="#376EAB" cx="32.492" cy="32.404" rx="30.315" ry="30.212"/><ellipse fill="#386FAB" cx="32.492" cy="32.404" rx="30.147" ry="30.045"/><ellipse fill="#3870AC" cx="32.492" cy="32.404" rx="29.98" ry="29.878"/><ellipse fill="#3871AD" cx="32.492" cy="32.404" rx="29.812" ry="29.711"/><ellipse fill="#3972AD" cx="32.492" cy="32.404" rx="29.645" ry="29.544"/><ellipse fill="#3973AE" cx="32.492" cy="32.404" rx="29.477" ry="29.377"/><ellipse fill="#3974AF" cx="32.492" cy="32.404" rx="29.31" ry="29.21"/><ellipse fill="#3A75AF" cx="32.492" cy="32.404" rx="29.142" ry="29.043"/><ellipse fill="#3A76B0" cx="32.492" cy="32.404" rx="28.975" ry="28.877"/><ellipse fill="#3A77B1" cx="32.492" cy="32.404" rx="28.807" ry="28.71"/><ellipse fill="#3B78B1" cx="32.492" cy="32.404" rx="28.64" ry="28.543"/><ellipse fill="#3B79B2" cx="32.492" cy="32.404" rx="28.472" ry="28.376"/><ellipse fill="#3B7AB3" cx="32.492" cy="32.404" rx="28.305" ry="28.209"/><ellipse fill="#3C7BB3" cx="32.492" cy="32.404" rx="28.137" ry="28.042"/><ellipse fill="#3C7CB4" cx="32.492" cy="32.404" rx="27.97" ry="27.875"/><ellipse fill="#3C7DB5" cx="32.492" cy="32.404" rx="27.802" ry="27.708"/><ellipse fill="#3D7EB5" cx="32.492" cy="32.404" rx="27.635" ry="27.541"/><ellipse fill="#3D7FB6" cx="32.492" cy="32.404" rx="27.3" ry="27.207"/><ellipse fill="#3D80B7" cx="32.492" cy="32.404" rx="27.133" ry="27.04"/><ellipse fill="#3E81B7" cx="32.492" cy="32.404" rx="26.965" ry="26.874"/><ellipse fill="#3E82B8" cx="32.492" cy="32.404" rx="26.798" ry="26.707"/><ellipse fill="#3E83B9" cx="32.492" cy="32.404" rx="26.63" ry="26.54"/><ellipse fill="#3F84B9" cx="32.492" cy="32.404" rx="26.463" ry="26.373"/><ellipse fill="#3F85BA" cx="32.492" cy="32.404" rx="26.295" ry="26.206"/><ellipse fill="#3F86BB" cx="32.492" cy="32.404" rx="26.128" ry="26.039"/><ellipse fill="#4087BB" cx="32.492" cy="32.404" rx="25.96" ry="25.872"/><ellipse fill="#4089BC" cx="32.492" cy="32.404" rx="25.793" ry="25.705"/><ellipse fill="#418ABC" cx="32.492" cy="32.404" rx="25.625" ry="25.538"/><ellipse fill="#418BBD" cx="32.492" cy="32.404" rx="25.458" ry="25.371"/><ellipse fill="#418CBE" cx="32.492" cy="32.404" rx="25.29" ry="25.204"/><ellipse fill="#428DBE" cx="32.492" cy="32.404" rx="25.123" ry="25.037"/><ellipse fill="#428EBF" cx="32.492" cy="32.404" rx="24.955" ry="24.871"/><ellipse fill="#428FC0" cx="32.492" cy="32.404" rx="24.788" ry="24.704"/><ellipse fill="#4390C0" cx="32.492" cy="32.404" rx="24.62" ry="24.537"/><ellipse fill="#4391C1" cx="32.492" cy="32.404" rx="24.453" ry="24.37"/><ellipse fill="#4392C2" cx="32.492" cy="32.404" rx="24.285" ry="24.203"/><ellipse fill="#4493C2" cx="32.492" cy="32.404" rx="24.118" ry="24.036"/><ellipse fill="#4494C3" cx="32.492" cy="32.404" rx="23.95" ry="23.869"/><ellipse fill="#4495C4" cx="32.492" cy="32.404" rx="23.783" ry="23.702"/><ellipse fill="#4596C4" cx="32.492" cy="32.404" rx="23.615" ry="23.535"/><ellipse fill="#4597C5" cx="32.492" cy="32.404" rx="23.448" ry="23.368"/><ellipse fill="#4598C6" cx="32.492" cy="32.404" rx="23.28" ry="23.201"/><ellipse fill="#4699C6" cx="32.492" cy="32.404" rx="23.113" ry="23.034"/><ellipse fill="#469AC7" cx="32.492" cy="32.404" rx="22.945" ry="22.868"/><ellipse fill="#469BC8" cx="32.492" cy="32.404" rx="22.778" ry="22.701"/><ellipse fill="#479CC8" cx="32.492" cy="32.404" rx="22.61" ry="22.534"/><ellipse fill="#479DC9" cx="32.492" cy="32.404" rx="22.443" ry="22.367"/><ellipse fill="#479ECA" cx="32.492" cy="32.404" rx="22.275" ry="22.2"/><ellipse fill="#489FCA" cx="32.492" cy="32.404" rx="22.108" ry="22.033"/><ellipse fill="#48A0CB" cx="32.492" cy="32.404" rx="21.94" ry="21.866"/><ellipse fill="#48A1CC" cx="32.492" cy="32.404" rx="21.773" ry="21.699"/><ellipse fill="#49A2CC" cx="32.492" cy="32.404" rx="21.606" ry="21.532"/><ellipse fill="#49A3CD" cx="32.492" cy="32.404" rx="21.438" ry="21.365"/><ellipse fill="#4AA4CD" cx="32.492" cy="32.404" rx="21.271" ry="21.198"/><ellipse fill="#4AA5CE" cx="32.492" cy="32.404" rx="21.103" ry="21.031"/><ellipse fill="#4AA6CF" cx="32.492" cy="32.404" rx="20.936" ry="20.865"/><ellipse fill="#4BA7CF" cx="32.492" cy="32.404" rx="20.768" ry="20.698"/><ellipse fill="#4BA8D0" cx="32.492" cy="32.404" rx="20.601" ry="20.531"/><ellipse fill="#4BA9D1" cx="32.492" cy="32.404" rx="20.433" ry="20.364"/><ellipse fill="#4CAAD1" cx="32.492" cy="32.404" rx="20.266" ry="20.197"/><ellipse fill="#4CABD2" cx="32.492" cy="32.404" rx="20.098" ry="20.03"/><ellipse fill="#4CACD3" cx="32.492" cy="32.404" rx="19.931" ry="19.863"/><ellipse fill="#4DADD3" cx="32.492" cy="32.404" rx="19.763" ry="19.696"/><ellipse fill="#4DAED4" cx="32.492" cy="32.404" rx="19.428" ry="19.362"/></g><path d="M67.185 65.094l-8.207-10.015-1.34-12.853-.67-.667s-6.532-.668-12.896-1.336l-.335-.334a372.027 372.027 0 00-9.547-7.845h-1.005s-4.857 4.006-9.714 7.845l-.335.334c-6.197.835-12.728 1.503-12.896 1.503l-.67.667s-.67 6.51-1.34 12.853l-.335.334C3.875 60.253.024 65.094.024 65.26v.835s3.852 4.84 7.871 9.515l.503.5C8.9 82.453 9.57 88.796 9.57 88.963l.67.668s6.532.667 12.896 1.168l.335.334c4.69 4.006 9.547 7.845 9.714 7.845h1.005l10.05-8.18 12.896-1.334.67-.668s.67-6.51 1.34-12.853l.167-.333c4.02-4.674 7.872-9.682 8.04-9.682l-.168-.834zM56.13 43.228l1.172 11.183c-1.675-.834-4.857-2.67-8.039-4.173l-.167-.334c-1.675-3.004-3.183-6.009-4.02-7.678 4.69.334 9.379.835 11.054 1.002zM39.382 80.784c-.837-.334-2.512-.835-4.354-1.335 1.675-.501 3.015-1.169 4.02-1.503.67-.333 1.842-.834 3.014-1.502a121.797 121.797 0 01-2.512 4.34h-.168zm-11.724-.167c-.502-.835-1.507-2.504-2.512-4.34 1.173.668 2.345 1.169 3.015 1.502.837.334 2.345 1.002 4.02 1.503-1.843.667-3.518 1.168-4.355 1.502v-.167h-.168zm-14.906-13.52c1.005 1.168 2.513 3.171 4.187 5.174.168 2.67.503 5.508.67 7.01l-7.536-4.005c.67-1.336 1.674-4.674 2.68-8.18zm0-2.838c-1.172-3.505-2.177-6.843-2.512-8.179 1.172-.667 4.355-2.337 7.537-4.006-.168 1.67-.503 4.34-.67 7.01a585.973 585.973 0 01-4.355 5.175zm4.857 6.677c-1.842-2.17-3.684-4.34-4.354-5.175.67-.834 2.512-3.004 4.354-5.174.335 1.002 1.005 3.171 1.675 5.174-.67 2.003-1.34 4.173-1.675 5.175zm10.384-20.364c.838.334 2.513.835 4.188 1.335-1.675.501-3.183 1.169-4.02 1.503-.67.333-1.842.834-3.015 1.502 1.005-1.836 2.01-3.505 2.512-4.34h.335zm11.724 0c.503.835 1.508 2.504 2.513 4.34-1.173-.668-2.178-1.169-3.015-1.502-.838-.334-2.345-1.002-4.02-1.503 1.843-.667 3.35-1.168 4.187-1.335v.167l.335-.167zm-3.014 23.201c-.335-.166-1.005-.333-1.843-.667.67-.167 1.34-.501 1.675-.668.335-.167.67-.334 1.173-.668-.335.835-.67 1.503-1.005 2.003zM29.5 71.77c.502.167.837.501 1.172.668.335.167 1.005.334 1.675.668-.837.334-1.507.5-1.842.667-.168-.5-.503-1.168-1.005-2.003zm1.005-14.187c.335.166 1.005.333 1.842.667-.67.334-1.34.501-1.842.668a8.18 8.18 0 01-1.173.5c.67-.667 1.005-1.502 1.173-1.835zm7.369 1.836c-.502-.167-.837-.501-1.172-.501-.335-.167-1.005-.5-1.843-.668.838-.334 1.508-.5 1.843-.667.335.333.67 1.168 1.172 1.836zm-1.842 12.185c-.335-.167-.838-.334-1.508-.501.503-.167 1.173-.334 1.34-.501l1.005-.5c-.335.667-.837 1.168-.837 1.502zM30.506 70.1c.335.167.837.334 1.005.501.335.167.837.334 1.34.5-.67.168-1.34.335-1.508.502-.167-.334-.502-.835-.837-1.503zm.837-10.349c.335.167.838.334 1.508.501-.503.167-1.173.334-1.508.501l-1.005.5c.503-.667.838-1.335 1.005-1.502zm5.527 1.503c-.335-.167-.837-.334-1.005-.501-.335-.167-.837-.334-1.507-.5.67-.168 1.34-.502 1.507-.502.168.167.67.835 1.005 1.503zm0 6.843c.168-.334.335-.667.335-.834.168-.334.335-.668.503-1.169.167.501.335 1.002.335 1.169 0 .334-.503.5-1.173.834zM35.363 70.1c-.168 0-.67-.167-1.173-.334.503-.166.838-.333 1.173-.5.167-.167.502-.167.837-.501-.335.668-.67 1.168-.837 1.335zm-4.187-1.168c.335.167.67.334.837.5.335.168.67.334 1.172.501-.502.167-1.004.334-1.172.334-.167-.334-.502-.834-.837-1.335zm-2.01-1.502c0-.167.167-.668.335-1.169.167.501.335.835.502 1.169.168.167.168.5.335.834-.502-.5-1.005-.667-1.172-.834zm1.172-4.173c-.167.334-.335.667-.335.834-.167.334-.335.668-.502 1.169-.168-.501-.335-1.002-.335-1.169.167-.334.67-.5 1.172-.834zm1.508-2.17c.167 0 .67.167 1.172.334a8.18 8.18 0 00-1.172.5c-.168.167-.503.167-.838.334.503-.334.838-.834.838-1.168zm4.187 1.335c-.335-.167-.67-.334-.838-.334-.335-.167-.67-.334-1.172-.5.502-.167 1.005-.334 1.172-.334.335.167.67.667.838 1.168zm.167 4.34c-.167.167-.335.5-.502.835l-1.005.5c-.168.167-.67.334-1.173.334-.502-.167-.837-.334-1.172-.334-.167-.167-.502-.334-1.005-.5-.167-.334-.335-.668-.502-.835-.168-.167-.335-.668-.335-1.168.167-.501.335-.835.335-1.169.167-.167.335-.5.502-.834.335-.167.67-.334.838-.501.167-.167.67-.334 1.172-.334.502.167.837.334 1.172.334.168.167.503.334.838.5.167.334.335.668.502.835.168.167.335.668.335 1.169.168.5 0 1.001 0 1.168zm.503-.835c.167.501.335.835.335 1.002-.168.167-.67.334-1.005.668.167-.334.335-.501.335-.668 0-.334.167-.668.335-1.002zM35.53 67.93c-.335.501-.502.835-.67 1.002-.167 0-.502-.167-1.005-.334.335-.167.67-.334.838-.334.335 0 .502-.167.837-.334zm-2.177.668c-.502.167-.837.334-1.005.334-.167-.167-.335-.668-.67-1.002.335.167.503.334.67.334.335.167.67.334 1.005.334zm-2.01-1.001c-.502-.334-.837-.501-1.005-.668 0-.167.168-.5.335-1.002.168.334.335.668.335 1.002l.335.668zm-.67-2.17c-.167-.501-.335-.835-.335-1.002.168-.167.503-.334 1.005-.668-.167.334-.335.501-.335.668-.167.334-.167.668-.335 1.002zm1.173-2.003c.335-.501.502-.835.67-1.002.167 0 .502.167 1.004.334-.335.167-.67.334-1.004.334-.168 0-.503.167-.67.334zm2.01-.668c.502-.167.837-.334 1.004-.334.168.167.335.668.67 1.002-.335-.167-.502-.334-.67-.334-.167-.167-.67-.334-1.005-.334zm2.512 1.67c0-.168-.168-.502-.335-.669.502.334.837.501 1.005.668 0 .167-.168.5-.335 1.002-.168-.334-.335-.668-.335-1.002zm-.503-.835c-.335-.501-.67-1.169-.67-1.336h.168c.335.167.67.334 1.172.668.335.5.503 1.001.67 1.168v.167c-.335-.167-.837-.5-1.34-.667zm-1.005-1.336c-.167 0-.67.167-1.172.334-.503-.167-1.172-.334-1.172-.334.335-.167.837-.334 1.172-.5a8.18 8.18 0 011.172.5zm-2.68 0c0 .167-.334.668-.67 1.169-.502.333-1.172.667-1.34.667v-.167c.168-.333.336-.667.67-1.168.503-.167 1.006-.334 1.34-.5zm-2.01 2.17c0 .167.168.668.336 1.169-.168.5-.335 1.168-.335 1.168-.168-.334-.335-.835-.503-1.168.168-.334.335-.835.503-1.169zm.168 2.67c-.167 0-.167 0 0 0 .168 0 .67.335 1.173.668.335.501.67 1.169.67 1.336-.335-.167-.838-.334-1.34-.668-.168-.5-.503-1.001-.503-1.335zm2.01 2.004c.168 0 .67-.167 1.172-.334a19.39 19.39 0 001.173.334c-.335.167-.838.334-1.173.5-.335-.166-.837-.333-1.172-.5zm2.847 0s-.167 0 0 0c0-.167.335-.668.67-1.169.503-.333 1.173-.667 1.34-.667v.167a9.58 9.58 0 01-.67 1.168c-.67 0-1.172.334-1.34.5zm2.01-2.17c0-.167-.167-.668-.335-1.169.168-.5.335-1.168.335-1.168.168.334.335.835.503 1.168-.335.334-.503.835-.503 1.169zm.168-2.838c-.168-.167-.168-.5-.335-.834.502.334 1.005.667 1.172.667 0 .167-.167.668-.335 1.169-.335-.334-.502-.835-.502-1.002zm-.67-1.335c-.335-.5-.67-1.002-.838-1.335.335.167.838.5 1.508.667.335.501.502 1.002.67 1.503a3.649 3.649 0 00-1.34-.835zm-1.675-1.836c-.335.167-.838.334-1.34.5-.503-.166-1.005-.333-1.34-.5.335-.167.837-.334 1.34-.5.502.166.837.333 1.34.5zm-3.517.334c-.168.334-.503.834-.838 1.335-.502.334-1.005.668-1.34.835.168-.334.503-.835.67-1.503.503-.167 1.005-.5 1.508-.667zm-2.848 2.17c-.167.333-.335.834-.502 1.502-.168-.668-.335-1.335-.503-1.502.335-.167.838-.501 1.508-.835-.168.334-.335.668-.503.835zm.168.834c.167.334.335.835.502 1.336-.167.5-.335 1.001-.502 1.335-.168-.334-.335-.835-.503-1.335.335-.334.503-.835.503-1.336zm-.168 3.505l.503 1.002c-.67-.334-1.34-.668-1.508-.835.168-.333.335-.834.503-1.502.167.5.335 1.169.502 1.335zm.67.167c.335.167.838.501 1.34.835.335.5.67 1.001.838 1.335-.335-.167-.838-.5-1.508-.834-.335-.501-.502-1.002-.67-1.336zm3.015 2.504c.335-.167.837-.334 1.34-.5.502.166 1.005.333 1.34.5-.335.167-.838.334-1.34.5-.503-.166-1.005-.333-1.34-.5zm3.517-.334c.168-.334.503-.834.838-1.335.502-.334 1.005-.668 1.34-.835-.168.334-.503.835-.67 1.503-.67.167-1.173.5-1.508.667zm2.68-2.337c.167-.333.335-.834.502-1.502.168.668.335 1.336.503 1.502-.335.167-.838.501-1.507.835.167-.167.334-.5.502-.835zm-.168-.834c-.167-.334-.334-.835-.502-1.335.168-.501.335-1.002.502-1.336.168.334.335.835.503 1.336-.168.5-.335 1.001-.503 1.335zm.168-3.505l-.502-1.002c.67.334 1.34.668 1.507.835-.168.334-.335.834-.503 1.502-.167-.5-.335-1.002-.502-1.335zm-.837-1.67a21.264 21.264 0 00-1.173-2.003c.503.167 1.173.668 2.01 1.002.335.835.837 1.502 1.005 2.003-.503-.167-1.173-.668-1.842-1.002zm-2.178-2.503c-.502.167-1.172.334-1.842.667-.67-.167-1.507-.5-1.842-.667.502-.167 1.172-.501 1.842-.668.67.334 1.34.5 1.842.668zm-4.857.5c-.335.501-.67 1.169-1.172 2.003a21.37 21.37 0 00-2.01 1.169c.167-.5.67-1.169 1.005-2.003 1.005-.5 1.675-1.002 2.177-1.169zm-3.852 2.838c-.167.334-.502 1.002-.67 1.836-.335-.834-.502-1.502-.67-1.836.335-.167 1.005-.668 1.843-1.001-.168.333-.335.834-.503 1.001zm.503 1.168c.167.501.334 1.169.67 1.837a10.989 10.989 0 01-.67 1.836c-.168-.501-.503-1.169-.67-1.836.167-.668.502-1.336.67-1.837zM26.82 68.6c.168.334.335.668.503 1.168-.838-.5-1.508-.834-1.843-1.001.168-.334.335-1.002.67-1.836.335.668.503 1.335.67 1.669zm.837 0c.503.334 1.173.668 2.01 1.168.335.668.838 1.503 1.173 2.003-.503-.166-1.173-.667-2.01-1.001-.503-1.002-.838-1.67-1.173-2.17zm4.188 3.338c.502-.167 1.172-.333 1.842-.667.67.167 1.507.5 1.842.667-.502.167-1.172.501-1.842.668-.67-.167-1.34-.334-1.842-.668zm4.69-.333c.334-.501.67-1.169 1.172-2.003a21.37 21.37 0 002.01-1.169c-.168.5-.67 1.169-1.006 2.003-1.004.5-1.674.835-2.177 1.169zm3.851-3.005c.168-.334.503-1.001.67-1.836.335.835.503 1.502.67 1.836-.335.167-1.005.668-1.842 1.002.167-.167.335-.668.502-1.002zm-.335-1.001c-.167-.501-.335-1.169-.67-1.837.168-.667.503-1.502.67-1.836.168.501.503 1.169.67 1.836-.335.501-.502 1.169-.67 1.837zm.335-5.008a8.123 8.123 0 01-.502-1.168c.837.5 1.507.834 1.842 1.001-.167.334-.335 1.002-.67 1.836-.167-.5-.502-1.168-.67-1.669zm-1.172-2.337c-.503-.834-1.005-1.669-1.34-2.337.67.334 1.507.835 2.512 1.336.503.834 1.005 1.836 1.34 2.503-.837-.667-1.675-1.168-2.512-1.502zm-1.507-3.505c-.503-.334-1.508-.668-2.513-1.002a62.064 62.064 0 002.68-.834c.335.5.837 1.502 1.507 2.67l-1.674-.834zm-1.843.334c-.67.167-1.507.5-2.345.834-.837-.333-1.674-.5-2.344-.834.67-.334 1.507-.5 2.344-.835 1.005.334 1.675.501 2.345.835zm-6.197-.334c-.502.167-1.005.5-1.675.835.67-1.169 1.173-2.17 1.508-2.671.502.167 1.507.5 2.68.834-1.005.334-2.01.668-2.513 1.002zM29.5 57.75c-.335.668-.838 1.503-1.34 2.337-.837.501-1.675 1.002-2.345 1.336.335-.668.838-1.503 1.34-2.504.837-.334 1.675-.835 2.345-1.169zm-4.857 3.84c-.335.5-.67 1.502-1.005 2.503a63.15 63.15 0 00-.838-2.67c.503-.334 1.508-.835 2.68-1.503l-.837 1.67zm.335 1.836c.167.667.502 1.502.837 2.336-.335.835-.502 1.67-.837 2.337-.335-.667-.503-1.502-.838-2.337.335-.834.67-1.669.838-2.336zm-.335 6.176c.167.5.502 1.001.837 1.669-1.172-.668-2.177-1.169-2.68-1.503.168-.5.503-1.502.838-2.67.335 1.001.67 2.003 1.005 2.504zm1.172.166c.67.334 1.508.835 2.345 1.336.502.834 1.005 1.669 1.34 2.337-.67-.334-1.508-.835-2.512-1.336-.503-.834-.838-1.669-1.173-2.337zm3.852 4.841c.503.334 1.508.668 2.513 1.002a63.68 63.68 0 00-2.68.834c-.335-.5-.838-1.502-1.508-2.67.67.333 1.173.667 1.675.834zm1.675-.334c.67-.167 1.508-.5 2.345-.834.837.333 1.675.5 2.345.834-.67.334-1.508.5-2.345.835-.837-.334-1.675-.501-2.345-.835zm6.197.334c.503-.167 1.005-.5 1.675-.835-.67 1.169-1.172 2.17-1.507 2.671a63.68 63.68 0 00-2.68-.834c1.172-.334 2.01-.668 2.512-1.002zm.335-1.168c.335-.668.837-1.503 1.34-2.337.837-.501 1.675-1.002 2.345-1.336-.335.668-.838 1.503-1.34 2.504-.838.501-1.675.835-2.345 1.169zm4.857-3.84c.335-.5.67-1.502 1.005-2.503.335 1.168.67 2.17.837 2.67-.502.334-1.507.835-2.68 1.503.336-.668.503-1.169.838-1.67zm-.502-1.669c-.168-.667-.503-1.502-.838-2.336.335-.835.503-1.67.838-2.337.335.667.502 1.502.837 2.337-.167.834-.502 1.669-.837 2.336zm.502-6.342c-.167-.501-.502-1.002-.837-1.67 1.172.668 2.177 1.169 2.68 1.503a63.15 63.15 0 00-.838 2.67c-.502-1.001-.837-1.836-1.005-2.503zm-1.842-3.172c-1.005-1.836-2.01-3.672-2.345-4.173h.167c1.005.501 2.513 1.336 4.188 2.17.837 1.67 1.674 3.172 2.177 4.173v.167c-.503-.334-2.345-1.335-4.187-2.337zm-7.202-3.171c-1.842-.668-3.517-1.169-4.02-1.336a52.208 52.208 0 014.02-1.502c1.507.5 3.015 1.002 4.02 1.502-.503.167-2.345.668-4.02 1.336zm-7.37 3.171c-1.842 1.002-3.684 2.003-4.187 2.337v-.167c.503-1.001 1.34-2.504 2.178-4.173 1.675-.834 3.182-1.669 4.187-2.17h.167c-.335.501-1.34 2.337-2.344 4.173zm-4.521 3.172c.167.5.67 2.336 1.34 4.006-.67 1.836-1.173 3.505-1.34 4.006a51.81 51.81 0 01-1.508-4.006 51.81 51.81 0 011.508-4.006zm4.522 11.35c1.005 1.836 2.01 3.672 2.344 4.173h-.167c-1.005-.501-2.512-1.336-4.187-2.17-.838-1.67-1.675-3.172-2.178-4.173v-.167c.503.334 2.345 1.335 4.188 2.337zm7.369 3.171c1.842.668 3.517 1.169 4.02 1.336a52.208 52.208 0 01-4.02 1.502c-1.507-.5-3.015-1.002-4.02-1.502.503-.167 2.178-.668 4.02-1.336zm7.202-3.171c1.842-1.002 3.684-2.003 4.187-2.337v.167c-.503 1.001-1.34 2.504-2.177 4.173-1.675.834-3.35 1.836-4.188 2.17h-.167c.335-.501 1.34-2.337 2.345-4.173zm4.522-3.172c-.168-.5-.67-2.336-1.34-4.006.67-1.836 1.172-3.505 1.34-4.006a51.81 51.81 0 011.507 4.006c-.502 1.336-1.005 2.838-1.507 4.006zm.502-9.514c-.335-.667-.837-1.836-1.507-3.004a122.418 122.418 0 014.355 2.503v.167h.167c-.167.835-.837 2.504-1.507 4.34-.503-1.669-1.005-3.171-1.508-4.006zm-2.344-4.507c-1.005-1.836-2.178-3.839-2.848-5.007 3.015.334 5.862.5 7.202.668l.67 7.177c-1.172-.668-3.015-1.836-5.024-2.838zm-9.882-4.34c-2.177-.667-4.187-1.335-5.192-1.669 2.177-1.836 4.355-3.672 5.192-4.34.837.668 3.015 2.504 5.192 4.34-1.005.334-3.182 1.002-5.192 1.67zm-10.05 4.34c-1.841 1.002-3.851 2.17-5.024 2.838.335-3.004.503-5.842.67-7.177 1.173-.167 4.187-.501 7.202-.668-.67 1.168-1.675 3.171-2.847 5.007zM22.8 57.25c-.67 1.168-1.172 2.17-1.507 3.004-.335.835-1.005 2.337-1.507 4.006-.503-1.669-1.173-3.338-1.34-4.173v-.5c1.005-.334 2.68-1.336 4.354-2.337zm-3.014 9.848c.502 1.669 1.172 3.171 1.507 4.006.335.667.837 1.836 1.507 3.004-1.842-1.001-3.517-2.003-4.354-2.503v-.501c.335-.835.837-2.337 1.34-4.006zm3.852 8.513c1.005 1.836 2.177 3.839 2.847 5.007-3.015-.334-5.862-.5-7.202-.668-.167-1.168-.502-4.173-.67-7.177 1.173.668 3.183 1.836 5.025 2.838zm10.049 4.34c2.177.667 4.187 1.335 5.192 1.669l-5.192 4.34c-.837-.668-3.015-2.504-5.192-4.34a234.988 234.988 0 015.192-1.67zm9.882-4.34c1.842-1.002 3.852-2.17 5.024-2.838-.335 3.004-.502 5.842-.67 7.177l-7.202.668c.67-1.168 1.843-3.171 2.848-5.007zm.837-1.503c.67-1.168 1.172-2.17 1.507-3.004.335-.835 1.005-2.337 1.508-4.006.67 1.836 1.172 3.338 1.34 4.173h-.168v.334c-.67.5-2.345 1.502-4.187 2.503zm3.517-8.512c.67-2.17 1.34-4.173 1.675-5.175l4.355 5.175c-.67.834-2.513 3.004-4.355 5.174-.168-.835-.837-3.005-1.675-5.174zm2.177 6.676c1.675-2.003 3.35-4.006 4.355-5.174 1.172 3.505 2.177 6.843 2.512 8.179l-7.537 4.006c.168-1.67.503-4.34.67-7.01zm4.355-8.012l-4.187-5.174-.67-7.178c3.182 1.67 6.197 3.339 7.537 4.006-.503 1.503-1.508 4.841-2.68 8.346zm-7.202-14.355c-1.675-.167-4.354-.5-7.034-.667-2.01-1.67-4.02-3.339-5.192-4.173 3.517-1.169 6.867-2.17 8.207-2.504.67 1.002 2.344 4.173 4.02 7.344zM33.688 33.88c1.34 1.002 5.024 4.006 8.71 7.01l-8.375 2.505-.335.167c-3.35-1.002-6.867-2.17-8.71-2.671 3.685-3.005 7.37-5.842 8.71-7.01zm-9.714 8.513c1.34.334 4.857 1.336 8.374 2.504-1.172 1.001-3.182 2.67-5.192 4.34-2.68.167-5.527.5-7.034.667 1.507-3.171 3.182-6.342 3.852-7.51zm-12.897.835c1.675-.167 6.365-.668 11.222-1.169-.837 1.67-2.68 4.84-4.187 8.012l-.335.167c-3.015 1.67-6.197 3.339-7.704 4.173.335-4.84.837-9.514 1.004-11.183zM8.9 74.274c-3.182-3.672-6.03-7.344-7.202-8.68 1.005-1.335 4.02-5.007 7.035-8.68l2.512 8.347.167.334c-.837 3.505-2.01 7.01-2.512 8.68zm2.177 13.854c-.167-1.669-.67-6.343-1.172-11.183l8.04 4.34 4.354 8.012c-4.69-.501-9.547-1.002-11.222-1.169zm8.877-6.676c1.508.167 4.355.5 7.035.667h.167c2.01 1.67 4.02 3.339 5.192 4.34-3.517 1.169-6.867 2.17-8.207 2.504l-4.187-7.511zm13.734 16.024c-1.34-1.002-5.025-4.006-8.71-7.01 1.676-.502 5.193-1.503 8.542-2.672h.168c3.35 1.002 6.867 2.17 8.71 2.671l-8.71 7.01zm9.714-8.513c-1.34-.334-4.857-1.335-8.374-2.504l5.192-4.173 7.034-.667-3.852 7.344zm12.729-.835l-11.222 1.169 4.355-8.012 8.04-4.34c-.503 4.84-1.006 9.514-1.173 11.183zm2.177-13.854l-2.512-8.346-.168-.333c1.005-3.339 2.178-6.844 2.68-8.68l7.202 8.68c-1.005 1.335-4.02 5.007-7.202 8.68z" fill="#FFF"/><path d="M35.53 67.43s-1.34.168-1.842.168c-.503 0-1.842-.167-1.842-.167s-.168-1.336-.168-1.836c0-.501.168-1.837.168-1.837s1.34-.166 1.842-.166 1.842.166 1.842.166.168 1.336.168 1.837c0 .5-.168 1.836-.168 1.836z" fill="#FFF"/></g></svg>