<svg width="180" height="70" fill="none" xmlns="http://www.w3.org/2000/svg"><mask id="a" maskUnits="userSpaceOnUse" x="0" y="0" width="180" height="70"><path fill="#C4C4C4" d="M0 0h180v70H0z"/></mask><g mask="url(#a)" fill-rule="evenodd" clip-rule="evenodd" fill="#171717"><path d="M113.124 22.275h.515v3.538h1.69v.43h-2.205v-3.968zm6.088 2.318l-.396-1.138c-.079-.26-.139-.494-.198-.725h-.015c-.055.23-.119.476-.195.718l-.389 1.145h1.193zm-1.298.403l-.41 1.246h-.527l1.342-3.967h.617l1.348 3.967h-.543l-.425-1.246h-1.402zm4.15.131c.228.148.558.26.91.26.523 0 .828-.27.828-.677 0-.364-.21-.581-.746-.783-.646-.232-1.044-.574-1.044-1.127 0-.62.511-1.076 1.28-1.076.398 0 .698.093.867.191l-.139.42a1.488 1.488 0 00-.746-.19c-.541 0-.747.325-.747.597 0 .368.241.553.786.764.671.264 1.004.581 1.004 1.166 0 .61-.445 1.143-1.38 1.143-.382 0-.798-.116-1.006-.257l.133-.43zm6.669 1.116l-1.298-3.967h.56l.616 1.955c.165.533.31 1.022.421 1.483h.012c.112-.46.272-.961.452-1.479l.671-1.96h.547l-1.416 3.967h-.565zm5.704-1.863h-1.531v1.433h1.713v.43h-2.23v-3.968h2.143v.429h-1.626v1.255h1.531v.422zm5.057 1.175a3.622 3.622 0 01-1.22.217c-.601 0-1.092-.155-1.481-.524-.337-.33-.551-.858-.551-1.478 0-1.18.814-2.046 2.143-2.046.457 0 .824.102.991.184l-.126.415c-.213-.098-.478-.17-.877-.17-.963 0-1.592.6-1.592 1.595 0 1.005.601 1.6 1.53 1.6.332 0 .563-.046.678-.104v-1.183h-.798v-.415h1.303v1.909zm3.941-.962l-.397-1.138c-.081-.26-.139-.494-.2-.725h-.016a8.78 8.78 0 01-.194.718l-.386 1.145h1.193zm-1.3.403l-.412 1.246h-.527l1.344-3.967h.615l1.353 3.967h-.547l-.424-1.246h-1.402zm3.601.131c.229.148.558.26.909.26.522 0 .827-.27.827-.677 0-.364-.211-.581-.744-.783-.646-.232-1.046-.574-1.046-1.127 0-.62.51-1.076 1.28-1.076.399 0 .699.093.867.191l-.14.42a1.48 1.48 0 00-.745-.19c-.539 0-.744.325-.744.597 0 .368.238.553.785.764.671.264 1.003.581 1.003 1.166 0 .61-.445 1.143-1.378 1.143-.382 0-.797-.116-1.011-.257l.137-.43zM36.142 33.64c-.21.018-.003.471-.06.72-.06.248-.206 1.33-.229 1.566-.24 2.364 1.637 2.005 3.165 2.483.906.118 4.804-.478 9.618-5.028 1.976-1.867 3.86-3.447 6.62-6.985 3.25-4.173 2.136-3.743 5.119-7.886.73-1.132 1.456-2.266 2.183-3.401 1.042-1.5 2.464-3.163 2.941-4.897.433-1.583-.655-4.344-2.327-4.459-.035-.127-1.16.233-1.079.86.221 1.12.328 2.823-.082 3.781-.95 2.206-2.524 4.14-3.688 6.322-5.038 9.449-11.028 14.949-16.79 18.658-.43.28-2.607 1.05-3 .252-1.204-2.429 4.25-7.895 5.029-10.088.027-.315.047-.631.074-.951-.107-.228-.218-.46-.324-.693-.307-.268-.769-.295-1.2-.258l-.216.03a8.67 8.67 0 01-.233.074c-1.556.614-2.38 2.354-3.624 3.453a43.65 43.65 0 01-5.094 3.815c-.998.637-2.5 1.762-3.024 2.163-.524.402-2.288 1.66-3.483 1.3-.593-.174-.659-.938-.524-1.461.46-1.898 2.51-3.604 3.88-4.923 1.442-1.4 2.803-3.309 3.803-5.005.428-.742 1.04-1.525 1.027-2.427-.078-3.626-4.633 1.051-5.16 2.21.041-.001.078-.005.119-.006-.365.393-.723.781-1.089 1.17-2.126 3.498-8.992 10.394-3.648 13.851.799.482 1.962.67 3.891-.473 1.452-.86 6.022-4.085 7.405-3.766z"/><path d="M112.201 38.506c.645-.109 9.777-2.613 13.983-2.172 1.913 0 7.561 1.753 9.369 1.861 1.502.175 6.94.29 7.056.29 1.794.003 3.694.124 4.863-1.522.251-.36-.043-.647-.371-.755-1.527-.5-4.483-.337-5.265-.205-7.304.568-9.271-1.202-16.154-1.692-1.847-.134-13.304 2.078-13.659 2.141 0 0-1.46.295-2.984.703-1.521.41-1.638-1.054-1.697-1.525-.057-.47.588-3.413.764-4.106.351-1.406-.352-2.404-.996-2.462-.703-.066-2.049.821-2.575 1.29-.526.468-4.39 3.109-5.5 4.047-1.11.94-1.46-.291-1.17-.762.292-.469.936-2.17 1.287-3.169.354-.997-.35-1.642-.933-1.933-.585-.296-1.814.468-2.166.82-.353.354-2.221 1.643-3.452 2.523-1.228.88-4.506 2.697-5.969 3.4-1.464.704-1.464-1.055-1.345-1.877.116-.822.461-2.137.644-3.579.233-1.876-1.58-1.464-2.28-1.111-.706.35-6.38 4.337-7.14 4.926-.76.586-.76-.413-.702-.765.06-.351.178-1.054.82-2.46.642-1.409.118-1.82 0-2.466-.118-.644-1.521-.353-2.634.118-.614.259-7.379 2.71-7.63 2.77l-.642.049c-.004-.033-.117-.067-.12-.207-.024-.745-.34-1.303-1.178-1.18-1.755.237-2.709 1.84-3.99 2.87-1.8 1.448-3.649 3.014-5.717 4.019-.631.34-.51-1.129-.059-1.665 2.829-3.388 1.75-2.231 3.097-3.678 1.017-1.318 2.383-2.758 2.899-4.308.466-1.416-.23-3.724-1.739-3.906-.56-.029-.97.446-.969.85.076.998-.07 2.176-.47 3.055-.902 1.988-2.189 3.854-3.638 5.566-2.096 2.476-2.208 4.56-2.208 4.56s-3.234 2.14-4.497 3.249c-2.037 1.69-4.08 3.376-6.124 5.068-3.527 3.187-12.205 9.074-9.323 14.802.61 1.217 1.62 2.303 2.857 2.965 1.896 1.015 4.402 2.115 6.746 1.932.152.043.364.074.54.075 1.847.032 3.875-.207 5.558-.745 11.158-3.586 18.18-15.792 17.257-27.725-.053-.671.324-1.466.827-1.916 1.145-1.03 5.6-3.852 7-4.096 1.698-.295.936 2.29.704 3.108-.235.822-.939 1.997-1.055 2.994-.116.994.903 1.439 1.637 1.699.997.355 2.46-.938 2.928-1.347.467-.41 4.736-4.106 5.498-4.635.76-.526.878.648.76 1.173-.116.529-.466 1.936-.526 2.816-.058.879.116 1.82.876 2.286.762.47 1.522.117 2.4-.408.878-.529 6.38-4.165 6.848-4.401.468-.234 1.812-1.289 2.69-1.524.88-.235.82.762.41 1.641-.15.325-.526 1.998-.702 2.817-.177.82-.234 1.701.759 2.52.772.636 2.576-1.112 3.044-1.526.465-.408 4.503-4.044 5.264-4.514.762-.47 1.111.683.818 1.76-.351 1.291-.428 2.496-.194 2.936.527.998 1.555 1.525 3.996 1.286.414-.039 3.574-.643 3.574-.643zm-51.424 5.423c-1.245 8.288-3.985 13.636-12.167 16.597-.549.208-2.467.743-2.745.753-4.218.33-7.33.419-10.462-1.716-.66-.45-1.335-1.95-1.19-2.891.416-2.834 2.709-4.69 4.707-6.676 2.793-2.793 5.683-5.357 8.756-7.71 1.853-1.387 3.706-2.776 5.561-4.158.632-.051 1.26.186 1.986.083 1.446-.212 4.371-1.427 5.498-2.291.055-.15.861-.423.965-.072.086.425.164.843.247 1.267-.012 2.404-.819 4.56-1.156 6.814zm89.287-6.46c.258.74.691 1.316 1.903 1.543.56.104 1.261-.23 1.36-.596.131-.482.389-.733.275-1.34-.142-.764-.691-1.317-1.908-1.544-.551-.103-1.258.232-1.352.598-.133.48-.479.749-.278 1.339zm5.738 2.296h.154c.132 0 .278-.009.278-.166 0-.156-.146-.167-.278-.163h-.154v.329zm-.217-.51h.45c.281 0 .414.126.414.353 0 .203-.121.3-.281.322l.304.495h-.224l-.292-.48h-.154v.48h-.217v-1.17zm.394 1.434a.84.84 0 00.839-.842.841.841 0 00-.839-.843.843.843 0 000 1.685zm0-1.866a1.024 1.024 0 010 2.047c-.563 0-1.023-.46-1.023-1.023 0-.565.46-1.024 1.023-1.024z"/></g></svg>