<?xml version="1.0" encoding="UTF-8"?> <svg xmlns="http://www.w3.org/2000/svg" xmlns:xlink="http://www.w3.org/1999/xlink" width="96px" height="79px" viewBox="0 0 96 79" version="1.1"><!-- Generator: Sketch 62 (91390) - https://sketch.com --><title>AngularJS</title><desc>Created with Sketch.</desc><g id="Page-2" stroke="none" stroke-width="1" fill="none" fill-rule="evenodd"><g id="AngularJS" transform="translate(1.000000, 1.000000)"><g id="java-web-dev-2-copy" stroke="#505050" stroke-width="1.28571429"><g id="java-web-dev"><g id="Group-10"><g id="Group-7"><polygon id="Stroke-1" points="0 76.9090909 94 76.9090909 94 0 0 0"></polygon><line x1="0" y1="12.8181818" x2="94" y2="12.8181818" id="Stroke-3"></line><line x1="6.40909091" y1="6.40909091" x2="10.6818182" y2="6.40909091" id="Stroke-4"></line><line x1="14.9545455" y1="6.40909091" x2="19.2272727" y2="6.40909091" id="Stroke-5"></line><line x1="23.5" y1="6.40909091" x2="27.7727273" y2="6.40909091" id="Stroke-6"></line></g></g></g></g><g id="angular_solidBlack" transform="translate(27.000000, 23.000000)" fill="#1476F2" fill-rule="nonzero"><polygon id="Path" points="16.17 22.134 19.74 22.134 19.74 22.134 19.74 22.134 23.31 22.134 19.74 13.545"></polygon><path d="M19.74,0 L19.74,0 L19.74,0 L0.189,6.972 L3.171,32.823 L19.74,42 L19.74,42 L19.74,42 L36.309,32.823 L39.291,6.972 L19.74,0 Z M31.941,32.046 L27.384,32.046 L27.384,32.046 L24.927,25.914 L19.74,25.914 L19.74,25.914 L19.74,25.914 L14.553,25.914 L12.096,32.046 L12.096,32.046 L7.539,32.046 L7.539,32.046 L19.74,4.641 L19.74,4.641 L19.74,4.641 L19.74,4.641 L19.74,4.641 L31.941,32.046 L31.941,32.046 Z" id="Shape"></path></g></g></g></svg> 