<?xml version="1.0" encoding="UTF-8"?> <svg xmlns="http://www.w3.org/2000/svg" width="59" height="71" viewBox="0 0 59 71"><g fill="none" fill-rule="evenodd"><path stroke="#505050" d="M50.878 20.362C50.978 7.278 42.378 1 29.926 1 17.472 1 8.873 7.278 8.973 20.362h41.905z"></path><path stroke="#3F7FE7" d="M54.93 45.02l-15.09 3.64c-1.59 0-3.151-.431-4.516-1.246l-2.319-1.383a6.012 6.012 0 0 0-6.16 0l-2.318 1.383a8.804 8.804 0 0 1-4.515 1.245l-15.09-3.64a4.473 4.473 0 0 1-3.432-4.341V24.83c0-2.468 2.01-4.468 4.49-4.468H53.87c2.48 0 4.49 2 4.49 4.468v15.848a4.471 4.471 0 0 1-3.432 4.341z"></path><path stroke="#505050" d="M49.382 50.149v1.49c0 3.88-1.693 5.893-4.626 8.45-2.105 1.835-4.61 3.702-6.837 5.327a13.567 13.567 0 0 1-15.987 0c-2.227-1.625-4.732-3.492-6.836-5.327-2.935-2.557-4.626-4.57-4.626-8.45v-1.49M14.96 60.574V71M44.892 60.574V71"></path><path stroke="#3F7FE7" d="M25.436 24.83h8.98M5.98 24.83v13.404M53.871 24.83v13.404"></path></g></svg> 