<?xml version="1.0" encoding="UTF-8"?> <svg xmlns="http://www.w3.org/2000/svg" xmlns:xlink="http://www.w3.org/1999/xlink" width="96px" height="79px" viewBox="0 0 96 79" version="1.1"><!-- Generator: Sketch 62 (91390) - https://sketch.com --><title>Custom</title><desc>Created with Sketch.</desc><g id="Page-2" stroke="none" stroke-width="1" fill="none" fill-rule="evenodd"><g id="Custom" transform="translate(1.000000, 1.000000)"><g id="java-web-dev-2-copy-5" stroke="#505050" stroke-width="1.28571429"><g id="java-web-dev"><g id="Group-10"><g id="Group-7"><polygon id="Stroke-1" points="0 76.9090909 94 76.9090909 94 0 0 0"></polygon><line x1="0" y1="12.8181818" x2="94" y2="12.8181818" id="Stroke-3"></line><line x1="6.40909091" y1="6.40909091" x2="10.6818182" y2="6.40909091" id="Stroke-4"></line><line x1="14.9545455" y1="6.40909091" x2="19.2272727" y2="6.40909091" id="Stroke-5"></line><line x1="23.5" y1="6.40909091" x2="27.7727273" y2="6.40909091" id="Stroke-6"></line></g></g></g></g><g id="Group-11" transform="translate(26.000000, 23.000000)" stroke="#1476F2" stroke-linejoin="round" stroke-width="1.29"><path d="M20.7615,5.8152 L20.7615,10.8152 C21.2935,10.3362 22.0165,9.7612 22.7885,9.7612 C24.4455,9.7612 25.7885,11.1042 25.7885,12.7612 C25.7885,14.4192 24.4455,15.7612 22.7885,15.7612 C22.0165,15.7612 21.3205,15.2402 20.7885,14.7612 L20.7885,20.7882" id="Stroke-1"></path><path d="M35.7615,20.8152 L30.7615,20.8152 C31.2405,21.3462 31.7615,22.0162 31.7615,22.7882 C31.7615,24.4452 30.4185,25.7882 28.7615,25.7882 C27.1045,25.7882 25.7615,24.4452 25.7615,22.7882 C25.7615,22.0162 26.2825,21.3202 26.7615,20.7882 L20.7885,20.7882" id="Stroke-3"></path><path d="M20.7615,35.8152 L20.7615,30.8152 C20.2295,31.2942 19.5605,31.7612 18.7885,31.7612 C17.1315,31.7612 15.7885,30.4192 15.7885,28.7612 C15.7885,27.1042 17.1315,25.7612 18.7885,25.7612 C19.5605,25.7612 20.2565,26.2832 20.7885,26.7612 L20.7885,20.7882" id="Stroke-5"></path><path d="M5.7615,20.8152 L10.7615,20.8152 C10.2825,20.2842 9.7615,19.5602 9.7615,18.7882 C9.7615,17.1312 11.1045,15.7882 12.7615,15.7882 C14.4185,15.7882 15.7615,17.1312 15.7615,18.7882 C15.7615,19.5602 15.2405,20.2562 14.7615,20.7882 L20.7885,20.7892" id="Stroke-7"></path><path d="M0.5545,26.2097 L1.1095,28.2787 L5.2215,27.9167 C5.6745,28.9087 6.2135,29.8397 6.8305,30.7067 L4.4615,34.0857 L7.4915,37.1147 L10.8595,34.7567 C11.7385,35.3817 12.6755,35.9227 13.6555,36.3717 L13.2975,40.4677 L17.4355,41.5767 L19.1785,37.8357 C20.2375,37.9367 21.3135,37.9387 22.3985,37.8347 L24.1405,41.5767 L26.2105,41.0227 L28.2795,40.4677 L27.9165,36.3557 C28.9085,35.9027 29.8395,35.3627 30.7065,34.7467 L34.0855,37.2057 L37.1155,34.1757 L34.7575,30.7177 C35.3815,29.8377 35.9225,28.9007 36.3715,27.9207 L40.4675,28.2787 L41.5765,24.1407 L37.8355,22.3987 C37.8875,21.8567 37.9125,21.3117 37.9115,20.7617 C37.9105,20.2367 37.8855,19.7087 37.8345,19.1787 L41.5765,17.4367 L41.0225,15.3667 L40.4675,13.2977 L36.3555,13.6597 C35.9025,12.6677 35.3635,11.7367 34.7465,10.8697 L37.1155,7.4907 L34.0855,4.4607 L30.7175,6.8187 C29.8385,6.1947 28.9015,5.6537 27.9215,5.2047 L28.2795,1.1087 L24.1405,-0.0003 L22.3985,3.7407 C21.8575,3.6897 21.3115,3.6637 20.7625,3.6647 C20.2375,3.6667 19.7085,3.6917 19.1785,3.7417 L17.4365,-0.0003 L15.3665,0.5547 L13.2975,1.1087 L13.6595,5.2217 C12.6685,5.6737 11.7375,6.2137 10.8695,6.8297 L7.4915,4.4617 L4.4615,7.4907 L6.8195,10.8587 C6.1955,11.7387 5.6545,12.6757 5.2045,13.6557 L1.1085,13.2977 L-0.0005,17.4367 L3.7415,19.1777 C3.6405,20.2367 3.6385,21.3137 3.7425,22.3977 L-0.0005,24.1407 L0.5545,26.2097 Z" id="Stroke-9"></path></g></g></g></svg> 