<?xml version="1.0" encoding="UTF-8"?> <svg xmlns="http://www.w3.org/2000/svg" xmlns:xlink="http://www.w3.org/1999/xlink" width="96px" height="79px" viewBox="0 0 96 79" version="1.1"><!-- Generator: Sketch 62 (91390) - https://sketch.com --><title>Enterprise</title><desc>Created with Sketch.</desc><g id="Page-2" stroke="none" stroke-width="1" fill="none" fill-rule="evenodd"><g id="Enterprise" transform="translate(1.000000, 1.000000)"><g id="java-web-dev-2-copy-4" stroke="#505050" stroke-width="1.28571429"><g id="java-web-dev"><g id="Group-10"><g id="Group-7"><polygon id="Stroke-1" points="0 76.9090909 94 76.9090909 94 0 0 0"></polygon><line x1="0" y1="12.8181818" x2="94" y2="12.8181818" id="Stroke-3"></line><line x1="6.40909091" y1="6.40909091" x2="10.6818182" y2="6.40909091" id="Stroke-4"></line><line x1="14.9545455" y1="6.40909091" x2="19.2272727" y2="6.40909091" id="Stroke-5"></line><line x1="23.5" y1="6.40909091" x2="27.7727273" y2="6.40909091" id="Stroke-6"></line></g></g></g></g><g id="Group-35" transform="translate(26.000000, 24.000000)" stroke="#1476F2" stroke-linejoin="round" stroke-width="1.29"><path d="M28.9999,21 C28.9999,25.418 25.4179,29 20.9999,29 C16.5819,29 12.9999,25.418 12.9999,21 C12.9999,16.582 16.5819,13 20.9999,13 C25.4179,13 28.9999,16.582 28.9999,21 Z" id="Stroke-1"></path><path d="M23.9999,3 C23.9999,4.657 22.6569,6 20.9999,6 C19.3429,6 17.9999,4.657 17.9999,3 C17.9999,1.343 19.3429,0 20.9999,0 C22.6569,0 23.9999,1.343 23.9999,3 Z" id="Stroke-3"></path><path d="M23.9999,39 C23.9999,40.657 22.6569,42 20.9999,42 C19.3429,42 17.9999,40.657 17.9999,39 C17.9999,37.343 19.3429,36 20.9999,36 C22.6569,36 23.9999,37.343 23.9999,39 Z" id="Stroke-5"></path><path d="M39.9999,6 C39.9999,7.657 38.6569,9 36.9999,9 C35.3429,9 33.9999,7.657 33.9999,6 C33.9999,4.343 35.3429,3 36.9999,3 C38.6569,3 39.9999,4.343 39.9999,6 Z" id="Stroke-7"></path><path d="M41.9999,21 C41.9999,22.657 40.6569,24 38.9999,24 C37.3429,24 35.9999,22.657 35.9999,21 C35.9999,19.343 37.3429,18 38.9999,18 C40.6569,18 41.9999,19.343 41.9999,21 Z" id="Stroke-9"></path><path d="M5.9999,21 C5.9999,22.657 4.6569,24 2.9999,24 C1.3429,24 -0.0001,22.657 -0.0001,21 C-0.0001,19.343 1.3429,18 2.9999,18 C4.6569,18 5.9999,19.343 5.9999,21 Z" id="Stroke-11"></path><path d="M7.9999,6 C7.9999,7.657 6.6569,9 4.9999,9 C3.3429,9 1.9999,7.657 1.9999,6 C1.9999,4.343 3.3429,3 4.9999,3 C6.6569,3 7.9999,4.343 7.9999,6 Z" id="Stroke-13"></path><path d="M39.9999,36 C39.9999,37.657 38.6569,39 36.9999,39 C35.3429,39 33.9999,37.657 33.9999,36 C33.9999,34.343 35.3429,33 36.9999,33 C38.6569,33 39.9999,34.343 39.9999,36 Z" id="Stroke-15"></path><path d="M7.9999,36 C7.9999,37.657 6.6569,39 4.9999,39 C3.3429,39 1.9999,37.657 1.9999,36 C1.9999,34.343 3.3429,33 4.9999,33 C6.6569,33 7.9999,34.343 7.9999,36 Z" id="Stroke-17"></path><line x1="20.9999" y1="6" x2="20.9999" y2="11" id="Stroke-19"></line><line x1="20.9999" y1="31" x2="20.9999" y2="36" id="Stroke-21"></line><line x1="6.9999" y1="8" x2="12.9999" y2="14" id="Stroke-23"></line><line x1="34.9999" y1="8" x2="28.9999" y2="14" id="Stroke-25"></line><line x1="6.9999" y1="34" x2="12.9999" y2="28" id="Stroke-27"></line><line x1="34.9999" y1="34" x2="28.9999" y2="28" id="Stroke-29"></line><line x1="5.9999" y1="21" x2="10.9999" y2="21" id="Stroke-31"></line><line x1="30.9999" y1="21" x2="35.9999" y2="21" id="Stroke-33"></line></g></g></g></svg> 