<?xml version="1.0" encoding="UTF-8"?> <svg xmlns="http://www.w3.org/2000/svg" xmlns:xlink="http://www.w3.org/1999/xlink" width="100px" height="91px" viewBox="0 0 100 91" version="1.1"><!-- Generator: Sketch 64 (93537) - https://sketch.com --><title>facebook</title><desc>Created with Sketch.</desc><g id="Page-1" stroke="none" stroke-width="1" fill="none" fill-rule="evenodd"><g id="facebook" transform="translate(1.000000, 1.000000)"><g id="Group-17-Copy-2" stroke="#323232"><polyline id="Stroke-9" points="0 16 0 0 16 0"></polyline><polyline id="Stroke-11" points="0 73 0 89 16 89"></polyline><polyline id="Stroke-13" points="98 16 98 0 82 0"></polyline><polyline id="Stroke-15" points="98 73 98 89 82 89"></polyline></g><g id="Facebook" transform="translate(29.000000, 25.000000)" fill="#323232" fill-rule="nonzero"><path d="M20,0 C8.97166667,0 0,8.59833333 0,19.1666667 C0,24.615 2.425,29.7916667 6.66666667,33.4333333 L6.66666667,39.1666667 C6.66849364,39.6261451 7.04052159,39.998173 7.5,40 C7.65623386,40 7.80937193,39.9564432 7.94166667,39.8733333 L12.5866667,36.9716667 C14.9466667,37.875 17.4383333,38.3333333 20,38.3333333 C31.0283333,38.3333333 40,29.735 40,19.1666667 C40,8.59833333 31.0283333,0 20,0 Z M21.9566667,24.8 L16.9966667,20.5483333 C16.7349782,20.3219317 16.3601297,20.2820542 16.0566667,20.4483333 L7.9,24.8983333 C7.53508476,25.0908358 7.08454607,24.9922804 6.83333333,24.665 C6.58675094,24.3327571 6.62004573,23.8701721 6.91166667,23.5766667 L16.9116667,13.5766667 C17.1683333,13.32 17.5433333,13.1066667 18.0433333,13.5333333 L23.0033333,17.785 C23.2652229,18.0109379 23.6397713,18.0507835 23.9433333,17.885 L32.1,13.4366667 C32.4651092,13.2456011 32.9146777,13.3439442 33.1666667,13.67 C33.4132491,14.0022429 33.3799543,14.4648279 33.0883333,14.7583333 L23.0883333,24.7583333 C22.8316667,25.0116667 22.4566667,25.2266667 21.9566667,24.8 L21.9566667,24.8 Z" id="Shape"></path></g><g id="Group-11-Copy" transform="translate(13.000000, 9.000000)" stroke="#1476F2"><polygon id="Stroke-1" points="38.592134 5.83942285 42.3186409 0 48.4445892 1.79120316 48.5685827 9.02639051 53.057482 11.6403072 59.387852 8.12827554 63.8734 12.6138236 60.3613684 18.942518 62.9535024 23.4330929 70.192041 23.5554108 72 29.6813591 66.1605771 33.407866 66.1605771 38.592134 72 42.3186409 70.2071212 48.4445892 62.9736095 48.5685827 60.3596928 53.057482 63.8717245 59.387852 59.3861764 63.8734 53.057482 60.3613684 48.5669071 62.9535024 48.4445892 70.192041 42.3186409 72 38.592134 66.1605771 33.407866 66.1605771 29.6830347 72 23.5554108 70.2087968 23.4314173 62.9736095 18.942518 60.3596928 12.612148 63.8717245 8.12659995 59.3861764 11.6386316 53.057482 9.04649756 48.5669071 1.80795904 48.4445892 0 42.3186409 5.83942285 38.592134 5.83942285 33.407866 0 29.6813591 1.79120316 23.5554108 9.02639051 23.4314173 11.6403072 18.942518 8.12827554 12.612148 12.6138236 8.12659995 18.942518 11.6386316 23.4330929 9.04649756 23.5554108 1.80795904 29.6830347 0 33.407866 5.83942285"></polygon></g></g></g></svg> 