<?xml version="1.0" encoding="UTF-8"?> <svg xmlns="http://www.w3.org/2000/svg" xmlns:xlink="http://www.w3.org/1999/xlink" width="96px" height="79px" viewBox="0 0 96 79" version="1.1"><!-- Generator: Sketch 62 (91390) - https://sketch.com --><title>java</title><desc>Created with Sketch.</desc><g id="Page-2" stroke="none" stroke-width="1" fill="none" fill-rule="evenodd"><g id="java" transform="translate(1.000000, 1.000000)"><g id="java-web-dev-2"><g id="java-web-dev"><g id="Group-10" stroke="#505050" stroke-width="1.28571429"><g id="Group-7"><polygon id="Stroke-1" points="0 76.9090909 94 76.9090909 94 0 0 0"></polygon><line x1="0" y1="12.8181818" x2="94" y2="12.8181818" id="Stroke-3"></line><line x1="6.40909091" y1="6.40909091" x2="10.6818182" y2="6.40909091" id="Stroke-4"></line><line x1="14.9545455" y1="6.40909091" x2="19.2272727" y2="6.40909091" id="Stroke-5"></line><line x1="23.5" y1="6.40909091" x2="27.7727273" y2="6.40909091" id="Stroke-6"></line></g></g><g id="Group-9" transform="translate(32.000000, 23.000000)" stroke="#1476F2" stroke-linecap="round" stroke-width="0.5"><path d="M19.4374446,8.58962024e-15 C20.3842003,1.07791941 20.6966962,2.61924342 20.4244964,4.00945724 C20.13235,5.57092928 19.2659849,6.95106908 18.2486103,8.13980263 C17.4326152,9.09683388 16.4956312,9.94305099 15.5185527,10.728824 C14.3801892,11.6455592 13.2619738,12.6328125 12.5467188,13.9222862 C11.942278,14.9699836 11.8012418,16.2594572 12.2142764,17.3978207 C12.8892353,19.3521793 14.4607813,20.8028372 15.3170724,22.6463816 C14.3701152,21.8102385 13.443306,20.9438734 12.5769409,20.0271382 C11.6702797,19.0600329 10.8139886,18.0324836 10.2498438,16.823602 C9.86703132,15.9773849 9.6957731,14.9901316 9.98791948,14.0935444 C10.2800659,13.1768092 10.9348767,12.4414063 11.5896876,11.7563734 C13.413084,9.93297697 15.6596896,8.59313322 17.4426892,6.7395148 C18.4300432,5.72203947 19.2459376,4.50308388 19.5279092,3.10279605 C19.7597122,2.07524671 19.6488981,1.01747533 19.4374446,8.58962024e-15" id="Fill-1" fill="#1476F2"></path><path d="M19.4374446,8.58962024e-15 C20.3842003,1.07791941 20.6966962,2.61924342 20.4244964,4.00945724 C20.13235,5.57092928 19.2659849,6.95106908 18.2486103,8.13980263 C17.4326152,9.09683388 16.4956312,9.94305099 15.5185527,10.728824 C14.3801892,11.6455592 13.2619738,12.6328125 12.5467188,13.9222862 C11.942278,14.9699836 11.8012418,16.2594572 12.2142764,17.3978207 C12.8892353,19.3521793 14.4607813,20.8028372 15.3170724,22.6463816 C14.3701152,21.8102385 13.443306,20.9438734 12.5769409,20.0271382 C11.6702797,19.0600329 10.8139886,18.0324836 10.2498438,16.823602 C9.86703132,15.9773849 9.6957731,14.9901316 9.98791948,14.0935444 C10.2800659,13.1768092 10.9348767,12.4414063 11.5896876,11.7563734 C13.413084,9.93297697 15.6596896,8.59313322 17.4426892,6.7395148 C18.4300432,5.72203947 19.2459376,4.50308388 19.5279092,3.10279605 C19.7597122,2.07524671 19.6488981,1.01747533 19.4374446,8.58962024e-15 Z" id="Stroke-2"></path><path d="M17.9463899,11.474301 C19.9007484,10.0337171 22.1874487,9.11698191 24.5044717,8.45209704 C22.671102,9.62068257 20.7570395,10.688528 19.1753187,12.1895559 C18.6012007,12.7436266 18.0571033,13.3782895 17.8052529,14.1539885 C17.6138467,14.7282072 17.6945395,15.3628701 17.9263426,15.9068668 C18.3493504,16.873972 19.0645046,17.6597451 19.608602,18.5462582 C20.0719059,19.3018092 20.1525988,20.2689145 19.8000083,21.0849095 C19.2659849,22.2837171 18.2182875,23.1601563 17.1303948,23.8552632 C16.9893586,23.9358553 16.8685712,24.0869655 16.6971115,24.1071135 C17.4226419,23.4523026 17.9866859,22.5254934 17.9664372,21.5281661 C17.9463899,20.7826891 17.5333553,20.1278783 17.049702,19.5939556 C16.0523747,18.405222 15.2163323,16.8941201 15.3875905,15.292352 C15.5589495,13.6905839 16.7071855,12.4011102 17.9463899,11.474301" id="Fill-4" fill="#1476F2"></path><path d="M17.9463899,11.474301 C19.9007484,10.0337171 22.1874487,9.11698191 24.5044717,8.45209704 C22.671102,9.62068257 20.7570395,10.688528 19.1753187,12.1895559 C18.6012007,12.7436266 18.0571033,13.3782895 17.8052529,14.1539885 C17.6138467,14.7282072 17.6945395,15.3628701 17.9263426,15.9068668 C18.3493504,16.873972 19.0645046,17.6597451 19.608602,18.5462582 C20.0719059,19.3018092 20.1525988,20.2689145 19.8000083,21.0849095 C19.2659849,22.2837171 18.2182875,23.1601563 17.1303948,23.8552632 C16.9893586,23.9358553 16.8685712,24.0869655 16.6971115,24.1071135 C17.4226419,23.4523026 17.9866859,22.5254934 17.9664372,21.5281661 C17.9463899,20.7826891 17.5333553,20.1278783 17.049702,19.5939556 C16.0523747,18.405222 15.2163323,16.8941201 15.3875905,15.292352 C15.5589495,13.6905839 16.7071855,12.4011102 17.9463899,11.474301 Z" id="Stroke-5"></path><path d="M24.8774117,23.1198602 C25.3004195,22.6060855 25.9752776,22.4751234 26.5899939,22.3945312 C27.6577386,22.2534951 28.7960013,22.5254934 29.6019224,23.2608964 C30.2670087,23.8552632 30.6396465,24.7820724 30.4985095,25.6786595 C30.3473993,26.7162829 29.6522924,27.582648 28.8666201,28.2374589 C27.446285,29.3758224 25.693306,30.0407072 23.9404277,30.4840646 C24.0411678,30.3730489 24.1518812,30.2723088 24.2829441,30.1918174 C25.6126131,29.4765625 26.9323089,28.6404194 27.9095889,27.4718339 C28.5040564,26.7465049 28.9673603,25.7995477 28.775954,24.8425164 C28.5744738,23.734375 27.4966551,22.9284539 26.3984869,22.8680099 C25.8745375,22.8176398 25.3811123,23.0191201 24.8774117,23.1198602" id="Fill-6" fill="#1476F2"></path><path d="M24.8774117,23.1198602 C25.3004195,22.6060855 25.9752776,22.4751234 26.5899939,22.3945312 C27.6577386,22.2534951 28.7960013,22.5254934 29.6019224,23.2608964 C30.2670087,23.8552632 30.6396465,24.7820724 30.4985095,25.6786595 C30.3473993,26.7162829 29.6522924,27.582648 28.8666201,28.2374589 C27.446285,29.3758224 25.693306,30.0407072 23.9404277,30.4840646 C24.0411678,30.3730489 24.1518812,30.2723088 24.2829441,30.1918174 C25.6126131,29.4765625 26.9323089,28.6404194 27.9095889,27.4718339 C28.5040564,26.7465049 28.9673603,25.7995477 28.775954,24.8425164 C28.5744738,23.734375 27.4966551,22.9284539 26.3984869,22.8680099 C25.8745375,22.8176398 25.3811123,23.0191201 24.8774117,23.1198602 Z" id="Stroke-7"></path><path d="M4.62854448,24.0365954 C6.4821629,23.2407484 8.49686479,22.7269737 10.5218422,22.7571957 C9.34318264,23.0997122 8.13430106,23.3918586 7.02615961,23.9157072 C6.76423527,24.0567434 6.46201487,24.1877056 6.31090467,24.4597039 C6.23021183,24.6712582 6.45194086,24.8122944 6.61312507,24.8828125 C7.29815796,25.1648849 8.05370895,25.2051809 8.78911191,25.275699 C11.3680593,25.4469572 13.9570807,25.3462171 16.525954,25.1850329 C19.0645046,25.0238487 21.5830079,24.6813322 24.0915379,24.2783717 C23.5374672,24.5402961 22.9733224,24.8022204 22.4596485,25.1346628 C22.1975227,25.3159951 21.875255,25.3663651 21.5830079,25.4368832 C18.5004606,26.1219161 15.3372205,26.3334704 12.1941284,26.3838405 C10.9751728,26.3939145 9.76629119,26.3737664 8.55740961,26.2931743 C7.20749185,26.2025082 5.84750007,26.1017681 4.52780435,25.7491776 C4.14499185,25.6383635 3.74203132,25.5174753 3.43981092,25.245477 C3.28870073,25.1245888 3.28870073,24.8828125 3.4196629,24.7417763 C3.75210533,24.3992599 4.21550994,24.2380757 4.62854448,24.0365954" id="Fill-8" fill="#1476F2"></path><path d="M4.62854448,24.0365954 C6.4821629,23.2407484 8.49686479,22.7269737 10.5218422,22.7571957 C9.34318264,23.0997122 8.13430106,23.3918586 7.02615961,23.9157072 C6.76423527,24.0567434 6.46201487,24.1877056 6.31090467,24.4597039 C6.23021183,24.6712582 6.45194086,24.8122944 6.61312507,24.8828125 C7.29815796,25.1648849 8.05370895,25.2051809 8.78911191,25.275699 C11.3680593,25.4469572 13.9570807,25.3462171 16.525954,25.1850329 C19.0645046,25.0238487 21.5830079,24.6813322 24.0915379,24.2783717 C23.5374672,24.5402961 22.9733224,24.8022204 22.4596485,25.1346628 C22.1975227,25.3159951 21.875255,25.3663651 21.5830079,25.4368832 C18.5004606,26.1219161 15.3372205,26.3334704 12.1941284,26.3838405 C10.9751728,26.3939145 9.76629119,26.3737664 8.55740961,26.2931743 C7.20749185,26.2025082 5.84750007,26.1017681 4.52780435,25.7491776 C4.14499185,25.6383635 3.74203132,25.5174753 3.43981092,25.245477 C3.28870073,25.1245888 3.28870073,24.8828125 3.4196629,24.7417763 C3.75210533,24.3992599 4.21550994,24.2380757 4.62854448,24.0365954 Z" id="Stroke-9"></path><path d="M7.00601158,28.338199 C7.52986027,27.9251645 8.15444908,27.6934622 8.7790379,27.4718339 C8.57755764,27.7136102 8.29548527,27.9453125 8.27533724,28.2777549 C8.26526323,28.4893092 8.43652145,28.6504934 8.60777967,28.7512336 C8.94022211,28.9224918 9.3129606,28.9829359 9.68569908,29.0333059 C11.6199096,29.2347862 13.5742682,29.3456003 15.5286267,29.2146382 C17.3116263,29.123972 19.0848541,28.8318257 20.8478064,28.5195313 C21.3311576,28.9728618 21.9055778,29.2851563 22.5100186,29.5571546 C20.3842003,30.1817434 18.1982402,30.5444079 16.0020046,30.7155654 C13.9268586,30.8567023 11.8213899,30.8466283 9.75621717,30.5140851 C8.94022211,30.3629749 8.10407902,30.1918174 7.35860204,29.8090049 C7.05638165,29.6478207 6.7138652,29.4362664 6.62319908,29.083676 C6.562755,28.7814556 6.78438329,28.5094572 7.00601158,28.338199" id="Fill-10" fill="#1476F2"></path><path d="M7.00601158,28.338199 C7.52986027,27.9251645 8.15444908,27.6934622 8.7790379,27.4718339 C8.57755764,27.7136102 8.29548527,27.9453125 8.27533724,28.2777549 C8.26526323,28.4893092 8.43652145,28.6504934 8.60777967,28.7512336 C8.94022211,28.9224918 9.3129606,28.9829359 9.68569908,29.0333059 C11.6199096,29.2347862 13.5742682,29.3456003 15.5286267,29.2146382 C17.3116263,29.123972 19.0848541,28.8318257 20.8478064,28.5195313 C21.3311576,28.9728618 21.9055778,29.2851563 22.5100186,29.5571546 C20.3842003,30.1817434 18.1982402,30.5444079 16.0020046,30.7155654 C13.9268586,30.8567023 11.8213899,30.8466283 9.75621717,30.5140851 C8.94022211,30.3629749 8.10407902,30.1918174 7.35860204,29.8090049 C7.05638165,29.6478207 6.7138652,29.4362664 6.62319908,29.083676 C6.562755,28.7814556 6.78438329,28.5094572 7.00601158,28.338199 Z" id="Stroke-11"></path><path d="M8.17459711,32.730368 C8.63800171,32.3577303 9.21222046,32.166324 9.7763652,32.0051398 C9.59503296,32.1762973 9.27266454,32.3878516 9.41370073,32.6799979 C9.68569908,33.0325884 10.1893997,33.0729852 10.5923603,33.1636513 C12.2948685,33.3752056 14.0175247,33.5162418 15.720033,33.3851789 C17.0094059,33.3047882 18.278933,33.0729852 19.5381847,32.8514576 C20.2634129,33.2744655 21.0189639,33.6370292 21.7945622,33.9595991 C20.6059293,34.4933203 19.3264289,34.8359375 18.04713,35.0777138 C15.8911904,35.4604256 13.6649343,35.5107956 11.4990215,35.1684807 C10.5419902,34.997021 9.56481092,34.7754934 8.69844579,34.3019141 C8.36600336,34.1107093 8.0134129,33.8888795 7.87237671,33.5162418 C7.76156257,33.2240954 7.94289481,32.911801 8.17459711,32.730368" id="Fill-12" fill="#1476F2"></path><path d="M8.17459711,32.730368 C8.63800171,32.3577303 9.21222046,32.166324 9.7763652,32.0051398 C9.59503296,32.1762973 9.27266454,32.3878516 9.41370073,32.6799979 C9.68569908,33.0325884 10.1893997,33.0729852 10.5923603,33.1636513 C12.2948685,33.3752056 14.0175247,33.5162418 15.720033,33.3851789 C17.0094059,33.3047882 18.278933,33.0729852 19.5381847,32.8514576 C20.2634129,33.2744655 21.0189639,33.6370292 21.7945622,33.9595991 C20.6059293,34.4933203 19.3264289,34.8359375 18.04713,35.0777138 C15.8911904,35.4604256 13.6649343,35.5107956 11.4990215,35.1684807 C10.5419902,34.997021 9.56481092,34.7754934 8.69844579,34.3019141 C8.36600336,34.1107093 8.0134129,33.8888795 7.87237671,33.5162418 C7.76156257,33.2240954 7.94289481,32.911801 8.17459711,32.730368 Z" id="Stroke-13"></path><path d="M2.58351981,35.5814145 C3.51032902,35.2692208 4.46736027,35.0173705 5.44453954,34.9870477 C5.83742606,34.9769737 6.24038658,34.997021 6.58290303,35.1985012 C5.4143175,35.2692208 4.24573198,35.5611657 3.19803461,36.0951891 C2.96633231,36.2262521 2.70440796,36.3773623 2.61374185,36.6492599 C2.61374185,36.9614535 2.96633231,37.0621937 3.19803461,37.1629338 C4.65876652,37.7070312 6.22023856,37.8781887 7.75148856,38.0395744 C12.3150165,38.4221854 16.9086658,38.3214453 21.4722945,37.9085115 C23.19485,37.7170045 24.9277817,37.5255983 26.5999672,37.0522204 C27.1337891,36.8707874 27.7382299,36.6895559 28.0908204,36.2159766 C28.3025761,35.9340049 28.1614392,35.5814145 27.9499857,35.3396382 C28.2923006,35.5310444 28.775954,35.7729215 28.7055367,36.2362253 C28.5744738,36.7196772 28.0807464,36.9715275 27.6777858,37.2033306 C26.3885136,37.8581414 24.9678763,38.1906846 23.5575145,38.4826295 C19.4574918,39.2885506 15.2566284,39.4699836 11.0859869,39.3491961 C7.94289481,39.2381805 4.7998027,38.9359601 1.69700665,38.4021382 C1.14293592,38.2710752 0.518347109,38.1603618 0.115386582,37.7270785 C-0.14653776,37.4248581 0.085164543,37.0018503 0.337014872,36.7803228 C0.971677701,36.1959293 1.78767277,35.8736616 2.58351981,35.5814145" id="Fill-14" fill="#1476F2"></path><path d="M2.58351981,35.5814145 C3.51032902,35.2692208 4.46736027,35.0173705 5.44453954,34.9870477 C5.83742606,34.9769737 6.24038658,34.997021 6.58290303,35.1985012 C5.4143175,35.2692208 4.24573198,35.5611657 3.19803461,36.0951891 C2.96633231,36.2262521 2.70440796,36.3773623 2.61374185,36.6492599 C2.61374185,36.9614535 2.96633231,37.0621937 3.19803461,37.1629338 C4.65876652,37.7070312 6.22023856,37.8781887 7.75148856,38.0395744 C12.3150165,38.4221854 16.9086658,38.3214453 21.4722945,37.9085115 C23.19485,37.7170045 24.9277817,37.5255983 26.5999672,37.0522204 C27.1337891,36.8707874 27.7382299,36.6895559 28.0908204,36.2159766 C28.3025761,35.9340049 28.1614392,35.5814145 27.9499857,35.3396382 C28.2923006,35.5310444 28.775954,35.7729215 28.7055367,36.2362253 C28.5744738,36.7196772 28.0807464,36.9715275 27.6777858,37.2033306 C26.3885136,37.8581414 24.9678763,38.1906846 23.5575145,38.4826295 C19.4574918,39.2885506 15.2566284,39.4699836 11.0859869,39.3491961 C7.94289481,39.2381805 4.7998027,38.9359601 1.69700665,38.4021382 C1.14293592,38.2710752 0.518347109,38.1603618 0.115386582,37.7270785 C-0.14653776,37.4248581 0.085164543,37.0018503 0.337014872,36.7803228 C0.971677701,36.1959293 1.78767277,35.8736616 2.58351981,35.5814145 Z" id="Stroke-15"></path><path d="M27.6878599,39.0266262 C28.7055367,38.6740358 29.7933286,38.301398 30.5488796,37.495477 C30.4181189,38.3718154 29.6625679,38.9762562 28.9169902,39.3692434 C27.4863796,40.1147204 25.884813,40.4573376 24.2930182,40.7392085 C20.928197,41.2732319 17.5131066,41.4040933 14.0981168,41.3436493 C11.7710198,41.2732319 9.42377474,41.1825658 7.13687301,40.6989124 C6.59297704,40.5478022 6.00868428,40.4470621 5.53520566,40.1247944 C7.57015632,40.4673109 9.63532902,40.6084478 11.7005017,40.6888384 C15.0954441,40.7895785 18.5004606,40.6588178 21.875255,40.2355078 C23.8296136,39.9636102 25.7940461,39.631067 27.6878599,39.0266262" id="Fill-16" fill="#1476F2"></path><path d="M27.6878599,39.0266262 C28.7055367,38.6740358 29.7933286,38.301398 30.5488796,37.495477 C30.4181189,38.3718154 29.6625679,38.9762562 28.9169902,39.3692434 C27.4863796,40.1147204 25.884813,40.4573376 24.2930182,40.7392085 C20.928197,41.2732319 17.5131066,41.4040933 14.0981168,41.3436493 C11.7710198,41.2732319 9.42377474,41.1825658 7.13687301,40.6989124 C6.59297704,40.5478022 6.00868428,40.4470621 5.53520566,40.1247944 C7.57015632,40.4673109 9.63532902,40.6084478 11.7005017,40.6888384 C15.0954441,40.7895785 18.5004606,40.6588178 21.875255,40.2355078 C23.8296136,39.9636102 25.7940461,39.631067 27.6878599,39.0266262 Z" id="Stroke-17"></path></g></g></g></g></g></svg> 