<?xml version="1.0" encoding="UTF-8"?> <svg xmlns="http://www.w3.org/2000/svg" xmlns:xlink="http://www.w3.org/1999/xlink" width="96px" height="79px" viewBox="0 0 96 79" version="1.1"><!-- Generator: Sketch 62 (91390) - https://sketch.com --><title>Python</title><desc>Created with Sketch.</desc><g id="Page-2" stroke="none" stroke-width="1" fill="none" fill-rule="evenodd"><g id="Python" transform="translate(1.000000, 1.000000)"><g id="java-web-dev-2-copy-2" stroke="#505050" stroke-width="1.28571429"><g id="java-web-dev"><g id="Group-10"><g id="Group-7"><polygon id="Stroke-1" points="0 76.9090909 94 76.9090909 94 0 0 0"></polygon><line x1="0" y1="12.8181818" x2="94" y2="12.8181818" id="Stroke-3"></line><line x1="6.40909091" y1="6.40909091" x2="10.6818182" y2="6.40909091" id="Stroke-4"></line><line x1="14.9545455" y1="6.40909091" x2="19.2272727" y2="6.40909091" id="Stroke-5"></line><line x1="23.5" y1="6.40909091" x2="27.7727273" y2="6.40909091" id="Stroke-6"></line></g></g></g></g><g id="Python_icon_(black_and_white)" transform="translate(26.000000, 23.000000)"><rect id="Rectangle" fill="#1476F2" fill-rule="nonzero" x="10.5" y="0" width="21" height="42" rx="10.5"></rect><rect id="Rectangle" fill="#1476F2" fill-rule="nonzero" x="0" y="10.5" width="42" height="21" rx="5.25"></rect><circle id="Oval" fill="#FFFFFF" fill-rule="nonzero" cx="15.225" cy="5.25" r="1.9425"></circle><circle id="Oval" fill="#FFFFFF" fill-rule="nonzero" cx="26.775" cy="36.75" r="1.9425"></circle><line x1="10.5" y1="9.975" x2="21" y2="9.975" id="Path" stroke="#FFFFFF" stroke-width="1.05" fill="#1476F2" fill-rule="nonzero"></line><line x1="21" y1="32.025" x2="31.5" y2="32.025" id="Path" stroke="#FFFFFF" stroke-width="1.05" fill="#1476F2" fill-rule="nonzero"></line><path d="M9.975,31.5 C9.975,21 12.6,21 20.475,21 C29.4,21 32.025,21 32.025,10.5" id="Path" stroke="#FFFFFF" stroke-width="1.05"></path></g></g></g></svg> 