<?xml version="1.0" encoding="UTF-8"?> <svg xmlns="http://www.w3.org/2000/svg" xmlns:xlink="http://www.w3.org/1999/xlink" width="82px" height="82px" viewBox="0 0 82 82" version="1.1"><!-- Generator: Sketch 62 (91390) - https://sketch.com --><title>saas_product_development</title><desc>Created with Sketch.</desc><g id="Page-2" stroke="none" stroke-width="1" fill="none" fill-rule="evenodd"><g id="saas_product_development" transform="translate(1.000000, 1.000000)"><path d="M32.388,58.6815238 C24.8241905,55.6529524 19.4622857,48.2624762 19.4622857,39.632 C19.4622857,39.0300952 19.4927619,38.432 19.5460952,37.8453333 L27.1937143,39.2586667 L17.7899048,16.8281905 L0.984190476,34.4091429 L8.26228571,35.7558095 C8.10609524,37.0300952 7.99942857,38.3177143 7.99942857,39.632 C7.99942857,51.9710476 15.0337143,62.679619 25.2908571,68.0110476" id="Stroke-1" stroke="#1476F2"></path><path d="M60.4293333,38.0045714 C60.4712381,38.543619 60.5131429,39.0826667 60.5131429,39.6312381 C60.5131429,48.2045714 55.223619,55.5588571 47.7398095,58.6255238 L45.0979048,51.176 L30.376,70.5340952 L54.0045714,76.2998095 L51.5531429,69.3817143 C63.4826667,64.7398095 71.976,53.1855238 71.976,39.6312381 C71.976,39.5779048 71.9664762,39.5264762 71.9664762,39.4731429" id="Stroke-3" stroke="#1476F2"></path><path d="M26.807619,23.9177143 C30.3771429,20.9215238 34.9714286,19.1081905 39.9866667,19.1081905 C45.2419048,19.1081905 50.0228571,21.1100952 53.6533333,24.3729524 L48.1466667,30.8224762 L72.2742857,33.8910476 L65.4533333,10.5462857 L61.0838095,15.6662857 C55.4533333,10.6872381 48.0780952,7.64533333 39.9866667,7.64533333 C33.4285714,7.64533333 27.3257143,9.63580952 22.2438095,13.0358095" id="Stroke-5" stroke="#1476F2"></path><path d="M74.2834286,19.3828571 C77.912,25.4038095 79.999619,32.4571429 79.999619,40 C79.999619,54.8057143 71.9558095,67.7333333 59.999619,74.6495238" id="Stroke-7" stroke="#323232"></path><path d="M3.80914286,22.9430476 C10.2110476,9.38304762 24.0091429,0.00019047619 39.999619,0.00019047619 C47.7386667,0.00019047619 54.9634286,2.19638095 61.0872381,6.00209524" id="Stroke-9" stroke="#323232"></path><path d="M45.7139048,79.5967619 C43.8472381,79.8634286 41.9405714,80.0005714 39.999619,80.0005714 C17.9081905,80.0005714 -0.000380952381,62.0939048 -0.000380952381,40.0005714" id="Stroke-11" stroke="#323232"></path></g></g></svg> 