<?xml version="1.0" encoding="UTF-8"?> <svg xmlns="http://www.w3.org/2000/svg" xmlns:xlink="http://www.w3.org/1999/xlink" width="81px" height="81px" viewBox="0 0 81 81" version="1.1"><!-- Generator: Sketch 62 (91390) - https://sketch.com --><title>saas_application_development</title><desc>Created with Sketch.</desc><g id="Page-2" stroke="none" stroke-width="1" fill="none" fill-rule="evenodd"><g id="saas_application_development"><path d="M44.7251984,68.0775391 L44.7251984,74.3818869 C44.7251984,77.2276043 42.6147698,79.5340608 40.0109127,79.5340608 L5.43948413,79.5340608 C2.83562698,79.5340608 0.725198413,77.2276043 0.725198413,74.3818869 L0.725198413,5.68623476 C0.725198413,2.84051737 2.83562698,0.534060847 5.43948413,0.534060847 L40.0109127,0.534060847 C42.6147698,0.534060847 44.7251984,2.84051737 44.7251984,5.68623476 L44.7251984,14.9905826" id="Stroke-1" stroke="#323232"></path><path d="M13.991615,4.53406085 L30.4177446,4.53406085 C32.0290491,4.53406085 33.3352696,3.22784042 33.3352696,1.61653586 C33.3352696,1.24575636 33.2645934,0.878375163 33.1270249,0.534060847 L33.1270249,0.534060847 L33.1270249,0.534060847 L11.2092167,0.534060847 C10.6391028,2.07073699 11.4226564,3.77862774 12.9593325,4.34874161 C13.2896962,4.47130806 13.6392477,4.53406085 13.991615,4.53406085 Z" id="Stroke-9" stroke="#323232"></path><polygon id="Stroke-13" stroke="#1476F2" points="20.5982143 66.0039683 79.8161376 66.0039683 79.8161376 16.9960317 20.5982143 16.9960317"></polygon><line x1="20.5982143" y1="29.2480159" x2="79.8161376" y2="29.2480159" id="Stroke-15" stroke="#1476F2"></line><line x1="26.7242063" y1="23.1220238" x2="30.8082011" y2="23.1220238" id="Stroke-16" stroke="#1476F2"></line><line x1="34.8921958" y1="23.1220238" x2="38.9761905" y2="23.1220238" id="Stroke-17" stroke="#1476F2"></line><line x1="43.0601852" y1="23.1220238" x2="47.1441799" y2="23.1220238" id="Stroke-18" stroke="#1476F2"></line><line x1="13.7251984" y1="24.5340608" x2="13.7251984" y2="63.5340608" id="Stroke-19" stroke="#1476F2"></line><line x1="7.72519841" y1="29.5340608" x2="7.72519841" y2="58.5340608" id="Stroke-20" stroke="#1476F2"></line></g></g></svg> 