<?xml version="1.0" encoding="UTF-8"?> <svg xmlns="http://www.w3.org/2000/svg" xmlns:xlink="http://www.w3.org/1999/xlink" width="82px" height="84px" viewBox="0 0 82 84" version="1.1"><!-- Generator: Sketch 62 (91390) - https://sketch.com --><title>saas_platform_development</title><desc>Created with Sketch.</desc><g id="Page-2" stroke="none" stroke-width="1" fill="none" fill-rule="evenodd"><g id="saas_platform_development" transform="translate(1.000000, 1.000000)"><path d="M39.047619,17.5714286 C39.047619,20.8065238 41.6696667,23.4285714 44.9047619,23.4285714 C48.1398571,23.4285714 50.7619048,20.8065238 50.7619048,17.5714286 C50.7619048,14.3363333 48.1398571,11.7142857 44.9047619,11.7142857 C41.6696667,11.7142857 39.047619,14.3363333 39.047619,17.5714286 Z" id="Stroke-1" stroke="#323232"></path><path d="M62.4761905,21.4761905 L62.4761905,13.6666667 L57.999381,13.6666667 C57.728,12.7588095 57.3707143,11.8880476 56.9275238,11.07 L60.090381,7.90909524 L54.5690476,2.3877619 L51.4061905,5.54866667 C50.5881429,5.10352381 49.717381,4.75014286 48.8095238,4.4787619 L48.8095238,0 L41,0 L41,4.4787619 C40.0921429,4.75014286 39.221381,5.10352381 38.4033333,5.54866667 L35.2404762,2.3877619 L29.7191429,7.90909524 L32.882,11.07 C32.4388095,11.8880476 32.0815238,12.7588095 31.8101429,13.6666667 L27.3333333,13.6666667 L27.3333333,21.4761905 L31.8101429,21.4761905 C32.0815238,22.3840476 32.4388095,23.2548095 32.882,24.0728571 L29.7191429,27.2337619 L35.2404762,32.7570476 L38.4033333,29.5941905 C39.221381,30.0393333 40.0921429,30.3946667 41,30.6640952 L41,35.1428571 L48.8095238,35.1428571 L48.8095238,30.6640952 C49.717381,30.3927143 50.5881429,30.0393333 51.4061905,29.5941905 L54.5690476,32.7570476 L60.090381,27.2337619 L56.9275238,24.0728571 C57.3707143,23.2548095 57.728,22.3840476 57.999381,21.4761905 L62.4761905,21.4761905 Z" id="Stroke-3" stroke="#323232"></path><line x1="27.3333333" y1="17.5714286" x2="17.5519048" y2="17.5714286" id="Stroke-5" stroke="#323232"></line><path d="M17.551319,17.5714286 C17.551319,21.8842381 14.0546048,25.3809524 9.74179524,25.3809524 C5.42898571,25.3809524 1.93227143,21.8842381 1.93227143,17.5714286 C1.93227143,13.258619 5.42898571,9.76190476 9.74179524,9.76190476 C14.0546048,9.76190476 17.551319,13.258619 17.551319,17.5714286 Z" id="Stroke-7" stroke="#1476F2"></path><line x1="9.74179524" y1="25.3809524" x2="9.74179524" y2="41" id="Stroke-9" stroke="#323232"></line><polygon id="Stroke-11" stroke="#1476F2" points="9.76190476 60.5238095 0 50.7619048 9.76190476 41 19.5238095 50.7619048"></polygon><polygon id="Stroke-13" stroke="#1476F2" points="27.3333333 56.6190476 42.952381 56.6190476 42.952381 44.9047619 27.3333333 44.9047619"></polygon><line x1="19.5037" y1="50.7619048" x2="27.3327476" y2="50.7619048" id="Stroke-15" stroke="#323232"></line><line x1="42.952381" y1="50.7619048" x2="56.6190476" y2="50.7619048" id="Stroke-16" stroke="#323232"></line><path d="M42.952381,74.1904762 C42.952381,78.5032857 39.4556667,82 35.1428571,82 C30.8300476,82 27.3333333,78.5032857 27.3333333,74.1904762 C27.3333333,69.8776667 30.8300476,66.3809524 35.1428571,66.3809524 C39.4556667,66.3809524 42.952381,69.8776667 42.952381,74.1904762 Z" id="Stroke-17" stroke="#1476F2"></path><polygon id="Stroke-18" stroke="#1476F2" points="62.4761905 39.047619 52.7142857 56.6190476 72.2380952 56.6190476"></polygon><polyline id="Stroke-19" stroke="#323232" points="62.4761905 17.5714286 80.047619 17.5714286 80.047619 74.1904762 42.952381 74.1904762"></polyline></g></g></svg> 