<?xml version="1.0" encoding="UTF-8"?> <svg xmlns="http://www.w3.org/2000/svg" xmlns:xlink="http://www.w3.org/1999/xlink" width="88px" height="80px" viewBox="0 0 88 80" version="1.1"><!-- Generator: Sketch 62 (91390) - https://sketch.com --><title>saas_web_development</title><desc>Created with Sketch.</desc><g id="Page-2" stroke="none" stroke-width="1" fill="none" fill-rule="evenodd"><g id="saas_web_development"><g id="Group-11"><polyline id="Stroke-1" stroke="#323232" points="34.4055944 19.4871795 34.4055944 0.839160839 86.6200466 0.839160839 86.6200466 49.3240093 56.7832168 49.3240093"></polyline><polygon id="Stroke-3" stroke="#1476F2" points="0.839160839 66.1072261 53.0536131 66.1072261 53.0536131 23.2167832 0.839160839 23.2167832"></polygon><polyline id="Stroke-5" stroke="#323232" points="73.5664336 53.0536131 73.5664336 79.1608392 21.3519814 79.1608392 21.3519814 69.8368298"></polyline><line x1="40" y1="6.43356643" x2="43.7296037" y2="6.43356643" id="Stroke-6" stroke="#323232"></line><line x1="47.4592075" y1="6.43356643" x2="51.1888112" y2="6.43356643" id="Stroke-7" stroke="#323232"></line><line x1="54.9184149" y1="6.43356643" x2="58.6480186" y2="6.43356643" id="Stroke-8" stroke="#323232"></line><line x1="34.4055944" y1="12.027972" x2="86.6200466" y2="12.027972" id="Stroke-9" stroke="#323232"></line><line x1="0.839160839" y1="34.4055944" x2="53.0536131" y2="34.4055944" id="Stroke-10" stroke="#1476F2"></line></g><line x1="6.43356643" y1="28.8111888" x2="10.1631702" y2="28.8111888" id="Stroke-12" stroke="#1476F2"></line><line x1="13.8927739" y1="28.8111888" x2="17.6223776" y2="28.8111888" id="Stroke-13" stroke="#1476F2"></line><line x1="21.3519814" y1="28.8111888" x2="25.0815851" y2="28.8111888" id="Stroke-14" stroke="#1476F2"></line></g></g></svg> 