<?xml version="1.0" encoding="UTF-8"?> <svg xmlns="http://www.w3.org/2000/svg" xmlns:xlink="http://www.w3.org/1999/xlink" width="102px" height="102px" viewBox="0 0 102 102" version="1.1"><!-- Generator: Sketch 64 (93537) - https://sketch.com --><title>skype</title><desc>Created with Sketch.</desc><g id="Page-1" stroke="none" stroke-width="1" fill="none" fill-rule="evenodd"><g id="skype" transform="translate(1.000000, 1.000000)"><g id="Group-18-Copy-3" transform="translate(21.000000, 0.000000)" stroke="#2387FD" stroke-width="1.11111111"><polyline id="Stroke-6" points="0 23.08867 0 0 79 0 79 76 51.1851852 76"></polyline></g><g id="Group-27-Copy-2" transform="translate(0.000000, 30.000000)"><path d="M17.4113864,24.5200455 C18.04775,27.8832273 15.1554773,30.7755 11.7922955,30.1391364 C9.92456818,29.7843636 8.39729545,28.2570909 8.04252273,26.3893636 C7.40615909,23.0261818 10.2984318,20.1339091 13.6616136,20.7702727 C15.5293409,21.1250455 17.0566136,22.6523182 17.4113864,24.5200455 Z" id="Stroke-1" stroke="#323232"></path><path d="M33.4090909,25.4545455 C33.4090909,28.0906818 31.2725,30.2272727 28.6363636,30.2272727 C26.0002273,30.2272727 23.8636364,28.0906818 23.8636364,25.4545455 C23.8636364,22.8184091 26.0002273,20.6818182 28.6363636,20.6818182 C31.2725,20.6818182 33.4090909,22.8184091 33.4090909,25.4545455 Z" id="Stroke-3" stroke="#323232"></path><path d="M39.7727273,31.8205682 L39.7727273,39.7735227 L1.59090909,39.7735227 L1.59090909,31.8205682 L0,31.8189773 L0,20.6826136 L1.59090909,20.6842045 L1.59090909,17.5023864 C1.59090909,13.9880682 4.44022727,11.1371591 7.95454545,11.1371591 L33.4090909,11.1371591 C36.9234091,11.1371591 39.7727273,13.9880682 39.7727273,17.5023864 L39.7727273,20.6826136 L41.3636364,20.6826136 L41.3636364,31.8189773 C41.3636364,31.8189773 39.5738636,31.8205682 39.7727273,31.8205682 Z" id="Stroke-5" stroke="#323232"></path><line x1="20.6818182" y1="11.1363636" x2="20.6818182" y2="0" id="Stroke-7" stroke="#323232"></line><polyline id="Stroke-17" stroke="#323232" stroke-linejoin="round" points="23.8636364 39.7727273 23.8636364 46.1363636 55.6818182 46.1363636"></polyline><path d="M49.7455,42.3525455 C50.7843636,41.1911818 52.2957273,40.4609545 53.9757273,40.4609545 C57.1114091,40.4609545 59.6520909,43.0016364 59.6520909,46.1357273 C59.6520909,49.2714091 57.1114091,51.8120909 53.9757273,51.8120909 C52.5248182,51.8120909 51.2011818,51.268 50.1973182,50.3723182" id="Stroke-19" stroke="#1476F2" stroke-linejoin="round"></path><path d="M46.1363636,38.3426591 C48.1584091,36.2808409 50.9743182,35.0001591 54.0909091,35.0001591 C60.2413636,35.0001591 65.2272727,39.9860682 65.2272727,46.1365227 C65.2272727,52.2869773 60.2413636,57.2728864 54.0909091,57.2728864 C51.0570455,57.2728864 48.3047727,56.0590227 46.2970455,54.0894773" id="Stroke-21" stroke="#1476F2" stroke-linejoin="round"></path><polyline id="Stroke-23" stroke="#323232" points="12.7272727 50.9090909 12.7272727 70 28.6363636 70 28.6363636 50.9090909"></polyline><path d="M6.36363636,68.4090909 L6.36363636,49.3181818 C6.36363636,47.5618182 7.78909091,46.1363636 9.54545455,46.1363636 L17.5,46.1363636 L17.5,39.7727273" id="Stroke-25" stroke="#323232" stroke-linejoin="round"></path></g><g id="skype-logo-svgrepo-com" transform="translate(54.000000, 13.000000)" fill="#323232" fill-rule="nonzero"><path d="M31.6193464,16.4965587 C31.6193464,14.4491453 31.2218101,12.4907765 30.4271676,10.6220056 C29.6325251,8.75323464 28.5583966,7.14244134 27.2052123,5.78888827 C25.8519665,4.4353352 24.2408659,3.36157542 22.372095,2.56693296 C20.503324,1.7722905 18.5450168,1.37475419 16.4971732,1.37475419 C15.4516201,1.37475419 14.3775531,1.48985475 13.2752179,1.71888827 C11.785486,0.573659218 10.1100447,0.000553072626 8.24877095,0.000553072626 C5.97189385,0.000553072626 4.02790503,0.806134078 2.41674302,2.41692737 C0.805581006,4.02772067 0,5.97134078 0,8.24858659 C0,10.1105978 0.572368715,11.7860391 1.7183352,13.2746648 C1.48893296,14.3781061 1.37456983,15.4522346 1.37456983,16.4966201 C1.37456983,18.5447709 1.77210615,20.5030782 2.56681006,22.3718492 C3.36145251,24.2406201 4.43558101,25.8514134 5.78876536,27.2049665 C7.14194972,28.5584581 8.75311173,29.6322179 10.6218827,30.4269218 C12.4906536,31.2216257 14.4489609,31.6191006 16.496743,31.6191006 C17.5419274,31.6191006 18.6159944,31.504 19.7186983,31.2749665 C21.2080615,32.4201341 22.8835028,32.9933017 24.7452067,32.9933017 C27.0220838,32.9933017 28.9660112,32.1877207 30.5771732,30.5769274 C32.1883966,28.9657654 32.9938547,27.0217765 32.9938547,24.7453296 C32.9938547,22.8833184 32.4211173,21.2085531 31.275581,19.718514 C31.5046145,18.6169162 31.6193464,17.5428492 31.6193464,16.4965587 Z M24.4878436,22.9088827 C24.0152123,23.746419 23.3814525,24.4166201 22.5867486,24.917581 C21.7920447,25.4185419 20.9146872,25.8021899 19.9552291,26.0661899 C18.9955251,26.3312961 17.9931732,26.464095 16.9479888,26.464095 C14.5278659,26.464095 12.4440112,25.9950894 10.6970391,25.0567709 C8.94975978,24.1188212 8.0764581,22.9909218 8.0764581,21.6734413 C8.0764581,21.0292346 8.25884916,20.4921397 8.62443017,20.0622793 C8.98958101,19.6327877 9.52968715,19.4180726 10.2461006,19.4180726 C10.6613352,19.4180726 11.047933,19.5331732 11.4059553,19.7622067 C11.7636089,19.9913017 12.093486,20.2665475 12.3939888,20.5888659 C12.6948603,20.9111229 13.0201285,21.2334413 13.3714525,21.5554525 C13.7223464,21.8777095 14.1875419,22.1537542 14.7678994,22.3828492 C15.3478268,22.6118827 16.0029721,22.7261844 16.7333352,22.7261844 C17.6637877,22.7261844 18.4159665,22.544162 18.9887039,22.1790112 C19.5610726,21.8130615 19.8480559,21.3516145 19.8480559,20.7927039 C19.8480559,20.2203352 19.6187151,19.7907821 19.1605251,19.5038603 C18.8453352,19.3041397 18.0435642,19.0465307 16.7547821,18.7309721 L13.6185531,17.9573464 C12.7592011,17.7576872 12.021648,17.5244749 11.4060168,17.2593687 C10.7900168,16.9949385 10.2172179,16.6478547 9.68768156,16.2179944 C9.15777654,15.7885028 8.75686034,15.2480279 8.48493296,14.5958939 C8.21263687,13.9448659 8.07688827,13.1821788 8.07688827,12.3077709 C8.07688827,11.2630168 8.31643017,10.3427039 8.7963743,9.54806145 C9.27588827,8.75335754 9.9133352,8.12979888 10.7080391,7.6792905 C11.502743,7.22798324 12.3582849,6.89134637 13.2748492,6.66913408 C14.1909832,6.44765922 15.1361229,6.33667598 16.1102067,6.33667598 C17.484838,6.33667598 18.7879385,6.501 20.0196313,6.83007821 C21.2509553,7.15989385 22.267933,7.64315642 23.0697039,8.27992737 C23.8715978,8.91774302 24.2724525,9.63010056 24.2724525,10.4179832 C24.2724525,11.0622514 24.0683073,11.6136034 23.6602011,12.0716704 C23.252095,12.5297374 22.7113128,12.7587709 22.0384078,12.7587709 C21.666067,12.7587709 21.3223631,12.6730447 21.0076648,12.501162 C20.6924749,12.3292793 20.4062291,12.1220615 20.1483128,11.8776034 C19.8906425,11.6350503 19.6184078,11.3943408 19.332162,11.158486 C19.0455475,10.9219553 18.6589497,10.7180559 18.1723687,10.5458659 C17.6852961,10.3739832 17.1339441,10.288257 16.5182514,10.288257 C14.4561508,10.288257 13.4252849,10.8403464 13.4252849,11.9419441 C13.4252849,12.1860335 13.4790559,12.4007486 13.5862905,12.5861508 C13.6938324,12.7734581 13.8119441,12.9235251 13.9405642,13.0374581 C14.0695531,13.1525587 14.2843296,13.2664916 14.5847709,13.3807933 C14.8856425,13.4958939 15.1357542,13.5789777 15.336581,13.6282626 C15.5370391,13.6786536 15.8522291,13.7531341 16.2816592,13.8539162 L18.515581,14.3691341 C19.217,14.5266983 19.8436313,14.6914525 20.3952905,14.8633352 C20.9463352,15.0352179 21.5372011,15.2785698 22.1674581,15.5933296 C22.7974693,15.9088883 23.3201844,16.2594134 23.7357877,16.6463799 C24.1509609,17.0322402 24.4980447,17.5230615 24.7774693,18.1173073 C25.0568939,18.7122905 25.1964529,19.3674358 25.1964529,20.0831117 C25.1968212,21.1300168 24.9602905,22.0713464 24.4878436,22.9088827 Z" id="Shape"></path></g></g></g></svg> 