<?xml version="1.0" encoding="UTF-8"?> <svg xmlns="http://www.w3.org/2000/svg" xmlns:xlink="http://www.w3.org/1999/xlink" width="102px" height="102px" viewBox="0 0 102 102" version="1.1"><!-- Generator: Sketch 64 (93537) - https://sketch.com --><title>slack</title><desc>Created with Sketch.</desc><g id="Page-1" stroke="none" stroke-width="1" fill="none" fill-rule="evenodd"><g id="slack" transform="translate(1.000000, 1.000000)"><g id="Slack_Technologies-Mark-Black-Logo.wine" transform="translate(53.000000, 15.000000)" fill="#323232" fill-rule="nonzero"><path d="M6.71219512,20.1886179 C6.71219512,22.0357724 5.20325203,23.5447154 3.35609756,23.5447154 C1.50894309,23.5447154 0,22.0357724 0,20.1886179 C0,18.3414634 1.50894309,16.8325203 3.35609756,16.8325203 L6.71219512,16.8325203 L6.71219512,20.1886179 Z M8.40325203,20.1886179 C8.40325203,18.3414634 9.91219512,16.8325203 11.7593496,16.8325203 C13.6065041,16.8325203 15.1154472,18.3414634 15.1154472,20.1886179 L15.1154472,28.5918699 C15.1154472,30.4390244 13.6065041,31.9479675 11.7593496,31.9479675 C9.91219512,31.9479675 8.40325203,30.4390244 8.40325203,28.5918699 L8.40325203,20.1886179 Z M11.7593496,6.71219512 C9.91219512,6.71219512 8.40325203,5.20325203 8.40325203,3.35609756 C8.40325203,1.50894309 9.91219512,0 11.7593496,0 C13.6065041,0 15.1154472,1.50894309 15.1154472,3.35609756 L15.1154472,6.71219512 L11.7593496,6.71219512 Z M11.7593496,8.40325203 C13.6065041,8.40325203 15.1154472,9.91219512 15.1154472,11.7593496 C15.1154472,13.6065041 13.6065041,15.1154472 11.7593496,15.1154472 L3.35609756,15.1154472 C1.50894309,15.1154472 0,13.6065041 0,11.7593496 C0,9.91219512 1.50894309,8.40325203 3.35609756,8.40325203 L11.7593496,8.40325203 L11.7593496,8.40325203 Z M25.2357724,11.7593496 C25.2357724,9.91219512 26.7447154,8.40325203 28.5918699,8.40325203 C30.4390244,8.40325203 31.9479675,9.91219512 31.9479675,11.7593496 C31.9479675,13.6065041 30.4390244,15.1154472 28.5918699,15.1154472 L25.2357724,15.1154472 L25.2357724,11.7593496 Z M23.5447154,11.7593496 C23.5447154,13.6065041 22.0357724,15.1154472 20.1886179,15.1154472 C18.3414634,15.1154472 16.8325203,13.6065041 16.8325203,11.7593496 L16.8325203,3.35609756 C16.8325203,1.50894309 18.3414634,0 20.1886179,0 C22.0357724,0 23.5447154,1.50894309 23.5447154,3.35609756 L23.5447154,11.7593496 Z M20.1886179,25.2357724 C22.0357724,25.2357724 23.5447154,26.7447154 23.5447154,28.5918699 C23.5447154,30.4390244 22.0357724,31.9479675 20.1886179,31.9479675 C18.3414634,31.9479675 16.8325203,30.4390244 16.8325203,28.5918699 L16.8325203,25.2357724 L20.1886179,25.2357724 Z M20.1886179,23.5447154 C18.3414634,23.5447154 16.8325203,22.0357724 16.8325203,20.1886179 C16.8325203,18.3414634 18.3414634,16.8325203 20.1886179,16.8325203 L28.5918699,16.8325203 C30.4390244,16.8325203 31.9479675,18.3414634 31.9479675,20.1886179 C31.9479675,22.0357724 30.4390244,23.5447154 28.5918699,23.5447154 L20.1886179,23.5447154 Z" id="Shape"></path></g><g id="Group-18-Copy-4" transform="translate(21.000000, 0.000000)" stroke="#2387FD" stroke-width="1.11111111"><polyline id="Stroke-6" points="0 23.08867 0 0 79 0 79 76 51.1851852 76"></polyline></g><g id="Group-27-Copy-3" transform="translate(0.000000, 30.000000)"><path d="M17.4113864,24.5200455 C18.04775,27.8832273 15.1554773,30.7755 11.7922955,30.1391364 C9.92456818,29.7843636 8.39729545,28.2570909 8.04252273,26.3893636 C7.40615909,23.0261818 10.2984318,20.1339091 13.6616136,20.7702727 C15.5293409,21.1250455 17.0566136,22.6523182 17.4113864,24.5200455 Z" id="Stroke-1" stroke="#323232"></path><path d="M33.4090909,25.4545455 C33.4090909,28.0906818 31.2725,30.2272727 28.6363636,30.2272727 C26.0002273,30.2272727 23.8636364,28.0906818 23.8636364,25.4545455 C23.8636364,22.8184091 26.0002273,20.6818182 28.6363636,20.6818182 C31.2725,20.6818182 33.4090909,22.8184091 33.4090909,25.4545455 Z" id="Stroke-3" stroke="#323232"></path><path d="M39.7727273,31.8205682 L39.7727273,39.7735227 L1.59090909,39.7735227 L1.59090909,31.8205682 L0,31.8189773 L0,20.6826136 L1.59090909,20.6842045 L1.59090909,17.5023864 C1.59090909,13.9880682 4.44022727,11.1371591 7.95454545,11.1371591 L33.4090909,11.1371591 C36.9234091,11.1371591 39.7727273,13.9880682 39.7727273,17.5023864 L39.7727273,20.6826136 L41.3636364,20.6826136 L41.3636364,31.8189773 C41.3636364,31.8189773 39.5738636,31.8205682 39.7727273,31.8205682 Z" id="Stroke-5" stroke="#323232"></path><line x1="20.6818182" y1="11.1363636" x2="20.6818182" y2="0" id="Stroke-7" stroke="#323232"></line><polyline id="Stroke-17" stroke="#323232" stroke-linejoin="round" points="23.8636364 39.7727273 23.8636364 46.1363636 55.6818182 46.1363636"></polyline><path d="M49.7455,42.3525455 C50.7843636,41.1911818 52.2957273,40.4609545 53.9757273,40.4609545 C57.1114091,40.4609545 59.6520909,43.0016364 59.6520909,46.1357273 C59.6520909,49.2714091 57.1114091,51.8120909 53.9757273,51.8120909 C52.5248182,51.8120909 51.2011818,51.268 50.1973182,50.3723182" id="Stroke-19" stroke="#1476F2" stroke-linejoin="round"></path><path d="M46.1363636,38.3426591 C48.1584091,36.2808409 50.9743182,35.0001591 54.0909091,35.0001591 C60.2413636,35.0001591 65.2272727,39.9860682 65.2272727,46.1365227 C65.2272727,52.2869773 60.2413636,57.2728864 54.0909091,57.2728864 C51.0570455,57.2728864 48.3047727,56.0590227 46.2970455,54.0894773" id="Stroke-21" stroke="#1476F2" stroke-linejoin="round"></path><polyline id="Stroke-23" stroke="#323232" points="12.7272727 50.9090909 12.7272727 70 28.6363636 70 28.6363636 50.9090909"></polyline><path d="M6.36363636,68.4090909 L6.36363636,49.3181818 C6.36363636,47.5618182 7.78909091,46.1363636 9.54545455,46.1363636 L17.5,46.1363636 L17.5,39.7727273" id="Stroke-25" stroke="#323232" stroke-linejoin="round"></path></g></g></g></svg> 