<?xml version="1.0" encoding="UTF-8"?> <svg xmlns="http://www.w3.org/2000/svg" xmlns:xlink="http://www.w3.org/1999/xlink" width="100px" height="91px" viewBox="0 0 100 91" version="1.1"><!-- Generator: Sketch 64 (93537) - https://sketch.com --><title>telegram</title><desc>Created with Sketch.</desc><g id="Page-1" stroke="none" stroke-width="1" fill="none" fill-rule="evenodd"><g id="telegram" transform="translate(1.000000, 1.000000)"><g id="Group-17-Copy" stroke="#323232"><polyline id="Stroke-9" points="0 16 0 0 16 0"></polyline><polyline id="Stroke-11" points="0 73 0 89 16 89"></polyline><polyline id="Stroke-13" points="98 16 98 0 82 0"></polyline><polyline id="Stroke-15" points="98 73 98 89 82 89"></polyline></g><g transform="translate(29.000000, 25.000000)" fill="#323232" fill-rule="nonzero" id="Shape"><path d="M20.98864,-6.90015121e-08 C9.942945,-6.90015121e-08 0.98864,8.954305 0.98864,19.9999999 C0.98864,31.045695 9.942945,39.9999999 20.98864,39.9999999 C32.034335,39.9999999 40.98864,31.045695 40.98864,19.9999999 C40.9890803,14.6955352 38.8820849,9.60820113 35.1312619,5.8573781 C31.3804389,2.10655508 26.2931048,-0.000440325399 20.98864,-6.90015121e-08 Z M27.34766,30.30494 C27.196206,30.682576 26.8891017,30.976447 26.505165,31.1111313 C26.1212283,31.2458157 25.6978392,31.2082007 25.34366,31.00794 L19.91432,26.78918 L16.42968,30.004 C16.265369,30.125405 16.0505362,30.1547579 15.85968,30.08188 L16.52768,24.10496 L16.54906,24.12192 L16.56272,24.00392 C16.56272,24.00392 26.33272,15.1089 26.73072,14.72992 C27.13366,14.35192 27.00072,14.26992 27.00072,14.26992 C27.02366,13.80886 26.27768,14.26992 26.27768,14.26992 L13.33264,22.598 L7.94166,20.762 C7.94166,20.762 7.11366,20.465 7.03566,19.812 C6.95366,19.164 7.96864,18.812 7.96864,18.812 L29.40264,10.29698 C29.40264,10.29698 31.16464,9.51194 31.16464,10.812 L27.34766,30.30494 Z"></path></g><g id="Group-11" transform="translate(13.000000, 9.000000)" stroke="#1476F2"><polygon id="Stroke-1" points="38.592134 5.83942285 42.3186409 0 48.4445892 1.79120316 48.5685827 9.02639051 53.057482 11.6403072 59.387852 8.12827554 63.8734 12.6138236 60.3613684 18.942518 62.9535024 23.4330929 70.192041 23.5554108 72 29.6813591 66.1605771 33.407866 66.1605771 38.592134 72 42.3186409 70.2071212 48.4445892 62.9736095 48.5685827 60.3596928 53.057482 63.8717245 59.387852 59.3861764 63.8734 53.057482 60.3613684 48.5669071 62.9535024 48.4445892 70.192041 42.3186409 72 38.592134 66.1605771 33.407866 66.1605771 29.6830347 72 23.5554108 70.2087968 23.4314173 62.9736095 18.942518 60.3596928 12.612148 63.8717245 8.12659995 59.3861764 11.6386316 53.057482 9.04649756 48.5669071 1.80795904 48.4445892 0 42.3186409 5.83942285 38.592134 5.83942285 33.407866 0 29.6813591 1.79120316 23.5554108 9.02639051 23.4314173 11.6403072 18.942518 8.12827554 12.612148 12.6138236 8.12659995 18.942518 11.6386316 23.4330929 9.04649756 23.5554108 1.80795904 29.6830347 0 33.407866 5.83942285"></polygon></g></g></g></svg> 