<?xml version="1.0" encoding="UTF-8"?> <svg xmlns="http://www.w3.org/2000/svg" xmlns:xlink="http://www.w3.org/1999/xlink" width="100px" height="91px" viewBox="0 0 100 91" version="1.1"><!-- Generator: Sketch 64 (93537) - https://sketch.com --><title>whatsApp</title><desc>Created with Sketch.</desc><g id="Page-1" stroke="none" stroke-width="1" fill="none" fill-rule="evenodd"><g id="whatsApp" transform="translate(1.000000, 1.000000)"><g id="Group-17" stroke="#323232"><polyline id="Stroke-9" points="0 16 0 0 16 0"></polyline><polyline id="Stroke-11" points="0 73 0 89 16 89"></polyline><polyline id="Stroke-13" points="98 16 98 0 82 0"></polyline><polyline id="Stroke-15" points="98 73 98 89 82 89"></polyline></g><g id="Group-11-Copy-2" transform="translate(13.000000, 9.000000)" stroke="#1476F2"><polygon id="Stroke-1" points="38.592134 5.83942285 42.3186409 0 48.4445892 1.79120316 48.5685827 9.02639051 53.057482 11.6403072 59.387852 8.12827554 63.8734 12.6138236 60.3613684 18.942518 62.9535024 23.4330929 70.192041 23.5554108 72 29.6813591 66.1605771 33.407866 66.1605771 38.592134 72 42.3186409 70.2071212 48.4445892 62.9736095 48.5685827 60.3596928 53.057482 63.8717245 59.387852 59.3861764 63.8734 53.057482 60.3613684 48.5669071 62.9535024 48.4445892 70.192041 42.3186409 72 38.592134 66.1605771 33.407866 66.1605771 29.6830347 72 23.5554108 70.2087968 23.4314173 62.9736095 18.942518 60.3596928 12.612148 63.8717245 8.12659995 59.3861764 11.6386316 53.057482 9.04649756 48.5669071 1.80795904 48.4445892 0 42.3186409 5.83942285 38.592134 5.83942285 33.407866 0 29.6813591 1.79120316 23.5554108 9.02639051 23.4314173 11.6403072 18.942518 8.12827554 12.612148 12.6138236 8.12659995 18.942518 11.6386316 23.4330929 9.04649756 23.5554108 1.80795904 29.6830347 0 33.407866 5.83942285"></polygon></g><g id="whatsapp" transform="translate(29.000000, 25.000000)" fill="#323232" fill-rule="nonzero"><path d="M20.3626786,0 C9.51830357,0 0.72625,8.72330357 0.72625,19.485 C0.72625,23.16625 1.75589286,26.6091071 3.54401786,29.5463393 L0,40 L10.8717857,36.54625 C13.685,38.0895536 16.9204464,38.97 20.3626786,38.97 C31.2084821,38.97 40,30.2454464 40,19.485 C40,8.72330357 31.2084821,0 20.3626786,0 Z M30.1271429,26.8848214 C29.6651786,28.0300893 27.5758929,29.0752679 26.6540179,29.1233929 C25.733125,29.1722321 25.706875,29.8371429 20.6861607,27.6560714 C15.6660714,25.4744643 12.6458036,20.17 12.4076786,19.8283929 C12.169375,19.4880357 10.4630357,17.0563393 10.5550893,14.6091964 C10.6477679,12.1616071 11.9878571,11.006875 12.4661607,10.5266071 C12.9439286,10.045625 13.4916964,9.95946429 13.8261607,9.95401786 C14.2215179,9.94758929 14.4775893,9.94223214 14.7701786,9.95303571 C15.0625,9.96410714 15.5016071,9.891875 15.8817857,10.9029464 C16.2617857,11.9139286 17.1713393,14.39875 17.2876786,14.6519643 C17.4039286,14.9054464 17.4758929,15.1989286 17.2967857,15.524375 C17.1171429,15.8505357 17.0251786,16.0542857 16.7645536,16.3353571 C16.5025,16.6164286 16.2133036,16.9641071 15.9795536,17.1790179 C15.7188393,17.4169643 15.4465179,17.6765179 15.720625,18.1851786 C15.9945536,18.6934821 16.9396429,20.3598214 18.3794643,21.7330357 C20.2299107,23.4983036 21.8257143,24.0838393 22.3167857,24.350625 C22.8091964,24.6188393 23.1030357,24.5890179 23.4083929,24.2676786 C23.7123214,23.9463393 24.7154464,22.8617857 25.06875,22.3775893 C25.421875,21.8920536 25.7527679,21.9871429 26.2064286,22.1696429 C26.6598214,22.3528571 29.0775893,23.6478571 29.5700893,23.9152679 C30.0620536,24.1821429 30.3908929,24.3196429 30.5084821,24.5313393 C30.6260714,24.7438393 30.5889286,25.7394643 30.1271429,26.8848214 L30.1271429,26.8848214 Z" id="Shape"></path></g></g></g></svg> 