<svg width="100" height="100" fill="none" xmlns="http://www.w3.org/2000/svg"><circle cx="50" cy="50" r="50" fill="#fff"/><rect x="33.222" y="17.667" width="33.979" height="64.667" rx="4" fill="#fff" stroke="url(#paint0_linear)" stroke-width="2"/><path d="M33.28 69h6.773l5.08-12.122 5.078 19.048 5.08-12.121 3.386 5.194h8.466" stroke="#17CA8E" stroke-miterlimit="10" stroke-linejoin="round"/><path fill="#C4C4C4" d="M61.852 27.249h-23.28v1.058h23.28z"/><path fill="#17CA8E" d="M61.852 27.249h-23.28v1.058h23.28z"/><path fill="#C4C4C4" d="M61.852 32.54h-23.28v1.058h23.28z"/><path fill="#17CA8E" d="M61.852 32.54h-23.28v1.058h23.28z"/><path fill="#C4C4C4" d="M61.852 37.83h-23.28v1.059h23.28z"/><path fill="#17CA8E" d="M61.852 37.83h-23.28v1.059h23.28z"/><path fill="#C4C4C4" d="M51.27 43.122H38.572v1.058H51.27z"/><path fill="#17CA8E" d="M51.27 43.122H38.572v1.058H51.27z"/><defs><linearGradient id="paint0_linear" x1="50.212" y1="16.667" x2="50.212" y2="83.333" gradientUnits="userSpaceOnUse"><stop stop-color="#2A82F2"/><stop offset="1" stop-color="#8BC0FF"/></linearGradient></defs></svg>