<svg width="767" height="249" fill="none" xmlns="http://www.w3.org/2000/svg"><path d="M76 152.939v-28.173m105.286 61.777V158.37m125.589-1.697V128.5m116.087 58.043V158.37m131.7-6.238v-28.173m131.02 53.758v-28.173" stroke="#1476F2" stroke-opacity=".3"/><path d="M735.579 39.229c-38.356 142.562 2.778 112.999-660.875 112.999" stroke="#04AF70" stroke-opacity=".2" stroke-width="8" stroke-linecap="round" stroke-linejoin="round"/><path opacity=".1" d="M76.972 168.943c9.373 0 16.971-7.598 16.971-16.971 0-9.374-7.598-16.972-16.971-16.972C67.599 135 60 142.598 60 151.972c0 9.373 7.599 16.971 16.972 16.971z" fill="url(#paint0_linear)"/><path d="M76.972 162.155c5.624 0 10.183-4.56 10.183-10.183 0-5.624-4.56-10.183-10.183-10.183-5.624 0-10.183 4.559-10.183 10.183 0 5.623 4.559 10.183 10.183 10.183z" fill="#53A0FD"/><path opacity=".1" d="M734.561 58.576c9.373 0 16.972-7.598 16.972-16.971 0-9.373-7.599-16.972-16.972-16.972-9.373 0-16.972 7.598-16.972 16.972 0 9.373 7.599 16.971 16.972 16.971z" fill="url(#paint1_linear)"/><path d="M734.561 51.788c5.624 0 10.183-4.56 10.183-10.183 0-5.624-4.559-10.183-10.183-10.183s-10.183 4.559-10.183 10.183c0 5.623 4.559 10.183 10.183 10.183z" fill="#53A0FD"/><path opacity=".1" d="M181.285 163.8c6.749 0 12.22-5.47 12.22-12.219s-5.471-12.22-12.22-12.22c-6.748 0-12.219 5.471-12.219 12.22 0 6.749 5.471 12.219 12.219 12.219z" fill="url(#paint2_linear)"/><path d="M181.285 157.691a6.11 6.11 0 10-.001-12.221 6.11 6.11 0 00.001 12.221z" fill="#53A0FD"/><path opacity=".1" d="M306.876 163.8c6.749 0 12.219-5.47 12.219-12.219s-5.47-12.22-12.219-12.22-12.22 5.471-12.22 12.22c0 6.749 5.471 12.219 12.22 12.219z" fill="url(#paint3_linear)"/><path d="M306.876 157.691a6.11 6.11 0 10-.001-12.22 6.11 6.11 0 00.001 12.22z" fill="#53A0FD"/><path opacity=".1" d="M422.962 163.8c6.748 0 12.219-5.47 12.219-12.219s-5.471-12.22-12.219-12.22c-6.749 0-12.22 5.471-12.22 12.22 0 6.749 5.471 12.219 12.22 12.219z" fill="url(#paint4_linear)"/><path d="M422.962 157.691a6.11 6.11 0 10-.001-12.22 6.11 6.11 0 00.001 12.22z" fill="#53A0FD"/><path opacity=".1" d="M554.661 166.439c6.749 0 12.22-5.471 12.22-12.219 0-6.749-5.471-12.22-12.22-12.22-6.748 0-12.219 5.471-12.219 12.22 0 6.748 5.471 12.219 12.219 12.219z" fill="url(#paint5_linear)"/><path d="M554.661 160.329a6.11 6.11 0 10.001-12.219 6.11 6.11 0 00-.001 12.219z" fill="#53A0FD"/><path opacity=".1" d="M685.683 149.544c6.748 0 12.219-5.471 12.219-12.219 0-6.749-5.471-12.22-12.219-12.22-6.749 0-12.22 5.471-12.22 12.22 0 6.748 5.471 12.219 12.22 12.219z" fill="url(#paint6_linear)"/><path d="M685.683 143.435a6.11 6.11 0 10-.001-12.221 6.11 6.11 0 00.001 12.221z" fill="#53A0FD"/><path d="M153 58H0v67h153V58z" fill="url(#paint7_linear)"/><path d="M437 53H179v76h258V53z" fill="url(#paint8_linear)"/><path d="M284 174H129v75h155v-75z" fill="url(#paint9_linear)"/><path d="M493 174H337v67h156v-67z" fill="url(#paint10_linear)"/><path d="M736 160H635v40h101v-40z" fill="url(#paint11_linear)"/><path d="M638 74H480v58h158V74z" fill="url(#paint12_linear)"/><path d="M21.316 77.2H25.6c1.045 0 1.974.205 2.786.616a4.448 4.448 0 011.89 1.722c.448.737.672 1.591.672 2.562 0 .97-.224 1.83-.672 2.576-.448.737-1.078 1.311-1.89 1.722-.812.401-1.74.602-2.786.602h-4.284v-9.8zm4.2 8.26c.719 0 1.349-.135 1.89-.406.55-.28.97-.672 1.26-1.176.299-.513.448-1.106.448-1.778 0-.672-.15-1.26-.448-1.764a2.85 2.85 0 00-1.26-1.176c-.541-.28-1.171-.42-1.89-.42h-2.38v6.72h2.38zm6.636-5.936h1.75V87h-1.75v-7.476zm.882-1.232a1.14 1.14 0 01-.798-.294 1.005 1.005 0 01-.322-.756.96.96 0 01.322-.742 1.11 1.11 0 01.798-.308c.317 0 .583.098.798.294a.904.904 0 01.322.714c0 .308-.107.57-.322.784-.205.205-.471.308-.798.308zm4.912 8.806c-.606 0-1.2-.08-1.778-.238-.578-.159-1.04-.36-1.386-.602l.672-1.33a4.48 4.48 0 001.204.546c.476.13.943.196 1.4.196 1.046 0 1.568-.275 1.568-.826 0-.261-.135-.443-.406-.546-.261-.103-.686-.2-1.274-.294a10.52 10.52 0 01-1.512-.322 2.393 2.393 0 01-1.008-.63c-.28-.308-.42-.733-.42-1.274 0-.71.294-1.274.882-1.694.598-.43 1.4-.644 2.408-.644.514 0 1.027.06 1.54.182.514.112.934.266 1.26.462l-.672 1.33c-.634-.373-1.348-.56-2.142-.56-.513 0-.905.08-1.176.238-.261.15-.392.35-.392.602 0 .28.14.48.42.602.29.112.733.22 1.33.322.598.093 1.088.2 1.47.322.383.121.71.327.98.616.28.29.42.7.42 1.232 0 .7-.303 1.26-.91 1.68-.606.42-1.432.63-2.478.63zm7.763 0c-.775 0-1.47-.163-2.086-.49a3.613 3.613 0 01-1.442-1.358c-.345-.588-.518-1.25-.518-1.988 0-.737.173-1.395.518-1.974a3.636 3.636 0 011.428-1.358c.616-.327 1.316-.49 2.1-.49.737 0 1.381.15 1.932.448a2.9 2.9 0 011.26 1.288l-1.344.784a2.067 2.067 0 00-.812-.77 2.116 2.116 0 00-1.05-.266c-.654 0-1.195.215-1.624.644-.43.42-.644.985-.644 1.694 0 .71.21 1.279.63 1.708.43.42.975.63 1.638.63a2.21 2.21 0 001.05-.252c.327-.177.597-.439.812-.784l1.344.784c-.29.56-.714.994-1.274 1.302-.55.299-1.19.448-1.918.448zm7.393 0c-.756 0-1.438-.163-2.044-.49a3.636 3.636 0 01-1.428-1.358c-.336-.588-.504-1.25-.504-1.988 0-.737.168-1.395.504-1.974a3.636 3.636 0 011.428-1.358c.606-.327 1.288-.49 2.044-.49.765 0 1.451.163 2.058.49a3.54 3.54 0 011.414 1.358c.345.579.518 1.237.518 1.974 0 .737-.173 1.4-.518 1.988a3.54 3.54 0 01-1.414 1.358c-.607.327-1.293.49-2.058.49zm0-1.498c.644 0 1.176-.215 1.596-.644.42-.43.63-.994.63-1.694s-.21-1.265-.63-1.694c-.42-.43-.952-.644-1.596-.644-.644 0-1.176.215-1.596.644-.41.43-.616.994-.616 1.694s.205 1.265.616 1.694c.42.43.952.644 1.596.644zm11.896-6.076L61.792 87h-1.806l-3.206-7.476h1.82l2.324 5.544 2.394-5.544h1.68zm7.354 3.78c0 .121-.01.294-.028.518h-5.866c.102.55.368.99.798 1.316.438.317.98.476 1.624.476.821 0 1.498-.27 2.03-.812l.938 1.078a3.16 3.16 0 01-1.274.91c-.514.205-1.092.308-1.736.308-.822 0-1.545-.163-2.17-.49a3.59 3.59 0 01-1.456-1.358c-.336-.588-.504-1.25-.504-1.988 0-.728.163-1.381.49-1.96a3.56 3.56 0 011.386-1.372c.588-.327 1.25-.49 1.988-.49.728 0 1.376.163 1.946.49.578.317 1.026.77 1.344 1.358.326.579.49 1.25.49 2.016zm-3.78-2.464c-.56 0-1.036.168-1.428.504-.383.327-.616.765-.7 1.316h4.242c-.075-.541-.304-.98-.686-1.316-.383-.336-.859-.504-1.428-.504zm6.564-.224c.504-.784 1.39-1.176 2.66-1.176v1.666a2.222 2.222 0 00-.406-.042c-.681 0-1.213.2-1.596.602-.382.392-.574.961-.574 1.708V87h-1.75v-7.476h1.666v1.092zm10.856-1.092l-3.5 8.078c-.327.812-.724 1.381-1.19 1.708-.467.336-1.032.504-1.694.504-.374 0-.742-.06-1.106-.182a2.444 2.444 0 01-.896-.504l.7-1.288a1.914 1.914 0 001.288.518c.308 0 .56-.08.756-.238.205-.159.392-.425.56-.798l.126-.294-3.262-7.504h1.82l2.352 5.53 2.366-5.53h1.68zM94.03 77.2c.849 0 1.586.14 2.212.42.634.28 1.12.681 1.456 1.204.336.523.504 1.143.504 1.862 0 .71-.168 1.33-.504 1.862-.336.523-.822.924-1.456 1.204-.626.28-1.363.42-2.212.42h-2.212V87h-1.82v-9.8h4.032zm-.084 5.432c.793 0 1.395-.168 1.806-.504.41-.336.616-.817.616-1.442s-.206-1.106-.616-1.442c-.411-.336-1.013-.504-1.806-.504h-2.128v3.892h2.128zm9.721-3.192c.943 0 1.699.275 2.268.826.57.55.854 1.367.854 2.45V87h-1.75v-4.06c0-.653-.154-1.143-.462-1.47-.308-.336-.746-.504-1.316-.504-.644 0-1.152.196-1.526.588-.373.383-.56.938-.56 1.666V87h-1.75V76.612h1.75v3.78c.29-.308.644-.541 1.064-.7.43-.168.906-.252 1.428-.252zm7.636 0c1.101 0 1.941.266 2.52.798.588.523.882 1.316.882 2.38V87h-1.652v-.91a2.077 2.077 0 01-.924.756c-.392.168-.868.252-1.428.252-.56 0-1.05-.093-1.47-.28a2.39 2.39 0 01-.98-.798 2.09 2.09 0 01-.336-1.162c0-.672.247-1.209.742-1.61.504-.41 1.292-.616 2.366-.616h1.932v-.112c0-.523-.159-.924-.476-1.204-.308-.28-.77-.42-1.386-.42-.42 0-.836.065-1.246.196a3.04 3.04 0 00-1.022.546l-.686-1.274a4.245 4.245 0 011.414-.686 6.287 6.287 0 011.75-.238zm-.238 6.384c.438 0 .826-.098 1.162-.294.345-.205.588-.495.728-.868v-.868h-1.806c-1.008 0-1.512.331-1.512.994 0 .317.126.57.378.756.252.187.602.28 1.05.28zm7.633 1.274c-.606 0-1.199-.08-1.778-.238-.578-.159-1.04-.36-1.386-.602l.672-1.33a4.49 4.49 0 001.204.546c.476.13.943.196 1.4.196 1.046 0 1.568-.275 1.568-.826 0-.261-.135-.443-.406-.546-.261-.103-.686-.2-1.274-.294a10.52 10.52 0 01-1.512-.322 2.402 2.402 0 01-1.008-.63c-.28-.308-.42-.733-.42-1.274 0-.71.294-1.274.882-1.694.598-.43 1.4-.644 2.408-.644.514 0 1.027.06 1.54.182.514.112.934.266 1.26.462l-.672 1.33c-.634-.373-1.348-.56-2.142-.56-.513 0-.905.08-1.176.238-.261.15-.392.35-.392.602 0 .28.14.48.42.602.29.112.733.22 1.33.322.598.093 1.088.2 1.47.322.383.121.71.327.98.616.28.29.42.7.42 1.232 0 .7-.303 1.26-.91 1.68-.606.42-1.432.63-2.478.63zm11.361-3.794c0 .121-.01.294-.028.518h-5.866c.102.55.368.99.798 1.316.438.317.98.476 1.624.476.821 0 1.498-.27 2.03-.812l.938 1.078a3.163 3.163 0 01-1.274.91c-.514.205-1.092.308-1.736.308-.822 0-1.545-.163-2.17-.49a3.585 3.585 0 01-1.456-1.358c-.336-.588-.504-1.25-.504-1.988 0-.728.163-1.381.49-1.96a3.56 3.56 0 011.386-1.372c.588-.327 1.25-.49 1.988-.49.728 0 1.376.163 1.946.49.578.317 1.026.77 1.344 1.358.326.579.49 1.25.49 2.016zm-3.78-2.464c-.56 0-1.036.168-1.428.504-.383.327-.616.765-.7 1.316h4.242c-.075-.541-.304-.98-.686-1.316-.383-.336-.859-.504-1.428-.504zM35.638 97.2L32.39 107h-1.932l-2.422-7.252L25.572 107h-1.946l-3.248-9.8h1.89l2.436 7.448 2.534-7.448h1.68l2.478 7.49 2.506-7.49h1.736zm3.552 9.898c-.756 0-1.438-.163-2.044-.49a3.638 3.638 0 01-1.428-1.358c-.336-.588-.504-1.251-.504-1.988 0-.737.168-1.395.504-1.974a3.638 3.638 0 011.428-1.358c.606-.327 1.288-.49 2.044-.49.765 0 1.451.163 2.058.49a3.539 3.539 0 011.414 1.358c.345.579.518 1.237.518 1.974 0 .737-.173 1.4-.518 1.988a3.539 3.539 0 01-1.414 1.358c-.607.327-1.293.49-2.058.49zm0-1.498c.644 0 1.176-.215 1.596-.644.42-.429.63-.994.63-1.694s-.21-1.265-.63-1.694c-.42-.429-.952-.644-1.596-.644-.644 0-1.176.215-1.596.644-.411.429-.616.994-.616 1.694s.205 1.265.616 1.694c.42.429.952.644 1.596.644zm6.767-4.984c.504-.784 1.39-1.176 2.66-1.176v1.666a2.222 2.222 0 00-.406-.042c-.682 0-1.214.201-1.596.602-.383.392-.574.961-.574 1.708V107h-1.75v-7.476h1.666v1.092zm6.634 3.178l-1.302 1.232V107h-1.75V96.612h1.75v6.272l3.626-3.36h2.1l-3.122 3.136 3.416 4.34H55.18l-2.59-3.206zm7.363 3.304a6.68 6.68 0 01-1.778-.238c-.579-.159-1.04-.359-1.386-.602l.672-1.33a4.48 4.48 0 001.204.546c.476.131.943.196 1.4.196 1.045 0 1.568-.275 1.568-.826 0-.261-.135-.443-.406-.546-.261-.103-.686-.201-1.274-.294a10.658 10.658 0 01-1.512-.322 2.387 2.387 0 01-1.008-.63c-.28-.308-.42-.733-.42-1.274 0-.709.294-1.274.882-1.694.597-.43 1.4-.644 2.408-.644.513 0 1.027.06 1.54.182.513.112.933.266 1.26.462l-.672 1.33c-.635-.373-1.349-.56-2.142-.56-.513 0-.905.079-1.176.238-.261.149-.392.35-.392.602 0 .28.14.481.42.602.29.112.733.219 1.33.322a10.21 10.21 0 011.47.322c.383.121.71.327.98.616.28.289.42.7.42 1.232 0 .7-.303 1.26-.91 1.68-.607.42-1.433.63-2.478.63zm8.575-7.658c.942 0 1.698.275 2.268.826.569.551.854 1.367.854 2.45V107H69.9v-4.06c0-.653-.154-1.143-.462-1.47-.308-.336-.747-.504-1.316-.504-.644 0-1.153.196-1.526.588-.374.383-.56.938-.56 1.666V107h-1.75V96.612h1.75v3.78a2.788 2.788 0 011.064-.7 3.886 3.886 0 011.428-.252zm8.208 7.658c-.756 0-1.438-.163-2.044-.49a3.636 3.636 0 01-1.428-1.358c-.337-.588-.505-1.251-.505-1.988 0-.737.168-1.395.504-1.974a3.636 3.636 0 011.428-1.358c.607-.327 1.289-.49 2.045-.49.765 0 1.45.163 2.058.49a3.539 3.539 0 011.413 1.358c.346.579.519 1.237.519 1.974 0 .737-.173 1.4-.519 1.988a3.539 3.539 0 01-1.413 1.358c-.607.327-1.293.49-2.058.49zm0-1.498c.644 0 1.175-.215 1.596-.644.42-.429.63-.994.63-1.694s-.21-1.265-.63-1.694c-.42-.429-.953-.644-1.596-.644-.644 0-1.176.215-1.596.644-.411.429-.617.994-.617 1.694s.206 1.265.617 1.694c.42.429.951.644 1.596.644zm9.245-6.16c.728 0 1.376.159 1.945.476a3.416 3.416 0 011.358 1.344c.327.579.49 1.246.49 2.002 0 .756-.163 1.428-.49 2.016a3.416 3.416 0 01-1.358 1.344c-.569.317-1.218.476-1.946.476-1.007 0-1.805-.336-2.393-1.008v3.626h-1.75V99.524h1.666v.98c.289-.355.643-.62 1.063-.798a3.68 3.68 0 011.415-.266zm-.197 6.16c.645 0 1.172-.215 1.583-.644.42-.429.63-.994.63-1.694s-.21-1.265-.63-1.694c-.411-.429-.938-.644-1.582-.644-.42 0-.799.098-1.135.294a2.026 2.026 0 00-.797.812c-.197.355-.294.765-.294 1.232 0 .467.097.877.293 1.232.197.355.463.63.799.826.335.187.713.28 1.133.28zm114.531-29.4h1.82V86h-1.82v-9.8zm8.234 9.394a2.051 2.051 0 01-.756.378 3.296 3.296 0 01-.924.126c-.821 0-1.456-.215-1.904-.644-.448-.43-.672-1.055-.672-1.876V79.98h-1.232v-1.4h1.232v-1.708h1.75v1.708h2.002v1.4h-2.002v3.556c0 .364.089.644.266.84.178.187.434.28.77.28.392 0 .719-.103.98-.308l.49 1.246zm7.659-3.29c0 .121-.009.294-.028.518h-5.866c.103.55.369.99.798 1.316.439.317.98.476 1.624.476.822 0 1.498-.27 2.03-.812l.938 1.078c-.336.401-.76.705-1.274.91-.513.205-1.092.308-1.736.308-.821 0-1.544-.163-2.17-.49a3.597 3.597 0 01-1.456-1.358c-.336-.588-.504-1.25-.504-1.988 0-.728.164-1.381.49-1.96a3.56 3.56 0 011.386-1.372c.588-.327 1.251-.49 1.988-.49.728 0 1.377.163 1.946.49a3.3 3.3 0 011.344 1.358c.327.579.49 1.25.49 2.016zm-3.78-2.464c-.56 0-1.036.168-1.428.504-.382.327-.616.765-.7 1.316h4.242c-.074-.541-.303-.98-.686-1.316-.382-.336-.858-.504-1.428-.504zm6.565-.224c.504-.784 1.39-1.176 2.66-1.176v1.666a2.23 2.23 0 00-.406-.042c-.682 0-1.214.2-1.596.602-.383.392-.574.961-.574 1.708V86h-1.75v-7.476h1.666v1.092zm6.397-1.176c1.101 0 1.941.266 2.52.798.588.523.882 1.316.882 2.38V86h-1.652v-.91a2.077 2.077 0 01-.924.756c-.392.168-.868.252-1.428.252-.56 0-1.05-.093-1.47-.28a2.39 2.39 0 01-.98-.798 2.09 2.09 0 01-.336-1.162c0-.672.247-1.209.742-1.61.504-.41 1.292-.616 2.366-.616h1.932v-.112c0-.523-.159-.924-.476-1.204-.308-.28-.77-.42-1.386-.42-.42 0-.836.065-1.246.196a3.04 3.04 0 00-1.022.546l-.686-1.274a4.245 4.245 0 011.414-.686 6.287 6.287 0 011.75-.238zm-.238 6.384c.438 0 .826-.098 1.162-.294.345-.205.588-.495.728-.868v-.868h-1.806c-1.008 0-1.512.331-1.512.994 0 .317.126.57.378.756.252.187.602.28 1.05.28zm9.817.77a2.051 2.051 0 01-.756.378 3.296 3.296 0 01-.924.126c-.821 0-1.456-.215-1.904-.644-.448-.43-.672-1.055-.672-1.876V79.98h-1.232v-1.4h1.232v-1.708h1.75v1.708h2.002v1.4h-2.002v3.556c0 .364.089.644.266.84.177.187.434.28.77.28.392 0 .719-.103.98-.308l.49 1.246zm.877-7.07h1.75V86h-1.75v-7.476zm.882-1.232a1.14 1.14 0 01-.798-.294 1.008 1.008 0 01-.322-.756c0-.299.108-.546.322-.742a1.11 1.11 0 01.798-.308c.318 0 .584.098.798.294a.903.903 0 01.322.714c0 .308-.107.57-.322.784-.205.205-.471.308-.798.308zm9.603 1.232L243.126 86h-1.806l-3.206-7.476h1.82l2.324 5.544 2.394-5.544h1.68zm7.354 3.78c0 .121-.01.294-.028.518h-5.866c.102.55.368.99.798 1.316.438.317.98.476 1.624.476.821 0 1.498-.27 2.03-.812l.938 1.078a3.163 3.163 0 01-1.274.91c-.514.205-1.092.308-1.736.308-.822 0-1.545-.163-2.17-.49a3.585 3.585 0 01-1.456-1.358c-.336-.588-.504-1.25-.504-1.988 0-.728.163-1.381.49-1.96a3.56 3.56 0 011.386-1.372c.588-.327 1.25-.49 1.988-.49.728 0 1.376.163 1.946.49.578.317 1.026.77 1.344 1.358.326.579.49 1.25.49 2.016zm-3.78-2.464c-.56 0-1.036.168-1.428.504-.383.327-.616.765-.7 1.316h4.242c-.075-.541-.304-.98-.686-1.316-.383-.336-.859-.504-1.428-.504zm8.373-3.64h4.284c1.045 0 1.974.205 2.786.616a4.448 4.448 0 011.89 1.722c.448.737.672 1.591.672 2.562 0 .97-.224 1.83-.672 2.576-.448.737-1.078 1.311-1.89 1.722-.812.401-1.741.602-2.786.602h-4.284v-9.8zm4.2 8.26c.719 0 1.349-.135 1.89-.406.551-.28.971-.672 1.26-1.176.299-.513.448-1.106.448-1.778 0-.672-.149-1.26-.448-1.764a2.847 2.847 0 00-1.26-1.176c-.541-.28-1.171-.42-1.89-.42h-2.38v6.72h2.38zm13.664-2.156c0 .121-.01.294-.028.518h-5.866c.102.55.368.99.798 1.316.438.317.98.476 1.624.476.821 0 1.498-.27 2.03-.812l.938 1.078a3.163 3.163 0 01-1.274.91c-.514.205-1.092.308-1.736.308-.822 0-1.545-.163-2.17-.49a3.585 3.585 0 01-1.456-1.358c-.336-.588-.504-1.25-.504-1.988 0-.728.163-1.381.49-1.96a3.56 3.56 0 011.386-1.372c.588-.327 1.25-.49 1.988-.49.728 0 1.376.163 1.946.49.578.317 1.026.77 1.344 1.358.326.579.49 1.25.49 2.016zm-3.78-2.464c-.56 0-1.036.168-1.428.504-.383.327-.616.765-.7 1.316h4.242c-.075-.541-.304-.98-.686-1.316-.383-.336-.859-.504-1.428-.504zm11.762-1.316L280.919 86h-1.806l-3.206-7.476h1.82l2.324 5.544 2.394-5.544h1.68zm7.354 3.78c0 .121-.01.294-.028.518h-5.866c.102.55.368.99.798 1.316.438.317.98.476 1.624.476.821 0 1.498-.27 2.03-.812l.938 1.078a3.163 3.163 0 01-1.274.91c-.514.205-1.092.308-1.736.308-.822 0-1.545-.163-2.17-.49a3.585 3.585 0 01-1.456-1.358c-.336-.588-.504-1.25-.504-1.988 0-.728.163-1.381.49-1.96a3.56 3.56 0 011.386-1.372c.588-.327 1.25-.49 1.988-.49.728 0 1.376.163 1.946.49.578.317 1.026.77 1.344 1.358.326.579.49 1.25.49 2.016zm-3.78-2.464c-.56 0-1.036.168-1.428.504-.383.327-.616.765-.7 1.316h4.242c-.075-.541-.304-.98-.686-1.316-.383-.336-.859-.504-1.428-.504zm4.898-4.228h1.75V86h-1.75V75.612zm6.845 10.486c-.756 0-1.438-.163-2.044-.49a3.632 3.632 0 01-1.428-1.358c-.336-.588-.504-1.25-.504-1.988 0-.737.168-1.395.504-1.974a3.632 3.632 0 011.428-1.358c.606-.327 1.288-.49 2.044-.49.765 0 1.451.163 2.058.49a3.55 3.55 0 011.414 1.358c.345.579.518 1.237.518 1.974 0 .737-.173 1.4-.518 1.988a3.543 3.543 0 01-1.414 1.358c-.607.327-1.293.49-2.058.49zm0-1.498c.644 0 1.176-.215 1.596-.644.42-.43.63-.994.63-1.694s-.21-1.265-.63-1.694c-.42-.43-.952-.644-1.596-.644-.644 0-1.176.215-1.596.644-.411.43-.616.994-.616 1.694s.205 1.265.616 1.694c.42.43.952.644 1.596.644zm9.245-6.16c.728 0 1.376.159 1.946.476a3.426 3.426 0 011.358 1.344c.326.579.49 1.246.49 2.002 0 .756-.164 1.428-.49 2.016a3.426 3.426 0 01-1.358 1.344c-.57.317-1.218.476-1.946.476-1.008 0-1.806-.336-2.394-1.008v3.626h-1.75V78.524h1.666v.98c.289-.355.644-.62 1.064-.798.429-.177.9-.266 1.414-.266zm-.196 6.16c.644 0 1.171-.215 1.582-.644.42-.43.63-.994.63-1.694s-.21-1.265-.63-1.694c-.411-.43-.938-.644-1.582-.644-.42 0-.798.098-1.134.294a2.026 2.026 0 00-.798.812c-.196.355-.294.765-.294 1.232 0 .467.098.877.294 1.232.196.355.462.63.798.826.336.187.714.28 1.134.28zm14.523-6.16c.942 0 1.689.275 2.24.826.55.541.826 1.358.826 2.45V86h-1.75v-4.06c0-.653-.145-1.143-.434-1.47-.29-.336-.705-.504-1.246-.504-.588 0-1.06.196-1.414.588-.355.383-.532.933-.532 1.652V86h-1.75v-4.06c0-.653-.145-1.143-.434-1.47-.29-.336-.705-.504-1.246-.504-.598 0-1.074.191-1.428.574-.346.383-.518.938-.518 1.666V86h-1.75v-7.476h1.666v.952a2.72 2.72 0 011.05-.77c.42-.177.886-.266 1.4-.266.56 0 1.054.107 1.484.322a2.37 2.37 0 011.036.924 3.05 3.05 0 011.19-.91 3.795 3.795 0 011.61-.336zm11.836 3.864c0 .121-.01.294-.028.518h-5.866c.102.55.368.99.798 1.316.438.317.98.476 1.624.476.821 0 1.498-.27 2.03-.812l.938 1.078a3.163 3.163 0 01-1.274.91c-.514.205-1.092.308-1.736.308-.822 0-1.545-.163-2.17-.49a3.585 3.585 0 01-1.456-1.358c-.336-.588-.504-1.25-.504-1.988 0-.728.163-1.381.49-1.96a3.56 3.56 0 011.386-1.372c.588-.327 1.25-.49 1.988-.49.728 0 1.376.163 1.946.49.578.317 1.026.77 1.344 1.358.326.579.49 1.25.49 2.016zm-3.78-2.464c-.56 0-1.036.168-1.428.504-.383.327-.616.765-.7 1.316h4.242c-.075-.541-.304-.98-.686-1.316-.383-.336-.859-.504-1.428-.504zm9.14-1.4c.943 0 1.699.275 2.268.826.57.55.854 1.367.854 2.45V86h-1.75v-4.06c0-.653-.154-1.143-.462-1.47-.308-.336-.746-.504-1.316-.504-.644 0-1.152.196-1.526.588-.373.383-.56.938-.56 1.666V86h-1.75v-7.476h1.666v.966c.29-.345.654-.607 1.092-.784a3.934 3.934 0 011.484-.266zm9.274 7.154a2.067 2.067 0 01-.756.378c-.29.084-.598.126-.924.126-.822 0-1.456-.215-1.904-.644-.448-.43-.672-1.055-.672-1.876V79.98h-1.232v-1.4h1.232v-1.708h1.75v1.708h2.002v1.4h-2.002v3.556c0 .364.088.644.266.84.177.187.434.28.77.28.392 0 .718-.103.98-.308l.49 1.246zm1.437-4.83a1.13 1.13 0 01-.812-.322 1.14 1.14 0 01-.336-.84c0-.345.107-.625.322-.84.224-.215.499-.322.826-.322a1.1 1.1 0 01.812.322c.224.215.336.495.336.84 0 .336-.112.616-.336.84a1.131 1.131 0 01-.812.322zm0 5.334a1.13 1.13 0 01-.812-.322 1.14 1.14 0 01-.336-.84c0-.345.107-.625.322-.84.224-.215.499-.322.826-.322a1.1 1.1 0 01.812.322c.224.215.336.495.336.84 0 .336-.112.616-.336.84a1.131 1.131 0 01-.812.322zM204.53 106.14c-1.353 0-2.408-.378-3.164-1.134-.756-.765-1.134-1.857-1.134-3.276V96.2h1.82v5.46c0 1.923.831 2.884 2.492 2.884 1.652 0 2.478-.961 2.478-2.884V96.2h1.792v5.53c0 1.419-.378 2.511-1.134 3.276-.747.756-1.797 1.134-3.15 1.134zm6.27-9.94h1.82v9.8h-1.82v-9.8zm6.793-1.988h1.568l-4.62 13.188h-1.568l4.62-13.188zm5.962 11.928c-1.353 0-2.408-.378-3.164-1.134-.756-.765-1.134-1.857-1.134-3.276V96.2h1.82v5.46c0 1.923.831 2.884 2.492 2.884 1.652 0 2.478-.961 2.478-2.884V96.2h1.792v5.53c0 1.419-.378 2.511-1.134 3.276-.746.756-1.796 1.134-3.15 1.134zm12.308-.14l-2.66-3.724-2.632 3.724h-2.072l3.64-4.998-3.444-4.802h2.058l2.506 3.486 2.478-3.486h1.974l-3.43 4.732 3.682 5.068h-2.1zm6.277-9.8h4.284c1.046 0 1.974.205 2.786.616a4.448 4.448 0 011.89 1.722c.448.737.672 1.591.672 2.562 0 .971-.224 1.829-.672 2.576-.448.737-1.078 1.311-1.89 1.722-.812.401-1.74.602-2.786.602h-4.284v-9.8zm4.2 8.26c.719 0 1.349-.135 1.89-.406.551-.28.971-.672 1.26-1.176.299-.513.448-1.106.448-1.778 0-.672-.149-1.26-.448-1.764a2.847 2.847 0 00-1.26-1.176c-.541-.28-1.171-.42-1.89-.42h-2.38v6.72h2.38zm13.664-2.156c0 .121-.009.294-.028.518h-5.866c.103.551.369.989.798 1.316.439.317.98.476 1.624.476.821 0 1.498-.271 2.03-.812l.938 1.078a3.163 3.163 0 01-1.274.91c-.513.205-1.092.308-1.736.308-.821 0-1.545-.163-2.17-.49a3.591 3.591 0 01-1.456-1.358c-.336-.588-.504-1.251-.504-1.988 0-.728.163-1.381.49-1.96a3.56 3.56 0 011.386-1.372c.588-.327 1.251-.49 1.988-.49.728 0 1.377.163 1.946.49a3.3 3.3 0 011.344 1.358c.327.579.49 1.251.49 2.016zm-3.78-2.464c-.56 0-1.036.168-1.428.504-.383.327-.616.765-.7 1.316h4.242c-.075-.541-.303-.98-.686-1.316-.383-.336-.859-.504-1.428-.504zm7.209 6.258c-.607 0-1.2-.079-1.778-.238-.579-.159-1.041-.359-1.386-.602l.672-1.33c.336.224.737.406 1.204.546.476.131.942.196 1.4.196 1.045 0 1.568-.275 1.568-.826 0-.261-.136-.443-.406-.546-.262-.103-.686-.201-1.274-.294a10.658 10.658 0 01-1.512-.322 2.383 2.383 0 01-1.008-.63c-.28-.308-.42-.733-.42-1.274 0-.709.294-1.274.882-1.694.597-.43 1.4-.644 2.408-.644.513 0 1.026.06 1.54.182.513.112.933.266 1.26.462l-.672 1.33c-.635-.373-1.349-.56-2.142-.56-.514 0-.906.08-1.176.238-.262.149-.392.35-.392.602 0 .28.14.481.42.602.289.112.732.219 1.33.322.597.093 1.087.201 1.47.322.382.121.709.327.98.616.28.289.42.7.42 1.232 0 .7-.304 1.26-.91 1.68-.607.42-1.433.63-2.478.63zm4.332-7.574h1.75V106h-1.75v-7.476zm.882-1.232a1.14 1.14 0 01-.798-.294 1.008 1.008 0 01-.322-.756c0-.299.108-.546.322-.742a1.11 1.11 0 01.798-.308c.318 0 .584.098.798.294a.903.903 0 01.322.714c0 .308-.107.57-.322.784-.205.205-.471.308-.798.308zm10.023 1.232v6.342c0 2.632-1.344 3.948-4.032 3.948-.719 0-1.4-.093-2.044-.28-.644-.177-1.176-.439-1.596-.784l.784-1.316c.326.271.737.485 1.232.644a4.795 4.795 0 001.526.252c.821 0 1.423-.187 1.806-.56.382-.373.574-.943.574-1.708v-.392a2.878 2.878 0 01-1.092.742c-.43.168-.901.252-1.414.252-.71 0-1.354-.149-1.932-.448a3.525 3.525 0 01-1.358-1.288c-.327-.551-.49-1.181-.49-1.89 0-.709.163-1.335.49-1.876.336-.55.788-.975 1.358-1.274a4.145 4.145 0 011.932-.448 3.9 3.9 0 011.47.266c.448.177.821.448 1.12.812v-.994h1.666zm-3.99 5.656c.662 0 1.204-.196 1.624-.588.429-.401.644-.919.644-1.554 0-.625-.215-1.134-.644-1.526-.42-.392-.962-.588-1.624-.588-.672 0-1.223.196-1.652.588-.42.392-.63.901-.63 1.526 0 .635.21 1.153.63 1.554.429.392.98.588 1.652.588zm9.97-5.74c.942 0 1.698.275 2.268.826.569.55.854 1.367.854 2.45V106h-1.75v-4.06c0-.653-.154-1.143-.462-1.47-.308-.336-.747-.504-1.316-.504-.644 0-1.153.196-1.526.588-.374.383-.56.938-.56 1.666V106h-1.75v-7.476h1.666v.966a2.731 2.731 0 011.092-.784 3.927 3.927 0 011.484-.266zm5.353 5.334c.327 0 .598.107.812.322.215.215.322.495.322.84 0 .149-.023.308-.07.476a5.648 5.648 0 01-.252.728l-.714 1.974h-1.134l.56-2.142a1.078 1.078 0 01-.49-.392 1.227 1.227 0 01-.168-.644c0-.345.108-.625.322-.84.215-.215.486-.322.812-.322zm5.756-7.574h4.284c1.046 0 1.974.205 2.786.616a4.448 4.448 0 011.89 1.722c.448.737.672 1.591.672 2.562 0 .971-.224 1.829-.672 2.576-.448.737-1.078 1.311-1.89 1.722-.812.401-1.74.602-2.786.602h-4.284v-9.8zm4.2 8.26c.719 0 1.349-.135 1.89-.406.551-.28.971-.672 1.26-1.176.299-.513.448-1.106.448-1.778 0-.672-.149-1.26-.448-1.764a2.847 2.847 0 00-1.26-1.176c-.541-.28-1.171-.42-1.89-.42h-2.38v6.72h2.38zm13.664-2.156c0 .121-.009.294-.028.518h-5.866c.103.551.369.989.798 1.316.439.317.98.476 1.624.476.822 0 1.498-.271 2.03-.812l.938 1.078c-.336.401-.76.705-1.274.91-.513.205-1.092.308-1.736.308-.821 0-1.544-.163-2.17-.49a3.597 3.597 0 01-1.456-1.358c-.336-.588-.504-1.251-.504-1.988 0-.728.164-1.381.49-1.96a3.56 3.56 0 011.386-1.372c.588-.327 1.251-.49 1.988-.49.728 0 1.377.163 1.946.49a3.3 3.3 0 011.344 1.358c.327.579.49 1.251.49 2.016zm-3.78-2.464c-.56 0-1.036.168-1.428.504-.382.327-.616.765-.7 1.316h4.242c-.074-.541-.303-.98-.686-1.316-.382-.336-.858-.504-1.428-.504zm11.762-1.316L318.399 106h-1.806l-3.206-7.476h1.82l2.324 5.544 2.394-5.544h1.68zm7.354 3.78c0 .121-.009.294-.028.518h-5.866c.103.551.369.989.798 1.316.439.317.98.476 1.624.476.822 0 1.498-.271 2.03-.812l.938 1.078c-.336.401-.76.705-1.274.91-.513.205-1.092.308-1.736.308-.821 0-1.544-.163-2.17-.49a3.597 3.597 0 01-1.456-1.358c-.336-.588-.504-1.251-.504-1.988 0-.728.164-1.381.49-1.96a3.56 3.56 0 011.386-1.372c.588-.327 1.251-.49 1.988-.49.728 0 1.377.163 1.946.49a3.3 3.3 0 011.344 1.358c.327.579.49 1.251.49 2.016zm-3.78-2.464c-.56 0-1.036.168-1.428.504-.382.327-.616.765-.7 1.316h4.242c-.074-.541-.303-.98-.686-1.316-.382-.336-.858-.504-1.428-.504zm4.899-4.228h1.75V106h-1.75V95.612zm6.844 10.486c-.756 0-1.437-.163-2.044-.49a3.632 3.632 0 01-1.428-1.358c-.336-.588-.504-1.251-.504-1.988 0-.737.168-1.395.504-1.974a3.632 3.632 0 011.428-1.358c.607-.327 1.288-.49 2.044-.49.765 0 1.451.163 2.058.49.607.327 1.078.78 1.414 1.358.345.579.518 1.237.518 1.974 0 .737-.173 1.4-.518 1.988a3.537 3.537 0 01-1.414 1.358c-.607.327-1.293.49-2.058.49zm0-1.498c.644 0 1.176-.215 1.596-.644.42-.429.63-.994.63-1.694s-.21-1.265-.63-1.694c-.42-.429-.952-.644-1.596-.644-.644 0-1.176.215-1.596.644-.411.429-.616.994-.616 1.694s.205 1.265.616 1.694c.42.429.952.644 1.596.644zm9.245-6.16c.728 0 1.377.159 1.946.476a3.42 3.42 0 011.358 1.344c.327.579.49 1.246.49 2.002 0 .756-.163 1.428-.49 2.016a3.416 3.416 0 01-1.358 1.344c-.569.317-1.218.476-1.946.476-1.008 0-1.806-.336-2.394-1.008v3.626h-1.75V98.524h1.666v.98c.289-.355.644-.62 1.064-.798a3.67 3.67 0 011.414-.266zm-.196 6.16c.644 0 1.171-.215 1.582-.644.42-.429.63-.994.63-1.694s-.21-1.265-.63-1.694c-.411-.429-.938-.644-1.582-.644-.42 0-.798.098-1.134.294a2.026 2.026 0 00-.798.812c-.196.355-.294.765-.294 1.232 0 .467.098.877.294 1.232.196.355.462.63.798.826.336.187.714.28 1.134.28zm14.523-6.16c.943 0 1.689.275 2.24.826.551.541.826 1.358.826 2.45V106h-1.75v-4.06c0-.653-.145-1.143-.434-1.47-.289-.336-.705-.504-1.246-.504-.588 0-1.059.196-1.414.588-.355.383-.532.933-.532 1.652V106h-1.75v-4.06c0-.653-.145-1.143-.434-1.47-.289-.336-.705-.504-1.246-.504-.597 0-1.073.191-1.428.574-.345.383-.518.938-.518 1.666V106h-1.75v-7.476h1.666v.952a2.72 2.72 0 011.05-.77c.42-.177.887-.266 1.4-.266.56 0 1.055.107 1.484.322.439.205.784.513 1.036.924a3.058 3.058 0 011.19-.91 3.795 3.795 0 011.61-.336zm11.836 3.864c0 .121-.009.294-.028.518h-5.866c.103.551.369.989.798 1.316.439.317.98.476 1.624.476.822 0 1.498-.271 2.03-.812l.938 1.078c-.336.401-.76.705-1.274.91-.513.205-1.092.308-1.736.308-.821 0-1.544-.163-2.17-.49a3.597 3.597 0 01-1.456-1.358c-.336-.588-.504-1.251-.504-1.988 0-.728.164-1.381.49-1.96a3.56 3.56 0 011.386-1.372c.588-.327 1.251-.49 1.988-.49.728 0 1.377.163 1.946.49a3.3 3.3 0 011.344 1.358c.327.579.49 1.251.49 2.016zm-3.78-2.464c-.56 0-1.036.168-1.428.504-.382.327-.616.765-.7 1.316h4.242c-.074-.541-.303-.98-.686-1.316-.382-.336-.858-.504-1.428-.504zm9.141-1.4c.942 0 1.698.275 2.268.826.569.55.854 1.367.854 2.45V106h-1.75v-4.06c0-.653-.154-1.143-.462-1.47-.308-.336-.747-.504-1.316-.504-.644 0-1.153.196-1.526.588-.374.383-.56.938-.56 1.666V106h-1.75v-7.476h1.666v.966a2.731 2.731 0 011.092-.784 3.927 3.927 0 011.484-.266zm9.273 7.154a2.051 2.051 0 01-.756.378 3.296 3.296 0 01-.924.126c-.821 0-1.456-.215-1.904-.644-.448-.429-.672-1.055-.672-1.876V99.98h-1.232v-1.4h1.232v-1.708h1.75v1.708h2.002v1.4h-2.002v3.556c0 .364.089.644.266.84.178.187.434.28.77.28.392 0 .719-.103.98-.308l.49 1.246zm1.588-1.82a1.1 1.1 0 01.812.322c.215.215.322.495.322.84 0 .149-.023.308-.07.476a5.648 5.648 0 01-.252.728l-.714 1.974h-1.134l.56-2.142a1.073 1.073 0 01-.49-.392 1.227 1.227 0 01-.168-.644c0-.345.107-.625.322-.84a1.1 1.1 0 01.812-.322zm16.102 3.206a3.217 3.217 0 01-1.148.868c-.429.196-.9.294-1.414.294a3.771 3.771 0 01-1.848-.462c-.56-.299-1.199-.821-1.918-1.568-.905-.075-1.717-.336-2.436-.784a4.875 4.875 0 01-1.68-1.778c-.401-.737-.602-1.554-.602-2.45 0-.952.229-1.81.686-2.576a4.765 4.765 0 011.89-1.806c.803-.439 1.704-.658 2.702-.658.999 0 1.9.22 2.702.658a4.782 4.782 0 011.89 1.792c.458.765.686 1.629.686 2.59 0 .775-.154 1.493-.462 2.156a4.939 4.939 0 01-1.288 1.68c-.55.457-1.19.789-1.918.994.271.289.537.499.798.63.262.131.542.196.84.196.644 0 1.204-.261 1.68-.784l.84 1.008zm-9.212-5.88c0 .653.15 1.246.448 1.778.299.523.71.933 1.232 1.232a3.586 3.586 0 001.764.434 3.58 3.58 0 001.764-.434 3.247 3.247 0 001.232-1.232 3.566 3.566 0 00.448-1.778 3.49 3.49 0 00-.448-1.764 3.122 3.122 0 00-1.232-1.232 3.488 3.488 0 00-1.764-.448 3.5 3.5 0 00-1.764.448c-.522.29-.933.7-1.232 1.232a3.5 3.5 0 00-.448 1.764zm16.308 2.632h-4.9l-.966 2.268h-1.876l4.41-9.8h1.792l4.424 9.8h-1.904l-.98-2.268zm-.602-1.428L409.3 98.02l-1.834 4.284h3.682zM153.354 207.14a7.534 7.534 0 01-2.198-.322c-.7-.215-1.255-.499-1.666-.854l.63-1.414a5.09 5.09 0 001.47.784 5.55 5.55 0 001.764.294c.728 0 1.269-.117 1.624-.35.364-.233.546-.541.546-.924a.865.865 0 00-.308-.686 1.99 1.99 0 00-.756-.434 17.01 17.01 0 00-1.26-.35 15.098 15.098 0 01-1.82-.532 3.084 3.084 0 01-1.19-.826c-.327-.383-.49-.896-.49-1.54 0-.541.145-1.031.434-1.47.299-.448.742-.803 1.33-1.064.597-.261 1.325-.392 2.184-.392a7.05 7.05 0 011.764.224 4.864 4.864 0 011.498.644l-.574 1.414a5.665 5.665 0 00-1.344-.574 5.014 5.014 0 00-1.358-.196c-.719 0-1.255.121-1.61.364-.345.243-.518.565-.518.966 0 .28.098.509.294.686.205.177.462.317.77.42.308.103.728.219 1.26.35.728.168 1.325.345 1.792.532a2.95 2.95 0 011.19.826c.336.373.504.877.504 1.512 0 .541-.149 1.031-.448 1.47-.289.439-.733.789-1.33 1.05-.597.261-1.325.392-2.184.392zm9.18-7.7c.728 0 1.377.159 1.946.476a3.41 3.41 0 011.358 1.344c.327.579.49 1.246.49 2.002 0 .756-.163 1.428-.49 2.016a3.41 3.41 0 01-1.358 1.344c-.569.317-1.218.476-1.946.476-1.008 0-1.806-.336-2.394-1.008v3.626h-1.75v-10.192h1.666v.98c.29-.355.644-.621 1.064-.798.43-.177.901-.266 1.414-.266zm-.196 6.16c.644 0 1.172-.215 1.582-.644.42-.429.63-.994.63-1.694s-.21-1.265-.63-1.694c-.41-.429-.938-.644-1.582-.644-.42 0-.798.098-1.134.294a2.026 2.026 0 00-.798.812c-.196.355-.294.765-.294 1.232 0 .467.098.877.294 1.232.196.355.462.63.798.826.336.187.714.28 1.134.28zm6.753-4.984c.504-.784 1.391-1.176 2.66-1.176v1.666a2.213 2.213 0 00-.406-.042c-.681 0-1.213.201-1.596.602-.382.392-.574.961-.574 1.708V207h-1.75v-7.476h1.666v1.092zm3.582-1.092h1.75V207h-1.75v-7.476zm.882-1.232a1.14 1.14 0 01-.798-.294 1.007 1.007 0 01-.322-.756c0-.299.108-.546.322-.742.215-.205.481-.308.798-.308.318 0 .584.098.798.294a.904.904 0 01.322.714c0 .308-.107.569-.322.784-.205.205-.471.308-.798.308zm6.845 1.148c.942 0 1.698.275 2.268.826.569.551.854 1.367.854 2.45V207h-1.75v-4.06c0-.653-.154-1.143-.462-1.47-.308-.336-.747-.504-1.316-.504-.644 0-1.153.196-1.526.588-.374.383-.56.938-.56 1.666V207h-1.75v-7.476h1.666v.966a2.731 2.731 0 011.092-.784 3.933 3.933 0 011.484-.266zm9.273 7.154a2.051 2.051 0 01-.756.378 3.296 3.296 0 01-.924.126c-.821 0-1.456-.215-1.904-.644-.448-.429-.672-1.055-.672-1.876v-3.598h-1.232v-1.4h1.232v-1.708h1.75v1.708h2.002v1.4h-2.002v3.556c0 .364.089.644.266.84.178.187.434.28.77.28.392 0 .719-.103.98-.308l.49 1.246zm7.74.546c-.784 0-1.484-.196-2.1-.588-.616-.401-1.101-.98-1.456-1.736-.355-.765-.532-1.671-.532-2.716 0-1.045.177-1.946.532-2.702.355-.765.84-1.344 1.456-1.736.616-.401 1.316-.602 2.1-.602s1.484.201 2.1.602c.625.392 1.115.971 1.47 1.736.355.756.532 1.657.532 2.702s-.177 1.951-.532 2.716c-.355.756-.845 1.335-1.47 1.736-.616.392-1.316.588-2.1.588zm0-1.582c.7 0 1.251-.289 1.652-.868.411-.579.616-1.442.616-2.59s-.205-2.011-.616-2.59c-.401-.579-.952-.868-1.652-.868-.691 0-1.241.289-1.652.868-.401.579-.602 1.442-.602 2.59s.201 2.011.602 2.59c.411.579.961.868 1.652.868zm5.861-3.794a1.13 1.13 0 01-.812-.322 1.14 1.14 0 01-.336-.84c0-.345.108-.625.322-.84.224-.215.5-.322.826-.322.327 0 .598.107.812.322.224.215.336.495.336.84 0 .336-.112.616-.336.84a1.128 1.128 0 01-.812.322zm0 5.334a1.13 1.13 0 01-.812-.322 1.14 1.14 0 01-.336-.84c0-.345.108-.625.322-.84.224-.215.5-.322.826-.322.327 0 .598.107.812.322.224.215.336.495.336.84 0 .336-.112.616-.336.84a1.128 1.128 0 01-.812.322zM154.348 217.2c.849 0 1.587.14 2.212.42.635.28 1.12.681 1.456 1.204.336.523.504 1.143.504 1.862 0 .709-.168 1.33-.504 1.862-.336.523-.821.924-1.456 1.204-.625.28-1.363.42-2.212.42h-2.212V227h-1.82v-9.8h4.032zm-.084 5.432c.793 0 1.395-.168 1.806-.504.411-.336.616-.817.616-1.442s-.205-1.106-.616-1.442c-.411-.336-1.013-.504-1.806-.504h-2.128v3.892h2.128zm6.941-2.016c.504-.784 1.39-1.176 2.66-1.176v1.666a2.23 2.23 0 00-.406-.042c-.682 0-1.214.201-1.596.602-.383.392-.574.961-.574 1.708V227h-1.75v-7.476h1.666v1.092zm6.873 6.482c-.756 0-1.437-.163-2.044-.49a3.646 3.646 0 01-1.428-1.358c-.336-.588-.504-1.251-.504-1.988 0-.737.168-1.395.504-1.974a3.646 3.646 0 011.428-1.358c.607-.327 1.288-.49 2.044-.49.766 0 1.452.163 2.058.49a3.537 3.537 0 011.414 1.358c.346.579.518 1.237.518 1.974 0 .737-.172 1.4-.518 1.988a3.537 3.537 0 01-1.414 1.358c-.606.327-1.292.49-2.058.49zm0-1.498c.644 0 1.176-.215 1.596-.644.42-.429.63-.994.63-1.694s-.21-1.265-.63-1.694c-.42-.429-.952-.644-1.596-.644-.644 0-1.176.215-1.596.644-.41.429-.616.994-.616 1.694s.206 1.265.616 1.694c.42.429.952.644 1.596.644zm4.331 4.214c-.737 0-1.297-.145-1.68-.434l.504-1.302c.262.196.602.294 1.022.294.327 0 .574-.103.742-.308.178-.196.266-.49.266-.882v-7.658h1.75v7.616c0 .831-.228 1.484-.686 1.96-.457.476-1.096.714-1.918.714zm1.722-11.522a1.14 1.14 0 01-.798-.294 1.007 1.007 0 01-.322-.756c0-.299.108-.546.322-.742.215-.205.481-.308.798-.308.318 0 .584.098.798.294a.904.904 0 01.322.714c0 .308-.107.569-.322.784-.205.205-.471.308-.798.308zm9.643 5.012c0 .121-.01.294-.028.518h-5.866c.102.551.368.989.798 1.316.438.317.98.476 1.624.476.821 0 1.498-.271 2.03-.812l.938 1.078a3.163 3.163 0 01-1.274.91c-.514.205-1.092.308-1.736.308-.822 0-1.545-.163-2.17-.49a3.585 3.585 0 01-1.456-1.358c-.336-.588-.504-1.251-.504-1.988 0-.728.163-1.381.49-1.96a3.563 3.563 0 011.386-1.372c.588-.327 1.25-.49 1.988-.49.728 0 1.376.163 1.946.49.578.317 1.026.77 1.344 1.358.326.579.49 1.251.49 2.016zm-3.78-2.464c-.56 0-1.036.168-1.428.504-.383.327-.616.765-.7 1.316h4.242c-.075-.541-.304-.98-.686-1.316-.383-.336-.859-.504-1.428-.504zm8.328 6.258c-.775 0-1.47-.163-2.086-.49a3.61 3.61 0 01-1.442-1.358c-.345-.588-.518-1.251-.518-1.988 0-.737.173-1.395.518-1.974a3.632 3.632 0 011.428-1.358c.616-.327 1.316-.49 2.1-.49.737 0 1.381.149 1.932.448a2.9 2.9 0 011.26 1.288l-1.344.784a2.068 2.068 0 00-.812-.77 2.117 2.117 0 00-1.05-.266c-.653 0-1.195.215-1.624.644-.429.42-.644.985-.644 1.694s.21 1.279.63 1.708c.429.42.975.63 1.638.63.383 0 .733-.084 1.05-.252.327-.177.597-.439.812-.784l1.344.784a3.06 3.06 0 01-1.274 1.302c-.551.299-1.19.448-1.918.448zm8.732-.504a2.051 2.051 0 01-.756.378 3.296 3.296 0 01-.924.126c-.821 0-1.456-.215-1.904-.644-.448-.429-.672-1.055-.672-1.876v-3.598h-1.232v-1.4h1.232v-1.708h1.75v1.708h2.002v1.4h-2.002v3.556c0 .364.089.644.266.84.177.187.434.28.77.28.392 0 .719-.103.98-.308l.49 1.246zm4.184-7.07h1.75V227h-1.75v-7.476zm.882-1.232a1.14 1.14 0 01-.798-.294 1.003 1.003 0 01-.322-.756.96.96 0 01.322-.742c.215-.205.481-.308.798-.308.317 0 .583.098.798.294a.904.904 0 01.322.714c0 .308-.107.569-.322.784-.205.205-.471.308-.798.308zm6.844 1.148c.943 0 1.699.275 2.268.826.57.551.854 1.367.854 2.45V227h-1.75v-4.06c0-.653-.154-1.143-.462-1.47-.308-.336-.746-.504-1.316-.504-.644 0-1.152.196-1.526.588-.373.383-.56.938-.56 1.666V227h-1.75v-7.476h1.666v.966c.29-.345.654-.607 1.092-.784a3.94 3.94 0 011.484-.266zm4.78.084h1.75V227h-1.75v-7.476zm.882-1.232c-.318 0-.584-.098-.798-.294a1.003 1.003 0 01-.322-.756.96.96 0 01.322-.742c.214-.205.48-.308.798-.308.317 0 .583.098.798.294a.907.907 0 01.322.714c0 .308-.108.569-.322.784-.206.205-.472.308-.798.308zm7.096 8.302a2.051 2.051 0 01-.756.378 3.296 3.296 0 01-.924.126c-.821 0-1.456-.215-1.904-.644-.448-.429-.672-1.055-.672-1.876v-3.598h-1.232v-1.4h1.232v-1.708h1.75v1.708h2.002v1.4h-2.002v3.556c0 .364.089.644.266.84.177.187.434.28.77.28.392 0 .719-.103.98-.308l.49 1.246zm.877-7.07h1.75V227h-1.75v-7.476zm.882-1.232a1.14 1.14 0 01-.798-.294 1.007 1.007 0 01-.322-.756c0-.299.108-.546.322-.742.215-.205.481-.308.798-.308.318 0 .584.098.798.294a.904.904 0 01.322.714c0 .308-.107.569-.322.784-.205.205-.471.308-.798.308zm5.459 1.148c1.101 0 1.941.266 2.52.798.588.523.882 1.316.882 2.38V227h-1.652v-.91a2.073 2.073 0 01-.924.756c-.392.168-.868.252-1.428.252-.56 0-1.05-.093-1.47-.28a2.39 2.39 0 01-.98-.798 2.09 2.09 0 01-.336-1.162c0-.672.247-1.209.742-1.61.504-.411 1.292-.616 2.366-.616h1.932v-.112c0-.523-.159-.924-.476-1.204-.308-.28-.77-.42-1.386-.42-.42 0-.836.065-1.246.196a3.058 3.058 0 00-1.022.546l-.686-1.274a4.245 4.245 0 011.414-.686 6.276 6.276 0 011.75-.238zm-.238 6.384c.438 0 .826-.098 1.162-.294.345-.205.588-.495.728-.868v-.868h-1.806c-1.008 0-1.512.331-1.512.994 0 .317.126.569.378.756.252.187.602.28 1.05.28zm9.817.77a2.051 2.051 0 01-.756.378 3.296 3.296 0 01-.924.126c-.821 0-1.456-.215-1.904-.644-.448-.429-.672-1.055-.672-1.876v-3.598h-1.232v-1.4h1.232v-1.708h1.75v1.708h2.002v1.4h-2.002v3.556c0 .364.089.644.266.84.177.187.434.28.77.28.392 0 .719-.103.98-.308l.49 1.246zm.877-7.07h1.75V227h-1.75v-7.476zm.882-1.232a1.14 1.14 0 01-.798-.294 1.003 1.003 0 01-.322-.756.96.96 0 01.322-.742c.215-.205.481-.308.798-.308.317 0 .583.098.798.294a.904.904 0 01.322.714c0 .308-.107.569-.322.784-.205.205-.471.308-.798.308zm5.962 8.806c-.756 0-1.437-.163-2.044-.49a3.646 3.646 0 01-1.428-1.358c-.336-.588-.504-1.251-.504-1.988 0-.737.168-1.395.504-1.974a3.646 3.646 0 011.428-1.358c.607-.327 1.288-.49 2.044-.49.766 0 1.452.163 2.058.49a3.537 3.537 0 011.414 1.358c.346.579.518 1.237.518 1.974 0 .737-.172 1.4-.518 1.988a3.537 3.537 0 01-1.414 1.358c-.606.327-1.292.49-2.058.49zm0-1.498c.644 0 1.176-.215 1.596-.644.42-.429.63-.994.63-1.694s-.21-1.265-.63-1.694c-.42-.429-.952-.644-1.596-.644-.644 0-1.176.215-1.596.644-.41.429-.616.994-.616 1.694s.206 1.265.616 1.694c.42.429.952.644 1.596.644zm9.343-6.16c.943 0 1.699.275 2.268.826.57.551.854 1.367.854 2.45V227h-1.75v-4.06c0-.653-.154-1.143-.462-1.47-.308-.336-.746-.504-1.316-.504-.644 0-1.152.196-1.526.588-.373.383-.56.938-.56 1.666V227h-1.75v-7.476h1.666v.966c.29-.345.654-.607 1.092-.784a3.94 3.94 0 011.484-.266zm106.947-16.3c-1.353 0-2.408-.378-3.164-1.134-.756-.765-1.134-1.857-1.134-3.276v-5.53h1.82v5.46c0 1.923.831 2.884 2.492 2.884 1.652 0 2.478-.961 2.478-2.884v-5.46h1.792v5.53c0 1.419-.378 2.511-1.134 3.276-.747.756-1.797 1.134-3.15 1.134zm8.412-.042a6.685 6.685 0 01-1.778-.238c-.578-.159-1.04-.359-1.386-.602l.672-1.33a4.49 4.49 0 001.204.546c.476.131.943.196 1.4.196 1.046 0 1.568-.275 1.568-.826 0-.261-.135-.443-.406-.546-.261-.103-.686-.201-1.274-.294a10.658 10.658 0 01-1.512-.322 2.396 2.396 0 01-1.008-.63c-.28-.308-.42-.733-.42-1.274 0-.709.294-1.274.882-1.694.598-.429 1.4-.644 2.408-.644.514 0 1.027.061 1.54.182.514.112.934.266 1.26.462l-.672 1.33c-.634-.373-1.348-.56-2.142-.56-.513 0-.905.079-1.176.238-.261.149-.392.35-.392.602 0 .28.14.481.42.602.29.112.733.219 1.33.322.598.093 1.088.201 1.47.322.383.121.71.327.98.616.28.289.42.7.42 1.232 0 .7-.303 1.26-.91 1.68-.606.42-1.432.63-2.478.63zm11.361-3.794c0 .121-.009.294-.028.518h-5.866c.103.551.369.989.798 1.316.439.317.98.476 1.624.476.821 0 1.498-.271 2.03-.812l.938 1.078a3.163 3.163 0 01-1.274.91c-.513.205-1.092.308-1.736.308-.821 0-1.545-.163-2.17-.49a3.591 3.591 0 01-1.456-1.358c-.336-.588-.504-1.251-.504-1.988 0-.728.163-1.381.49-1.96a3.563 3.563 0 011.386-1.372c.588-.327 1.251-.49 1.988-.49.728 0 1.377.163 1.946.49a3.3 3.3 0 011.344 1.358c.327.579.49 1.251.49 2.016zm-3.78-2.464c-.56 0-1.036.168-1.428.504-.383.327-.616.765-.7 1.316h4.242c-.075-.541-.303-.98-.686-1.316-.383-.336-.859-.504-1.428-.504zm6.564-.224c.504-.784 1.391-1.176 2.66-1.176v1.666a2.213 2.213 0 00-.406-.042c-.681 0-1.213.201-1.596.602-.382.392-.574.961-.574 1.708V203h-1.75v-7.476h1.666v1.092zm13.481 4.116h-4.9l-.966 2.268h-1.876l4.41-9.8h1.792l4.424 9.8h-1.904l-.98-2.268zm-.602-1.428l-1.848-4.284-1.834 4.284h3.682zm7.364 3.794c-.775 0-1.47-.163-2.086-.49a3.61 3.61 0 01-1.442-1.358c-.345-.588-.518-1.251-.518-1.988 0-.737.173-1.395.518-1.974a3.632 3.632 0 011.428-1.358c.616-.327 1.316-.49 2.1-.49.737 0 1.381.149 1.932.448a2.9 2.9 0 011.26 1.288l-1.344.784a2.068 2.068 0 00-.812-.77 2.117 2.117 0 00-1.05-.266c-.653 0-1.195.215-1.624.644-.429.42-.644.985-.644 1.694s.21 1.279.63 1.708c.429.42.975.63 1.638.63.383 0 .733-.084 1.05-.252.327-.177.597-.439.812-.784l1.344.784a3.06 3.06 0 01-1.274 1.302c-.551.299-1.19.448-1.918.448zm7.463 0c-.775 0-1.47-.163-2.086-.49a3.61 3.61 0 01-1.442-1.358c-.345-.588-.518-1.251-.518-1.988 0-.737.173-1.395.518-1.974a3.632 3.632 0 011.428-1.358c.616-.327 1.316-.49 2.1-.49.737 0 1.381.149 1.932.448a2.9 2.9 0 011.26 1.288l-1.344.784a2.068 2.068 0 00-.812-.77 2.117 2.117 0 00-1.05-.266c-.653 0-1.195.215-1.624.644-.429.42-.644.985-.644 1.694s.21 1.279.63 1.708c.429.42.975.63 1.638.63.383 0 .733-.084 1.05-.252.327-.177.597-.439.812-.784l1.344.784a3.06 3.06 0 01-1.274 1.302c-.551.299-1.19.448-1.918.448zm11.061-3.794c0 .121-.01.294-.028.518h-5.866c.102.551.368.989.798 1.316.438.317.98.476 1.624.476.821 0 1.498-.271 2.03-.812l.938 1.078a3.163 3.163 0 01-1.274.91c-.514.205-1.092.308-1.736.308-.822 0-1.545-.163-2.17-.49a3.585 3.585 0 01-1.456-1.358c-.336-.588-.504-1.251-.504-1.988 0-.728.163-1.381.49-1.96a3.563 3.563 0 011.386-1.372c.588-.327 1.25-.49 1.988-.49.728 0 1.376.163 1.946.49.578.317 1.026.77 1.344 1.358.326.579.49 1.251.49 2.016zm-3.78-2.464c-.56 0-1.036.168-1.428.504-.383.327-.616.765-.7 1.316h4.242c-.075-.541-.304-.98-.686-1.316-.383-.336-.859-.504-1.428-.504zm9.042-1.4c.728 0 1.377.159 1.946.476a3.41 3.41 0 011.358 1.344c.327.579.49 1.246.49 2.002 0 .756-.163 1.428-.49 2.016a3.41 3.41 0 01-1.358 1.344c-.569.317-1.218.476-1.946.476-1.008 0-1.806-.336-2.394-1.008v3.626h-1.75v-10.192h1.666v.98c.29-.355.644-.621 1.064-.798.43-.177.901-.266 1.414-.266zm-.196 6.16c.644 0 1.172-.215 1.582-.644.42-.429.63-.994.63-1.694s-.21-1.265-.63-1.694c-.41-.429-.938-.644-1.582-.644-.42 0-.798.098-1.134.294a2.026 2.026 0 00-.798.812c-.196.355-.294.765-.294 1.232 0 .467.098.877.294 1.232.196.355.462.63.798.826.336.187.714.28 1.134.28zm9.581.994a2.051 2.051 0 01-.756.378 3.296 3.296 0 01-.924.126c-.821 0-1.456-.215-1.904-.644-.448-.429-.672-1.055-.672-1.876v-3.598h-1.232v-1.4h1.232v-1.708h1.75v1.708h2.002v1.4h-2.002v3.556c0 .364.089.644.266.84.178.187.434.28.77.28.392 0 .719-.103.98-.308l.49 1.246zm3.733-7.154c1.102 0 1.942.266 2.52.798.588.523.882 1.316.882 2.38V203h-1.652v-.91a2.063 2.063 0 01-.924.756c-.392.168-.868.252-1.428.252-.56 0-1.05-.093-1.47-.28a2.396 2.396 0 01-.98-.798 2.09 2.09 0 01-.336-1.162c0-.672.248-1.209.742-1.61.504-.411 1.293-.616 2.366-.616h1.932v-.112c0-.523-.158-.924-.476-1.204-.308-.28-.77-.42-1.386-.42-.42 0-.835.065-1.246.196a3.068 3.068 0 00-1.022.546l-.686-1.274a4.254 4.254 0 011.414-.686 6.28 6.28 0 011.75-.238zm-.238 6.384c.439 0 .826-.098 1.162-.294a1.66 1.66 0 00.728-.868v-.868h-1.806c-1.008 0-1.512.331-1.512.994 0 .317.126.569.378.756.252.187.602.28 1.05.28zm9.566-6.384c.943 0 1.699.275 2.268.826.569.551.854 1.367.854 2.45V203h-1.75v-4.06c0-.653-.154-1.143-.462-1.47-.308-.336-.747-.504-1.316-.504-.644 0-1.153.196-1.526.588-.373.383-.56.938-.56 1.666V203h-1.75v-7.476h1.666v.966a2.731 2.731 0 011.092-.784 3.936 3.936 0 011.484-.266zm8.278 7.658c-.775 0-1.47-.163-2.086-.49a3.61 3.61 0 01-1.442-1.358c-.346-.588-.518-1.251-.518-1.988 0-.737.172-1.395.518-1.974a3.632 3.632 0 011.428-1.358c.616-.327 1.316-.49 2.1-.49.737 0 1.381.149 1.932.448a2.9 2.9 0 011.26 1.288l-1.344.784a2.075 2.075 0 00-.812-.77 2.123 2.123 0 00-1.05-.266c-.654 0-1.195.215-1.624.644-.43.42-.644.985-.644 1.694s.21 1.279.63 1.708c.429.42.975.63 1.638.63.382 0 .732-.084 1.05-.252.326-.177.597-.439.812-.784l1.344.784c-.29.56-.714.994-1.274 1.302-.551.299-1.19.448-1.918.448zm11.061-3.794c0 .121-.01.294-.028.518h-5.866c.102.551.368.989.798 1.316.438.317.98.476 1.624.476.821 0 1.498-.271 2.03-.812l.938 1.078a3.163 3.163 0 01-1.274.91c-.514.205-1.092.308-1.736.308-.822 0-1.545-.163-2.17-.49a3.585 3.585 0 01-1.456-1.358c-.336-.588-.504-1.251-.504-1.988 0-.728.163-1.381.49-1.96a3.563 3.563 0 011.386-1.372c.588-.327 1.25-.49 1.988-.49.728 0 1.376.163 1.946.49.578.317 1.026.77 1.344 1.358.326.579.49 1.251.49 2.016zm-3.78-2.464c-.56 0-1.036.168-1.428.504-.383.327-.616.765-.7 1.316h4.242c-.075-.541-.304-.98-.686-1.316-.383-.336-.859-.504-1.428-.504zm-106.817 17.9h-3.248v-1.54h8.316v1.54h-3.248V223h-1.82v-8.26zm11.966 4.564c0 .121-.01.294-.028.518h-5.866c.102.551.368.989.798 1.316.438.317.98.476 1.624.476.821 0 1.498-.271 2.03-.812l.938 1.078a3.163 3.163 0 01-1.274.91c-.514.205-1.092.308-1.736.308-.822 0-1.545-.163-2.17-.49a3.585 3.585 0 01-1.456-1.358c-.336-.588-.504-1.251-.504-1.988 0-.728.163-1.381.49-1.96a3.563 3.563 0 011.386-1.372c.588-.327 1.25-.49 1.988-.49.728 0 1.376.163 1.946.49.578.317 1.026.77 1.344 1.358.326.579.49 1.251.49 2.016zm-3.78-2.464c-.56 0-1.036.168-1.428.504-.383.327-.616.765-.7 1.316h4.242c-.075-.541-.304-.98-.686-1.316-.383-.336-.859-.504-1.428-.504zm7.208 6.258a6.685 6.685 0 01-1.778-.238c-.578-.159-1.04-.359-1.386-.602l.672-1.33a4.49 4.49 0 001.204.546c.476.131.943.196 1.4.196 1.046 0 1.568-.275 1.568-.826 0-.261-.135-.443-.406-.546-.261-.103-.686-.201-1.274-.294a10.658 10.658 0 01-1.512-.322 2.396 2.396 0 01-1.008-.63c-.28-.308-.42-.733-.42-1.274 0-.709.294-1.274.882-1.694.598-.429 1.4-.644 2.408-.644.514 0 1.027.061 1.54.182.514.112.934.266 1.26.462l-.672 1.33c-.634-.373-1.348-.56-2.142-.56-.513 0-.905.079-1.176.238-.261.149-.392.35-.392.602 0 .28.14.481.42.602.29.112.733.219 1.33.322.598.093 1.088.201 1.47.322.383.121.71.327.98.616.28.289.42.7.42 1.232 0 .7-.303 1.26-.91 1.68-.606.42-1.432.63-2.478.63zm8.827-.504a2.067 2.067 0 01-.756.378c-.29.084-.598.126-.924.126-.822 0-1.456-.215-1.904-.644-.448-.429-.672-1.055-.672-1.876v-3.598h-1.232v-1.4h1.232v-1.708h1.75v1.708h2.002v1.4h-2.002v3.556c0 .364.088.644.266.84.177.187.434.28.77.28.392 0 .718-.103.98-.308l.49 1.246zm.877-7.07h1.75V223h-1.75v-7.476zm.882-1.232a1.14 1.14 0 01-.798-.294 1.003 1.003 0 01-.322-.756.96.96 0 01.322-.742c.215-.205.481-.308.798-.308.317 0 .583.098.798.294a.904.904 0 01.322.714c0 .308-.107.569-.322.784-.205.205-.471.308-.798.308zm6.844 1.148c.943 0 1.699.275 2.268.826.57.551.854 1.367.854 2.45V223h-1.75v-4.06c0-.653-.154-1.143-.462-1.47-.308-.336-.746-.504-1.316-.504-.644 0-1.152.196-1.526.588-.373.383-.56.938-.56 1.666V223h-1.75v-7.476h1.666v.966c.29-.345.654-.607 1.092-.784a3.94 3.94 0 011.484-.266zm12.268.084v6.342c0 2.632-1.344 3.948-4.032 3.948-.719 0-1.4-.093-2.044-.28-.644-.177-1.176-.439-1.596-.784l.784-1.316c.327.271.737.485 1.232.644a4.8 4.8 0 001.526.252c.821 0 1.423-.187 1.806-.56.383-.373.574-.943.574-1.708v-.392a2.878 2.878 0 01-1.092.742 3.848 3.848 0 01-1.414.252 4.147 4.147 0 01-1.932-.448 3.532 3.532 0 01-1.358-1.288c-.327-.551-.49-1.181-.49-1.89 0-.709.163-1.335.49-1.876a3.432 3.432 0 011.358-1.274 4.147 4.147 0 011.932-.448 3.9 3.9 0 011.47.266c.448.177.821.448 1.12.812v-.994h1.666zm-3.99 5.656c.663 0 1.204-.196 1.624-.588.429-.401.644-.919.644-1.554 0-.625-.215-1.134-.644-1.526-.42-.392-.961-.588-1.624-.588-.672 0-1.223.196-1.652.588-.42.392-.63.901-.63 1.526 0 .635.21 1.153.63 1.554.429.392.98.588 1.652.588zm259.91-46.675h1.82v8.26h5.124v1.54h-6.944v-9.8zm10.575 2.24c1.101 0 1.941.266 2.52.798.588.522.882 1.316.882 2.38v4.382h-1.652v-.91a2.087 2.087 0 01-.924.756c-.392.168-.868.252-1.428.252-.56 0-1.05-.094-1.47-.28a2.39 2.39 0 01-.98-.798 2.092 2.092 0 01-.336-1.162c0-.672.247-1.209.742-1.61.504-.411 1.292-.616 2.366-.616h1.932v-.112c0-.523-.159-.924-.476-1.204-.308-.28-.77-.42-1.386-.42-.42 0-.836.065-1.246.196-.402.13-.742.312-1.022.546l-.686-1.274a4.226 4.226 0 011.414-.686 6.276 6.276 0 011.75-.238zm-.238 6.384c.438 0 .826-.098 1.162-.294.345-.206.588-.495.728-.868v-.868h-1.806c-1.008 0-1.512.331-1.512.994 0 .317.126.569.378.756.252.186.602.28 1.05.28zm12.561-6.3v7.476h-1.666v-.952c-.28.336-.63.597-1.05.784-.42.177-.873.266-1.358.266-.999 0-1.787-.276-2.366-.826-.569-.56-.854-1.386-.854-2.478v-4.27h1.75v4.032c0 .672.149 1.176.448 1.512.308.326.742.49 1.302.49.625 0 1.12-.192 1.484-.574.373-.392.56-.952.56-1.68v-3.78h1.75zm5.971-.084c.943 0 1.699.275 2.268.826.569.55.854 1.367.854 2.45v4.284h-1.75v-4.06c0-.654-.154-1.144-.462-1.47-.308-.336-.747-.504-1.316-.504-.644 0-1.153.196-1.526.588-.373.382-.56.938-.56 1.666v3.78h-1.75v-7.476h1.666v.966a2.722 2.722 0 011.092-.784 3.917 3.917 0 011.484-.266zm8.278 7.658c-.775 0-1.47-.164-2.086-.49a3.618 3.618 0 01-1.442-1.358c-.346-.588-.518-1.251-.518-1.988 0-.738.172-1.396.518-1.974a3.625 3.625 0 011.428-1.358c.616-.327 1.316-.49 2.1-.49.737 0 1.381.149 1.932.448.56.298.98.728 1.26 1.288l-1.344.784a2.068 2.068 0 00-.812-.77 2.112 2.112 0 00-1.05-.266c-.654 0-1.195.214-1.624.644-.43.42-.644.984-.644 1.694 0 .709.21 1.278.63 1.708.429.42.975.63 1.638.63.382 0 .732-.084 1.05-.252.326-.178.597-.439.812-.784l1.344.784c-.29.56-.714.994-1.274 1.302-.551.298-1.19.448-1.918.448zm8.316-7.658c.942 0 1.698.275 2.268.826.569.55.854 1.367.854 2.45v4.284h-1.75v-4.06c0-.654-.154-1.144-.462-1.47-.308-.336-.747-.504-1.316-.504-.644 0-1.153.196-1.526.588-.374.382-.56.938-.56 1.666v3.78h-1.75v-10.388h1.75v3.78a2.777 2.777 0 011.064-.7 3.886 3.886 0 011.428-.252z" fill="#fff"/><path d="M714.476 17.48a7.547 7.547 0 01-2.198-.321c-.7-.215-1.255-.5-1.666-.854l.63-1.414c.401.317.891.578 1.47.784a5.55 5.55 0 001.764.294c.728 0 1.269-.117 1.624-.35.364-.234.546-.542.546-.924a.866.866 0 00-.308-.686 1.988 1.988 0 00-.756-.434 16.96 16.96 0 00-1.26-.35 15.117 15.117 0 01-1.82-.532 3.085 3.085 0 01-1.19-.826c-.327-.383-.49-.896-.49-1.54 0-.542.145-1.032.434-1.47.299-.448.742-.803 1.33-1.064.597-.262 1.325-.392 2.184-.392.597 0 1.185.074 1.764.224a4.864 4.864 0 011.498.644l-.574 1.414a5.65 5.65 0 00-1.344-.574 5.027 5.027 0 00-1.358-.196c-.719 0-1.255.12-1.61.364-.345.242-.518.564-.518.966 0 .28.098.508.294.686.205.177.462.317.77.42.308.102.728.219 1.26.35.728.168 1.325.345 1.792.532a2.94 2.94 0 011.19.826c.336.373.504.877.504 1.512a2.55 2.55 0 01-.448 1.47c-.289.438-.733.788-1.33 1.05-.597.26-1.325.392-2.184.392zm12.274-7.615v7.476h-1.666v-.952c-.28.336-.63.597-1.05.784-.42.177-.872.266-1.358.266-.998 0-1.787-.276-2.366-.826-.569-.56-.854-1.386-.854-2.478v-4.27h1.75v4.032c0 .672.15 1.176.448 1.512.308.326.742.49 1.302.49.626 0 1.12-.192 1.484-.574.374-.392.56-.952.56-1.68v-3.78h1.75zm5.873-.084c.728 0 1.377.158 1.946.476a3.42 3.42 0 011.358 1.344c.327.578.49 1.246.49 2.002 0 .756-.163 1.428-.49 2.016a3.421 3.421 0 01-1.358 1.344c-.569.317-1.218.476-1.946.476-1.008 0-1.806-.336-2.394-1.008v3.626h-1.75V9.865h1.666v.98a2.71 2.71 0 011.064-.798 3.668 3.668 0 011.414-.266zm-.196 6.16c.644 0 1.171-.215 1.582-.644.42-.43.63-.994.63-1.694s-.21-1.265-.63-1.694c-.411-.43-.938-.644-1.582-.644-.42 0-.798.098-1.134.294a2.025 2.025 0 00-.798.812c-.196.354-.294.765-.294 1.232 0 .466.098.877.294 1.232.196.354.462.63.798.826.336.186.714.28 1.134.28zm9.231-6.16c.728 0 1.377.158 1.946.476a3.413 3.413 0 011.358 1.344c.327.578.49 1.246.49 2.002 0 .756-.163 1.428-.49 2.016a3.415 3.415 0 01-1.358 1.344c-.569.317-1.218.476-1.946.476-1.008 0-1.806-.336-2.394-1.008v3.626h-1.75V9.865h1.666v.98c.29-.355.644-.621 1.064-.798a3.66 3.66 0 011.414-.266zm-.196 6.16c.644 0 1.172-.215 1.582-.644.42-.43.63-.994.63-1.694s-.21-1.265-.63-1.694c-.41-.43-.938-.644-1.582-.644-.42 0-.798.098-1.134.294a2.025 2.025 0 00-.798.812c-.196.354-.294.765-.294 1.232 0 .466.098.877.294 1.232.196.354.462.63.798.826.336.186.714.28 1.134.28zm8.447 1.498c-.756 0-1.437-.164-2.044-.49a3.646 3.646 0 01-1.428-1.358c-.336-.588-.504-1.251-.504-1.988 0-.738.168-1.396.504-1.974a3.645 3.645 0 011.428-1.358c.607-.327 1.288-.49 2.044-.49.766 0 1.452.163 2.058.49a3.53 3.53 0 011.414 1.358c.346.578.518 1.236.518 1.974 0 .737-.172 1.4-.518 1.988a3.537 3.537 0 01-1.414 1.358c-.606.326-1.292.49-2.058.49zm0-1.498c.644 0 1.176-.215 1.596-.644.42-.43.63-.994.63-1.694s-.21-1.265-.63-1.694c-.42-.43-.952-.644-1.596-.644-.644 0-1.176.214-1.596.644-.41.429-.616.994-.616 1.694s.206 1.264.616 1.694c.42.429.952.644 1.596.644zm6.767-4.984c.504-.784 1.391-1.176 2.66-1.176v1.666a2.213 2.213 0 00-.406-.042c-.681 0-1.213.2-1.596.602-.382.392-.574.96-.574 1.708v3.626h-1.75V9.865h1.666v1.092zm8.35 5.978a2.067 2.067 0 01-.756.378c-.29.084-.598.126-.924.126-.822 0-1.456-.215-1.904-.644-.448-.43-.672-1.055-.672-1.876V11.32h-1.232v-1.4h1.232V8.213h1.75V9.92h2.002v1.4h-2.002v3.556c0 .364.088.644.266.84.177.186.434.28.77.28.392 0 .718-.103.98-.308l.49 1.246z" fill="#1476F2"/><path d="M510.318 108l-.014-6.496-3.22 5.376h-.812l-3.22-5.292V108h-1.736v-9.8h1.498l3.892 6.496 3.822-6.496h1.498l.014 9.8h-1.722zm12.698-9.8l-4.27 9.8h-1.792l-4.284-9.8h1.974l3.262 7.56 3.29-7.56h1.82zm4.504 0c.849 0 1.587.14 2.212.42.635.28 1.12.681 1.456 1.204.336.523.504 1.143.504 1.862 0 .709-.168 1.33-.504 1.862-.336.523-.821.924-1.456 1.204-.625.28-1.363.42-2.212.42h-2.212V108h-1.82v-9.8h4.032zm-.084 5.432c.793 0 1.395-.168 1.806-.504.411-.336.616-.817.616-1.442s-.205-1.106-.616-1.442c-.411-.336-1.013-.504-1.806-.504h-2.128v3.892h2.128zm7.903-7.42h1.568l-4.62 13.188h-1.568l4.62-13.188zm4.513 11.928a7.534 7.534 0 01-2.198-.322c-.7-.215-1.255-.499-1.666-.854l.63-1.414a5.09 5.09 0 001.47.784 5.55 5.55 0 001.764.294c.728 0 1.269-.117 1.624-.35.364-.233.546-.541.546-.924a.865.865 0 00-.308-.686 1.99 1.99 0 00-.756-.434 17.01 17.01 0 00-1.26-.35 15.098 15.098 0 01-1.82-.532 3.084 3.084 0 01-1.19-.826c-.327-.383-.49-.896-.49-1.54 0-.541.145-1.031.434-1.47.299-.448.742-.803 1.33-1.064.597-.261 1.325-.392 2.184-.392a7.05 7.05 0 011.764.224c.579.15 1.078.364 1.498.644l-.574 1.414a5.652 5.652 0 00-1.344-.574 5.026 5.026 0 00-1.358-.196c-.719 0-1.255.121-1.61.364-.345.243-.518.565-.518.966 0 .28.098.509.294.686.205.177.462.317.77.42.308.103.728.219 1.26.35.728.168 1.325.345 1.792.532a2.95 2.95 0 011.19.826c.336.373.504.877.504 1.512 0 .541-.149 1.031-.448 1.47-.289.439-.733.789-1.33 1.05-.597.261-1.325.392-2.184.392zm8.396-.042c-.756 0-1.437-.163-2.044-.49a3.646 3.646 0 01-1.428-1.358c-.336-.588-.504-1.251-.504-1.988 0-.737.168-1.395.504-1.974a3.646 3.646 0 011.428-1.358c.607-.327 1.288-.49 2.044-.49.766 0 1.452.163 2.058.49a3.537 3.537 0 011.414 1.358c.346.579.518 1.237.518 1.974 0 .737-.172 1.4-.518 1.988a3.537 3.537 0 01-1.414 1.358c-.606.327-1.292.49-2.058.49zm0-1.498c.644 0 1.176-.215 1.596-.644.42-.429.63-.994.63-1.694s-.21-1.265-.63-1.694c-.42-.429-.952-.644-1.596-.644-.644 0-1.176.215-1.596.644-.41.429-.616.994-.616 1.694s.206 1.265.616 1.694c.42.429.952.644 1.596.644zm8.139-7.672c-.737 0-1.106.401-1.106 1.204v.448h2.058v1.4h-2.002V108h-1.75v-6.02h-1.232v-1.4h1.232v-.476c0-.803.234-1.433.7-1.89.467-.467 1.125-.7 1.974-.7.672 0 1.2.135 1.582.406l-.49 1.316a1.67 1.67 0 00-.966-.308zm6.062 8.666a2.067 2.067 0 01-.756.378c-.29.084-.598.126-.924.126-.822 0-1.456-.215-1.904-.644-.448-.429-.672-1.055-.672-1.876v-3.598h-1.232v-1.4h1.232v-1.708h1.75v1.708h2.002v1.4h-2.002v3.556c0 .364.088.644.266.84.177.187.434.28.77.28.392 0 .718-.103.98-.308l.49 1.246zM566.8 98.2h1.82v8.26h5.124V108H566.8v-9.8zm10.575 2.24c1.101 0 1.941.266 2.52.798.588.523.882 1.316.882 2.38V108h-1.652v-.91a2.073 2.073 0 01-.924.756c-.392.168-.868.252-1.428.252-.56 0-1.05-.093-1.47-.28a2.39 2.39 0 01-.98-.798 2.09 2.09 0 01-.336-1.162c0-.672.247-1.209.742-1.61.504-.411 1.293-.616 2.366-.616h1.932v-.112c0-.523-.159-.924-.476-1.204-.308-.28-.77-.42-1.386-.42-.42 0-.835.065-1.246.196a3.068 3.068 0 00-1.022.546l-.686-1.274a4.245 4.245 0 011.414-.686 6.28 6.28 0 011.75-.238zm-.238 6.384c.439 0 .826-.098 1.162-.294.345-.205.588-.495.728-.868v-.868h-1.806c-1.008 0-1.512.331-1.512.994 0 .317.126.569.378.756.252.187.602.28 1.05.28zm12.562-6.3V108h-1.666v-.952c-.28.336-.63.597-1.05.784-.42.177-.873.266-1.358.266-.999 0-1.788-.275-2.366-.826-.57-.56-.854-1.386-.854-2.478v-4.27h1.75v4.032c0 .672.149 1.176.448 1.512.308.327.742.49 1.302.49.625 0 1.12-.191 1.484-.574.373-.392.56-.952.56-1.68v-3.78h1.75zm5.97-.084c.943 0 1.699.275 2.268.826.57.551.854 1.367.854 2.45V108h-1.75v-4.06c0-.653-.154-1.143-.462-1.47-.308-.336-.746-.504-1.316-.504-.644 0-1.152.196-1.526.588-.373.383-.56.938-.56 1.666V108h-1.75v-7.476h1.666v.966c.29-.345.654-.607 1.092-.784a3.94 3.94 0 011.484-.266zm8.278 7.658c-.775 0-1.47-.163-2.086-.49a3.61 3.61 0 01-1.442-1.358c-.345-.588-.518-1.251-.518-1.988 0-.737.173-1.395.518-1.974a3.632 3.632 0 011.428-1.358c.616-.327 1.316-.49 2.1-.49.737 0 1.381.149 1.932.448a2.9 2.9 0 011.26 1.288l-1.344.784a2.068 2.068 0 00-.812-.77 2.117 2.117 0 00-1.05-.266c-.653 0-1.195.215-1.624.644-.429.42-.644.985-.644 1.694s.21 1.279.63 1.708c.429.42.975.63 1.638.63.383 0 .733-.084 1.05-.252.327-.177.597-.439.812-.784l1.344.784a3.06 3.06 0 01-1.274 1.302c-.551.299-1.19.448-1.918.448zm8.316-7.658c.943 0 1.699.275 2.268.826.569.551.854 1.367.854 2.45V108h-1.75v-4.06c0-.653-.154-1.143-.462-1.47-.308-.336-.747-.504-1.316-.504-.644 0-1.153.196-1.526.588-.373.383-.56.938-.56 1.666V108h-1.75V97.612h1.75v3.78a2.788 2.788 0 011.064-.7 3.886 3.886 0 011.428-.252z" fill="#fff"/><defs><linearGradient id="paint0_linear" x1="95.408" y1="119.453" x2="30.37" y2="119.453" gradientUnits="userSpaceOnUse"><stop stop-color="#2A82F2"/><stop offset="1" stop-color="#005ED7"/></linearGradient><linearGradient id="paint1_linear" x1="752.997" y1="9.086" x2="687.96" y2="9.086" gradientUnits="userSpaceOnUse"><stop stop-color="#2A82F2"/><stop offset="1" stop-color="#005ED7"/></linearGradient><linearGradient id="paint2_linear" x1="194.56" y1="128.167" x2="147.733" y2="128.167" gradientUnits="userSpaceOnUse"><stop stop-color="#2A82F2"/><stop offset="1" stop-color="#005ED7"/></linearGradient><linearGradient id="paint3_linear" x1="320.15" y1="128.167" x2="273.323" y2="128.167" gradientUnits="userSpaceOnUse"><stop stop-color="#2A82F2"/><stop offset="1" stop-color="#005ED7"/></linearGradient><linearGradient id="paint4_linear" x1="436.236" y1="128.167" x2="389.409" y2="128.167" gradientUnits="userSpaceOnUse"><stop stop-color="#2A82F2"/><stop offset="1" stop-color="#005ED7"/></linearGradient><linearGradient id="paint5_linear" x1="567.936" y1="130.806" x2="521.109" y2="130.806" gradientUnits="userSpaceOnUse"><stop stop-color="#2A82F2"/><stop offset="1" stop-color="#005ED7"/></linearGradient><linearGradient id="paint6_linear" x1="698.957" y1="113.911" x2="652.13" y2="113.911" gradientUnits="userSpaceOnUse"><stop stop-color="#2A82F2"/><stop offset="1" stop-color="#005ED7"/></linearGradient><linearGradient id="paint7_linear" x1="197.692" y1="114.872" x2="47.496" y2="85.848" gradientUnits="userSpaceOnUse"><stop offset=".174" stop-color="#53A0FD"/><stop offset="1" stop-color="#2A82F2"/></linearGradient><linearGradient id="paint8_linear" x1="512.363" y1="117.512" x2="269.662" y2="47.792" gradientUnits="userSpaceOnUse"><stop offset=".174" stop-color="#53A0FD"/><stop offset="1" stop-color="#2A82F2"/></linearGradient><linearGradient id="paint9_linear" x1="329.276" y1="237.663" x2="176.119" y2="210.878" gradientUnits="userSpaceOnUse"><stop offset=".174" stop-color="#53A0FD"/><stop offset="1" stop-color="#2A82F2"/></linearGradient><linearGradient id="paint10_linear" x1="538.568" y1="230.872" x2="385.645" y2="200.742" gradientUnits="userSpaceOnUse"><stop offset=".174" stop-color="#53A0FD"/><stop offset="1" stop-color="#2A82F2"/></linearGradient><linearGradient id="paint11_linear" x1="765.503" y1="193.953" x2="667.142" y2="172.937" gradientUnits="userSpaceOnUse"><stop offset=".174" stop-color="#53A0FD"/><stop offset="1" stop-color="#2A82F2"/></linearGradient><linearGradient id="paint12_linear" x1="684.153" y1="123.233" x2="531.375" y2="88.014" gradientUnits="userSpaceOnUse"><stop offset=".174" stop-color="#53A0FD"/><stop offset="1" stop-color="#2A82F2"/></linearGradient></defs></svg>