<svg width="100" height="100" fill="none" xmlns="http://www.w3.org/2000/svg"><circle cx="50" cy="50" r="50" fill="#fff"/><mask id="a" fill="#fff"><path d="M70.127 63.867h6.88c.88 0 1.318-.885 1.025-1.622-.585-1.032-1.024-2.065-.878-2.36.147-.442.879-.59 2.635-1.622 1.757-1.032 1.61-2.507.879-3.54-.732-1.032-5.417-7.225-5.563-9.142-.147-1.18 1.317-4.277.292-9.144-1.024-4.719-6.734-20.203-27.23-19.761-20.494.442-29.278 14.452-29.278 24.48s4.977 14.895 6.588 19.614c2.196 6.489 3.367 13.862-.586 22.268"/></mask><path d="M78.032 62.245l1.86-.738-.052-.129-.068-.12-1.74.987zm-.878-2.36l1.792.89.063-.127.044-.134-1.899-.629zm-2.05-14.304l1.995-.153-.004-.047-.006-.047-1.984.246zm.293-9.144l1.957-.412-.002-.012-1.955.424zM25.477 60.77l1.894-.641-.002-.005-1.892.646zm44.65 5.097h6.88v-4h-6.88v4zm6.88 0c1.187 0 2.157-.63 2.68-1.526.495-.85.576-1.9.204-2.834l-3.717 1.476a.747.747 0 01.058-.66.93.93 0 01.776-.456v4zm2.765-4.609a9.82 9.82 0 01-.589-1.194c-.06-.157-.074-.22-.072-.21.001.008.016.083.015.204a1.673 1.673 0 01-.18.717l-3.583-1.779c-.355.715-.217 1.423-.18 1.615.062.32.168.635.271.902.212.545.518 1.153.839 1.719l3.48-1.974zm-.72-.744a1.393 1.393 0 01-.431.646c-.043.033-.03.015.177-.094.35-.184 1.072-.53 2.004-1.079l-2.026-3.448c-.824.484-1.347.728-1.839.986-.213.112-.52.278-.796.496a2.62 2.62 0 00-.886 1.236l3.798 1.257zm1.75-.527c1.28-.752 2.141-1.852 2.339-3.205.186-1.277-.273-2.413-.842-3.215l-3.263 2.314c.164.23.143.347.147.324.002-.02.01-.015-.02.024-.034.047-.136.162-.387.31l2.026 3.448zm1.497-6.42c-.413-.583-1.706-2.303-2.97-4.194-.626-.938-1.21-1.867-1.64-2.656a10.037 10.037 0 01-.48-.986c-.117-.29-.115-.37-.11-.303l-3.989.305c.042.547.222 1.08.392 1.498.182.45.417.926.674 1.397.513.944 1.173 1.987 1.828 2.967 1.298 1.944 2.714 3.836 3.032 4.286l3.263-2.314zm-5.21-8.233c.01.075-.006-.014.109-.624.092-.486.244-1.211.362-2.035a18.71 18.71 0 00-.206-6.65l-3.914.824c.452 2.147.357 3.893.16 5.258-.1.707-.223 1.281-.332 1.86-.087.455-.23 1.195-.148 1.86l3.97-.493zm.263-9.321c-.564-2.596-2.373-8.013-6.807-12.758-4.497-4.812-11.592-8.812-22.42-8.579l.086 4c9.667-.21 15.675 3.312 19.412 7.31 3.801 4.068 5.359 8.753 5.82 10.876l3.909-.85zM48.125 14.676c-21.564.466-31.236 15.345-31.236 26.48h4c0-8.92 7.895-22.061 27.322-22.48l-.086-4zm-31.236 26.48c0 5.38 1.344 9.398 2.882 12.652.754 1.596 1.567 3.034 2.24 4.271.692 1.276 1.23 2.333 1.573 3.337l3.785-1.292c-.462-1.356-1.15-2.676-1.843-3.954-.715-1.315-1.447-2.606-2.139-4.07-1.353-2.866-2.498-6.296-2.498-10.944h-4zm6.693 20.255c2.107 6.227 3.148 13.018-.5 20.776L26.7 83.89c4.257-9.053 2.955-17.01.67-23.76l-3.789 1.282z" fill="url(#paint0_linear)" mask="url(#a)"/><path d="M56.952 83.333c.878-3.834 2.635-7.226 4.245-7.816l-4.245 7.816z" fill="#fff"/><path d="M56.952 83.333c.878-3.834 2.635-7.226 4.245-7.816" stroke="url(#paint1_linear)" stroke-width="2"/><mask id="b" fill="#fff"><path d="M54.023 66.816c1.318 3.835 2.343 7.374 3.66 7.669 1.903.59 9.809 2.802 12.737 1.77 2.928-1.18 2.342-3.835 2.342-4.572.146-1.917 2.05-2.212 1.757-4.867"/></mask><path d="M57.683 74.485l.592-1.91-.076-.024-.079-.018-.437 1.952zm12.737 1.77l.665 1.886.041-.015.041-.016-.747-1.855zm2.342-4.572l-1.994-.152-.006.076v.076h2zm-20.63-4.217c.633 1.841 1.257 3.802 1.876 5.283.311.745.669 1.489 1.092 2.096.381.547 1.064 1.35 2.146 1.592l.874-3.904c.424.095.484.344.262.025-.18-.26-.41-.696-.683-1.351-.552-1.322-1.1-3.047-1.784-5.04l-3.783 1.3zm4.96 8.93a63.67 63.67 0 006.196 1.546c1.336.258 2.752.472 4.053.551 1.244.075 2.62.044 3.744-.352l-1.33-3.773c-.34.12-1.051.2-2.172.132-1.064-.064-2.292-.246-3.537-.486a59.72 59.72 0 01-5.77-1.44l-1.185 3.821zm14.075 1.714c2.107-.85 3.105-2.353 3.465-3.835.294-1.207.13-2.681.13-2.592h-4c0 .181.017.394.024.5.01.143.019.273.022.409.007.273-.01.52-.063.739a1.25 1.25 0 01-.258.531c-.124.149-.355.352-.815.538l1.495 3.71zm3.59-6.275c.02-.269.066-.287.68-1.152.275-.389.623-.927.854-1.64.235-.727.317-1.53.216-2.446l-3.976.439c.045.411-.002.64-.045.775-.049.149-.13.302-.312.558-.302.425-1.28 1.514-1.406 3.162l3.988.304z" fill="url(#paint2_linear)" mask="url(#b)"/><path d="M37.42 34.373c0 2.17-1.746 3.924-3.892 3.924s-3.891-1.754-3.891-3.924c0-2.171 1.745-3.924 3.891-3.924s3.892 1.753 3.892 3.924zm29.28 0c0 2.17-1.747 3.924-3.893 3.924s-3.892-1.754-3.892-3.924c0-2.171 1.746-3.924 3.892-3.924s3.892 1.753 3.892 3.924zm-14.64-7.374c0 2.17-1.746 3.924-3.892 3.924S44.276 29.17 44.276 27s1.746-3.924 3.892-3.924S52.06 24.829 52.06 27z" fill="#fff" stroke="#17CA8E"/><path d="M48.168 31.423V74.19M59.88 37.322l-5.857 5.899v8.848M36.456 37.322l5.856 5.899v8.848" stroke="#17CA8E" stroke-linecap="round" stroke-linejoin="round"/><path d="M35.956 49.12c0 2.17-1.746 3.924-3.892 3.924-2.145 0-3.891-1.753-3.891-3.924 0-2.17 1.746-3.924 3.892-3.924 2.145 0 3.891 1.753 3.891 3.924z" fill="#fff" stroke="#17CA8E"/><path d="M34.992 52.07l5.856 5.898v25.07" stroke="#17CA8E" stroke-linecap="round" stroke-linejoin="round"/><path d="M68.163 49.12c0 2.17-1.745 3.924-3.891 3.924-2.147 0-3.892-1.753-3.892-3.924 0-2.17 1.745-3.924 3.892-3.924 2.145 0 3.891 1.753 3.891 3.924z" fill="#fff" stroke="#17CA8E"/><path d="M61.343 52.07l-7.32 7.373v2.95" stroke="#17CA8E" stroke-linecap="round" stroke-linejoin="round"/><defs><linearGradient id="paint0_linear" x1="50.036" y1="16.667" x2="50.036" y2="83.038" gradientUnits="userSpaceOnUse"><stop stop-color="#2A82F2"/><stop offset="1" stop-color="#8BC0FF"/></linearGradient><linearGradient id="paint1_linear" x1="59.074" y1="75.517" x2="59.074" y2="83.333" gradientUnits="userSpaceOnUse"><stop stop-color="#2A82F2"/><stop offset="1" stop-color="#8BC0FF"/></linearGradient><linearGradient id="paint2_linear" x1="64.286" y1="66.816" x2="64.286" y2="76.525" gradientUnits="userSpaceOnUse"><stop stop-color="#2A82F2"/><stop offset="1" stop-color="#8BC0FF"/></linearGradient></defs></svg>