<svg width="100" height="100" fill="none" xmlns="http://www.w3.org/2000/svg"><circle cx="50" cy="50" r="50" fill="#fff"/><path d="M58.201 76.667v2.777a5 5 0 01-5 5H27.222a5 5 0 01-5-5V22.778a5 5 0 015-5h25.98a5 5 0 015 5v11.11m0 36.668v-7.778" stroke="url(#paint0_linear)" stroke-width="2"/><circle cx="66.72" cy="48.466" r="14.257" fill="#fff" stroke="#17CA8E"/><circle cx="66.719" cy="48.466" r="7.966" fill="#fff" stroke="#17CA8E"/><circle cx="66.719" cy="48.466" r="3.733" fill="#fff" stroke="#17CA8E"/><path d="M66.667 64.339v9.523H40.212v-16.93" stroke="#17CA8E" stroke-miterlimit="10" stroke-linejoin="round"/><circle cx="40.212" cy="45.291" r="7.966" fill="#fff" stroke="#17CA8E"/><path d="M38.595 42.491l4.85 2.8-4.85 2.8v-5.6z" fill="#fff" stroke="#17CA8E"/><defs><linearGradient id="paint0_linear" x1="40.212" y1="17.778" x2="40.212" y2="84.445" gradientUnits="userSpaceOnUse"><stop stop-color="#2A82F2"/><stop offset="1" stop-color="#8BC0FF"/></linearGradient></defs></svg>