<svg width="100" height="100" fill="none" xmlns="http://www.w3.org/2000/svg"><circle cx="50" cy="50" r="50" fill="#fff"/><path d="M61.84 38.16V20.201H37.71v17.957H19.192v24.13H37.71v18.52h24.13v-18.52h17.958V38.16H61.841z" stroke="url(#paint0_linear)" stroke-width="2"/><path d="M43.192 49.599v12.226m6.726-19.558v10.972l-2.294 2.548v12.472" stroke="#17CA8E" stroke-miterlimit="10" stroke-linejoin="round"/><path d="M50.059 41.297a2.467 2.467 0 100-4.933 2.467 2.467 0 000 4.933zm-6.867 8.302c1.394 0 2.467-1.073 2.467-2.467 0-1.394-1.073-2.466-2.467-2.466-1.394 0-2.467 1.072-2.467 2.466 0 1.394 1.073 2.467 2.467 2.467z" fill="#fff" stroke="#17CA8E" stroke-miterlimit="10" stroke-linejoin="round"/><path d="M58.573 51.44l-6.116 6.015V65.2" stroke="#17CA8E" stroke-miterlimit="10" stroke-linejoin="round"/><path d="M60.641 52a2.467 2.467 0 100-4.933 2.467 2.467 0 000 4.933z" fill="#fff" stroke="#17CA8E" stroke-miterlimit="10" stroke-linejoin="round"/><path d="M43.192 66.65v1.61m0-4.826v1.608m9.406 1.608v1.61" stroke="#17CA8E" stroke-miterlimit="10" stroke-linejoin="round"/><defs><linearGradient id="paint0_linear" x1="49.495" y1="20.202" x2="49.495" y2="80.808" gradientUnits="userSpaceOnUse"><stop stop-color="#2A82F2"/><stop offset="1" stop-color="#8BC0FF"/></linearGradient></defs></svg>