<svg width="100" height="102" fill="none" xmlns="http://www.w3.org/2000/svg"><ellipse cx="50" cy="51.466" rx="50" ry="50.534" fill="#fff"/><path stroke="url(#paint0_linear)" stroke-width="2" d="M38.058 37.867h27.197v27.197H38.058z"/><path d="M53.008 51.887h-4.141v-5.176h4.14c1.14 0 2.071.932 2.071 2.07v1.036c0 1.139-.931 2.07-2.07 2.07zm0 5.176h-4.141v-5.176h4.14c1.14 0 2.071.932 2.071 2.07v1.036c0 1.139-.931 2.07-2.07 2.07zm-7.247 0h3.106m-3.106-10.352h3.106m0-3.106v3.106m0 10.352v3.106m3.106-3.106v3.106m0-16.564v3.106" stroke="#17CA8E" stroke-miterlimit="10" stroke-linejoin="round"/><path d="M41.55 17.777v15.721m0 35.936v15.721m10.107-67.378v15.721m0 35.936v15.721m10.107-67.378v15.721m0 35.936v15.721m22.46-42.673H68.501m-35.936 0h-15.72M84.223 52.59H68.502m-35.936 0H16.845m67.378 10.107H68.502m-35.936 0H16.845" stroke="url(#paint1_linear)" stroke-width="2"/><defs><linearGradient id="paint0_linear" x1="25.829" y1="43.605" x2="69.063" y2="78.418" gradientUnits="userSpaceOnUse"><stop stop-color="#2A82F2"/><stop offset="1" stop-color="#8BC0FF"/></linearGradient><linearGradient id="paint1_linear" x1="8.422" y1="13.285" x2="94.892" y2="94.139" gradientUnits="userSpaceOnUse"><stop stop-color="#2A82F2"/><stop offset="1" stop-color="#8BC0FF"/></linearGradient></defs></svg>