<svg width="99" height="99" fill="none" xmlns="http://www.w3.org/2000/svg"><circle cx="49.5" cy="49.5" r="49.5" fill="#fff"/><path d="M68.475 35.475c.138-12.1-7.837-17.875-19.25-17.875-11.412 0-19.387 5.775-19.25 17.875" stroke="url(#paint0_linear)" stroke-width="2"/><path d="M72.188 58.3L58.3 61.6c-1.512 0-2.887-.413-4.125-1.1l-2.062-1.237c-1.788-1.1-3.85-1.1-5.638 0L44.413 60.5c-1.238.688-2.75 1.1-4.125 1.1l-14.025-3.3c-1.925-.55-3.163-2.2-3.163-4.125V39.6c0-2.337 1.788-4.125 4.125-4.125h44c2.338 0 4.125 1.788 4.125 4.125v14.575c0 1.925-1.237 3.575-3.162 4.125z" fill="#fff" stroke="#17CA8E" stroke-miterlimit="10" stroke-linejoin="round"/><mask id="a" fill="#fff"><path d="M67.1 62.975v1.375c0 3.575-1.512 5.5-4.262 7.838-1.925 1.65-4.263 3.437-6.325 4.95a12.593 12.593 0 01-14.713 0c-2.062-1.513-4.4-3.163-6.325-4.95-2.612-2.338-4.125-4.263-4.125-7.838v-1.375"/></mask><path d="M62.838 72.188l-1.296-1.524-.006.005 1.302 1.519zm-6.325 4.95l1.167 1.623.008-.005.007-.006-1.182-1.612zm-14.713 0l-1.183 1.612.008.006.008.005 1.167-1.623zm-6.325-4.95l1.361-1.466-.014-.013-.013-.012-1.334 1.49zM65.1 62.974v1.375h4v-1.375h-4zm0 1.375c0 1.474-.303 2.49-.821 3.365-.549.927-1.408 1.819-2.737 2.949l2.59 3.047c1.422-1.207 2.694-2.447 3.59-3.96.925-1.565 1.378-3.3 1.378-5.401h-4zm-3.564 6.319c-1.87 1.602-4.161 3.356-6.206 4.856l2.365 3.225c2.08-1.525 4.464-3.347 6.444-5.044l-2.603-3.037zm-6.19 4.844a10.593 10.593 0 01-12.379 0l-2.334 3.248a14.594 14.594 0 0017.047 0l-2.335-3.248zm-12.363.012c-2.114-1.55-4.33-3.115-6.147-4.803l-2.722 2.931c2.033 1.887 4.493 3.623 6.503 5.097l2.366-3.225zm-6.174-4.828c-1.268-1.134-2.103-2.028-2.644-2.964-.511-.886-.815-1.909-.815-3.383h-4c0 2.1.453 3.827 1.35 5.383.87 1.504 2.097 2.742 3.442 3.945l2.667-2.981zM33.35 64.35v-1.375h-4v1.375h4z" fill="url(#paint1_linear)" mask="url(#a)"/><path d="M35.475 72.6v9.625" stroke="url(#paint2_linear)" stroke-width="2"/><path d="M62.975 72.6v9.625" stroke="url(#paint3_linear)" stroke-width="2"/><path d="M45.1 39.6h8.25m-26.125 0v12.375m44-12.375v12.375" stroke="#17CA8E" stroke-miterlimit="10" stroke-linejoin="round"/><defs><linearGradient id="paint0_linear" x1="49.225" y1="17.6" x2="49.225" y2="35.475" gradientUnits="userSpaceOnUse"><stop stop-color="#2A82F2"/><stop offset="1" stop-color="#8BC0FF"/></linearGradient><linearGradient id="paint1_linear" x1="49.225" y1="62.975" x2="49.225" y2="79.509" gradientUnits="userSpaceOnUse"><stop stop-color="#2A82F2"/><stop offset="1" stop-color="#8BC0FF"/></linearGradient><linearGradient id="paint2_linear" x1="35.975" y1="72.6" x2="35.975" y2="82.225" gradientUnits="userSpaceOnUse"><stop stop-color="#2A82F2"/><stop offset="1" stop-color="#8BC0FF"/></linearGradient><linearGradient id="paint3_linear" x1="63.475" y1="72.6" x2="63.475" y2="82.225" gradientUnits="userSpaceOnUse"><stop stop-color="#2A82F2"/><stop offset="1" stop-color="#8BC0FF"/></linearGradient></defs></svg>