<svg width="387" height="405" fill="none" xmlns="http://www.w3.org/2000/svg"><g opacity=".2"><circle cx="191" cy="207" r="135.5" stroke="#000" stroke-opacity=".1"/><circle cx="191" cy="207" r="135.5" stroke="#000" stroke-opacity=".1"/><circle cx="191" cy="207" r="135.5" stroke="#04AF70"/></g><g filter="url(#filter0_d)"><circle cx="191.5" cy="207.5" r="84.5" fill="#fff"/></g><path fill-rule="evenodd" clip-rule="evenodd" d="M211.34 191.221c-.129 1.175-1.007 2.144-1.741 2.144h-6.103c-1.629 0-2.036 2.058-2.036 2.058l-6.72 25.744s-.407 2.059-2.239 2.059h-20.564c-.815 0-1.222-.34-1.222-.957 0-.994.815-2.53 2.036-2.53h9.115c1.222 0 3.004-.908 3.509-2.883.505-1.974 6.312-23.274 6.719-24.509.407-1.235 1.018-2.058 2.239-2.058h15.881c.815 0 1.22.086 1.126.932zm-38.385 23.565c.407-1.235 5.904-21.409 6.312-22.644.407-1.235.61-2.059 2.036-2.059h6.719c.814 0 1.173.818.814 2.059-.358 1.241-5.908 21.213-6.312 22.644-.403 1.43-1.114 2.058-1.928 2.058h-6.611c-1.018 0-1.437-.617-1.03-2.058zm18.324-49.199c-22.396 0-40.721 18.527-40.721 41.17 0 22.645 18.325 41.171 40.721 41.171 22.397 0 40.721-18.526 40.721-41.171 0-22.643-18.324-41.17-40.721-41.17z" fill="url(#paint0_linear)"/><g opacity=".2"><circle cx="191" cy="207" r="173.5" stroke="#000" stroke-opacity=".1"/><circle cx="191" cy="207" r="173.5" stroke="#000" stroke-opacity=".1"/><circle cx="191" cy="207" r="173.5" stroke="#04AF70"/></g><circle r="6" transform="matrix(-1 0 0 1 210 33)" fill="#fff"/><circle r="5.5" transform="matrix(-1 0 0 1 210 33)" stroke="#17CA8E" stroke-opacity=".2"/><circle r="6" transform="matrix(-1 0 0 1 324 182)" fill="#fff"/><circle r="5.5" transform="matrix(-1 0 0 1 324 182)" stroke="#17CA8E" stroke-opacity=".2"/><circle r="6" transform="matrix(-1 0 0 1 299 343)" fill="#fff"/><circle r="5.5" transform="matrix(-1 0 0 1 299 343)" stroke="#17CA8E" stroke-opacity=".2"/><circle r="6" transform="matrix(-1 0 0 1 55 228)" fill="#fff"/><circle r="5.5" transform="matrix(-1 0 0 1 55 228)" stroke="#17CA8E" stroke-opacity=".2"/><defs><linearGradient id="paint0_linear" x1="158.966" y1="198.161" x2="246.167" y2="193.232" gradientUnits="userSpaceOnUse"><stop stop-color="#2A82F2"/><stop offset=".969" stop-color="#2074DE"/></linearGradient><filter id="filter0_d" x="87" y="113" width="209" height="209" filterUnits="userSpaceOnUse" color-interpolation-filters="sRGB"><feFlood flood-opacity="0" result="BackgroundImageFix"/><feColorMatrix in="SourceAlpha" values="0 0 0 0 0 0 0 0 0 0 0 0 0 0 0 0 0 0 127 0"/><feOffset dy="10"/><feGaussianBlur stdDeviation="10"/><feColorMatrix values="0 0 0 0 0.313321 0 0 0 0 0.313321 0 0 0 0 0.313321 0 0 0 0.1 0"/><feBlend in2="BackgroundImageFix" result="effect1_dropShadow"/><feBlend in="SourceGraphic" in2="effect1_dropShadow" result="shape"/></filter></defs></svg>