<svg viewBox="0 0 247 220" xmlns="http://www.w3.org/2000/svg" style="padding:5px;box-sizing:border-box" overflow="hidden"><style>@-webkit-keyframes dash{0%{stroke-dashoffset:640}to{stroke-dashoffset:0}}.line.animated{opacity:1;stroke-dasharray:640;stroke-dashoffset:0;-webkit-animation:dash 1s linear forwards;-o-animation:dash 1s linear forwards;-moz-animation:dash 1s linear forwards;animation:dash 1s linear forwards}.line{opacity:0}</style><g id="Page-2" stroke="none" stroke-width="1" fill="none" fill-rule="evenodd" stroke-linejoin="round"><g id="IS_AI-Solution" transform="translate(-95 -1539)" stroke-width="2"><g id="greater-automation" transform="translate(95 1540)"><path class="line additional" d="M96.6 0C71.826 0 52.661 16.88 48.797 29.875c-17.414 2.318-29.034 17.324-29.034 35.966 0 1.443.102 2.847.25 4.239C8.76 75.59.997 90.017.997 106.983c0 10.784 4.296 23.159 11.955 30.443-3.983 17.926 2.914 53.313 39.511 50.074 10.477 23.795 30.188 35.335 68.182 28.41V0H96.599z" id="Stroke-1" stroke="#505050"/><path class="line additional" d="M84.65 65.724c-20.665 0-35.853-4.977-35.853-35.846" id="Stroke-3" stroke="#505050"/><path class="line additional" d="M48.8 101.574c9.568 6.262 25.761 3.785 34.455-5.358 11.443-12.022 24.29-13.142 37.244.404" id="Stroke-5" stroke="#505050"/><path class="line additional" d="M120.5 41.825c-14.75 5.602-30.5 1.273-35.853-11.949" id="Stroke-7" stroke="#505050"/><path class="line additional" d="M120.646 165.722c-13.648-5.125-24.233 1.59-28.41 11.363" id="Stroke-9" stroke="#505050"/><path class="line additional" d="M60.75 155.35c-9.523-1.495-17.927-10.472-17.927-17.927" id="Stroke-11" stroke="#505050"/><path class="line additional" d="M52.464 187.5c0-21.847 12.392-50.074 44.137-50.074" id="Stroke-13" stroke="#505050"/><path class="line additional" d="M137.691 0h17.046v25.875c11.364 2.142 19.75 6.017 27.937 11.267l18.722-18.318 25.551 25.352-18.216 18.96c5.25 8.188 9.228 16.41 11.37 27.773h25.545V125h-25.545c-2.142 11.364-6.023 19.182-11.273 27.37l18.318 18.437-25.347 25.409-19.125-18.29c-8.187 5.25-16.573 9.154-27.937 11.301v26.682H137.69" id="Stroke-15" stroke="#1476F2"/><path id="blue-line" class="line" d="M137.691 152.599c25.103 0 45.455-20.17 45.455-45.051s-20.352-45.046-45.455-45.046" stroke="#1476F2"/><path class="line additional" d="M30.875 84.67c9.898 0 17.926 7.006 17.926 16.903 0 7.807-4.989 15.466-11.949 17.926" id="Stroke-19" stroke="#505050"/></g></g></g><script type="text/javascript">document.animate = function(){ var isAnimated = false; var animatedElement = document.getElementById(&quot;blue-line&quot;); animatedElement.setAttribute(&quot;class&quot;, &quot;line animated&quot;); animatedElement.addEventListener(&quot;animationstart&quot;, function(){ isAnimated = true; }); if (animatedElement.addEventListener){ animatedElement.addEventListener(&quot;animationend&quot;, function(){ var elemArr = document.getElementsByClassName(&quot;additional&quot;); for (var i = elemArr.length - 1; i&gt;=0 ; i-- ){ elemArr[i].setAttribute(&quot;class&quot;, &quot;line additional animated&quot;); } }) }else if (animatedElement.attachEvent){ animatedElement.attachEvent(&quot;animationend&quot;, function(){ var elemArr = document.getElementsByClassName(&quot;additional&quot;); for (var i = elemArr.length - 1; i&gt;=0 ; i-- ){ elemArr[i].setAttribute(&quot;class&quot;, &quot;line additional animated&quot;); } }) } setTimeout(function(){ if(!isAnimated){ var elemArr = document.getElementsByClassName(&quot;additional&quot;); for (var i = elemArr.length - 1; i&gt;=0 ; i-- ){ elemArr[i].setAttribute(&quot;class&quot;, &quot;line additional animated&quot;); } } },1000) }</script></svg>