<svg viewBox="0 0 250 236" xmlns="http://www.w3.org/2000/svg" style="padding:5px;box-sizing:border-box" overflow="hidden"><style>@-webkit-keyframes dash{0%{stroke-dashoffset:640}to{stroke-dashoffset:0}}.line.animated{opacity:1;stroke-dasharray:640;stroke-dashoffset:0;-webkit-animation:dash 1s linear forwards;-o-animation:dash 1s linear forwards;-moz-animation:dash 1s linear forwards;animation:dash 1s linear forwards}.line{opacity:0}</style><g id="Page-2" stroke="none" stroke-width="1" fill="none" fill-rule="evenodd"><g id="IS_AI-Solution" transform="translate(-94 -2142)" stroke-width="2"><g id="greater-enterprise-efficiency" transform="translate(95 2143)"><path class="line additional" id="Stroke-1" stroke="#505050" d="M33.333 56.107h22.223l22.222 33.334h16.666"/><path class="line additional" d="M33.333 117.218h83.334" id="Stroke-2" stroke="#505050"/><path class="line additional" d="M33.333 56.108c0 9.206-7.46 16.667-16.666 16.667S0 65.314 0 56.108c0-9.205 7.461-16.666 16.667-16.666 9.205 0 16.666 7.46 16.666 16.666z" id="Stroke-3" stroke="#505050"/><path class="line additional" d="M33.334 117.223c0 9.205-7.461 16.666-16.667 16.666-9.205 0-16.666-7.46-16.666-16.666s7.46-16.667 16.666-16.667 16.667 7.461 16.667 16.667z" id="Stroke-5" stroke="#505050"/><path class="line additional" id="Stroke-7" stroke="#505050" d="M77.778 28.33L100 61.662h27.778"/><path class="line additional" d="M83.334 17.221c0 9.206-7.461 16.667-16.667 16.667-9.205 0-16.666-7.461-16.666-16.667C50 8.016 57.46.554 66.667.554s16.667 7.462 16.667 16.667z" id="Stroke-9" stroke="#505050"/><path class="line" d="M33.333 178.332c0-9.205-7.46-16.666-16.666-16.666S0 169.126 0 178.332 7.461 195 16.667 195c9.205 0 16.666-7.461 16.666-16.667z" id="blue-line" stroke="#1476F2"/><path class="line additional" id="Stroke-13" stroke="#505050" d="M77.778 206.107L100 172.774h27.778"/><path class="line additional" d="M83.334 217.22c0-9.206-7.461-16.667-16.667-16.667-9.205 0-16.666 7.46-16.666 16.666s7.46 16.667 16.666 16.667 16.667-7.461 16.667-16.667z" id="Stroke-15" stroke="#505050"/><path class="line additional" d="M127.778 117.218h-11.111" id="Stroke-17" stroke="#505050"/><path class="line additional" id="Stroke-19" stroke="#1476F2" d="M33.333 178.33h22.223l22.222-33.334h105.555v16.039l63.695-43.15-63.695-45.739v17.295h-55.555"/><path class="line additional" d="M161.111 117.218h11.111" id="Stroke-21" stroke="#505050"/><path class="line additional" d="M138.889 117.218H150" id="Stroke-23" stroke="#505050"/><path class="line additional" d="M138.889 61.663H150" id="Stroke-25" stroke="#505050"/><path class="line additional" d="M138.889 172.774H150" id="Stroke-27" stroke="#505050"/><path class="line additional" d="M116.667 89.44h-11.111" id="Stroke-29" stroke="#505050"/></g></g></g><script type="text/javascript">document.animate = function(){ var isAnimated = false; var animatedElement = document.getElementById(&quot;blue-line&quot;); animatedElement.setAttribute(&quot;class&quot;, &quot;line animated&quot;); animatedElement.addEventListener(&quot;animationstart&quot;, function(){ isAnimated = true; }); if (animatedElement.addEventListener){ animatedElement.addEventListener(&quot;animationend&quot;, function(){ var elemArr = document.getElementsByClassName(&quot;additional&quot;); for (var i = elemArr.length - 1; i&gt;=0 ; i-- ){ elemArr[i].setAttribute(&quot;class&quot;, &quot;line additional animated&quot;); } }) }else if (animatedElement.attachEvent){ animatedElement.attachEvent(&quot;animationend&quot;, function(){ var elemArr = document.getElementsByClassName(&quot;additional&quot;); for (var i = elemArr.length - 1; i&gt;=0 ; i-- ){ elemArr[i].setAttribute(&quot;class&quot;, &quot;line additional animated&quot;); } }) } setTimeout(function(){ if(!isAnimated){ var elemArr = document.getElementsByClassName(&quot;additional&quot;); for (var i = elemArr.length - 1; i&gt;=0 ; i-- ){ elemArr[i].setAttribute(&quot;class&quot;, &quot;line additional animated&quot;); } } },1000) }</script></svg>