<svg viewBox="0 0 187 252" xmlns="http://www.w3.org/2000/svg" style="padding:5px;box-sizing:border-box" overflow="hidden"><style>@-webkit-keyframes dash{0%{stroke-dashoffset:340}to{stroke-dashoffset:0}}.line.animated{opacity:1;stroke-dasharray:340;stroke-dashoffset:0;-webkit-animation:dash 1s linear forwards;-o-animation:dash 1s linear forwards;-moz-animation:dash 1s linear forwards;animation:dash 1s linear forwards}.line{opacity:0}</style><g id="Page-2" stroke="none" stroke-width="1" fill="none" fill-rule="evenodd"><g id="IS_AI-Solution" transform="translate(-127 -2744)" stroke-width="2"><g id="greater-business-security" transform="translate(128 2745)"><path class="line additional" id="Stroke-1" stroke="#505050" d="M70.652 206.522h43.478"/><path class="line additional" d="M76.088 173.913h0a18.561 18.561 0 0013.12 5.435h6.369c4.918 0 9.636-1.951 13.114-5.43l.005-.005" id="Stroke-2" stroke="#505050"/><path class="line additional" d="M76.087 119.565l-6.951-3.478a18.558 18.558 0 00-8.299-1.957H45.728a18.561 18.561 0 00-13.12 5.435" id="Stroke-4" stroke="#505050"/><path class="line additional" d="M70.652 135.87H43.478" id="Stroke-6" stroke="#505050"/><path class="line additional" d="M108.696 119.565l6.95-3.478a18.558 18.558 0 018.3-1.957h15.108c4.919 0 9.642 1.957 13.12 5.435" id="Stroke-8" stroke="#505050"/><path class="line additional" d="M114.13 135.87h27.174" id="Stroke-10" stroke="#505050"/><path class="line additional" d="M135.87 228.26C126.674 240.284 106.886 250 92.39 250c-14.494 0-34.282-9.717-43.478-21.74" id="Stroke-12" stroke="#505050"/><path class="line additional" d="M179.348 76.087c-2.777-16.353-10.435-34.359-23.19-48.913C132.31-.043 105.07 0 92.39 0 79.712 0 52.467-.043 28.625 27.174 15.87 41.728 8.212 59.734 5.435 76.087" id="Stroke-14" stroke="#505050"/><path class="line additional" d="M66.871 32.434c.478 17.082 36.794 33.093 63.565 45.163" id="Stroke-16" stroke="#505050"/><path class="line additional" d="M78.214 48.739c-7.36 2.674-27.25 13.358-40.169 24.695" id="Stroke-18" stroke="#505050"/><path class="line" id="blue-line" stroke="#1476F2" d="M0 130.435V92.39h38.043"/><path class="line additional" id="Stroke-22" stroke="#1476F2" d="M0 173.913v38.044h38.043"/><path class="line additional" id="Stroke-24" stroke="#1476F2" d="M184.783 130.435V92.39h-38.044"/><path class="line additional" id="Stroke-26" stroke="#1476F2" d="M184.783 173.913v38.044h-38.044"/></g></g></g><script type="text/javascript">document.animate = function(){ var isAnimated = false; var animatedElement = document.getElementById(&quot;blue-line&quot;); animatedElement.setAttribute(&quot;class&quot;, &quot;line animated&quot;); animatedElement.addEventListener(&quot;animationstart&quot;, function(){ isAnimated = true; }); if (animatedElement.addEventListener){ animatedElement.addEventListener(&quot;animationend&quot;, function(){ var elemArr = document.getElementsByClassName(&quot;additional&quot;); for (var i = elemArr.length - 1; i&gt;=0 ; i-- ){ elemArr[i].setAttribute(&quot;class&quot;, &quot;line additional animated&quot;); } }) }else if (animatedElement.attachEvent){ animatedElement.attachEvent(&quot;animationend&quot;, function(){ var elemArr = document.getElementsByClassName(&quot;additional&quot;); for (var i = elemArr.length - 1; i&gt;=0 ; i-- ){ elemArr[i].setAttribute(&quot;class&quot;, &quot;line additional animated&quot;); } }) } setTimeout(function(){ if(!isAnimated){ var elemArr = document.getElementsByClassName(&quot;additional&quot;); for (var i = elemArr.length - 1; i&gt;=0 ; i-- ){ elemArr[i].setAttribute(&quot;class&quot;, &quot;line additional animated&quot;); } } },1000) }</script></svg>