<svg viewBox="0 0 209 252" xmlns="http://www.w3.org/2000/svg" style="padding:5px;box-sizing:border-box" overflow="hidden"><style>@-webkit-keyframes dash{0%{stroke-dashoffset:540}to{stroke-dashoffset:0}}.line.animated{opacity:1;stroke-dasharray:540;stroke-dashoffset:0;-webkit-animation:dash 1s linear forwards;-o-animation:dash 1s linear forwards;-moz-animation:dash 1s linear forwards;animation:dash 1s linear forwards}.line{opacity:0}</style><g id="Page-2" stroke="none" stroke-width="1" fill="none" fill-rule="evenodd"><g id="IS_AI-Solution" transform="translate(-117 -3326)" stroke-width="2"><g id="greater-productivity" transform="translate(118 3327)"><path class="line additional" d="M130.435 114.13v119.566c0 9.005-7.3 16.304-16.305 16.304H16.304C7.3 250 0 242.701 0 233.696V43.478c0-9.005 7.299-16.304 16.304-16.304h32.609" id="Stroke-1" stroke="#505050" stroke-linejoin="round"/><path class="line additional" d="M0 217.391h130.435" id="Stroke-3" stroke="#505050" stroke-linejoin="round"/><path class="line additional" d="M0 54.348h48.913" id="Stroke-5" stroke="#505050" stroke-linejoin="round"/><path class="line additional" d="M54.348 233.696h21.739" id="Stroke-7" stroke="#505050" stroke-linejoin="round"/><path class="line" d="M0 171.17l14.603-19.391c2.457-3.261 8.843-2.555 9.99 1.108l8.31 26.473c1.385 4.43 9.706 4.185 10.646-.315l7.641-36.51c.99-4.75 9.935-4.648 10.756.119l8.445 49.37c.81 4.722 9.636 4.885 10.74.2l8.054-34.217c.983-4.196 8.57-4.685 10.456-.674l7.348 15.609c1.511 3.206 7.125 3.744 9.614.924 0 0 4.55-5.174 7.038-7.261 2.49-2.082 6.794-2.256 6.794-2.256" id="blue-line" stroke="#1476F2"/><path class="line additional" d="M195.652 0h-125c-6.005 0-10.87 4.864-10.87 10.87v76.087c0 6.005 4.865 10.87 10.87 10.87h16.305v23.347c0 5.049 6.277 7.37 9.56 3.538l23.048-26.886h76.087c6.006 0 10.87-4.864 10.87-10.87V10.87c0-6.006-4.864-10.87-10.87-10.87z" id="Stroke-11" stroke="#505050" stroke-linejoin="round"/></g></g></g><script type="text/javascript">document.animate = function(){ var isAnimated = false; var animatedElement = document.getElementById(&quot;blue-line&quot;); animatedElement.setAttribute(&quot;class&quot;, &quot;line animated&quot;); animatedElement.addEventListener(&quot;animationstart&quot;, function(){ isAnimated = true; }); if (animatedElement.addEventListener){ animatedElement.addEventListener(&quot;animationend&quot;, function(){ var elemArr = document.getElementsByClassName(&quot;additional&quot;); for (var i = elemArr.length - 1; i&gt;=0 ; i-- ){ elemArr[i].setAttribute(&quot;class&quot;, &quot;line additional animated&quot;); } }) }else if (animatedElement.attachEvent){ animatedElement.attachEvent(&quot;animationend&quot;, function(){ var elemArr = document.getElementsByClassName(&quot;additional&quot;); for (var i = elemArr.length - 1; i&gt;=0 ; i-- ){ elemArr[i].setAttribute(&quot;class&quot;, &quot;line additional animated&quot;); } }) } setTimeout(function(){ if(!isAnimated){ var elemArr = document.getElementsByClassName(&quot;additional&quot;); for (var i = elemArr.length - 1; i&gt;=0 ; i-- ){ elemArr[i].setAttribute(&quot;class&quot;, &quot;line additional animated&quot;); } } },1000) }</script></svg>