<svg viewBox="0 0 247 247" xmlns="http://www.w3.org/2000/svg" style="padding:5px;box-sizing:border-box" overflow="hidden"><style>@-webkit-keyframes dash{0%{stroke-dashoffset:640}to{stroke-dashoffset:0}}.line.animated{opacity:1;stroke-dasharray:640;stroke-dashoffset:0;-webkit-animation:dash 1s linear forwards;-o-animation:dash 1s linear forwards;-moz-animation:dash 1s linear forwards;animation:dash 1s linear forwards}.line{opacity:0}</style><g id="Page-2" stroke="none" stroke-width="1" fill="none" fill-rule="evenodd"><g id="IS_Augmented-reality" transform="translate(-98 -2381)" stroke-width="2"><g id="dimension-for-operations" transform="translate(99 2382)"><path class="line additional" d="M164.894 122.724l15.952 3.99" id="Stroke-1" stroke="#505050"/><path class="line additional" d="M122.34 112.086l31.92 7.979" id="Stroke-2" stroke="#505050"/><path class="line additional" id="Stroke-3" stroke="#505050" d="M85.107 116.586l15.958-9.819 10.638 2.66"/><path class="line additional" d="M57.848 133.362l16.617-10.229" id="Stroke-4" stroke="#505050"/><path class="line additional" id="Stroke-5" stroke="#505050" d="M191.488 129.373l15.958 3.99v5.318l-69.15 42.554-106.382-26.596v-5.32L49.2 138.682"/><path class="line additional" id="Stroke-6" stroke="#505050" d="M138.298 74.852L31.915 42.937 101.064.384 207.447 26.98z"/><path class="line additional" d="M31.915 43.406V149.32" id="Stroke-8" stroke="#505050"/><path class="line additional" d="M138.298 74.852v106.383" id="Stroke-9" stroke="#505050"/><path class="line additional" d="M101.064 90.81v15.957" id="Stroke-10" stroke="#505050"/><path class="line additional" d="M101.064.384v15.957" id="Stroke-11" stroke="#505050"/><path class="line additional" d="M101.064 26.98v21.276" id="Stroke-13" stroke="#505050"/><path class="line additional" d="M101.064 58.895V80.17" id="Stroke-14" stroke="#505050"/><path class="line additional" d="M207.447 26.98v106.383" id="Stroke-15" stroke="#505050"/><path class="line" d="M15.139 112.642C2.203 123.94 0 137.456 0 151.982c0 39.655 48.223 71.809 117.43 71.809h10.23" id="blue-line" stroke="#1476F2"/><path class="line additional" d="M223.406 108.501c16.686 12.07 21.276 27.138 21.276 43.479 0 35.154-40.526 64.41-101.069 70.6" id="Stroke-18" stroke="#505050"/><path class="line additional" stroke="#1476F2" d="M106.383 202.512l21.277 21.276-21.277 21.277"/></g></g></g><script type="text/javascript">document.animate = function(){ var isAnimated = false; var animatedElement = document.getElementById(&quot;blue-line&quot;); animatedElement.setAttribute(&quot;class&quot;, &quot;line animated&quot;); animatedElement.addEventListener(&quot;animationstart&quot;, function(){ isAnimated = true; }); if (animatedElement.addEventListener){ animatedElement.addEventListener(&quot;animationend&quot;, function(){ var elemArr = document.getElementsByClassName(&quot;additional&quot;); for (var i = elemArr.length - 1; i&gt;=0 ; i-- ){ elemArr[i].setAttribute(&quot;class&quot;, &quot;line additional animated&quot;); } }) }else if (animatedElement.attachEvent){ animatedElement.attachEvent(&quot;animationend&quot;, function(){ var elemArr = document.getElementsByClassName(&quot;additional&quot;); for (var i = elemArr.length - 1; i&gt;=0 ; i-- ){ elemArr[i].setAttribute(&quot;class&quot;, &quot;line additional animated&quot;); } }) } setTimeout(function(){ if(!isAnimated){ var elemArr = document.getElementsByClassName(&quot;additional&quot;); for (var i = elemArr.length - 1; i&gt;=0 ; i-- ){ elemArr[i].setAttribute(&quot;class&quot;, &quot;line additional animated&quot;); } } },1000) }</script></svg>