<svg viewBox="0 0 203 251" xmlns="http://www.w3.org/2000/svg" style="padding:5px;box-sizing:border-box" overflow="hidden"><style>@-webkit-keyframes dash{0%{stroke-dashoffset:640}to{stroke-dashoffset:0}}.line.animated{opacity:1;stroke-dasharray:640;stroke-dashoffset:0;-webkit-animation:dash 1s linear forwards;-o-animation:dash 1s linear forwards;-moz-animation:dash 1s linear forwards;animation:dash 1s linear forwards}.line{opacity:0}</style><g id="Page-2" stroke="none" stroke-width="1" fill="none" fill-rule="evenodd"><g id="IS_Augmented-reality" transform="translate(-119 -2985)" stroke-width="2"><g id="dimension-for-manufacturing" transform="translate(120 2986)"><path class="line additional" d="M174.549 69.149C174.905 22.42 144.34 0 100.08 0 55.82 0 25.256 22.42 25.613 69.149" id="Stroke-1" stroke="#505050"/><path class="line additional" d="M169.23 164.893v15.958c0 13.861-6.016 21.047-16.442 30.18-7.478 6.554-16.383 13.23-24.298 19.027a48.03 48.03 0 01-56.819 0c-7.915-5.798-16.819-12.473-24.298-19.027-10.43-9.133-16.441-16.319-16.441-30.18v-15.958" id="Stroke-3" stroke="#505050"/><path class="line additional" d="M46.89 212.766V250" id="Stroke-5" stroke="#505050"/><path class="line additional" d="M153.272 212.766V250" id="Stroke-7" stroke="#505050"/><path class="line" d="M200.16 81.534a23.55 23.55 0 00-.027-.68c-.149-1.017-.835-2.219-1.622-2.783 0 0-.32-.223-.952-.595-4.772-2.602-16.846-8.112-39.032-12.107-14.575-2.532-33.713-4.43-58.442-4.43-24.74 0-43.883 1.898-58.452 4.43-22.17 3.99-34.24 9.495-39.021 12.101-.639.383-.963.607-.963.607-.782.558-1.468 1.766-1.622 2.77-.006.203-.016.437-.022.671l.202 28.862c.011.356.128.665.304.899.51 2.686 1.638 8.462 2.702 12.6 9.271 36.097 56.133 36.448 74.941 36.448 8.436 0 13.83-16.4 21.931-16.4s13.495 16.4 21.931 16.4c18.803 0 65.67-.351 74.936-36.447 1.505-5.857 3.107-14.894 3.107-14.894.01-.058-.006-.112 0-.17 0-.037.031-.064.031-.101l.07-27.181z" id="blue-line" stroke="#1476F2"/><path class="line additional" d="M188.775 99.026s-.053-.015-.1-.024c-17.391-5.127-44.22-10.89-78.738-11.843a227.815 227.815 0 00-9.85-.225c-3.128 0-6.304.081-9.495.22-34.796.977-61.71 7.133-79.063 12.571l-.024.005-.004.005" stroke="#1476F2"/></g></g></g><script type="text/javascript">document.animate = function(){ var isAnimated = false; var animatedElement = document.getElementById(&quot;blue-line&quot;); animatedElement.setAttribute(&quot;class&quot;, &quot;line animated&quot;); animatedElement.addEventListener(&quot;animationstart&quot;, function(){ isAnimated = true; }); if (animatedElement.addEventListener){ animatedElement.addEventListener(&quot;animationend&quot;, function(){ var elemArr = document.getElementsByClassName(&quot;additional&quot;); for (var i = elemArr.length - 1; i&gt;=0 ; i-- ){ elemArr[i].setAttribute(&quot;class&quot;, &quot;line additional animated&quot;); } }) }else if (animatedElement.attachEvent){ animatedElement.attachEvent(&quot;animationend&quot;, function(){ var elemArr = document.getElementsByClassName(&quot;additional&quot;); for (var i = elemArr.length - 1; i&gt;=0 ; i-- ){ elemArr[i].setAttribute(&quot;class&quot;, &quot;line additional animated&quot;); } }) } setTimeout(function(){ if(!isAnimated){ var elemArr = document.getElementsByClassName(&quot;additional&quot;); for (var i = elemArr.length - 1; i&gt;=0 ; i-- ){ elemArr[i].setAttribute(&quot;class&quot;, &quot;line additional animated&quot;); } } },1000) }</script></svg>