<svg viewBox="0 0 252 252" xmlns="http://www.w3.org/2000/svg" style="padding:5px;box-sizing:border-box" overflow="hidden"><style>@-webkit-keyframes dash{0%{stroke-dashoffset:640}to{stroke-dashoffset:0}}.line.animated{opacity:1;stroke-dasharray:640;stroke-dashoffset:0;-webkit-animation:dash 1s linear forwards;-o-animation:dash 1s linear forwards;-moz-animation:dash 1s linear forwards;animation:dash 1s linear forwards}.line{opacity:0}</style><g id="Page-2" stroke="none" stroke-width="1" fill="none" fill-rule="evenodd"><g id="IS_Augmented-reality" transform="translate(-95 -4179)" stroke-width="2"><g id="dimension-for-productivity" transform="translate(96 4180)"><g id="Page-1"><path class="line additional" d="M154.957 195.854c0 3.93-6.527 9.45-10.76 10.76-.452 1.74.662 4.99 2.135 9.675 4.049 12.89-4.897 23.097-16.685 23.097-8.45 0-55.233-13.945-62.26-23.576l-18.473-28.032" id="Stroke-1" stroke="#505050"/><path class="line additional" d="M82.4 224.753l-5.826 25.244" id="Stroke-3" stroke="#505050"/><path class="line additional" d="M158.58 125c6.968 9.43 16.663 22.332 16.663 28.5 0 8.87-10.75 9.565-18.336 10.685 1.657 8.88 8.614 13.141 7.13 15.733-1.484 2.598-24.62 6.174-38.326 6.174" id="Stroke-5" stroke="#505050"/><path class="line additional" d="M48.913 0c21.924 0 42.788 6.114 56.69 11.842 39.125 16.12 52.522 55.8 52.114 77.158" id="Stroke-7" stroke="#505050"/><path class="line additional" d="M27.174 114.13h76.087c6.114 10.87 21.739 21.74 38.043 21.74 16.305 0 27.174-24.908 27.174-32.61 0-2.945.19-5.434 0-10.869H32.608C9.06 92.391 0 105.071 0 125v10.87" id="Stroke-9" stroke="#505050"/><path class="line" id="blue-line" stroke="#1476F2" d="M179.348 119.565L250 168.478V27.174l-76.087 54.348"/></g></g></g></g><script type="text/javascript">document.animate = function(){ var isAnimated = false; var animatedElement = document.getElementById(&quot;blue-line&quot;); animatedElement.setAttribute(&quot;class&quot;, &quot;line animated&quot;); animatedElement.addEventListener(&quot;animationstart&quot;, function(){ isAnimated = true; }); if (animatedElement.addEventListener){ animatedElement.addEventListener(&quot;animationend&quot;, function(){ var elemArr = document.getElementsByClassName(&quot;additional&quot;); for (var i = elemArr.length - 1; i&gt;=0 ; i-- ){ elemArr[i].setAttribute(&quot;class&quot;, &quot;line additional animated&quot;); } }) }else if (animatedElement.attachEvent){ animatedElement.attachEvent(&quot;animationend&quot;, function(){ var elemArr = document.getElementsByClassName(&quot;additional&quot;); for (var i = elemArr.length - 1; i&gt;=0 ; i-- ){ elemArr[i].setAttribute(&quot;class&quot;, &quot;line additional animated&quot;); } }) } setTimeout(function(){ if(!isAnimated){ var elemArr = document.getElementsByClassName(&quot;additional&quot;); for (var i = elemArr.length - 1; i&gt;=0 ; i-- ){ elemArr[i].setAttribute(&quot;class&quot;, &quot;line additional animated&quot;); } } },1000) }</script></svg>