<svg viewBox="0 0 250 250" xmlns="http://www.w3.org/2000/svg" style="padding:5px;box-sizing:border-box" overflow="hidden"><style>@-webkit-keyframes dash{0%{stroke-dashoffset:100}to{stroke-dashoffset:0}}@-webkit-keyframes dash_big{0%{stroke-dashoffset:460}to{stroke-dashoffset:0}}.line.animated,.polygon.animated{opacity:1;stroke-dasharray:100;stroke-dashoffset:0;-webkit-animation:dash 1s linear forwards;-o-animation:dash 1s linear forwards;-moz-animation:dash 1s linear forwards;animation:dash 1s linear forwards}.polygon.animated{stroke-dasharray:460;-webkit-animation:dash_big 1s linear forwards;-o-animation:dash_big 1s linear forwards;-moz-animation:dash_big 1s linear forwards;animation:dash_big 1s linear forwards}.line{opacity:0}</style><script type="text/javascript">document.animate = function(){ var isAnimated = false; var animatedElement = document.getElementById(&quot;Stroke-20&quot;); animatedElement.setAttribute(&quot;class&quot;,&quot;polygon animated&quot;); animatedElement.addEventListener(&quot;animationstart&quot;, function(){ isAnimated = true; }); if(animatedElement.addEventListener){ animatedElement.addEventListener(&quot;animationend&quot;, function(){ var elemArr = document.getElementsByClassName(&quot;line-path&quot;); for(var i = elemArr.length - 1; i&gt;=0; i--){ elemArr[i].setAttribute(&quot;class&quot;,&quot;line line-path animated&quot;); } }); }else if (animatedElement.attachEvent){ animatedElement.attachEvent(&quot;animationend&quot;, function(){ var elemArr = document.getElementsByClassName(&quot;line-path&quot;); for(var i = elemArr.length - 1; i&gt;=0; i--){ elemArr[i].setAttribute(&quot;class&quot;,&quot;line line-path animated&quot;); } }) } if(!isAnimated){ var elemArr = document.getElementsByClassName(&quot;line-path&quot;); for (var i = elemArr.length - 1; i&gt;=0 ; i-- ){ elemArr[i].setAttribute(&quot;class&quot;, &quot;line line-path animated&quot;); } } }</script><g id="Page-2" stroke="none" stroke-width="1" fill="none" fill-rule="evenodd"><g id="IS_Azure_1200" transform="translate(-96 -2840)" stroke-width="2"><g id="icon3" transform="translate(96 2840)"><g id="Group-19" stroke="#505050"><path id="Stroke-1" class="line line-path" d="M0 81.522h27.174l21.739 21.739h16.304"/><path d="M0 125h65.217" id="Stroke-3" class="line line-path"/><path id="Stroke-5" class="line line-path" d="M0 168.478h26.723l21.516-21.739h16.978"/><path d="M125 250v-70.652" id="Stroke-7" class="line line-path"/><path id="Stroke-9" class="line line-path" d="M168.478 250v-32.609l-21.739-16.304v-21.74"/><path id="Stroke-11" class="line line-path" d="M81.522 250v-32.609l21.739-16.304v-21.74"/><path d="M125 0v70.652" id="Stroke-13" class="line line-path"/><path id="Stroke-15" class="line line-path" d="M168.478 0v32.609L146.74 48.913v21.74"/><path id="Stroke-17" class="line line-path" d="M81.522 0v32.609l21.739 16.304v21.74"/></g><path id="Stroke-20" stroke="#505050" class="polygon" d="M65.217 179.348h119.566V70.652H65.217z"/><path id="Stroke-21" stroke="#1476F2" d="M108.696 146.74h32.608v-43.48h-32.608z"/><path d="M86.957 97.826v10.87" id="Stroke-22" stroke="#505050"/><path d="M86.957 119.565v10.87" id="Stroke-23" stroke="#505050"/><path d="M86.957 141.304v10.87" id="Stroke-24" stroke="#505050"/><path d="M163.043 97.826v10.87" id="Stroke-25" stroke="#505050"/><path d="M163.043 119.565v10.87" id="Stroke-26" stroke="#505050"/><path d="M163.043 141.304v10.87" id="Stroke-27" stroke="#505050"/><g id="Group-34" transform="translate(184.783 81.522)" stroke="#505050"><path id="Stroke-28" class="line line-path" d="M65.217 0H38.043L16.304 21.74H0"/><path d="M65.217 43.478H0" class="line line-path" id="Stroke-30"/><path id="Stroke-32" class="line line-path" d="M65.217 86.957H38.495l-21.517-21.74H0"/></g><path id="Stroke-35" class="line line-path" stroke="#505050" d="M173.913 70.652v-10.87l21.74-21.739V21.74"/><path id="Stroke-36" class="line line-path" stroke="#505050" d="M76.087 70.652v-10.87l-21.74-21.739V21.74"/><path id="Stroke-37" class="line line-path" stroke="#505050" d="M173.913 179.348v10.87l21.74 21.739v16.304"/><path id="Stroke-38" class="line line-path" stroke="#505050" d="M76.087 179.348v10.87l-21.74 21.739v16.304"/></g></g></g></svg>