<svg viewBox="0 0 198 252" xmlns="http://www.w3.org/2000/svg" style="padding:5px;box-sizing:border-box" overflow="hidden"><style>@-webkit-keyframes dash{0%{stroke-dashoffset:640}to{stroke-dashoffset:0}}.line.animated{opacity:1;stroke-dasharray:700;stroke-dashoffset:0;-webkit-animation:dash 1s linear forwards;-o-animation:dash 1s linear forwards;-moz-animation:dash 1s linear forwards;animation:dash 1s linear forwards}.line{opacity:0}</style><g id="Page-2" stroke="none" stroke-width="1" fill="none" fill-rule="evenodd"><g id="Шсщт" transform="translate(1 1)" stroke-width="2"><path class="line additional" d="M163.043 27.174h21.74c6.003 0 10.87 4.866 10.87 10.87V239.13c0 6.004-4.867 10.87-10.87 10.87H10.87C4.866 250 0 245.134 0 239.13V38.043c0-6.003 4.866-10.87 10.87-10.87h21.739" id="Stroke-1" stroke="#505050"/><path class="line additional" id="Stroke-3" stroke="#505050" d="M163.043 48.913h10.87v179.348H21.739V48.913h10.87"/><path class="line additional" d="M135.87 21.74h-16.305C119.565 9.731 109.833 0 97.826 0 85.82 0 76.087 9.732 76.087 21.74H59.783c-9.005 0-16.305 7.299-16.305 16.303v16.305h108.696V38.043c0-9.004-7.3-16.304-16.304-16.304z" id="Stroke-5" stroke="#505050"/><path class="line additional" id="Stroke-7" stroke="#505050" d="M97.826 16.304v10.87"/><path class="line additional" id="Stroke-9" stroke="#1476F2" d="M48.913 97.826l13.834 11.858 18.775-22.727"/><path class="line additional" id="Stroke-11" stroke="#1476F2" d="M48.913 141.304l13.834 11.858 18.775-22.727"/><path class="line additional" id="Stroke-13" stroke="#1476F2" d="M48.913 184.783l13.834 11.857 18.775-22.727"/><path class="line additional" d="M146.74 97.826h-38.044 38.043z" id="Stroke-15" stroke="#1476F2"/><path class="line additional" d="M146.74 141.304h-38.044 38.043z" id="Stroke-17" stroke="#1476F2"/><path class="line" d="M146.74 184.783h-38.044 38.043z" id="blue-line" stroke="#1476F2"/></g></g><script type="text/javascript">document.animate = function(){ var isAnimated = false; var animatedElement = document.getElementById(&quot;blue-line&quot;); animatedElement.setAttribute(&quot;class&quot;, &quot;line animated&quot;); animatedElement.addEventListener(&quot;animationstart&quot;, function(){ isAnimated = true; }); if (animatedElement.addEventListener){ animatedElement.addEventListener(&quot;animationend&quot;, function(){ var elemArr = document.getElementsByClassName(&quot;additional&quot;); for (var i = elemArr.length - 1; i&gt;=0 ; i-- ){ elemArr[i].setAttribute(&quot;class&quot;, &quot;line additional animated&quot;); } }) }else if (animatedElement.attachEvent){ animatedElement.attachEvent(&quot;animationend&quot;, function(){ var elemArr = document.getElementsByClassName(&quot;additional&quot;); for (var i = elemArr.length - 1; i&gt;=0 ; i-- ){ elemArr[i].setAttribute(&quot;class&quot;, &quot;line additional animated&quot;); } }) } setTimeout(function(){ if(!isAnimated){ var elemArr = document.getElementsByClassName(&quot;additional&quot;); for (var i = elemArr.length - 1; i&gt;=0 ; i-- ){ elemArr[i].setAttribute(&quot;class&quot;, &quot;line additional animated&quot;); } } },1000) }</script></svg>