<svg viewBox="0 0 252 236" xmlns="http://www.w3.org/2000/svg" style="padding:5px;box-sizing:border-box" overflow="hidden"><style>@-webkit-keyframes dash{0%{stroke-dashoffset:640}to{stroke-dashoffset:0}}.line.animated{opacity:1;stroke-dasharray:700;stroke-dashoffset:0;-webkit-animation:dash 1s linear forwards;-o-animation:dash 1s linear forwards;-moz-animation:dash 1s linear forwards;animation:dash 1s linear forwards}.line{opacity:0}</style><g id="Page-1" stroke="none" stroke-width="1" fill="none" fill-rule="evenodd"><g id="Icon4" transform="translate(1 1)"><path class="line additional" d="M233.696 233.696H16.304C7.3 233.696 0 226.396 0 217.39v-10.87h97.826l5.435 5.436h43.478l5.435-5.435H250v10.87c0 9.005-7.299 16.304-16.304 16.304z" id="Stroke-1" stroke="#505050"/><path class="line additional" id="Stroke-3" stroke="#505050" d="M16.304 206.522v-16.305"/><path class="line additional" d="M114.13 59.783h108.696c6 0 10.87 4.87 10.87 10.87v135.869" id="Stroke-5" stroke="#505050"/><path class="line additional" d="M103.26 125v43.478c0 6-4.869 10.87-10.869 10.87H10.87c-6 0-10.87-4.87-10.87-10.87V10.87C0 4.87 4.87 0 10.87 0h81.52c6 0 10.87 4.87 10.87 10.87v81.52" id="Stroke-7" stroke="#1476F2"/><path class="line additional" id="Stroke-9" stroke="#1476F2" d="M0 146.739h103.261"/><path class="line additional" id="Stroke-11" stroke="#1476F2" d="M103.261 27.174H0"/><path class="line additional" id="Stroke-13" stroke="#1476F2" d="M43.478 163.043h16.305"/><path class="line additional" id="Stroke-15" stroke="#1476F2" d="M152.174 108.696H54.348"/><path class="line" id="blue-line" stroke="#1476F2" d="M70.652 125l-16.304-16.304L70.652 92.39"/><path class="line additional" id="Stroke-19" stroke="#1476F2" d="M135.87 125l16.304-16.304L135.87 92.39"/></g></g><script type="text/javascript">document.animate = function(){ var isAnimated = false; var animatedElement = document.getElementById(&quot;blue-line&quot;); animatedElement.setAttribute(&quot;class&quot;, &quot;line animated&quot;); animatedElement.addEventListener(&quot;animationstart&quot;, function(){ isAnimated = true; }); if (animatedElement.addEventListener){ animatedElement.addEventListener(&quot;animationend&quot;, function(){ var elemArr = document.getElementsByClassName(&quot;additional&quot;); for (var i = elemArr.length - 1; i&gt;=0 ; i-- ){ elemArr[i].setAttribute(&quot;class&quot;, &quot;line additional animated&quot;); } }) }else if (animatedElement.attachEvent){ animatedElement.attachEvent(&quot;animationend&quot;, function(){ var elemArr = document.getElementsByClassName(&quot;additional&quot;); for (var i = elemArr.length - 1; i&gt;=0 ; i-- ){ elemArr[i].setAttribute(&quot;class&quot;, &quot;line additional animated&quot;); } }) } setTimeout(function(){ if(!isAnimated){ var elemArr = document.getElementsByClassName(&quot;additional&quot;); for (var i = elemArr.length - 1; i&gt;=0 ; i-- ){ elemArr[i].setAttribute(&quot;class&quot;, &quot;line additional animated&quot;); } } },1000) }</script></svg>