<svg viewBox="0 0 252 181" xmlns="http://www.w3.org/2000/svg" style="padding:5px;box-sizing:border-box" overflow="hidden"><style>@-webkit-keyframes dash{0%{stroke-dashoffset:640}to{stroke-dashoffset:0}}.line.animated{opacity:1;stroke-dasharray:700;stroke-dashoffset:0;-webkit-animation:dash 1s linear forwards;-o-animation:dash 1s linear forwards;-moz-animation:dash 1s linear forwards;animation:dash 1s linear forwards}.line{opacity:0}</style><g id="Page-1" stroke="none" stroke-width="1" fill="none" fill-rule="evenodd"><g id="Icon3" transform="translate(1 1)"><path class="line additional" d="M103.26 103.26v65.218c0 6-4.869 10.87-10.869 10.87H10.87c-6 0-10.87-4.87-10.87-10.87V10.87C0 4.87 4.87 0 10.87 0h81.52c6 0 10.87 4.87 10.87 10.87v59.782" id="Stroke-1" stroke="#1476F2"/><path class="line additional" d="M130.435 103.26v32.61c0 6 4.87 10.87 10.87 10.87h76.086c6 0 10.87-4.87 10.87-10.87V43.478c0-6-4.87-10.87-10.87-10.87h-76.087c-6 0-10.87 4.87-10.87 10.87v27.174" id="Stroke-3" stroke="#505050"/><path class="line additional" id="Stroke-5" stroke="#505050" d="M146.74 146.74v32.608h65.217v-32.609"/><path class="line additional" id="Stroke-7" stroke="#505050" d="M211.957 32.609V0h-65.218v32.609"/><path class="line additional" id="Stroke-9" stroke="#1476F2" d="M0 146.739h103.261"/><path class="line additional" id="Stroke-11" stroke="#1476F2" d="M103.261 27.174H0"/><path class="line additional" id="Stroke-13" stroke="#1476F2" d="M43.478 163.043h16.305"/><path class="line additional" id="Stroke-15" stroke="#1476F2" d="M179.348 86.957H48.913"/><path class="line" id="blue-line" stroke="#1476F2" d="M65.217 103.26L48.913 86.958l16.304-16.305"/><path class="line" stroke="#1476F2" d="M163.043 103.26l16.305-16.303-16.305-16.305"/><path class="line additional" d="M239.13 70.652h5.435c3 0 5.435 2.435 5.435 5.435v21.74c0 3-2.435 5.434-5.435 5.434h-5.435" id="Stroke-21" stroke="#505050"/></g></g><script type="text/javascript">document.animate = function(){ var isAnimated = false; var animatedElement = document.getElementById(&quot;blue-line&quot;); animatedElement.setAttribute(&quot;class&quot;, &quot;line animated&quot;); animatedElement.addEventListener(&quot;animationstart&quot;, function(){ isAnimated = true; }); if (animatedElement.addEventListener){ animatedElement.addEventListener(&quot;animationend&quot;, function(){ var elemArr = document.getElementsByClassName(&quot;additional&quot;); for (var i = elemArr.length - 1; i&gt;=0 ; i-- ){ elemArr[i].setAttribute(&quot;class&quot;, &quot;line additional animated&quot;); } }) }else if (animatedElement.attachEvent){ animatedElement.attachEvent(&quot;animationend&quot;, function(){ var elemArr = document.getElementsByClassName(&quot;additional&quot;); for (var i = elemArr.length - 1; i&gt;=0 ; i-- ){ elemArr[i].setAttribute(&quot;class&quot;, &quot;line additional animated&quot;); } }) } setTimeout(function(){ if(!isAnimated){ var elemArr = document.getElementsByClassName(&quot;additional&quot;); for (var i = elemArr.length - 1; i&gt;=0 ; i-- ){ elemArr[i].setAttribute(&quot;class&quot;, &quot;line additional animated&quot;); } } },1000) }</script></svg>