<svg viewBox="0 0 204 251" xmlns="http://www.w3.org/2000/svg" style="padding:5px;box-sizing:border-box" overflow="hidden"><style>@-webkit-keyframes dash{0%{stroke-dashoffset:640}to{stroke-dashoffset:0}}.line.animated{opacity:1;stroke-dasharray:700;stroke-dashoffset:0;-webkit-animation:dash 1s linear forwards;-o-animation:dash 1s linear forwards;-moz-animation:dash 1s linear forwards;animation:dash 1s linear forwards}.line{opacity:0}</style><g id="Page-1" stroke="none" stroke-width="1" fill="none" fill-rule="evenodd"><g id="Icon2" transform="translate(1 1)"><path class="line additional" d="M175.532 69.149C175.883 22.42 145.324 0 101.064 0c-44.26 0-74.825 22.42-74.468 69.149" id="Stroke-1" stroke="#505050"/><path class="line additional" d="M189.93 157.211l-53.627 13a31.228 31.228 0 01-16.058-4.447l-8.234-4.941a21.278 21.278 0 00-21.894 0l-8.24 4.941a31.209 31.209 0 01-16.053 4.447l-53.627-13A15.954 15.954 0 010 141.706V85.105c0-8.814 7.144-15.958 15.957-15.958H186.17c8.814 0 15.958 7.144 15.958 15.958v56.6a15.948 15.948 0 01-12.197 15.506z" id="Stroke-3" stroke="#1476F2"/><path class="line additional" d="M170.213 175.532v5.32c0 13.86-6.016 21.047-16.442 30.18-7.478 6.548-16.383 13.223-24.298 19.027a48.03 48.03 0 01-56.819 0c-7.92-5.804-16.819-12.48-24.298-19.027-10.43-9.133-16.441-16.32-16.441-30.18v-5.32" id="Stroke-5" stroke="#505050"/><path class="line additional" id="Stroke-7" stroke="#505050" d="M47.872 212.766V250"/><path class="line additional" id="Stroke-9" stroke="#505050" d="M154.255 212.766V250"/><path class="line additional" id="Stroke-11" stroke="#1476F2" d="M85.106 85.106h31.915"/><path class="line additional" id="Stroke-13" stroke="#1476F2" d="M15.957 85.106v47.873"/><path class="line" id="blue-line" stroke="#1476F2" d="M186.17 85.106v47.873"/></g></g><script type="text/javascript">document.animate = function(){ var isAnimated = false; var animatedElement = document.getElementById(&quot;blue-line&quot;); animatedElement.setAttribute(&quot;class&quot;, &quot;line animated&quot;); animatedElement.addEventListener(&quot;animationstart&quot;, function(){ isAnimated = true; }); if (animatedElement.addEventListener){ animatedElement.addEventListener(&quot;animationend&quot;, function(){ var elemArr = document.getElementsByClassName(&quot;additional&quot;); for (var i = elemArr.length - 1; i&gt;=0 ; i-- ){ elemArr[i].setAttribute(&quot;class&quot;, &quot;line additional animated&quot;); } }) }else if (animatedElement.attachEvent){ animatedElement.attachEvent(&quot;animationend&quot;, function(){ var elemArr = document.getElementsByClassName(&quot;additional&quot;); for (var i = elemArr.length - 1; i&gt;=0 ; i-- ){ elemArr[i].setAttribute(&quot;class&quot;, &quot;line additional animated&quot;); } }) } setTimeout(function(){ if(!isAnimated){ var elemArr = document.getElementsByClassName(&quot;additional&quot;); for (var i = elemArr.length - 1; i&gt;=0 ; i-- ){ elemArr[i].setAttribute(&quot;class&quot;, &quot;line additional animated&quot;); } } },1000) }</script></svg>