<svg width="89" height="95" xmlns="http://www.w3.org/2000/svg"><style>@-webkit-keyframes dash{0%{fill-opacity:0}to{fill-opacity:1}}@-moz-keyframes dash{0%{fill-opacity:0}to{fill-opacity:1}}.dot.animated{-webkit-animation:dash .5s linear forwards;-o-animation:dash .5s linear forwards;-moz-animation:dash .5s linear forwards;animation:dash .5s linear forwards}.dot{fill:#1476f2;fill-opacity:0}</style><g id="Page-1" stroke="none" stroke-width="1" fill="none" fill-rule="evenodd"><g id="line-dots-up-4-5" transform="matrix(1 0 0 -1 0 95)" fill="#1476F2" fill-rule="nonzero"><path class="dot" d="M.668 3.38c.648.51 1.582.39 2.085-.268A1.526 1.526 0 002.48.99a1.463 1.463 0 00-2.085.268A1.538 1.538 0 00.668 3.38" id="22"/><path class="dot" d="M19.01 16.31a1.51 1.51 0 00-.163-2.125 1.478 1.478 0 00-2.105.16 1.522 1.522 0 00.163 2.126 1.488 1.488 0 002.105-.161" id="23"/><path class="dot" d="M32.396 30.432a1.504 1.504 0 002.12-.05 1.497 1.497 0 00-.051-2.123 1.495 1.495 0 00-2.12.051 1.506 1.506 0 00.051 2.122" id="24"/><path class="dot" d="M49.226 45.283a1.48 1.48 0 00.059-2.112 1.509 1.509 0 00-2.13-.059 1.49 1.49 0 00-.058 2.112 1.52 1.52 0 002.129.06" id="25"/><path class="dot" d="M63.095 60.972a1.465 1.465 0 00.168-2.097 1.526 1.526 0 00-2.132-.17 1.477 1.477 0 00-.168 2.097c.54.623 1.495.7 2.132.17" id="26"/><path class="dot" d="M76.009 77.458a1.536 1.536 0 00.333-2.119c-.481-.679-1.458-.788-2.113-.295-.67.504-.768 1.416-.291 2.089a1.464 1.464 0 002.07.325" id="27"/><path class="dot" d="M87.945 94.663a1.52 1.52 0 00.441-2.09 1.47 1.47 0 00-2.06-.436 1.533 1.533 0 00-.442 2.091 1.48 1.48 0 002.061.435" id="28"/></g></g><script type="text/javascript">document.animate = function() { var elemArr = document.getElementsByClassName(&quot;dot&quot;); if (!this.hasOwnProperty(&apos;animated&apos;)) this.animated = false; if (!this.animated) { for (var i = elemArr.length - 1; i &gt;= 0 ; i-- ) { (function(n) { var elmTiming = elemArr[n].getAttribute(&quot;id&quot;) * 100; setTimeout(function() { elemArr[n].setAttribute(&quot;class&quot;, &quot;dot animated&quot;); }, elmTiming); })(i) } this.animated = true; } }</script></svg>