<svg width="89" height="95" xmlns="http://www.w3.org/2000/svg"><style>@-webkit-keyframes dash{0%{fill-opacity:0}to{fill-opacity:1}}@-moz-keyframes dash{0%{fill-opacity:0}to{fill-opacity:1}}.dot.animated{-webkit-animation:dash .5s linear forwards;-o-animation:dash .5s linear forwards;-moz-animation:dash .5s linear forwards;animation:dash .5s linear forwards}.dot{fill:#1476f2;fill-opacity:0}</style><g id="Page-1" stroke="none" stroke-width="1" fill="none" fill-rule="evenodd"><g id="inclined-dops-first" fill="#1476F2" fill-rule="nonzero"><path class="dot" d="M3.557 94.348a1.491 1.491 0 01-2.066.444 1.51 1.51 0 01-.447-2.082 1.48 1.48 0 012.066-.444c.692.456.892 1.388.447 2.082" id="1"/><path class="dot" d="M15.404 77.184a1.476 1.476 0 01-2.078.334 1.524 1.524 0 01-.339-2.11 1.466 1.466 0 012.078-.335c.665.494.817 1.44.34 2.111" id="2"/><path class="dot" d="M26.097 60.922c-.637-.522-.75-1.487-.22-2.128a1.538 1.538 0 012.137-.18c.636.532.714 1.468.174 2.09a1.48 1.48 0 01-2.09.218" id="3"/><path class="dot" d="M39.83 45.112a1.468 1.468 0 01-.065-2.104 1.521 1.521 0 012.136-.067c.605.566.635 1.508.066 2.104a1.532 1.532 0 01-2.136.067" id="4"/><path class="dot" d="M54.499 28.01a1.507 1.507 0 012.127.045 1.494 1.494 0 01-.044 2.115 1.516 1.516 0 01-2.127-.044 1.484 1.484 0 01.044-2.115" id="5"/><path class="dot" d="M70.034 13.846a1.49 1.49 0 012.113.154 1.51 1.51 0 01-.154 2.118 1.5 1.5 0 01-1.959-2.272" id="6"/><path class="dot" d="M86.325.558a1.475 1.475 0 012.093.262c.502.66.383 1.607-.265 2.117a1.486 1.486 0 01-2.094-.263 1.516 1.516 0 01.266-2.116" id="7"/></g></g><script type="text/javascript">document.animate = function() { var elemArr = document.getElementsByClassName(&quot;dot&quot;); if (!this.hasOwnProperty(&apos;animated&apos;)) this.animated = false; if (!this.animated) { for (var i = elemArr.length - 1; i &gt;= 0 ; i-- ) { (function(n) { var elmTiming = elemArr[n].getAttribute(&quot;id&quot;) * 100; setTimeout(function() { elemArr[n].setAttribute(&quot;class&quot;, &quot;dot animated&quot;); }, elmTiming); })(i) } this.animated = true; } }</script></svg>