<svg width="89" height="95" xmlns="http://www.w3.org/2000/svg"><style>@-webkit-keyframes dash{0%{fill-opacity:0}to{fill-opacity:1}}@-moz-keyframes dash{0%{fill-opacity:0}to{fill-opacity:1}}.dot.animated{-webkit-animation:dash .5s linear forwards;-o-animation:dash .5s linear forwards;-moz-animation:dash .5s linear forwards;animation:dash .5s linear forwards}.dot{fill:#1476f2;fill-opacity:0}</style><g id="Page-1" stroke="none" stroke-width="1" fill="none" fill-rule="evenodd"><g id="inclined-dops-five" transform="translate(0 -1)" fill="#1476F2" fill-rule="nonzero"><path class="dot" d="M3.557 3.295a1.491 1.491 0 01-2.066.444 1.51 1.51 0 01-.447-2.082 1.48 1.48 0 012.066-.444c.692.456.892 1.388.447 2.082" id="1" transform="matrix(1 0 0 -1 0 4.948)"/><path class="dot" d="M15.404 20.597a1.476 1.476 0 01-2.078.334 1.524 1.524 0 01-.339-2.11 1.466 1.466 0 012.078-.335c.665.494.817 1.44.34 2.111" id="2" transform="matrix(1 0 0 -1 0 39.413)"/><path class="dot" d="M26.097 37.4c-.637-.523-.75-1.488-.22-2.129a1.538 1.538 0 012.137-.179c.636.531.714 1.467.174 2.09a1.48 1.48 0 01-2.09.217" id="3" transform="matrix(1 0 0 -1 0 72.478)"/><path class="dot" d="M39.83 53.063a1.468 1.468 0 01-.065-2.104 1.521 1.521 0 012.136-.067c.605.566.635 1.508.066 2.104a1.532 1.532 0 01-2.136.067" id="4" transform="matrix(1 0 0 -1 0 103.95)"/><path class="dot" d="M54.499 65.834a1.507 1.507 0 012.127.044 1.494 1.494 0 01-.044 2.115 1.516 1.516 0 01-2.127-.044 1.484 1.484 0 01.044-2.115" id="5" transform="matrix(1 0 0 -1 0 133.823)"/><path class="dot" d="M70.034 79.885a1.49 1.49 0 012.113.154 1.51 1.51 0 01-.154 2.118 1.5 1.5 0 01-1.959-2.272" id="6" transform="matrix(1 0 0 -1 0 162.039)"/><path class="dot" d="M86.325 93.067a1.475 1.475 0 012.093.262c.502.66.383 1.607-.265 2.117a1.486 1.486 0 01-2.094-.263 1.516 1.516 0 01.266-2.116" id="7" transform="matrix(1 0 0 -1 0 188.51)"/></g></g><script type="text/javascript">document.animate = function() { var elemArr = document.getElementsByClassName(&quot;dot&quot;); if (!this.hasOwnProperty(&apos;animated&apos;)) this.animated = false; if (!this.animated) { for (var i = elemArr.length - 1; i &gt;= 0 ; i-- ) { (function(n) { var elmTiming = elemArr[n].getAttribute(&quot;id&quot;) * 100; setTimeout(function() { elemArr[n].setAttribute(&quot;class&quot;, &quot;dot animated&quot;); }, elmTiming); })(i) } this.animated = true; } }</script></svg>