<svg width="125" height="35" xmlns="http://www.w3.org/2000/svg"><style>@-webkit-keyframes dash{0%{fill-opacity:0}to{fill-opacity:1}}@-moz-keyframes dash{0%{fill-opacity:0}to{fill-opacity:1}}.dot.animated{-webkit-animation:dash .5s linear forwards;-o-animation:dash .5s linear forwards;-moz-animation:dash .5s linear forwards;animation:dash .5s linear forwards}.dot{fill:#1476f2;fill-opacity:0}</style><g id="Page-1" stroke="none" stroke-width="1" fill="none" fill-rule="evenodd"><g id="inclined-dops-seven" fill="#1476F2" fill-rule="nonzero"><path class="dot" d="M1.636 31.914A1.502 1.502 0 00.02 33.295a1.496 1.496 0 001.375 1.61 1.513 1.513 0 001.616-1.382 1.487 1.487 0 00-1.375-1.609" id="15" transform="matrix(1 0 0 -1 0 66.818)"/><path class="dot" d="M22.538 29.672a1.514 1.514 0 00-1.693 1.297 1.486 1.486 0 001.283 1.675 1.525 1.525 0 001.693-1.297 1.476 1.476 0 00-1.283-1.675" id="16" transform="matrix(1 0 0 -1 0 62.315)"/><path class="dot" d="M43.281 26.275a1.526 1.526 0 00-1.765 1.208 1.474 1.474 0 001.188 1.736 1.536 1.536 0 001.765-1.208 1.464 1.464 0 00-1.188-1.736" id="17" transform="matrix(1 0 0 -1 0 55.494)"/><path class="dot" d="M63.803 21.73a1.537 1.537 0 00-1.833 1.116 1.462 1.462 0 001.09 1.79c.804.182 1.608-.254 1.82-1.065.207-.792-.265-1.657-1.077-1.84" id="18" transform="matrix(1 0 0 -1 0 46.369)"/><path class="dot" d="M83.098 18.81a1.472 1.472 0 001.875-.949 1.528 1.528 0 00-.966-1.91 1.461 1.461 0 00-1.875.949c-.247.79.185 1.646.966 1.91" id="19" transform="matrix(1 0 0 -1 0 34.76)"/><path class="dot" d="M102.772 11.836a1.487 1.487 0 001.93-.851 1.515 1.515 0 00-.86-1.951 1.473 1.473 0 00-1.93.85 1.524 1.524 0 00.86 1.952" id="20" transform="matrix(1 0 0 -1 0 20.867)"/><path class="dot" d="M121.274 1.777a1.51 1.51 0 00.752 1.986 1.5 1.5 0 101.228-2.737 1.489 1.489 0 00-1.98.75z" id="21" transform="matrix(1 0 0 -1 0 4.787)"/></g></g><script type="text/javascript">document.animate = function() { var elemArr = document.getElementsByClassName(&quot;dot&quot;); if (!this.hasOwnProperty(&apos;animated&apos;)) this.animated = false; if (!this.animated) { for (var i = elemArr.length - 1; i &gt;= 0 ; i-- ) { (function(n) { var elmTiming = elemArr[n].getAttribute(&quot;id&quot;) * 100; setTimeout(function() { elemArr[n].setAttribute(&quot;class&quot;, &quot;dot animated&quot;); }, elmTiming); })(i) } this.animated = true; } }</script></svg>