<svg width="124" height="34" xmlns="http://www.w3.org/2000/svg"><style>@-webkit-keyframes dash{0%{fill-opacity:0}to{fill-opacity:1}}@-moz-keyframes dash{0%{fill-opacity:0}to{fill-opacity:1}}.dot.animated{-webkit-animation:dash .5s linear forwards;-o-animation:dash .5s linear forwards;-moz-animation:dash .5s linear forwards;animation:dash .5s linear forwards}.dot{fill:#1476f2;fill-opacity:0}</style><g id="Page-1" stroke="none" stroke-width="1" fill="none" fill-rule="evenodd"><g id="inclined-dops-third" fill="#1476F2" fill-rule="nonzero"><path class="dot" d="M1.62.004A1.502 1.502 0 00.004 1.386a1.497 1.497 0 001.375 1.61 1.512 1.512 0 001.616-1.382A1.487 1.487 0 001.62.004" id="15"/><path class="dot" d="M22.704 2.012a1.513 1.513 0 00-1.69 1.299 1.487 1.487 0 001.28 1.677 1.523 1.523 0 001.69-1.299 1.477 1.477 0 00-1.28-1.677" id="16"/><path class="dot" d="M42.786 6.024a1.522 1.522 0 00-1.759 1.211 1.478 1.478 0 001.184 1.741 1.532 1.532 0 001.76-1.211 1.468 1.468 0 00-1.185-1.741" id="17"/><path class="dot" d="M63.876 10.04a1.535 1.535 0 00-1.83 1.12 1.469 1.469 0 001.087 1.799c.804.183 1.607-.255 1.818-1.07.207-.796-.264-1.665-1.075-1.85" id="18"/><path class="dot" d="M83.041 18.922c.785.263 1.63-.16 1.885-.944a1.516 1.516 0 00-.97-1.899 1.473 1.473 0 00-1.886.944 1.527 1.527 0 00.971 1.9" id="19"/><path class="dot" d="M102.961 25.897c.77.3 1.637-.079 1.938-.848a1.506 1.506 0 00-.864-1.944 1.482 1.482 0 00-1.937.848 1.515 1.515 0 00.863 1.944" id="20"/><path class="dot" d="M123.112 31.134a1.491 1.491 0 00-1.982.75 1.506 1.506 0 00.753 1.983c.752.34 1.64.004 1.983-.748a1.496 1.496 0 00-.754-1.985" id="21"/></g></g><script type="text/javascript">document.animate = function() { var elemArr = document.getElementsByClassName(&quot;dot&quot;); if (!this.hasOwnProperty(&apos;animated&apos;)) this.animated = false; if (!this.animated) { for (var i = elemArr.length - 1; i &gt;= 0 ; i-- ) { (function(n) { var elmTiming = elemArr[n].getAttribute(&quot;id&quot;) * 100; setTimeout(function() { elemArr[n].setAttribute(&quot;class&quot;, &quot;dot animated&quot;); }, elmTiming); })(i) } this.animated = true; } }</script></svg>