<svg width="124" height="35" xmlns="http://www.w3.org/2000/svg"><style>@-webkit-keyframes dash{0%{fill-opacity:0}to{fill-opacity:1}}@-moz-keyframes dash{0%{fill-opacity:0}to{fill-opacity:1}}.dot.animated{-webkit-animation:dash .5s linear forwards;-o-animation:dash .5s linear forwards;-moz-animation:dash .5s linear forwards;animation:dash .5s linear forwards}.dot{fill:#1476f2;fill-opacity:0}</style><g id="Page-1" stroke="none" stroke-width="1" fill="none" fill-rule="evenodd"><g id="inclined-dops-six" fill="#1476F2" fill-rule="nonzero"><path class="dot" d="M2.128 2.867A1.499 1.499 0 002.872.885 1.502 1.502 0 00.881.138 1.488 1.488 0 00.138 2.12a1.512 1.512 0 001.99.747" id="8" transform="matrix(1 0 0 -1 0 3.003)"/><path class="dot" d="M22.045 10.896a1.513 1.513 0 00.851-1.948 1.487 1.487 0 00-1.94-.847 1.501 1.501 0 00-.85 1.948 1.498 1.498 0 001.94.847" id="9" transform="matrix(1 0 0 -1 0 18.995)"/><path class="dot" d="M40.033 15.068a1.516 1.516 0 00-.957 1.907 1.484 1.484 0 001.885.946 1.527 1.527 0 00.957-1.907 1.474 1.474 0 00-1.885-.946" id="10" transform="matrix(1 0 0 -1 0 32.989)"/><path class="dot" d="M60.112 21.042a1.53 1.53 0 00-1.06 1.86 1.471 1.471 0 001.824 1.041 1.54 1.54 0 001.061-1.86 1.461 1.461 0 00-1.825-1.04" id="11" transform="matrix(1 0 0 -1 0 44.985)"/><path class="dot" d="M81.198 26.037c-.82.138-1.334.983-1.167 1.783.17.822.952 1.294 1.765 1.157a1.462 1.462 0 001.177-1.734 1.538 1.538 0 00-1.775-1.206" id="12" transform="matrix(1 0 0 -1 0 55.013)"/><path class="dot" d="M101.29 29.019a1.464 1.464 0 00-1.273 1.674 1.537 1.537 0 001.703 1.295 1.474 1.474 0 001.273-1.673 1.527 1.527 0 00-1.703-1.296" id="13" transform="matrix(1 0 0 -1 0 61.007)"/><path class="dot" d="M122.371 32.007a1.475 1.475 0 00-1.365 1.608 1.526 1.526 0 001.626 1.38 1.485 1.485 0 001.365-1.607 1.515 1.515 0 00-1.626-1.381" id="14" transform="matrix(1 0 0 -1 0 67.002)"/></g></g><script type="text/javascript">document.animate = function() { var elemArr = document.getElementsByClassName(&quot;dot&quot;); if (!this.hasOwnProperty(&apos;animated&apos;)) this.animated = false; if (!this.animated) { for (var i = elemArr.length - 1; i &gt;= 0 ; i-- ) { (function(n) { var elmTiming = elemArr[n].getAttribute(&quot;id&quot;) * 100; setTimeout(function() { elemArr[n].setAttribute(&quot;class&quot;, &quot;dot animated&quot;); }, elmTiming); })(i) } this.animated = true; } }</script></svg>