<svg width="125" height="35" xmlns="http://www.w3.org/2000/svg"><style>@-webkit-keyframes dash{0%{fill-opacity:0}to{fill-opacity:1}}@-moz-keyframes dash{0%{fill-opacity:0}to{fill-opacity:1}}.dot.animated{-webkit-animation:dash .5s linear forwards;-o-animation:dash .5s linear forwards;-moz-animation:dash .5s linear forwards;animation:dash .5s linear forwards}.dot{fill:#1476f2;fill-opacity:0}</style><g id="Page-1" stroke="none" stroke-width="1" fill="none" fill-rule="evenodd"><g id="inclined-dops-second" fill="#1476F2" fill-rule="nonzero"><path class="dot" d="M2.128 34.864a1.499 1.499 0 00.744-1.982 1.502 1.502 0 00-1.991-.747 1.488 1.488 0 00-.743 1.982 1.512 1.512 0 001.99.747" id="8"/><path class="dot" d="M22.045 26.9a1.513 1.513 0 00.851-1.947 1.487 1.487 0 00-1.94-.847 1.501 1.501 0 00-.85 1.948 1.498 1.498 0 001.94.847" id="9"/><path class="dot" d="M39.076 18.987a1.484 1.484 0 001.885.946 1.527 1.527 0 00.957-1.907 1.474 1.474 0 00-1.885-.946 1.516 1.516 0 00-.957 1.907z" id="10"/><path class="dot" d="M60.112 11.057a1.53 1.53 0 00-1.06 1.86 1.471 1.471 0 001.824 1.041 1.54 1.54 0 001.061-1.86 1.461 1.461 0 00-1.825-1.04" id="11"/><path class="dot" d="M81.198 6.024c-.82.138-1.334.983-1.167 1.783.17.822.952 1.294 1.765 1.157a1.462 1.462 0 001.177-1.734 1.538 1.538 0 00-1.775-1.206" id="12"/><path class="dot" d="M101.29 3.012a1.464 1.464 0 00-1.273 1.674 1.537 1.537 0 001.703 1.295 1.474 1.474 0 001.273-1.673 1.527 1.527 0 00-1.703-1.296" id="13"/><path class="dot" d="M122.895 3.277a1.526 1.526 0 01-1.626-1.381 1.476 1.476 0 011.365-1.608 1.515 1.515 0 011.626 1.38 1.484 1.484 0 01-1.365 1.609" id="14"/></g></g><script type="text/javascript">document.animate = function() { var elemArr = document.getElementsByClassName(&quot;dot&quot;); if (!this.hasOwnProperty(&apos;animated&apos;)) this.animated = false; if (!this.animated) { for (var i = elemArr.length - 1; i &gt;= 0 ; i-- ) { (function(n) { var elmTiming = elemArr[n].getAttribute(&quot;id&quot;) * 100; setTimeout(function() { elemArr[n].setAttribute(&quot;class&quot;, &quot;dot animated&quot;); }, elmTiming); })(i) } this.animated = true; } }</script></svg>