<svg viewBox="0 0 247 247" xmlns="http://www.w3.org/2000/svg" style="padding:5px;box-sizing:border-box" overflow="hidden"><style>@-webkit-keyframes dash{0%{stroke-dashoffset:640}to{stroke-dashoffset:0}}.line.animated{opacity:1;stroke-dasharray:640;stroke-dashoffset:0;-webkit-animation:dash 1s linear forwards;-o-animation:dash 1s linear forwards;-moz-animation:dash 1s linear forwards;animation:dash 1s linear forwards}.line{opacity:0}</style><g id="Page-2" stroke="none" stroke-width="1" fill="none" fill-rule="evenodd"><g id="IS_IOT_Page" transform="translate(-98 -1929)" stroke-width="2"><g id="monitor-operations" transform="translate(98 1930)"><path class="line additional" d="M206.333 116.828V39.05h-38.889v100m-38.888-5.556V.161h38.888V39.05m-38.888 38.889h-38.89v50" id="Stroke-32" stroke="#1476F2"/><path class="line" d="M84.111 205.717c2.128-2.128 4.311-5.556 11.111-5.556H173c6.172 0 40.128-34.05 44.444-38.889 4.15-4.655 22.65-32.45 27.778-44.444-3.222-4.34-11.928-7.95-22.222-5.556-9.822 2.278-15.6 9.34-22.222 22.222l-25.467 13.223m-57.867 20.11h44.445c22.222 0 22.222-27.777 0-27.777h-29.356c-4.627 0-13.305-11.111-20.644-11.111H84.11c-7.505 0-16.833 6.094-22.222 11.111l-22.222 22.222m27.777 83.334l27.778-27.778-66.666-66.667L.778 177.94m27.778 0l11.11 11.111" id="blue-line" stroke="#505050" stroke-linejoin="round"/></g></g></g><script type="text/javascript">document.animate = function(){ var isAnimated = false; var animatedElement = document.getElementById(&quot;blue-line&quot;); animatedElement.setAttribute(&quot;class&quot;, &quot;line animated&quot;); animatedElement.addEventListener(&quot;animationstart&quot;, function(){ isAnimated = true; }); if (animatedElement.addEventListener){ animatedElement.addEventListener(&quot;animationend&quot;, function(){ var elemArr = document.getElementsByClassName(&quot;additional&quot;); for (var i = elemArr.length - 1; i&gt;=0 ; i-- ){ elemArr[i].setAttribute(&quot;class&quot;, &quot;line additional animated&quot;); } }) }else if (animatedElement.attachEvent){ animatedElement.attachEvent(&quot;animationend&quot;, function(){ var elemArr = document.getElementsByClassName(&quot;additional&quot;); for (var i = elemArr.length - 1; i&gt;=0 ; i-- ){ elemArr[i].setAttribute(&quot;class&quot;, &quot;line additional animated&quot;); } }) } setTimeout(function(){ if(!isAnimated){ var elemArr = document.getElementsByClassName(&quot;additional&quot;); for (var i = elemArr.length - 1; i&gt;=0 ; i-- ){ elemArr[i].setAttribute(&quot;class&quot;, &quot;line additional animated&quot;); } } },1000) }</script></svg>