<svg viewBox="0 0 252 252" xmlns="http://www.w3.org/2000/svg" style="padding:5px;box-sizing:border-box" overflow="hidden"><style>@-webkit-keyframes dash{0%{stroke-dashoffset:640}to{stroke-dashoffset:0}}.line.animated{opacity:1;stroke-dasharray:640;stroke-dashoffset:0;-webkit-animation:dash 1s linear forwards;-o-animation:dash 1s linear forwards;-moz-animation:dash 1s linear forwards;animation:dash 1s linear forwards}.line{opacity:0}</style><g id="Page-2" stroke="none" stroke-width="1" fill="none" fill-rule="evenodd"><g id="IS_IOT_Page" transform="translate(-95 -2529)" stroke-width="2"><g id="optimise-operations" transform="translate(96 2530)"><path class="line additional" d="M139.535 34.884V5.814H93.023v26.302A92.44 92.44 0 0069.1 42.023L50.5 23.424l-32.89 32.89 18.6 18.599a92.44 92.44 0 00-9.908 23.924H0v46.512h26.302a92.44 92.44 0 009.907 23.924l-18.599 18.6 32.89 32.889 18.599-18.6a92.44 92.44 0 0023.924 9.908v26.302h46.512v-29.07M151.163 58.14h5.814l29.07-29.07m0 191.86l-34.884-34.883h-34.884c-35.32 0-63.953-28.634-63.953-63.954S80.959 58.14 116.279 58.14m98.837 122.093H191.86l-29.07-29.07h-5.813m58.14-133.721c0 9.634-7.809 17.442-17.443 17.442-9.633 0-17.441-7.808-17.441-17.442S188.04 0 197.674 0c9.634 0 17.442 7.808 17.442 17.442zM250 122.093c0 9.634-7.808 17.442-17.442 17.442s-17.442-7.808-17.442-17.442 7.808-17.442 17.442-17.442S250 112.46 250 122.093zm0 58.14c0 9.633-7.808 17.441-17.442 17.441s-17.442-7.808-17.442-17.441c0-9.634 7.808-17.442 17.442-17.442S250 170.599 250 180.233zm-34.884 52.325c0 9.634-7.808 17.442-17.442 17.442-9.633 0-17.441-7.808-17.441-17.442s7.808-17.442 17.441-17.442c9.634 0 17.442 7.808 17.442 17.442zm-58.14-110.465h58.14-58.14zm-46.51 0h11.627-11.628zm23.255 0h11.628-11.628zm0 29.07h11.628-11.628zm-5.814-93.023h11.628-11.628z" id="Stroke-17" stroke="#505050"/><path class="line additional" d="M122.093 151.163h-5.814c-16.052 0-29.07-13.012-29.07-29.07s13.018-29.07 29.07-29.07h46.512l23.256-23.256h29.07" id="Path" stroke="#1476F2"/><path class="line" d="M250 69.767c0 9.634-7.808 17.442-17.442 17.442s-17.442-7.808-17.442-17.442c0-9.633 7.808-17.441 17.442-17.441S250 60.134 250 69.767z" id="blue-line" stroke="#1476F2"/></g></g></g><script type="text/javascript">document.animate = function(){ var isAnimated = false; var animatedElement = document.getElementById(&quot;blue-line&quot;); animatedElement.setAttribute(&quot;class&quot;, &quot;line animated&quot;); animatedElement.addEventListener(&quot;animationstart&quot;, function(){ isAnimated = true; }); if (animatedElement.addEventListener){ animatedElement.addEventListener(&quot;animationend&quot;, function(){ var elemArr = document.getElementsByClassName(&quot;additional&quot;); for (var i = elemArr.length - 1; i&gt;=0 ; i-- ){ elemArr[i].setAttribute(&quot;class&quot;, &quot;line additional animated&quot;); } }) }else if (animatedElement.attachEvent){ animatedElement.attachEvent(&quot;animationend&quot;, function(){ var elemArr = document.getElementsByClassName(&quot;additional&quot;); for (var i = elemArr.length - 1; i&gt;=0 ; i-- ){ elemArr[i].setAttribute(&quot;class&quot;, &quot;line additional animated&quot;); } }) } setTimeout(function(){ if(!isAnimated){ var elemArr = document.getElementsByClassName(&quot;additional&quot;); for (var i = elemArr.length - 1; i&gt;=0 ; i-- ){ elemArr[i].setAttribute(&quot;class&quot;, &quot;line additional animated&quot;); } } },1000) }</script></svg>