<svg viewBox="0 0 248 252" xmlns="http://www.w3.org/2000/svg" style="padding:5px;box-sizing:border-box" overflow="hidden"><style>@-webkit-keyframes dash{0%{stroke-dashoffset:640}to{stroke-dashoffset:0}}.line.animated{opacity:1;stroke-dasharray:640;stroke-dashoffset:0;-webkit-animation:dash 1s linear forwards;-o-animation:dash 1s linear forwards;-moz-animation:dash 1s linear forwards;animation:dash 1s linear forwards}.line{opacity:0}</style><g id="Page-2" stroke="none" stroke-width="1" fill="none" fill-rule="evenodd"><g id="IS_IOT_Page" transform="translate(-97 -3129)" stroke-width="2"><g id="ensure-iot" transform="translate(98 3130)"><path class="line additional" d="M34.169 56.378h22.3l23.258 34.169h11.39M34.168 119.02h28.473H34.17zm0-62.643c0 9.436-7.648 17.084-17.085 17.084C7.648 73.462 0 65.814 0 56.378s7.648-17.084 17.084-17.084c9.437 0 17.085 7.648 17.085 17.084zm0 62.643c0 9.436-7.648 17.084-17.085 17.084C7.648 136.105 0 128.457 0 119.02s7.648-17.085 17.084-17.085c9.437 0 17.085 7.648 17.085 17.085zm34.168 96.81l28.001-39.863h34.641m-56.947 56.948c0-9.437-7.648-17.085-17.084-17.085-9.437 0-17.085 7.648-17.085 17.085 0 9.436 7.648 17.084 17.085 17.084 9.436 0 17.084-7.648 17.084-17.084zM108.2 119.02H96.81h11.39zm-22.779 0h-11.39 11.39zm17.085-28.474h11.39-11.39zm17.084 28.474h22.779-22.779z" id="Stroke-1" stroke="#505050"/><path class="line" d="M159.453 232.916h23.77l21.788-23.474v-96.868c28.474-7.073 40.439-29.038 40.439-55.085C245.45 25.74 219.396 0 187.642 0s-57.215 25.74-57.215 57.489c0 21.275 17.637 39.8 29.026 49.743v34.761l11.39 8.998v9.003l-11.39 12.882v7.819l11.39 10.808v9.004l-11.39 9.003v23.406z" id="blue-line" stroke="#1476F2"/><path class="line additional" d="M187.927 56.378c-9.436 0-17.084-7.648-17.084-17.084s7.648-17.084 17.084-17.084 17.084 7.648 17.084 17.084-7.648 17.084-17.084 17.084z" id="Path" stroke="#1476F2"/><path class="line additional" id="Path" stroke="#505050" d="M34.169 181.663h22.3l22.552-34.169h12.095m-56.947 34.169c0-9.436-7.648-17.084-17.085-17.084C7.648 164.579 0 172.227 0 181.663s7.648 17.084 17.084 17.084c9.437 0 17.085-7.648 17.085-17.084zm68.337-34.169h11.39-11.39zm22.779 0h11.39-11.39z"/></g></g></g><script type="text/javascript">document.animate = function(){ var isAnimated = false; var animatedElement = document.getElementById(&quot;blue-line&quot;); animatedElement.setAttribute(&quot;class&quot;, &quot;line animated&quot;); animatedElement.addEventListener(&quot;animationstart&quot;, function(){ isAnimated = true; }); if (animatedElement.addEventListener){ animatedElement.addEventListener(&quot;animationend&quot;, function(){ var elemArr = document.getElementsByClassName(&quot;additional&quot;); for (var i = elemArr.length - 1; i&gt;=0 ; i-- ){ elemArr[i].setAttribute(&quot;class&quot;, &quot;line additional animated&quot;); } }) }else if (animatedElement.attachEvent){ animatedElement.attachEvent(&quot;animationend&quot;, function(){ var elemArr = document.getElementsByClassName(&quot;additional&quot;); for (var i = elemArr.length - 1; i&gt;=0 ; i-- ){ elemArr[i].setAttribute(&quot;class&quot;, &quot;line additional animated&quot;); } }) } setTimeout(function(){ if(!isAnimated){ var elemArr = document.getElementsByClassName(&quot;additional&quot;); for (var i = elemArr.length - 1; i&gt;=0 ; i-- ){ elemArr[i].setAttribute(&quot;class&quot;, &quot;line additional animated&quot;); } } },1000) }</script></svg>