<svg viewBox="0 0 252 252" xmlns="http://www.w3.org/2000/svg" style="padding:5px;box-sizing:border-box" overflow="hidden"><style>@-webkit-keyframes dash{0%{stroke-dashoffset:640}to{stroke-dashoffset:0}}.line.animated{opacity:1;stroke-dasharray:640;stroke-dashoffset:0;-webkit-animation:dash 1s linear forwards;-o-animation:dash 1s linear forwards;-moz-animation:dash 1s linear forwards;animation:dash 1s linear forwards}.line{opacity:0}</style><g id="Page-2" stroke="none" stroke-width="1" fill="none" fill-rule="evenodd" stroke-linejoin="round"><g id="IS_IOT_Page" transform="translate(-94 -3729)" stroke-width="2"><g id="pinpoint" transform="translate(95 3730)"><path class="line additional" d="M22.727 51.136l34.091 34.091-17.045 17.046h62.5v-62.5L85.227 56.818 34.091 5.682m22.727 51.136L0 0m250 28.41l-56.818 56.817 17.045 17.046h-62.5v-62.5l17.046 17.045 34.09-34.09m-5.681 34.09L250 0m-28.41 193.182l-28.408-28.41 17.045-17.045h-62.5v62.5l17.046-17.045 51.136 51.136m-22.727-51.136L250 250M56.818 125H0m250 0h-56.818M125 56.818V0m0 250v-56.818" id="Stroke-36" stroke="#505050"/><path class="line additional" d="M153.41 125H96.59M125 153.41V96.59" id="Path" stroke="#1476F2"/><path class="line" id="blue-line" stroke="#505050" d="M5.682 215.91l51.136-51.137-17.045-17.046h62.5v62.5l-17.046-17.045-28.409 28.409"/><path class="line additional" d="M56.818 193.182L0 250" id="Path" stroke="#505050"/></g></g></g><script type="text/javascript">document.animate = function(){ var isAnimated = false; var animatedElement = document.getElementById(&quot;blue-line&quot;); animatedElement.setAttribute(&quot;class&quot;, &quot;line animated&quot;); animatedElement.addEventListener(&quot;animationstart&quot;, function(){ isAnimated = true; }); if (animatedElement.addEventListener){ animatedElement.addEventListener(&quot;animationend&quot;, function(){ var elemArr = document.getElementsByClassName(&quot;additional&quot;); for (var i = elemArr.length - 1; i&gt;=0 ; i-- ){ elemArr[i].setAttribute(&quot;class&quot;, &quot;line additional animated&quot;); } }) }else if (animatedElement.attachEvent){ animatedElement.attachEvent(&quot;animationend&quot;, function(){ var elemArr = document.getElementsByClassName(&quot;additional&quot;); for (var i = elemArr.length - 1; i&gt;=0 ; i-- ){ elemArr[i].setAttribute(&quot;class&quot;, &quot;line additional animated&quot;); } }) } setTimeout(function(){ if(!isAnimated){ var elemArr = document.getElementsByClassName(&quot;additional&quot;); for (var i = elemArr.length - 1; i&gt;=0 ; i-- ){ elemArr[i].setAttribute(&quot;class&quot;, &quot;line additional animated&quot;); } } },1000) }</script></svg>