<svg width="86" height="82" fill="none" xmlns="http://www.w3.org/2000/svg"><g filter="url(#filter0_d)"><path d="M40.652 25.791H64.13a2.337 2.337 0 012.348 2.325v29.07m0 5.814H19.522C17.577 63 16 61.438 16 59.512v-2.326h21.13l1.174 1.163h9.392l1.174-1.163H70v2.326C70 61.438 68.423 63 66.478 63zm-46.956-5.814v-3.488 3.488z" stroke="#323232"/><path d="M38.304 39.744v9.303a2.337 2.337 0 01-2.347 2.325h-17.61A2.334 2.334 0 0116 49.047V15.326A2.336 2.336 0 0118.348 13h17.609a2.337 2.337 0 012.347 2.326v17.441" stroke="#1476F2"/><path d="M25.391 47.884h3.522M16 44.395h22.304H16zm22.304-25.581H16h22.304z" stroke="#1476F2" stroke-linejoin="round"/><path d="M48.87 36.256H27.74m21.13 0l-3.522 3.488m3.522-3.488l-3.522-3.489M27.74 36.256l3.52 3.488m-3.52-3.488l3.52-3.489" stroke="#1476F2"/></g><defs><filter id="filter0_d" x=".5" y=".5" width="85" height="81" filterUnits="userSpaceOnUse" color-interpolation-filters="sRGB"><feFlood flood-opacity="0" result="BackgroundImageFix"/><feColorMatrix in="SourceAlpha" values="0 0 0 0 0 0 0 0 0 0 0 0 0 0 0 0 0 0 127 0"/><feOffset dy="3"/><feGaussianBlur stdDeviation="7.5"/><feColorMatrix values="0 0 0 0 0 0 0 0 0 0 0 0 0 0 0 0 0 0 0.03 0"/><feBlend in2="BackgroundImageFix" result="effect1_dropShadow"/><feBlend in="SourceGraphic" in2="effect1_dropShadow" result="shape"/></filter></defs></svg>