<svg width="86" height="71" fill="none" xmlns="http://www.w3.org/2000/svg"><g filter="url(#filter0_d)"><path d="M61.783 20.09V13H47.696v7.09m-3.522 15.365v7.09a2.355 2.355 0 002.348 2.364h16.435a2.356 2.356 0 002.347-2.364v-20.09a2.355 2.355 0 00-2.347-2.364H46.522a2.355 2.355 0 00-2.348 2.364v13zm3.522 9.454V52h14.087v-7.09l-14.087-.001z" stroke="#494946"/><path d="M54.74 31.91H26.565m3.522 3.545l-3.522-3.546 3.522-3.545m21.13 7.09l3.522-3.545-3.522-3.545m16.435 0h1.174c.648 0 1.174.53 1.174 1.181v4.728c0 .652-.526 1.182-1.174 1.182h-1.174" stroke="#494946"/><path d="M25.391 48.455h3.522M16 44.91h22.304H16zm22.304-26H16h22.304z" stroke="#1476F2" stroke-linejoin="round"/><path d="M38.304 35.455v14.181A2.355 2.355 0 0135.957 52h-17.61A2.354 2.354 0 0116 49.636V15.364A2.356 2.356 0 0118.348 13h17.609a2.354 2.354 0 012.347 2.364v13" stroke="#1476F2"/></g><defs><filter id="filter0_d" x=".5" y=".5" width="85" height="70" filterUnits="userSpaceOnUse" color-interpolation-filters="sRGB"><feFlood flood-opacity="0" result="BackgroundImageFix"/><feColorMatrix in="SourceAlpha" values="0 0 0 0 0 0 0 0 0 0 0 0 0 0 0 0 0 0 127 0"/><feOffset dy="3"/><feGaussianBlur stdDeviation="7.5"/><feColorMatrix values="0 0 0 0 0 0 0 0 0 0 0 0 0 0 0 0 0 0 0.03 0"/><feBlend in2="BackgroundImageFix" result="effect1_dropShadow"/><feBlend in="SourceGraphic" in2="effect1_dropShadow" result="shape"/></filter></defs></svg>