<svg width="56" height="56" fill="none" xmlns="http://www.w3.org/2000/svg"><path d="M6.277 19.41C8.732 13.395 13.396 8.731 19.41 6.276" stroke="#323232"/><path d="M28 55a3.682 3.682 0 100-7.364A3.682 3.682 0 0028 55zm0-46.636A3.682 3.682 0 1028 1a3.682 3.682 0 000 7.364zm23.318 23.318a3.682 3.682 0 100-7.364 3.682 3.682 0 000 7.364zm-46.636 0a3.682 3.682 0 100-7.364 3.682 3.682 0 000 7.364z" stroke="#1476F2" stroke-linejoin="round"/><path d="M13.273 4.927l6.136 1.35-1.35 6.26M50.09 36.836c-2.33 6.014-7.117 10.678-13.13 13.132" stroke="#323232"/><path d="M43.218 51.318l-6.259-1.35 1.35-6.136M19.41 50.091c-5.892-2.455-10.678-7.24-13.01-13.132" stroke="#323232"/><path d="M5.05 43.096l1.35-6.137 6.136 1.35M36.96 6.277c5.89 2.332 10.676 7.119 13.13 13.132" stroke="#323232"/><path d="M51.318 13.15l-1.227 6.26-6.26-1.35" stroke="#323232"/><path d="M31.682 28c0 2.086-1.718 3.682-3.682 3.682-2.086 0-3.682-1.718-3.682-3.682 0-2.086 1.718-3.682 3.682-3.682 2.086 0 3.682 1.596 3.682 3.682z" stroke="#1476F2" stroke-linejoin="round"/><path d="M36.59 28c0-.736-.122-1.35-.245-1.964l2.455-1.35-2.454-4.295-2.455 1.35c-.982-.982-2.21-1.596-3.436-1.964v-2.823h-4.91v2.823c-1.35.368-2.454 1.105-3.436 1.964l-2.454-1.35-2.455 4.295 2.455 1.473c-.123.614-.246 1.227-.246 1.964 0 .736.123 1.35.246 1.963L17.2 31.56l2.455 4.296 2.454-1.473c.982.859 2.086 1.595 3.436 1.963v2.7h4.91v-2.822c1.35-.368 2.454-1.105 3.436-1.964l2.455 1.473 2.454-4.296-2.454-1.35c.122-.736.245-1.472.245-2.086z" stroke="#1476F2" stroke-linejoin="round"/></svg>