<svg width="54" height="47" fill="none" xmlns="http://www.w3.org/2000/svg"><path d="M27 39.25v-5.625M13.5 39.25v-3.375l4.5-4.5h2.25M7.875 14.5h3.375L18 21.25h2.25" stroke="#323232"/><path d="M4.5 17.875a3.375 3.375 0 100-6.75 3.375 3.375 0 000 6.75z" stroke="#1476F2" stroke-linejoin="round"/><path d="M7.875 32.5h3.375L18 25.75h2.25" stroke="#323232"/><path d="M4.5 35.875a3.375 3.375 0 100-6.75 3.375 3.375 0 000 6.75zM27 39.25c-1.913 0-3.375 1.462-3.375 3.375S25.087 46 27 46s3.375-1.462 3.375-3.375S28.913 39.25 27 39.25z" stroke="#1476F2" stroke-linejoin="round"/><path d="M27 7.75v5.625" stroke="#323232"/><path d="M27 7.75c-1.913 0-3.375-1.463-3.375-3.375C23.625 2.462 25.087 1 27 1s3.375 1.462 3.375 3.375c0 1.912-1.462 3.375-3.375 3.375zm-13.5 31.5c-1.912 0-3.375 1.462-3.375 3.375S11.588 46 13.5 46s3.375-1.462 3.375-3.375-1.463-3.375-3.375-3.375z" stroke="#1476F2" stroke-linejoin="round"/><path d="M13.5 7.75v3.375l4.5 4.5h2.25" stroke="#323232"/><path d="M13.5 7.75c-1.912 0-3.375-1.463-3.375-3.375C10.125 2.462 11.588 1 13.5 1s3.375 1.462 3.375 3.375c0 1.912-1.463 3.375-3.375 3.375z" stroke="#1476F2" stroke-linejoin="round"/><path d="M40.5 39.25v-3.375l-4.5-4.5h-2.25M46.125 14.5H42.75L36 21.25h-2.25" stroke="#323232"/><path d="M49.5 17.875a3.375 3.375 0 100-6.75 3.375 3.375 0 000 6.75z" stroke="#1476F2" stroke-linejoin="round"/><path d="M46.125 32.5H42.75L36 25.75h-2.25" stroke="#323232"/><path d="M49.5 35.875a3.375 3.375 0 100-6.75 3.375 3.375 0 000 6.75zm-9 3.375c1.913 0 3.375 1.462 3.375 3.375S42.413 46 40.5 46s-3.375-1.462-3.375-3.375 1.462-3.375 3.375-3.375z" stroke="#1476F2" stroke-linejoin="round"/><path d="M40.5 7.75v3.375l-4.5 4.5h-2.25" stroke="#323232"/><path d="M40.5 7.75c1.913 0 3.375-1.463 3.375-3.375C43.875 2.462 42.413 1 40.5 1s-3.375 1.462-3.375 3.375c0 1.912 1.462 3.375 3.375 3.375zm-9 7.875h-9v15.75h9v-15.75z" stroke="#1476F2" stroke-linejoin="round"/><path d="M14.625 23.5H0m54 0H39.375" stroke="#323232"/></svg>