<svg width="56" height="48" fill="none" xmlns="http://www.w3.org/2000/svg"><path d="M51.478 46.783H4.522C2.526 46.783 1 45.257 1 43.26v-2.348h21.13l1.174 1.174h9.392l1.174-1.174H55v2.348c0 1.996-1.526 3.522-3.522 3.522zm-46.956-5.87v-5.87" stroke="#323232"/><path d="M32.696 8.043H49.13a2.355 2.355 0 012.348 2.348v30.522" stroke="#323232"/><path d="M30.348 11.565H1V2.174C1 1.47 1.47 1 2.174 1h27c.704 0 1.174.47 1.174 1.174v9.391zM17.435 22.13H1V11.565m29.348 14.087v5.87c0 .704-.47 1.174-1.174 1.174h-27c-.704 0-1.174-.47-1.174-1.174V22.13M4.522 6.87H6.87M4.522 17.435H6.87M4.522 28H6.87m35.217-5.87h-21.13" stroke="#1476F2" stroke-linejoin="round"/><path d="M24.478 25.652l-3.522-3.522 3.522-3.521m14.087 7.043l3.522-3.522-3.522-3.521m-8.217-7.044v7.044" stroke="#1476F2" stroke-linejoin="round"/></svg>