<svg width="56" height="53" fill="none" xmlns="http://www.w3.org/2000/svg"><path d="M8.28 13.134h4.855l4.854 7.281h3.64" stroke="#323232" stroke-linejoin="round"/><path d="M8.28 26.483h18.203" stroke="#1476F2" stroke-linejoin="round"/><path d="M8.28 13.135c0 2.063-1.577 3.64-3.64 3.64-2.062 0-3.64-1.577-3.64-3.64s1.578-3.64 3.64-3.64c2.063 0 3.64 1.577 3.64 3.64z" stroke="#323232" stroke-linejoin="round"/><path d="M8.28 26.483c0 2.063-1.577 3.64-3.64 3.64-2.062 0-3.64-1.577-3.64-3.64s1.578-3.64 3.64-3.64c2.063 0 3.64 1.578 3.64 3.64zm9.709-19.415l4.854 7.28h6.067" stroke="#1476F2" stroke-linejoin="round"/><path d="M19.202 4.64c0 2.063-1.577 3.64-3.64 3.64s-3.64-1.577-3.64-3.64c0-2.062 1.577-3.64 3.64-3.64s3.64 1.578 3.64 3.64z" stroke="#1476F2" stroke-linejoin="round"/><path d="M8.28 39.832c0-2.063-1.577-3.64-3.64-3.64-2.062 0-3.64 1.577-3.64 3.64s1.578 3.64 3.64 3.64c2.063 0 3.64-1.577 3.64-3.64z" stroke="#323232" stroke-linejoin="round"/><path d="M17.989 45.899l4.854-7.281h6.067" stroke="#1476F2" stroke-linejoin="round"/><path d="M19.202 48.326c0-2.063-1.577-3.64-3.64-3.64s-3.64 1.577-3.64 3.64 1.577 3.64 3.64 3.64 3.64-1.577 3.64-3.64zm9.708-21.843h-2.427" stroke="#1476F2" stroke-linejoin="round"/><path d="M8.28 39.832h4.855l4.854-7.28h23.056v3.518L55 26.605l-13.955-9.95v3.761H28.91" stroke="#323232" stroke-linejoin="round"/><path d="M36.19 26.483h2.428m-7.281 0h2.427m-2.427-12.135h2.427m-2.427 24.27h2.427" stroke="#1476F2" stroke-linejoin="round"/><path d="M26.483 20.416h-2.427" stroke="#323232" stroke-linejoin="round"/></svg>