<svg width="82" height="57" fill="none" xmlns="http://www.w3.org/2000/svg"><path d="M5.741 44.696c0 .213-.103.607-.275.885h-.207c-.173 0-.362-.049-.57-.114a2.539 2.539 0 00-.913-.197c-.052 0-.103 0-.19.016-1 .082-1.707.935-1.707 2.82 0 2.263.983 2.739 2 2.739.535 0 1.138-.18 1.587-.394.086.246.155.508.155.623-.018.246-.207.525-.449.705-.344.23-.93.377-1.603.377-1.914 0-3.569-.672-3.569-3.968 0-1.721.603-2.803 1.293-3.41.69-.607 1.586-.803 2.448-.803 1.087 0 1.914.491 2 .705v.016zm6.69 1.23v5.165c0 .262-.017.459-.172.672-.276.197-.535.213-1.655.213.017-.869.034-1.984.034-3.247l.017-2.738c0-.524-.103-.902-.224-1.23.138-.13.362-.262.741-.41.104-.032.173-.032.242-.032.362 0 .517.098.62.328.328-.213.69-.361 1.018-.476a2.06 2.06 0 011-.131c.5.05.81.213.862.46 0 .245-.07.704-.31 1.032-.121.033-.121.033-.276.033-.19 0-.362-.017-.5-.033-.121-.033-.173-.033-.224-.033-.466 0-.845.115-1.173.427zm5.345 0v5.165c0 .262-.017.459-.172.672-.276.197-.535.213-1.656.213a163 163 0 00.035-3.247L16 45.991c0-.524-.103-.902-.224-1.23.138-.13.362-.262.741-.41.104-.032.173-.032.242-.032.362 0 .517.098.62.328.328-.213.69-.361 1.018-.476a2.06 2.06 0 011-.131c.5.05.81.213.862.46 0 .245-.07.704-.31 1.032-.121.033-.121.033-.277.033-.19 0-.362-.017-.5-.033-.12-.033-.172-.033-.224-.033-.465 0-.845.115-1.172.427zm5.517.197l-.172 2.951c0 1.394.43 1.689 1.138 1.689.517.033 1.034-.197 1.31-.508v-5.116c0-.36.035-.574.207-.787.241-.197.431-.197 1.19-.213h.448c-.017.869-.035 1.984-.035 3.23v2.755c0 .524.07.901.19 1.23-.12.114-.345.245-.724.41-.104.032-.207.032-.241.032a.675.675 0 01-.621-.36c-.345.245-.707.41-1.017.508-.362.114-.707.18-1.121.18-2.104-.082-2.517-1.066-2.552-2.837l.155-3.378c0-.606-.086-1.049-.224-1.442.138-.115.397-.28.862-.492.138-.033.207-.033.242-.033.482 0 .707.328.776.607.103.377.19.737.19 1.574zm8.914-2.116c1.086.082 1.603.509 1.672.738 0 .213-.155.607-.344.836-.07-.016-.259-.049-.345-.065a3.624 3.624 0 01-.569-.131 2.166 2.166 0 00-.776-.148c-.603 0-.983.312-.983.754 0 .263.104.492.466.771.19.131.448.312.724.492.327.246.707.492 1 .705.724.574 1.07 1.148 1.07 1.836 0 1.558-1.346 2.345-3.018 2.345-1.121 0-2.087-.328-2.294-.787 0-.246.139-.623.345-.885h.173c.155 0 .327.049.517.147V50.6c.362.148.81.262 1.224.262.087 0 .207-.016.31-.033.518-.049.828-.393.828-.885 0-.36-.172-.672-.655-.984-.07-.05-.241-.164-.207-.131a17.302 17.302 0 01-1.172-.869l-.431-.328c-.535-.508-.794-1.017-.794-1.59 0-1.296 1.121-2.066 2.759-2.066.19 0 .38.016.5.032zm9.748.181c.137.262.155.492.155 1.18v5.493c0 .378-.07.64-.242.902-.12.18-.413.18-1.603.214v-1.345c0-.476.017-.984.017-1.508V46.27c0-.738-.017-1.246-.034-1.672.207-.41.793-.46 1.569-.46l.138.05zm3.793 1.787l.051-.05v5.05c0 .361-.034.558-.206.788-.242.197-.431.197-1.19.213h-.448c.016-.869.034-1.984.034-3.23V45.99c0-.524-.07-.902-.19-1.23.12-.13.345-.262.724-.41.104-.032.207-.032.242-.032.31 0 .517.147.62.344.345-.23.707-.393 1.018-.492.362-.115.707-.18 1.12-.18 2.155 0 2.57 1.05 2.57 2.919v2.475c0 .886.017 1.69.034 2.329-.224.197-.535.262-1.672.262a1.47 1.47 0 01-.19-.738v-4.296c0-1.18-.293-1.607-1.172-1.607-.552 0-1 .279-1.345.64zm9.069-1.968c1.086.082 1.603.509 1.672.738 0 .213-.155.607-.345.836-.069-.016-.258-.049-.344-.065a3.546 3.546 0 01-.57-.131 2.163 2.163 0 00-.775-.148c-.604 0-.983.312-.983.754 0 .263.103.492.465.771.19.131.449.312.724.492.328.246.707.492 1 .705.725.574 1.07 1.148 1.07 1.836 0 1.558-1.345 2.345-3.018 2.345-1.12 0-2.086-.328-2.293-.787 0-.246.138-.623.345-.885h.172c.156 0 .328.049.518.147V50.6c.362.148.81.262 1.224.262.086 0 .206-.016.31-.033.517-.049.828-.393.828-.885 0-.36-.173-.672-.656-.984-.068-.05-.24-.164-.206-.131a17.437 17.437 0 01-1.173-.869l-.43-.328c-.535-.508-.794-1.017-.794-1.59 0-1.296 1.12-2.066 2.759-2.066.19 0 .379.016.5.032zm4.896.181c.138.262.155.492.155 1.18v5.493c0 .378-.069.64-.241.902-.121.18-.414.18-1.604.214v-1.345c0-.476.018-.984.018-1.508V46.27c0-.738-.018-1.246-.035-1.672.207-.41.794-.46 1.57-.46l.137.05zm3.535 2.607c.086 1.033.5 1.672 1.345 1.672.775 0 1.085-.77 1-1.803-.104-1-.535-1.59-1.311-1.59-.673 0-1.155.557-1.034 1.721zm1.137 2.787c-.31 0-.517-.016-.724-.049l-.345.328a.322.322 0 00-.086.23c0 .147.31.295.88.344l.672.049c.276.016.552.05.827.066.224.016.466.032.621.065 1.069.197 1.81.77 1.862 1.738 0 1.443-1.569 3.083-3.707 3.558a9.467 9.467 0 01-1.603.148c-.862 0-1.655-.18-1.828-.722-.172-.82 1.57-2.23 2.655-2.918.431.213.535.77.225 1.05-.552.442-1.156 1.016-1.087 1.31.035.132.207.165.431.165.345 0 .845-.099 1.156-.148 1.138-.295 2.017-1.328 2-2v-.23c-.139-.344-.31-.623-.897-.688a13.13 13.13 0 00-1.155-.082c-.104 0-.224-.017-.328-.017-.793-.065-1.31-.23-1.31-.23-.845-.245-1.276-.688-1.293-1.18 0-.115.086-.23.224-.393.241-.23.569-.492.828-.722.086-.065.069-.082.137-.147-.741-.443-1.103-1.214-1.103-2.23 0-1.853 1.276-2.902 3.052-2.902.603 0 1.138.196 1.534.377-.034-.017-.051-.033 0-.066.38-.016.863-.033 1.224-.05h-.017c.224-.015.587-.032.759-.032.069.131.138.328.138.557 0 .427-.207.738-.62.738-.242 0-.346 0-.553-.016.276.41.397.803.397 1.328 0 1.755-1.12 2.771-2.966 2.771zm4.742 2.312c.017-.934.034-2.033.034-3.361V42.35c0-.672-.017-1.148-.034-1.508.224-.427.776-.509 1.638-.509.138.246.19.476.19 1.148v3.116c.276-.18.568-.312.827-.427a3.39 3.39 0 011.172-.196c1.793 0 2.294.901 2.294 3.115v2.378c0 .885 0 1.656.017 2.246-.207.213-.466.262-1.69.262a2.182 2.182 0 01-.155-.82v-3.918c0-.296 0-.509-.034-.673-.052-.967-.414-1.23-.932-1.23-.586 0-1.12.312-1.5.656v4.903c0 .328-.034.59-.19.853-.31.23-.516.23-1.482.23l-.155-.083zm12.241-1.278c.017.098.035.23.035.377s0 .328-.018.459c-.034.115-.12.213-.24.311-.397.246-1.053.394-1.604.394-1.724 0-2.052-1.46-2.052-2.804v-3.902a2.548 2.548 0 01-1.017-.23c0-.475.017-.475.155-.607.258-.164.517-.23.741-.295.138-.033.173 0 .276-.049.017-.46.07-.968.086-1.427.138-.377.587-.688 1.621-.754v.263c-.017.688-.035 1.213-.035 1.836h2.19c-.051.918-.19 1.131-.534 1.197a3.61 3.61 0 01-.431.033c-.345.016-.587.016-1.225.016-.017.722-.034 1.427-.034 2.115 0 .377.017.722.017 1.066v.804c.07.852.19 1.459.742 1.459.224.016.913-.213 1.034-.312l.293.05zM8.604 44.188c.137.262.155.492.155 1.18v5.493c0 .378-.07.64-.242.902-.12.18-.413.18-1.603.214v-1.345c0-.476.017-.984.017-1.508V46.27c0-.738-.017-1.246-.034-1.672.207-.41.793-.46 1.569-.46l.138.05zM44.01 6.726c1.833.494 4.681 4.382-.944 10.114 4.096-.362 8.28-3.2 9.197-6.596C53.669.678 43.253.014 41.4 0 35.45-.006 28 3.332 25.737 12.22c-1.406 6.726 1.223 12.52 4.535 15.364-.022-.095-.06-.23-.107-.403-.6-2.177-2.827-10.269 3.574-17.245 2.384-2.346 5.869-4.321 10.27-3.21zm-7.115 24.535c-2.72-3.359-3.502-13.767 2.637-17.063-2.269 5.983-.031 11.153 5.05 11.213 6.17.075 11.544-5.517 12.634-9.188.018 7.149-4.655 11.469-7.135 13.118-2.481 1.648-7.302 3.618-13.186 1.92z" fill-rule="evenodd" clip-rule="evenodd" fill="#000"/></svg>