<svg width="105" height="37" fill="none" xmlns="http://www.w3.org/2000/svg"><path fill-rule="evenodd" clip-rule="evenodd" d="M104.02 10.89c-2.068 2.116-4.285 4.079-6.738 5.8-2.818 1.98-5.841 3.58-9.26 4.466a25.51 25.51 0 01-5.565.797c-5.078.167-10.046-.511-14.926-1.803-2.939-.778-5.866-1.594-8.816-2.333a51.975 51.975 0 00-7.554-1.309c-1.85-.182-3.7-.227-5.555-.194-2.953.052-5.792.653-8.576 1.544-3.65 1.167-7.184 2.608-10.758 3.957-2.139.807-4.284 1.6-6.434 2.38-.29.106-.407.262-.416.53-.064 1.996-.088 3.988.46 5.942.147.521.193.552.78.477 1.328-.171 2.628-.47 3.93-.79.387-.09 1.24-.331 2.02-.598 1.844-.63 5.462-2.047 5.462-2.047s4.21-1.91 4.732-2.173l-.007-.003 1.92-.947c.023-.01.054-.027.073-.02.395.148.447.556.698.816.147.152.011.269-.105.365-.424.35-10.606 7.769-13.516 9.1-2.246 1.026-4.596 1.639-7.117 1.548a14.187 14.187 0 01-2.641-.32c-1.489-.337-2.455-1.262-3.133-2.5-.813-1.483-1.206-3.077-1.395-4.722-.058-.516-.118-1.033-.135-1.55-.01-.308-.1-.368-.414-.282-1.596.435-3.204.831-4.847 1.085-1.436.223-2.876.456-4.328.095-.552-.138-1.089-.304-1.478-.735-.384-.425-.488-.93-.265-1.338.067-.124.14-.245.32-.19.462.141.927.033 1.38-.024 3.286-.408 6.45-1.262 9.55-2.348.218-.076.28-.207.307-.406.393-2.871 1.248-5.624 2.439-8.29 1.27-2.845 3.016-5.405 5.175-7.732 1.711-1.844 3.595-3.497 5.784-4.828C27.253.983 29.65.236 32.246.043 34.58-.13 36.8.195 38.816 1.37c1.773 1.03 2.797 2.53 3.014 4.489.124 1.104.302 2.21-.063 3.307-.008.023-.01.048-.018.07-.12.358-1.752 2.884-2.144 3.316-.075.212-.309.295-.413.519.244.017.448-.04.65-.094a40.116 40.116 0 016.94-1.22c1.977-.165 3.963-.156 5.945-.044 4.524.255 8.908 1.259 13.3 2.216 3.139.684 6.295 1.281 9.497 1.63 1.816.2 3.637.341 5.466.4 1.07.034 2.14.075 3.206.042 1.955-.06 3.908-.144 5.856-.334 2.294-.224 4.528-.666 6.677-1.462 2.04-.754 3.794-1.935 5.481-3.217.49-.373.973-.753 1.449-1.142.169-.138.272-.124.407.039.341.415.327.623-.047 1.005zM34.392 4.236c-.157-.191-.363-.34-.575-.48-.348-.233-.7-.252-1.095-.11-1.076.383-2.006.978-2.88 1.667-2.244 1.767-3.894 3.982-5.38 6.313a38.882 38.882 0 00-3.852 7.855c-.041.116-.08.232-.118.348l2.116-.84 4.028-1.82-.02-.015c.63-.285 1.26-.57 1.89-.857 1.9-.87 3.805-1.729 5.427-3.037.45-.363.87-.753 1.254-1.178.079-.087.181-.115.723-1.016.108-.18.183-.765.219-1.152.192-2.096-.364-4-1.737-5.677zm13.655 22.621h-3.1v1.526h2.937v.898h-2.937v1.695h3.262v.95h-4.4v-6.001h4.238v.932zm3.172 2.823c0 .175.024.348.072.521.049.172.129.326.24.462.111.136.26.245.443.33.184.084.411.127.682.127.272 0 .5-.043.683-.127.183-.084.33-.194.443-.33.112-.138.193-.295.239-.462a1.93 1.93 0 00.072-.521v-3.755h1.139v3.797c0 .362-.066.688-.198.979a2.2 2.2 0 01-.543.741 2.417 2.417 0 01-.813.47 3.062 3.062 0 01-1.022.166 3.06 3.06 0 01-1.02-.165 2.452 2.452 0 01-.819-.47 2.11 2.11 0 01-.542-.742 2.37 2.37 0 01-.195-.98v-3.796h1.139v3.755zm9.591-3.666c.284.06.536.157.756.292.22.136.395.314.528.534.133.22.2.49.2.805 0 .435-.132.79-.394 1.064s-.619.459-1.071.555l1.708 2.662h-1.374l-1.482-2.543h-1.14v2.543H57.4v-6.001h2.533c.301 0 .594.03.876.089zm-2.27.809v1.686h1.24c.163 0 .326-.011.488-.033.163-.023.31-.065.439-.128a.845.845 0 00.32-.266.734.734 0 00.127-.445.657.657 0 00-.117-.403.869.869 0 00-.298-.25 1.308 1.308 0 00-.411-.127 3.07 3.07 0 00-.448-.034h-1.34zm6.334-.203c.312-.276.68-.49 1.084-.627.439-.15.903-.225 1.37-.22.5 0 .96.073 1.383.22.421.147.786.355 1.093.627.308.27.547.6.719.987.171.387.258.82.258 1.301 0 .469-.087.897-.258 1.284a2.95 2.95 0 01-.72 1 3.292 3.292 0 01-1.092.653c-.442.158-.91.237-1.383.232a3.913 3.913 0 01-1.37-.232 3.253 3.253 0 01-1.084-.653 2.982 2.982 0 01-.714-1 3.13 3.13 0 01-.258-1.284c0-.48.086-.914.258-1.3.171-.388.41-.717.714-.988zm.425 3.174a2.038 2.038 0 001.147 1.16c.268.111.566.166.89.166.326 0 .625-.055.895-.166a2.04 2.04 0 001.153-1.161c.105-.267.158-.563.158-.885 0-.31-.053-.599-.158-.864a2.106 2.106 0 00-.447-.695 2.08 2.08 0 00-.697-.466 2.321 2.321 0 00-.903-.17c-.332 0-.632.057-.9.17a2.07 2.07 0 00-.691.466 2.08 2.08 0 00-.447.695c-.109.277-.162.57-.16.864 0 .322.053.618.16.886zm8.36 1.199c.262.118.52.178.772.178.133 0 .269-.015.407-.047.14-.03.264-.083.375-.157a.907.907 0 00.272-.276.758.758 0 00.103-.41.637.637 0 00-.117-.394 1.029 1.029 0 00-.316-.272 2.393 2.393 0 00-.47-.199l-.57-.178a5.915 5.915 0 01-.578-.203 1.942 1.942 0 01-.52-.314 1.524 1.524 0 01-.375-.479c-.097-.189-.144-.424-.144-.707 0-.305.067-.568.202-.788.133-.217.315-.404.534-.547.22-.144.47-.251.75-.322.28-.07.565-.105.854-.105.325 0 .656.053.99.16.324.102.621.267.873.483l-.742.763a1.371 1.371 0 00-.51-.368 1.624 1.624 0 00-1.062-.102c-.129.029-.25.078-.362.144a.827.827 0 00-.267.254.667.667 0 00-.103.377c0 .136.03.251.09.348a.79.79 0 00.249.245c.105.068.233.127.383.178.151.051.317.102.498.153.205.063.417.133.637.212.22.08.421.184.605.313.184.13.335.294.453.491.117.199.175.444.175.738 0 .323-.063.603-.19.843a1.768 1.768 0 01-.505.598c-.22.162-.472.284-.742.356-.29.08-.592.12-.895.118a3.56 3.56 0 01-1.22-.216 2.361 2.361 0 01-.975-.64l.813-.712c.156.204.366.365.628.484zm9.287-4.136h-1.962v5.069h-1.138v-5.069h-1.962v-.932h5.062v.932zm4.004-.932l2.757 6h-1.302l-.596-1.372h-2.775l-.579 1.373h-1.274l2.784-6.001h.985zm.461 3.711l-.985-2.44-1.004 2.44h1.99zm7.151-3.622c.283.06.535.157.755.292.22.136.396.314.529.534.132.22.198.49.198.805 0 .435-.13.79-.393 1.064-.262.274-.619.459-1.07.555l1.707 2.662h-1.373l-1.483-2.543h-1.14v2.543h-1.14v-6.001h2.534c.3 0 .593.03.876.089zm-2.27.809v1.686h1.24c.162 0 .325-.011.488-.033a1.47 1.47 0 00.438-.128.837.837 0 00.32-.266.733.733 0 00.127-.445.65.65 0 00-.117-.403.861.861 0 00-.298-.25 1.307 1.307 0 00-.411-.127 3.057 3.057 0 00-.448-.034h-1.34zm5.573-.679h-.391v1.031h-.335v-1.03h-.391v-.269h1.117v.268zm1.12.566h.008l.301-.834h.484v1.3h-.329l.008-.92h-.006l-.36.92h-.235l-.35-.92H98.5l.008.92h-.315v-1.3h.476l.316.834z" fill="#000"/></svg>