<svg width="69" height="73" fill="none" xmlns="http://www.w3.org/2000/svg"><path fill-rule="evenodd" clip-rule="evenodd" d="M.01 23.115l-.003-.012L68.107 0v11.942L.01 23.115zm1.514 45.4l.187.978.147-.51.116-.502.466-1.478h.939l.427 1.478.263 1.013.225-1.013.007.001-.007-.001.388-1.478H5.78l-1.24 4.072H3.6l-.465-1.693-.263-.873-.226.909-.465 1.657h-.937l-.001-.002-.041-.037L0 67.003h1.098l.426 1.513zm-1.473-1.5H.019l.032.11v-.11zm6.847-4.89v.25l.04.215.076.142.077.142.114.108.115.07.191.071h.346l.192-.07.114-.071.115-.108.115-.142.038-.142.04-.215.037-.215v-2.27h1.059v4.072H8.508v-.315l-.22.17-.233.145-.312.072-.31.036-.233-.036L6.967 64l-.194-.036h-.001l-.193-.108-.156-.072v-.002l-.117-.144-.232-.252-.156-.288-.077-.325-.04-.287V59.89h1.097v2.233zm-.787 6.067l.194-.397.233-.288.31-.252.31-.18.389-.144.427-.037.427.037.388.144.311.18.31.252.233.288.194.397.078.397.038.431-.039.468-.077.397-.194.36-.232.325-.31.252-.312.18-.388.108-.427.036-.426-.036-.388-.107-.312-.18-.31-.253-.233-.325-.194-.36-.077-.397-.04-.468.04-.431.077-.397zm1.02 1.079l.038.251.078.178.077.179.153.142.153.107.152.035.192.036.192-.036.153-.035.153-.107.153-.142.078-.178.077-.18.076-.25v-.501l-.076-.214-.077-.217-.077-.176-.153-.107-.155-.108-.152-.07h-.383l-.153.07-.154.108-.152.107-.077.177-.078.215-.039.215-.038.25.038.25zm4.524-10.961v1.018h-1.097V58.31h1.097zm0 1.58v4.073h-1.097V59.89h1.097zm.077 7.12v.34l.182-.203.234-.144.233-.072.31-.037h.002l.193.037.233.035.195.072.193.11.005.002-.314.981-.007-.003-.155-.071-.192-.072-.154-.036-.192-.035-.191.035-.154.036-.152.071-.077.107-.115.106-.038.178-.04.179v2.449h-1.096v-4.072h1.097v.006zm.836-3.047v-5.255l1.098-.51v5.765h-1.098zm2.528 4.57l.373-.486.853-1.045h1.295l-1.166 1.337 1.317 2.736h-1.214l-.925-1.898-.533.672v1.226H14v-5.256l1.097-.51v3.224zm1.996-4.577v-.274l-.22.136-.233.144h-.001l-.233.073-.272.036-.388-.036-.35-.109-.272-.18-.272-.252-.194-.325-.116-.36-.078-.433-.038-.467.038-.468.078-.432.154-.325.195-.323.233-.219.31-.18.312-.108.388-.036h.271l.002.001.27.071h.002l.232.11.182.168v-1.46l1.097-.51v5.765h-1.097v-.007zm0-2.835l-.114-.105-.153-.143-.23-.107-.268-.035-.115.035-.154.036-.153.035-.115.106-.114.143-.077.214-.039.25-.039.323.04.358.038.287.077.214.114.142.154.107.115.072.153.07h.152l.23-.035.23-.107.154-.107.114-.141V61.12zm2.412 4.3v1.02h-1.097v-1.02h1.097zm0 5.653h-1.097V67h1.097v4.073zm-.362-7.112V59.89h1.096v4.072h-1.096zm2.411 3.045v.31l.223-.17.27-.145.272-.072.35-.036.348.036.351.108.272.144.233.18.155.29.116.325.078.358.038.433v2.306h-1.096v-2.485l-.038-.213-.078-.178-.075-.108-.116-.106-.114-.072-.152-.072h-.386l-.191.072-.113.07-.117.108-.113.142-.04.142-.038.215-.039.217v2.268h-1.096v-4.072h1.096v.005zm3.544 1.111l.155-.36.194-.285.232-.255.31-.18.313-.108.387-.036.272.036.272.072h.002l.233.107.181.169v-.276h1.099v3.67l-.04.47-.077.432-.155.36h-.003l-.116.144-.117.108-.155.142v.003l-.155.107-.387.145-.427.108-.51.036-.392-.803h.05l.462-.038.346-.07.233-.144.191-.142.075-.14.078-.179v-.452l-.181.17-.272.109-.235.108h-.272l-.387-.036-.351-.108-.272-.18-.27-.253-.195-.288-.116-.399-.078-.43-.039-.469.04-.468.077-.397zm1.018 1.188l.039.288.078.214.113.177.155.106.113.073.153.036h.385l.192-.109.191-.14.114-.143v-1.576l-.114-.142-.152-.105-.23-.109-.27-.036h-.116l-.153.036-.151.073-.117.105-.113.142-.078.18-.039.286-.039.286.04.358zm2.162-3.834l-.427.108-.509.036-.393-.805h.05l.463-.035.347-.072.23-.107.191-.142.077-.177.077-.18v-.416l-.221.136-.233.145-.233.072h-.001l-.31.036-.35-.036-.35-.145-.272-.18-.271-.216-.194-.326-.117-.359-.116-.432v-.937l.116-.431.117-.36.233-.29.232-.252.312-.144.31-.108.388-.037h.272v.001l.273.072.233.144.182.136v-.281h1.096v3.707l-.038.467-.077.398-.194.359-.079.145-.155.145-.116.108-.155.109-.388.144zm.106-4.352l-.114-.14-.154-.108-.23-.106-.269-.036h-.152l-.115.035-.154.071-.114.107-.115.143-.077.214-.038.25-.04.323.04.357.038.252.077.25.115.142.114.106.154.073.153.07h.114l.268-.036.193-.107.193-.106.113-.141V61.12zm4.5 7.396l.224.974.11-.507.154-.504.466-1.477h.9l.465 1.478.263 1.012.226-1.012.007.001-.007-.001.389-1.478h1.097l-1.242 4.073h-.938l-.505-1.695-.225-.87-.225.907-.504 1.658h-.94v-.042l-1.24-4.031h1.137l.388 1.514zm4.625-.324l.194-.36.233-.325.271-.252.35-.18.388-.145.426-.036h.001l.388.036.388.144.35.18.271.253.273.325.154.36.116.395.04.433-.04.469-.116.396-.154.36-.273.324-.272.253-.349.18-.388.108-.388.036-.427-.036-.388-.107-.35-.18-.271-.254-.233-.325-.194-.359-.116-.396-.038-.47.038-.432.116-.395zm1.02 1.329l.076.178.115.18.115.142.154.106.191.035.192.036.192-.036.152-.034.154-.107.114-.143.116-.178.077-.18.039-.249v-.502l-.04-.214-.076-.215-.115-.178-.115-.107-.154-.107-.152-.071h-.384l-.191.071-.154.107-.115.107-.114.178-.077.215-.04.214v.502l.04.25zm-3.804-8.438l-.039-.142-.076-.106-.075-.07-.115-.071-.154-.037-.307-.035-.31.035-.307.037-.27.108-.232.107-.006.003-.432-.695.394-.183.387-.143.427-.073h.813l.35.073.31.144.272.144.195.216.155.218.078.29.039.323v2.737h-1.097v-.317l-.221.172-.31.145h-.002l-.27.072-.233.036h-.002l-.31-.036-.271-.036-.272-.11-.233-.143-.233-.217-.155-.253-.117-.288-.04-.36.04-.361.117-.29.194-.216.233-.182.272-.144.271-.072.31-.071h.544l.272.035.233.073.183.068v-.385zm-.189 1.083l-.193-.071-.23-.037h-.386l-.153.036-.115.036-.114.07-.076.072-.077.106-.038.106v.25l.038.142.077.105.076.073.114.07.115.035.154.037.154.036.268-.036.269-.108.154-.142.152-.142v-.568l-.189-.07zm-12.247 1.797H21.19v-4.072h1.097v.35l.22-.205.273-.108.272-.11h.698l.311.11.273.143.232.217.194.253.118.324.077.36.038.432v2.306h-1.096v-2.485l-.04-.178-.076-.179-.077-.142-.114-.107-.114-.07-.192-.035v-.001l-.154-.035-.191.036-.193.035-.113.07-.116.107-.115.143-.076.178-.04.178v2.485zm6.72-26.535l4.17-7.46.002-.004h8.099L32.65 43.803v9.022h-7.36v-9.022l-8.59-13.84h8.176l4.133 7.465zm-8.77 20.88v1.02h-1.096v-1.02h1.096zM.428 29.965h13.969l3.257 5.258H7.788v3.759h8.932v4.826H7.788v3.76h12.335v5.258H.428V29.964zM4.42 61.078l.156.108.155.144.117.145.116.217v.001l.04.216.038.287-.039.397-.116.36-.155.289-.233.253-.311.216-.35.145-.426.071-.465.036H.428v-5.58h2.559l.388.035.387.072.311.107.272.182.232.217.156.253.078.288.039.325v.001l-.039.144-.039.179-.039.145-.078.181v.001l-.116.107-.116.144-.118.11-.143.066.26.138zm-.784-1.286l-.04-.108-.036-.106-.076-.07-.115-.072-.153-.036-.347-.034H1.524v1.172h1.423l.192-.036.155-.037.152-.07.077-.072.076-.07.038-.106.039-.213-.04-.142zm.193 2.263l-.038-.179-.078-.143-.076-.105-.152-.072-.154-.07-.153-.037H1.524v1.568H3.14l.192-.036.153-.071.115-.107.115-.108.077-.141.038-.143.039-.178-.04-.178zm36.855 2.016l-.272-.035-.272-.073-.233-.145-.182-.135v.28h-1.097v-5.147l1.097-.511v1.866l.182-.136.272-.144h.001l.233-.073h.272l.388.037.31.108.312.18.233.218.194.323.155.325.077.432.04.468-.04.468-.077.432-.117.36-.194.325-.271.252-.272.18-.35.11-.389.035zm.496-1.446l.039-.215.039-.251.038-.286-.038-.286-.038-.252-.078-.177-.114-.179-.115-.107-.154-.07-.154-.036-.114-.036-.23.036-.23.071-.153.142-.153.178v1.575l.114.106.154.143.23.107.115.035h.153l.193-.035.153-.036.152-.106.114-.142.077-.179zm1.91 4.383v.344l.219-.205.233-.144.002-.001.232-.071h.001l.273-.037.231.037.234.035.195.072.154.11.004.002-.274.982-.007-.004-.154-.071-.193-.072-.192-.036-.193-.036-.153.036-.154.036-.153.071-.114.107-.076.106-.038.178-.04.179-.037.25v2.199h-1.098v-4.073h1.098v.006zm1.033-3.118l-.35-.18-.272-.216-.27-.325-.156-.36-.116-.396-.04-.469.04-.468.116-.397.155-.359.234-.325.31-.253.31-.18.388-.108.427-.036.389.037.349.108.31.18.273.252.232.289.156.36.077.433.038.467v.295H44.02l.074.279.078.213.154.143.115.107.191.071.115.035.27.036.268-.036.231-.071.192-.108.154-.142.005-.004.707.656-.006.005-.193.143-.155.144h-.001l-.195.108-.194.072-.387.145-.426.036-.467-.036-.426-.145zm-.067-2.383h1.608l-.038-.316-.076-.14-.076-.108-.116-.108-.152-.106-.155-.036-.191-.036-.153.036-.153.036-.154.072-.114.106-.077.106-.077.144-.076.178v.172zm2.435 9.567h-1.096V65.82l1.096-.51v5.765zm1.185-12.223l1.097-.51v1.549h.928v.947h-.928v1.717l.04.251.075.142.075.07.075.035.192.035h.192l.153-.035.309-.144.012-.005-.118.95-.003.001-.195.109-.233.036-.232.035-.273.037-.272-.037-.27-.108h-.002l-.194-.109h-.001l-.155-.18-.117-.18v-.001l-.078-.217-.037-.216-.04-.216v-1.97h-.657v-.947h.657v-1.04zm-.348 9.27l.155-.36.194-.289.233-.253.312-.18.349-.108.388-.036h.002l.232.036.271.072.234.108.22.171V65.82l1.098-.51v5.765h-1.098v-.315l-.22.17-.273.145-.233.072h-.272l-.388-.035-.31-.11-.312-.18-.233-.252-.194-.29-.155-.395-.077-.397-.039-.503.039-.468.077-.396zm1.097 1.472l.077.215.115.178.114.107.154.071.114.035h.422l.19-.106.156-.143.151-.142v-1.575l-.113-.141-.193-.107-.192-.108-.268-.036H49l-.153.036-.115.071-.114.107-.115.142-.077.178-.078.287v.645l.078.286zm2.5-6.137l-.078-.217-.039-.216-.04-.216v-1.97h-.656v-.947h.657v-1.04l1.097-.51v1.549h1.006v.947h-1.006v1.717l.039.251.076.142.076.07.075.035.192.035h.191l.154-.035.32-.15-.117.95-.004.002-.194.109h-.002l-.232.036-.232.036-.272.036-.273-.037-.271-.108-.195-.109-.156-.18-.116-.18v-.001zm2.552-2.377l.193-.359.233-.325.271-.253.351-.18.387-.108.39-.036.424.036.351.109.31.18.273.252.194.289.154.36.117.433.038.467v.295H54.46l.037.279.115.212.116.144.153.107.153.071.154.035.23.036.27-.036.23-.071.192-.108.192-.142.006-.004.667.655-.005.005-.155.144-.194.144-.155.108-.194.072-.427.145-.426.036-.427-.036-.428-.145-.348-.18-.31-.216-.234-.325-.193-.36-.079-.396-.038-.469.038-.468.079-.397zm1.019.427h1.607l-.075-.315-.038-.142-.077-.106-.114-.108-.154-.106-.152-.036-.192-.036-.191.036-.155.036-.114.07-.115.108-.115.107-.076.142-.04.178v.172zm4.446-1.609v.34l.181-.202h.002l.233-.11.271-.107h.467l.233.036h.002l.193.109.193.071.006.002-.315 1.021-.008-.006-.153-.107-.155-.07-.191-.037h-.386l-.151.035-.115.072-.115.106-.076.143-.077.142-.039.215v2.413h-1.097V59.89h1.097v.007z" fill="#000"/></svg>