<svg width="176" height="62" fill="none" xmlns="http://www.w3.org/2000/svg"><path d="M91.342 35.042h3.527v3.527h-3.527zm12.346 0h3.527v3.527h-3.527zm11.464 0h3.527v3.527h-3.527zm11.464 0h3.527v3.527h-3.527zm11.464 0h3.527v3.527h-3.527zm11.464 0h3.527v3.527h-3.527zm11.464 0h3.527v3.527h-3.527zm11.465 0H176v3.527h-3.527zM91.342 58.056h3.527v3.527h-3.527zm12.346 0h3.527v3.527h-3.527zm11.464 0h3.527v3.527h-3.527zm11.464 0h3.527v3.527h-3.527zm11.464 0h3.527v3.527h-3.527zm11.464 0h3.527v3.527h-3.527zm11.464 0h3.527v3.527h-3.527zm11.465 0H176v3.527h-3.527zm-81.131-11.55h3.527v3.527h-3.527zm12.346 0h3.527v3.527h-3.527zm11.464 0h3.527v3.527h-3.527zm11.464 0h3.527v3.527h-3.527zm11.464 0h3.527v3.527h-3.527zm11.464 0h3.527v3.527h-3.527zm11.464 0h3.527v3.527h-3.527zm11.465 0H176v3.527h-3.527zM91.342.281h3.527v3.527h-3.527zm12.346 0h3.527v3.527h-3.527zm11.464 0h3.527v3.527h-3.527zm11.464 0h3.527v3.527h-3.527zm11.464 0h3.527v3.527h-3.527zm11.464 0h3.527v3.527h-3.527zm11.464 0h3.527v3.527h-3.527zm11.465 0H176v3.527h-3.527zM91.342 23.295h3.527v3.527h-3.527zm12.346 0h3.527v3.527h-3.527zm11.464 0h3.527v3.527h-3.527zm11.464 0h3.527v3.527h-3.527zm11.464 0h3.527v3.527h-3.527zm11.464 0h3.527v3.527h-3.527zm11.464 0h3.527v3.527h-3.527zm11.465 0H176v3.527h-3.527zM91.342 11.746h3.527v3.527h-3.527zm12.346 0h3.527v3.527h-3.527zm11.464 0h3.527v3.527h-3.527zm11.464 0h3.527v3.527h-3.527zm11.464 0h3.527v3.527h-3.527zm11.464 0h3.527v3.527h-3.527zm11.464 0h3.527v3.527h-3.527zm11.465 0H176v3.527h-3.527zM12.346 35.042h3.527v3.527h-3.527zm11.464 0h3.527v3.527H23.81zm11.464 0h3.527v3.527h-3.527zm11.464 0h3.527v3.527h-3.527zm11.465 0h3.527v3.527h-3.527zm11.464 0h3.527v3.527h-3.527zm11.464 0h3.527v3.527h-3.527zM12.346 58.056h3.527v3.527h-3.527zm11.464 0h3.527v3.527H23.81zm11.464 0h3.527v3.527h-3.527zm11.464 0h3.527v3.527h-3.527zm11.465 0h3.527v3.527h-3.527zm11.464 0h3.527v3.527h-3.527zm11.464 0h3.527v3.527h-3.527zM0 46.506h3.527v3.527H0zm23.81 0h3.527v3.527H23.81zm11.464 0h3.527v3.527h-3.527zm11.464 0h3.527v3.527h-3.527zm11.465 0h3.527v3.527h-3.527zm11.464 0h3.527v3.527h-3.527zm11.464 0h3.527v3.527h-3.527zM46.738.281h3.527v3.527h-3.527zm11.465 0h3.527v3.527h-3.527zm11.464 0h3.527v3.527h-3.527zm11.464 0h3.527v3.527h-3.527zM23.81 23.295h3.527v3.527H23.81zm22.928 0h3.527v3.527h-3.527zm11.465 0h3.527v3.527h-3.527zm11.464 0h3.527v3.527h-3.527zm11.464 0h3.527v3.527h-3.527zM35.274 11.746h3.527v3.527h-3.527zm11.464 0h3.527v3.527h-3.527zm22.929 0h3.527v3.527h-3.527zm11.464 0h3.527v3.527h-3.527z" opacity=".2" fill="#fff"/></svg>