<svg width="87" height="49" fill="none" xmlns="http://www.w3.org/2000/svg"><path fill-rule="evenodd" clip-rule="evenodd" d="M85.595 34.163a.858.858 0 01-.778-.469 1.033 1.033 0 010-.972c.162-.3.46-.479.778-.468.47.016.845.438.845.954s-.374.939-.845.955zm0-1.723a.668.668 0 00-.5.22.802.802 0 00-.208.544.804.804 0 00.206.549.67.67 0 00.501.223c.388 0 .702-.343.702-.768 0-.424-.314-.768-.702-.768zm.125.798l.265.443h-.149l-.251-.443h-.155v.443h-.13v-.965h.384a.415.415 0 01.215.045c.065.042.098.129.098.21 0 .19-.123.26-.277.267zm-.061-.412h-.229v.29h.143c.123 0 .292.025.292-.148 0-.125-.097-.142-.206-.142zm-4.023 6.272c2.26 1.66 2.958 2.861 2.958 4.931 0 3.04-1.934 4.906-4.776 4.906-2.005 0-3.17-.689-3.8-.689v-3.578h.327c.28 1.56 1.748 2.633 3.309 2.633 1.329 0 2.378-.768 2.378-2.301 0-1.047-.466-1.968-1.678-2.887l-1.702-1.278c-1.468-1.098-2.702-2.35-2.702-4.6 0-2.657 1.63-4.369 4.333-4.369 1.609 0 2.284.41 3.217.511v3.092h-.326c-.211-1.175-1.329-2.12-2.82-2.12-1.399 0-2.028.844-2.028 1.967 0 .971.536 1.737 1.842 2.708l1.468 1.074zm-9.578 0c2.26 1.66 2.96 2.861 2.96 4.931 0 3.04-1.935 4.906-4.778 4.906-2.005 0-3.17-.689-3.8-.689v-3.578h.328c.28 1.56 1.747 2.633 3.308 2.633 1.33 0 2.378-.768 2.378-2.301 0-1.047-.466-1.968-1.678-2.887l-1.702-1.278c-1.468-1.098-2.702-2.35-2.702-4.6 0-2.657 1.63-4.369 4.335-4.369 1.607 0 2.282.41 3.215.511v3.092h-.326c-.21-1.175-1.33-2.12-2.82-2.12-1.398 0-2.027.844-2.027 1.967 0 .971.535 1.737 1.84 2.708l1.469 1.074zm-14.869 9.25c.117-.127.14-.792.14-1.15V34.166c0-1.072-.325-1.634-.675-1.71v-.333h8.179v2.248h-.303c-.07-.383-.768-.639-1.212-.639H60.22v5.673h2.609c.35 0 1.166-.103 1.259-.358h.303v2.147h-.303c-.118-.129-.77-.18-1.166-.18H60.22v6.056h3.075c.84 0 1.352-.358 1.445-.766h.303v2.377h-7.854v-.334zM55.3 26.092l.003-.19c.566.024.884-.343.894-.947-.05.095-.199.188-.358.206-.425.048-.687-.187-.718-.607-.035-.452.23-.83.631-.868.532-.051.825.326.846.948.036 1.087-.579 1.559-1.297 1.458zm.53-2.222c-.274 0-.3.383-.3.547-.002.3.072.519.297.519.3 0 .301-.41.301-.546.001-.165-.048-.52-.298-.52zm-10.64 9.862c-.257-.513-.746-1.201-1.189-1.278v-.332h3.728L53.112 42.7v-8.535c0-1.072-.256-1.634-.582-1.71v-.333h2.214V48.68h-1.842L45.19 33.733zm8.927-8.461c0 .465-.325.833-.856.833-.157 0-.322-.024-.466-.097l.008-.197a.864.864 0 00.452.069c.257-.031.45-.271.447-.554 0-.331-.193-.513-.49-.513a.86.86 0 00-.353.071l.075-1.16h1.091v.307a.797.797 0 00-.226-.032h-.527l-.031.59c.083-.013.155-.024.261-.017.379.022.615.305.615.7zM53.795 6.02h-.025l-.25 1.04h-.15l-.249-1.04v1.04h-.2V5.746h.3l.224.931.225-.931h.3V7.06h-.175V6.02zm-1.323 1.04h-.225V5.966h-.298v-.22h.822v.22h-.3V7.06zm-6.413-.998c-1.403-.077-2.67-.463-4.44-1.32a28.21 28.21 0 01-1.972-1.073c-.007.043-.189.95-.676 2.11-.474 1.164-.975 1.91-1.003 1.948l.63 1.519c.01-.06.243-1.168.841-2.587.583-1.434 1.192-2.357 1.223-2.4-.01.054-.242 1.164-.842 2.588-.582 1.43-1.188 2.353-1.222 2.4l.672 1.622c.012-.072.292-1.416 1.018-3.142.708-1.74 1.45-2.86 1.487-2.911-.01.065-.29 1.413-1.019 3.144-.706 1.737-1.445 2.854-1.485 2.91l.723 1.744c.016-.089.358-1.697 1.23-3.765.849-2.089 1.733-3.435 1.777-3.497-.013.078-.356 1.692-1.231 3.77-.847 2.08-1.727 3.425-1.776 3.493l.777 1.873c.02-.106.432-2.027 1.472-4.502 1.02-2.499 2.073-4.11 2.126-4.184-.015.093-.428 2.022-1.474 4.506-1.016 2.492-2.064 4.099-2.123 4.18l.844 2.035c.025-.133.532-2.446 1.785-5.423 1.225-3.008 2.487-4.954 2.55-5.044-.02.112-.525 2.435-1.783 5.426-1.222 3-2.482 4.944-2.551 5.043l.912 2.195c.029-.15.678-2.96 2.207-6.6 1.496-3.67 3.003-6.058 3.079-6.169-.026.135-.674 2.953-2.206 6.602-1.494 3.662-2.998 6.049-3.08 6.168l.533 1.283c.175.439.475.711.8.766-.6.959-2.55 3.093-2.998 3.422L35.1 6.786a2.11 2.11 0 01-.924.22c-1.398 0-2.471-1.177-2.471-2.9C31.704 1.997 33.35 0 36.57 0c1.223 0 2.695.3 4.367.984C45.235 2.764 48.803 1.97 51.1 0l1.298 3.694c-1.363 1.405-3.974 2.497-6.339 2.368zM34.1 3.448c-.5 0-.924.465-.924 1.012 0 .548.424 1.013.924 1.013.499 0 .923-.465.923-1.013 0-.547-.424-1.012-.923-1.012zm3.727-.804c-.833-.37-1.826-.414-2.428-.18.503.297.817.97 1.195 1.929.069.173.36.882.78 1.895.006-.039.14-.752.522-1.658.371-.914.773-1.497.795-1.525a9.53 9.53 0 00-.864-.461zm.864.461c-.005.037-.14.752-.523 1.66-.37.913-.772 1.495-.794 1.524l.594 1.438c.008-.05.19-.954.676-2.11.475-1.166.977-1.913 1.003-1.948-.35-.205-.667-.396-.956-.564zm-7.462 20.79c-.22 0-.377.125-.395.308a.324.324 0 00.09.254c.06.067.155.12.306.2.393.186.55.382.55.739 0 .355-.226.711-.75.711a.861.861 0 01-.55-.182v-.228a.785.785 0 00.551.172c.193-.015.354-.141.363-.349.01-.208-.11-.316-.364-.453-.397-.2-.554-.362-.55-.712.006-.369.264-.673.675-.684a.902.902 0 01.49.115v.246a.703.703 0 00-.416-.136zm-.748 24.786h-3.286v-.334c.093-.075.163-.791.163-1.226V34.166c0-1.072-.326-1.634-.675-1.71v-.333h3.541v14.718c0 .945.163 1.48.256 1.506v.334zM28.46 25.67v-1.615c0-.138 0-.192-.025-.328h1.172v.302A1.08 1.08 0 0029.35 24h-.465v.712h.349a1.2 1.2 0 00.225-.02v.313a1.108 1.108 0 00-.225-.02h-.35v.794h.55c.1 0 .154-.018.225-.039v.312h-1.223c.025-.137.025-.273.025-.382zm-8.396 23.265c-3.542 0-5.034-2.171-5.034-5.493v-9.276c0-1.072-.326-1.634-.675-1.71v-.333h3.589v11.395c0 1.1.116 1.687.326 2.147.465.996 1.304 1.304 2.214 1.304.955 0 1.864-.308 2.33-1.304.21-.46.326-1.048.326-2.274v-9.225c0-1.072-.326-1.634-.676-1.71v-.333h2.4v11.038c0 1.302-.092 2.018-.279 2.657-.56 2.07-2.074 3.117-4.52 3.117zm-7.364-.767c-.163.078-2.214.819-4.917.819C3.565 48.987 0 45.639 0 38.639c0-6.057 3.122-10.07 7.643-10.07 2.214 0 3.262.614 3.916.614.093 0 .139-.025.163-.051h.232v4.115h-.373c-.442-2.095-1.91-3.015-3.542-3.015-2.656 0-4.824 2.427-4.824 8.279 0 6.26 2.4 8.738 4.918 8.738.722 0 1.234-.102 1.561-.255v-5.98c0-.868-.21-1.967-1.072-2.172v-.357h4.241v.332c-.116.077-.162 1.251-.162 1.764v7.587zm19.953-24.14c-.075 0-.15 0-.225.027v-.328H34v.328c-.075-.027-.15-.027-.224-.027h-.35v1.642c0 .109 0 .245.025.382h-.474c.025-.137.025-.273.025-.382v-1.643h-.35zM40.85 42.7v-8.535c0-1.072-.256-1.634-.582-1.71v-.333h2.215V48.68H40.64l-7.713-14.948c-.257-.513-.746-1.201-1.189-1.278v-.332h3.73L40.85 42.7zm-8.086-7.053l1.63 3.296v8.05c0 .639.118 1.277.234 1.353v.333h-2.004v-.333c.116-.126.14-1.098.14-1.277V35.648zm2.932-9.861v.286a.4.4 0 00-.15-.021h-.249c-.05 0-.11 0-.15.019v-.284a.47.47 0 00.15.02h.25c.05-.001.1-.008.15-.02zm-.824-.583v-1.341c0-.028 0-.082-.024-.136h.55c.498 0 .797.19.797.765 0 .493-.3.85-.723.85h-.624c.024-.056.024-.11.024-.138zm.35-.078h.15c.274 0 .45-.175.45-.639 0-.377-.176-.551-.4-.551h-.2v1.19zm15.339-1.091v-.31h1.389l-.973 2.326h-.441l.898-2.05h-.648a.564.564 0 00-.224.035zm-11.221 3.33L34.25 8.457c-.05-.191-.15-.548-.15-.712 0-.219.15-.355.35-.355.149 0 .274.082.324.247l5.466 18.307c5.843-5.173 8.963-11.576 8.413-19.485.8-.191 1.822-.603 2.42-.985 1.373 8.429-1.196 16.146-7.436 21.893H39.34zm9.443-3.48l.565-.215v1.998c0 .109 0 .246.025.383h-.446c.024-.137.024-.274.024-.383v-1.43a.421.421 0 00-.168-.354zm-3.759 11.763l1.632 3.296v8.05c0 .639.116 1.277.232 1.353v.333h-2.003v-.333c.116-.126.139-1.098.139-1.277V35.648z" fill="#000"/></svg>