<svg width="81" height="62" fill="none" xmlns="http://www.w3.org/2000/svg"><path fill-rule="evenodd" clip-rule="evenodd" d="M80.6 19.623H63.487c.105-1.867 1.624-3.344 3.482-3.344V8.48C51.16 7.917 43.762 2.659 40.357 0c-3.405 2.66-10.823 7.917-26.632 8.48v7.799c1.859 0 3.377 1.477 3.482 3.344H0v21.563h15.993c0 .688-.358 2.729-4.655 3.216C14.283 47.16 31.446 62 40.358 62c8.91 0 26.12-14.84 29.064-17.598-4.018-.446-4.655-2.244-4.655-3.216H80.6V19.623zm-65.128-4.676l.003-4.864c14.305-.756 21.365-5.131 24.882-7.82 3.773 2.726 10.557 7.064 24.862 7.82l-.007 4.864c-1.946.716-3.351 2.461-3.417 4.676h-1.717c.055-2.508 1.4-4.563 3.386-5.763l.005-2.202c-11.553-.83-19.094-4.479-23.112-7.295-3.507 2.625-10.56 6.141-23.13 7.295l.004 2.202c1.986 1.2 3.33 3.255 3.386 5.763h-1.718c-.066-2.215-1.48-3.96-3.427-4.676zm43.049 2.694v1.983h-1.87v-1.558c0-.487-.576-.71-.836-.71h-1.79v2.267h-1.87v-8.369l4.496.954c.637.14 1.87.567 1.87 1.824v1.358c0 .486-.06.913-.656 1.217.278.162.656.709.656 1.034zm-7.957-4.987v5.109c.02.628-.338 1.86-1.97 1.86h-2.446c-.816 0-1.87-.442-1.87-1.942v-7.46c0-.893.895-1.461 1.89-1.095l3.263 1.277c.795.324 1.154 1.034 1.133 2.25zm-13.606-2.332v-2.11l3.4-1.885 3.562 1.988v2.108l-2.466-1.36v10.56h-2.028V8.943l-2.468 1.379zm-.238-.101v7.46c0 1.5-1.054 1.942-1.87 1.942h-2.446c-1.631 0-1.99-1.232-1.97-1.86v-5.11c-.02-1.216.339-1.926 1.134-2.25l3.263-1.277c.994-.366 1.89.202 1.89 1.095zm-10.722 9.402l-1.531-3.341v3.341h-1.87v-7.031l1.87-.345 1.472 3.203 1.63-3.872 1.751-.467v8.512h-1.87v-3.462l-1.452 3.462zm39.445 25.509c-4.694 4.865-18.879 15.003-25.086 15.003-6.206 0-20.346-10.138-25.04-15.003 2.427-1.096 2.824-2.69 2.983-3.947h1.95c-.119 1.176-.358 3.054-1.95 4.19 1.831 1.784 15.533 12.975 22.057 12.975 6.525 0 20.272-11.19 22.102-12.976-1.59-1.135-1.83-3.013-1.95-4.189h1.95c.159 1.257.557 2.851 2.984 3.947zm-41.148 1.131c.108.072 4.307 3.41 4.307 3.41v2.03s-5.908-4.497-6.086-4.606c-.214-.145-.498-.653-.57-1.015-.07-.364 0-3.266 0-3.592 0-.327.356-1.305.855-1.305h4.591v1.922h-2.74c-.428-.036-.677.108-.677.507v2.14c0 .146.178.436.32.509zm4.199-5.078h1.92l1.034 3.265 1.672-3.265h1.815l-2.598 5.732v6.855c0 .328-1.815-.688-1.851-.942-.071-.255 0-5.986 0-5.986l-1.992-5.659zm8.972 12.436c.107.218 2.455 1.342 2.455 1.342v2.249s-3.772-1.632-4.128-1.994a1.437 1.437 0 01-.427-1.016V42.81c0-.689 1.352-1.626 1.672-1.626h2.777v2.062c0 .071-1.602.071-1.993 0-.214-.036-.499.254-.499 1.27v8.415c0 .18 0 .508.143.69zm8.006-.544v1.958s-3.132 1.415-3.63 1.67c-.285.144-.605-.11-.605-.545V41.186h2.136v12.761l2.1-.87zm4.59-6.888v1.67h-1.993v4.026l2.42-1.161v1.778l-3.203 1.632c-.391.181-.89 0-.89-.363V41.91c0-.471.391-.724.712-.724h3.737v2.067h-2.776v2.937h1.992zm6.154.14s-3.133.074-3.703 0c-.533-.072-.747-.18-.747-.58 0-.362-.035-2.757 0-3.444.071-.691 1.14-1.048 1.638-1.12.463-.036 4.697 0 4.697 0v1.88h-4.519c-.178 0-.143 1.56 0 1.56h4.057c.57 0 .497.145.497.4v2.32c0 .255-.355.546-.497.69-.107.109-6.051 3.772-6.051 3.772v-1.632s4.734-3.047 4.77-3.264c.07-.326-.142-.581-.142-.581zm22.674-6.955H1.79v-17.68h77.1v17.68zm-46.15-27.35l1.513-.608c.278-.121.596 0 .596.447v5.189c0 .345-.16.629-.577.629H32.9c-.436 0-.596-.223-.596-.589v-4.135c0-.446.04-.73.437-.933zm15.953.933v4.135c0 .366-.158.589-.596.589h-1.373c-.417 0-.577-.285-.577-.63v-5.188c0-.447.319-.568.597-.447l1.512.608c.397.203.437.487.437.933zm7.559 1.014c.398.081.398.466.398.811 0 .344-.06.668-.417.668h-2.21v-1.946l2.229.467zM3.581 23.317v14.232H77.14V23.317H3.581zm6.861 12.57H8.823v-4.76h-1.28v4.76H5.925V24.8h1.62v4.433h1.28V24.8h1.618v11.085zm3.771 0l-.285-2.884h-1.186l-.331 2.883h-1.467l1.238-11.085h2.428l1.238 11.085h-1.635zm6.78-7.613c0 .824-.146 1.47-.728 1.94.084.098.708.522.728 1.273v4.4h-1.62l.002-3.708c0-.67-.279-.884-1.312-.884v4.591h-1.619V24.801h2.675c1.3 0 1.875.467 1.875 1.9v1.573zm4.201 7.612H21.93V24.801h1.62v9.334h1.644v1.751zm3.92 0h-3.376V24.801h3.346v1.732h-1.727v2.708h1.65v1.751h-1.65v3.143h1.757v1.751zm3.757 0h-1.62v-4.14L29.586 24.8h1.665l.873 3.873.9-3.873h1.512l-1.665 6.866v4.22zM37 31h-2.964v-1.398H37V31zm5.103 2.878c0 1.059-.672 2.008-1.925 2.008H37.87V24.801h1.955c1.605 0 2.277.56 2.277 2.507v6.57zm3.699 2.008l-.286-2.883H44.33l-.331 2.883h-1.467l1.237-11.085h2.43l1.237 11.085H45.8zm4.457 0h-1.811l-1.521-11.085h1.65l.787 6.666.785-6.666h1.63l-1.52 11.085zm3.598 0h-1.62V24.801h1.62v11.085zm5.193-2.008c0 1.059-.672 2.008-1.925 2.008h-2.306V24.801h1.955c1.604 0 2.276.56 2.276 2.507v6.57zm5.27-5.314H62.7v-1.546c0-.563-.326-.686-.648-.686-.335 0-.642.123-.642.686v1.227c0 .794 2.89 2.2 2.89 3.32v2.67c0 1.45-1.254 1.87-2.263 1.87-.992 0-2.227-.42-2.227-1.87v-2.41h1.619v1.967c0 .561.288.685.623.685.322 0 .629-.123.629-.685v-1.167c0-1.558-2.891-1.99-2.891-3.795v-2.379c0-1.448 1.255-1.868 2.247-1.868 1.009 0 2.283.42 2.283 1.868v2.113zm5.258 5.672c0 1.45-1.305 1.869-2.298 1.869-.993 0-2.268-.42-2.268-1.87v-7.784c0-1.448 1.275-1.868 2.268-1.868.993 0 2.298.42 2.298 1.868v7.785zm5.56 1.65h-1.982l-1.287-6.31v6.31h-1.627V24.801h2.19l1.058 5.637V24.8h1.647v11.085zM12.934 31.13l.377-4.304h.107l.316 4.305h-.8zm5.128-4.802h.64c.368 0 .612.267.612.688v1.663c0 .404-.123.898-.687.898h-.565v-3.249zm21.427.223h.382c.411 0 .61.11.61.825v5.938c0 .715-.199.825-.61.825h-.383V26.55zm5.033 4.58l.377-4.305h.106l.316 4.305h-.8zm11.913-4.58h.383c.412 0 .61.11.61.825v5.938c0 .715-.198.825-.61.825h-.383V26.55zm10.195 7.02v-6.512c0-.561.327-.685.663-.685.337 0 .663.124.663.685v6.512c0 .56-.326.684-.663.684-.336 0-.663-.125-.663-.684z" fill="#000"/></svg>