<svg width="95" height="46" fill="none" xmlns="http://www.w3.org/2000/svg"><path fill-rule="evenodd" clip-rule="evenodd" d="M89.67 42.229l4.38 2.83h-3.391l-4.169-2.777h-3.655v2.777h-2.783v-8.013h8.627c1.778 0 2.67.117 3.393.458.813.384 1.26 1.07 1.26 2.14 0 .802-.338 1.574-1.047 1.983-.683.395-1.569.564-2.615.602zm.878-2.629c0-.574-.108-.945-.409-1.186-.317-.255-.78-.359-1.822-.359h-5.482v3.217h5.516c.888 0 1.377-.058 1.726-.316.356-.264.47-.686.47-1.205v-.15zm-7.979-10.72c.649.519.911 1.127.99 1.76 0 0-.813 1.387-1.537 1.744-2.038 1.005-3.572-.837-5.239-2.536-1.217-1.246-1.616-1.395-2.334-1.798-1.648-.932-3.274-.848-5.27-.72l-3.27.317c-7.233.682-9.316-4.917-10.958-7.737-.404-.69-1.735-1.742-3.195-1.86 0 0-.852-.034-1.936.117-6.246.864-8.63.432-11.17-.462-1.589 2.08-5.809.903-5.809.903-1.419-.4-7.72-2.763-8.434-3.01-1.09-.381-1.501.793-1.501.793-1.122 2.648-3.445 2.845-3.469 2.869 0 0-2.46-.918-1.257-3.579.463-1.019 2.053-3.525 4.53-3.999.868-.166 2.004-.41 2.96-.492-3.344-2.869-5.312-2.281-5.432-2.265 0 0-1.8.338-3.084 1.598-.468.459-.805 1.02-1.249 1.677 0 0-.229.437-.834.398-.877-.058-1.782-.717-1.782-.717-.21-.165-.128-.527-.029-.716.065-.111.164-.302.164-.302a9.373 9.373 0 01-.155-.536c-.072-.317-.06-.396-.06-.396s.512.309.786.309c.079 0 .117-.014.117-.014.407-.133.788-1.003.803-1.096.345-1.227-.069-2.087-.416-2.352-.436-.323-.977-.066-1.188.159-.24.25-.46.746-.57 1.14 0 0-.094.333-.053.68.04.316.311.838.39 1.104 0 0-.633.013-1.023-.402 0 0-.062.115-.35.17-.779.144-1.332-.462-1.606-.812-.19-.238-.331-.637-.485-.904-.072-.128-.246-.273-.246-.273-.387-.385-.178-.935.01-1.262.537-.9 1.59-1.912 1.59-1.912.08-.085.042-.21.042-.21-.19-.443.145-.85.145-.85C13.115.35 19.383.05 19.383.05c12.091-.769 29.41 7.392 29.41 7.392 8.952 3.802 15.043 7.077 15.043 7.077 5.309 2.8 15.752 9.211 19 10.717 0 0 1.684.779 3.793.109.983-.311 1.644-1.024 2.224-1.154 0 0 1.225-.345 1.67.717.16.38.114 1.008-.305 1.715-1.617 3.032-5.796 2.727-7.649 2.255zM14.801 6.309c.222.167.412.438.551.776-.325-1.18-1.03-1.152-1.178-1.133 0 0-.225.014-.367.127a1.26 1.26 0 01.994.23zm-3.553-1.636c-.008.013-.022.023-.034.035-.01.009-.915.835-1.609 1.932 0 0 1.374-1.575 1.901-1.815a.82.82 0 01-.22-.196c-.014.014-.025.03-.038.044zm37.347 3.298l-.01-.003-.011-.002C48.407 7.884 31.238-.13 19.416.62c-.029 0-1.082.06-2.435.327.847-.088 2.017-.145 3.53-.072l.846.04s-.268.539-.348.696c.697-.36 1.597-.675 2.627-.675h.012c.25.008 5.363.17 9.634 3.411l-.602-1.046 1.09.135c.012 0 .285.034 1 .16.189.025 2.834.42 8.884 2.659.04.013 4.654 1.641 7.164 2.711.003 0 1.561.664 1.864.792a261.535 261.535 0 00-4.087-1.787zM89.68 25.244c-.542-.579-1.782.444-2.466.722 0 0-2.105.89-5.144-.574 0 0-10.975-6.138-12.059-6.77-6.067-3.547-15.586-7.5-19.384-9.123-2.528-1.077-7.147-2.704-7.147-2.704-6.165-2.282-8.79-2.633-8.79-2.633-.717-.126-.98-.158-.98-.158l.29.502c.687 1.208.878 2.06.878 2.06-4.367-4.9-11.242-5.058-11.242-5.058-2.204 0-3.79 1.598-3.79 1.598-.164.225.17.302.17.302 2.685.873 4.267 4.241 4.267 4.241-3.307-2.85-5.257-3.222-5.257-3.222-2.157-.34-2.174-1.288-2.174-1.288 1.988.47 3.191-.798 3.494-1.414l.142-.281c-3.43-.167-5.036.351-5.036.351-3.254.808-3.752 1.746-3.885 1.965-.148.24-.17 1.02.678.812 0 .002.34-1.262 1.341-1.45 0 0 .497-.073 1.514-.059 0 0-.713 1.685-2.221 1.957 0 0-.547.085-.714.108-.16.022-1.348.244-1.96 1.772 0 0-.328.683.126 1.205.017.022.038.048.061.073 0 0 .377.492.874.51.045.002.18.005.254-.01.168-.033.494-.2.812-.94 0 0 .52-1.241.765-1.647 0 0 .287-.631 1.002-.705 0 0 1.466-.256 1.857 1.945.19 1.098.005 1.924-1.54 3.617 0 0-.222.232-.496.465 0 0-.091.076-.11.196-.008.057.006.143.062.175 0 0 .712.39 1.038.34.325-.051.249-.092 1.709-2.08 0 0 2.096-.612 2.113-2.551a8.965 8.965 0 00-.055-.789c-.05-.405-.183-1.054-.533-1.566 0 0 .98.037 1.972 1.853l.076.136s.332.929 1.045 1.026c0 0 1.697.246 3.848 1.654.499.325 1.808 1.248 1.89 1.28-.291-.873-.474-1.907-.142-3.135l.003.008c.02.07.033 3.79 6.023 5.681-2.822-.294-4.003-1.434-5.887-1.713-.721-.107-1.669-.02-2.805.096-2.597.255-4.014 1.09-5.405 3.694-.997 1.868.788 3.007.788 3.007a7.54 7.54 0 00.749-.33c-.456-.067-1.895-.998-.52-3.106 0 0-.87 2.172 1.313 2.594.415-.273 1.236-1.146 1.25-1.895.299-.51.872-1.359 2.53-.825 7.058 2.097 7.65 2.279 8.153 2.385 4.715 1.022 5.158-1.514 5.158-1.514.642-2.379-2.062-6.013-2.062-6.013 4.346 3.718 10.545 3.682 10.545 3.682-3.81.83-7.82-.623-8.45-.838 0 0 1.141 1.8.763 3.553 0 0 2.777 2.19 10.934.943 1.895-.29 2.592.057 2.592.057.1-1.027-1.582-2.579-1.582-2.579 1.711.773 3.402 3.127 3.72 3.58.205.278.42.621.658 1.048.685 1.227 3.286 7.11 9.479 6.608l3.18-.177s4.332-.405 6.263 1.03c1.272.943 1.357 1.11 2.106 1.774.986.875 2.743 3.244 4.536 3.352.529.03 1.035-.167 1.553-.63-1.714.534-2.717-.595-2.851-.737 1.913.548 2.711.367 3.354-.323.041-.64-.77-1.301-1.267-1.572-1.43-.773-1.96-1.562-2.682-2.333-.606-.653-1.592-2.139-2.168-2.658-.622-.561-1.466-1.217-3.359-1.184-1.923.03-4.165.052-4.83-.067-.693-.123-1.093-.227-1.733-.78-.515-.442-.857-.944-1.159-1.512-.302-.565-.581-1.336-1.136-2.395-.384-.731-1.062-1.309-1.062-1.309.884.602 1.346.884 1.996 1.91 1.351 2.146 2.367 2.758 3.208 3.059 1.26.448 4.609.547 5.981.744 1.317.189 2.109 1.038 2.43 1.4.732.809 1.524 1.628 2.169 2.35 2.042 2.288 4.373 2.543 4.377 2.543 1.203.21 3.287.084 4.286-.396.951-.452 1.733-1.237 1.892-1.825.134-.393.097-.796-.184-1.095zM19.304 3.455V3.44a3.69 3.69 0 01-.819.285c.18.049.378.094.617.134l.017.001c.057.01.934.195 2.459 1.11-.501-.434-1.074-.806-1.712-1.015-.137-.04-.445-.159-.561-.5zm-6.733 1.088c.122-.004.423-.079.423-.079.77-.144.965-.818.965-.818-.4 0-.66.017-.66.017-.447.05-.628.58-.646.628l-.083.252zm6.095-2.633c.18 0 .662.005.963.008.02 0-.13.101-.363.218-.325.162-.815.354-1.249.347l-.277-.007c-.167-.008-.274-.02-.272-.046.004-.044.415-.52 1.198-.52zm-6.733 35.134v3.908c0 1.264-.27 2.03-.831 2.645-.978 1.073-2.853 1.46-5.507 1.46H0v-1.075h5.15c1.582 0 2.65-.28 3.294-.964.487-.515.707-1.235.707-2.306v-3.668h2.782zm10.494 0l6.49 8.013h-3.12l-1.371-1.706h-8.244l-1.367 1.706h-1.612l6.483-8.013h2.741zm1.167 5.27l-3.296-4.104-3.287 4.105h6.583zm12.102-5.27h7.817v1.07h-6.95c-1.49 0-2.302.24-2.92.78-.55.479-.842 1.196-.842 2.156-.001.993.307 1.725.895 2.205.62.507 1.455.731 2.89.731l4.441.001v-2.61h2.77v3.68h-8.052c-1.51 0-2.7-.188-3.598-.576-1.496-.647-2.18-1.83-2.18-3.446 0-1.525.745-2.584 1.694-3.154 1.008-.605 2.143-.837 4.035-.837zm13.953 3.88c0 1.04.122 1.653.478 2.19.602.91 1.64 1.238 3.51 1.238h.236c1.953 0 2.907-.328 3.508-1.238.357-.539.479-1.177.479-2.187v-3.883h2.783v3.993c0 1.034-.106 1.851-.592 2.534-.79 1.112-2.24 1.751-6.283 1.751h-.042c-4.022 0-5.479-.64-6.268-1.75-.486-.683-.592-1.501-.592-2.534v-3.993h2.783v3.88zm21.445-3.88l6.489 8.013h-3.12l-1.37-1.706h-8.245l-1.366 1.706h-1.613l6.482-8.013h2.743zm1.166 5.27l-3.297-4.104-3.286 4.105h6.583z" fill="#000"/></svg>