<svg xmlns="http://www.w3.org/2000/svg" viewBox="0 0 28.748 22.959"><radialGradient id="a" cx="7.185" cy="13.82" r="4.159" gradientUnits="userSpaceOnUse"><stop offset=".574" stop-color="#171718"/><stop offset=".798" stop-color="#171718"/><stop offset="1" stop-color="#171718"/></radialGradient><path d="M11.126 16.528l-5.78-2.676v-.032l5.78-2.693V9.453L3.244 13.31v1.017l7.882 3.859z" fill-rule="evenodd" clip-rule="evenodd" fill="url(#a)"/><radialGradient id="b" cx="14.341" cy="12.917" r="4.584" gradientUnits="userSpaceOnUse"><stop offset=".574" stop-color="#171718"/><stop offset=".798" stop-color="#171718"/><stop offset="1" stop-color="#171718"/></radialGradient><path d="M16.966 6.99h-1.395l-3.856 11.854h1.395z" fill="url(#b)" fill-rule="evenodd" clip-rule="evenodd"/><radialGradient id="c" cx="21.555" cy="13.82" r="4.163" gradientUnits="userSpaceOnUse"><stop offset=".574" stop-color="#171718"/><stop offset=".798" stop-color="#171718"/><stop offset="1" stop-color="#171718"/></radialGradient><path d="M25.503 13.097l-7.896-3.644v1.625l6.304 2.725v.033l-6.304 2.725v1.626l7.896-3.644z" fill="url(#c)" fill-rule="evenodd" clip-rule="evenodd"/><radialGradient id="d" cx="14.374" cy="11.48" r="13.007" gradientUnits="userSpaceOnUse"><stop offset=".574" stop-color="#171718"/><stop offset=".798" stop-color="#171718"/><stop offset="1" stop-color="#171718"/></radialGradient><path d="M0 0v22.96h28.748V0H0zm25 1.344h2.043v2.043H25V1.344zm-3.36 0h2.041v2.043H21.64V1.344zm-3.561 0h2.043v2.043h-2.043V1.344zM27.26 21.36H1.486V5.284H27.26V21.36z" fill="url(#d)" fill-rule="evenodd" clip-rule="evenodd"/></svg>