<svg xmlns="http://www.w3.org/2000/svg" viewBox="0 0 37.053 31.513"><radialGradient id="a" cx="22.923" cy="1.7" r=".493" gradientUnits="userSpaceOnUse"><stop offset=".574" stop-color="#171718"/><stop offset=".798" stop-color="#171718"/><stop offset="1" stop-color="#171718"/></radialGradient><circle cx="22.923" cy="1.7" r=".493" fill="url(#a)"/><radialGradient id="b" cx="18.623" cy="1.677" r="1.837" gradientUnits="userSpaceOnUse"><stop offset=".574" stop-color="#171718"/><stop offset=".798" stop-color="#171718"/><stop offset="1" stop-color="#171718"/></radialGradient><path d="M16.039 1.395h5.167v.563h-5.167z" fill="url(#b)"/><radialGradient id="c" cx="12.542" cy="5.031" r=".152" gradientUnits="userSpaceOnUse"><stop offset=".574" stop-color="#171718"/><stop offset=".798" stop-color="#171718"/><stop offset="1" stop-color="#171718"/></radialGradient><path d="M12.516 5.03c0 .078.021.15.053.214v-.426a.48.48 0 00-.053.212z" fill="url(#c)"/><radialGradient id="d" cx="11.208" cy="5.007" r=".207" gradientUnits="userSpaceOnUse"><stop offset=".574" stop-color="#171718"/><stop offset=".798" stop-color="#171718"/><stop offset="1" stop-color="#171718"/></radialGradient><path d="M11.124 4.726h.168v.562h-.168z" fill="url(#d)"/><radialGradient id="e" cx="26.037" cy="5.007" r=".207" gradientUnits="userSpaceOnUse"><stop offset=".574" stop-color="#171718"/><stop offset=".798" stop-color="#171718"/><stop offset="1" stop-color="#171718"/></radialGradient><path d="M25.953 4.726h.168v.562h-.168z" fill="url(#e)"/><radialGradient id="f" cx="29.554" cy="18.272" r="10.76" gradientUnits="userSpaceOnUse"><stop offset=".574" stop-color="#171718"/><stop offset=".798" stop-color="#171718"/><stop offset="1" stop-color="#171718"/></radialGradient><path d="M35.125 5.03H27.14v1.396h4.999v.563H27.14v1.296h8.47v17.108h-8.47v.863a1.93 1.93 0 01-1.928 1.927h-3.155v1.403c0 1.063.861 1.927 1.926 1.927h11.143a1.928 1.928 0 001.928-1.927V6.96a1.93 1.93 0 00-1.928-1.93zm-1.27 2.194a.493.493 0 11-.002-.986.493.493 0 01.001.986zm-4.3 22.385z" fill="url(#f)"/><radialGradient id="g" cx="7.499" cy="17.782" r="10.76" gradientUnits="userSpaceOnUse"><stop offset=".574" stop-color="#171718"/><stop offset=".798" stop-color="#171718"/><stop offset="1" stop-color="#171718"/></radialGradient><path d="M9.913 25.766v-.863H1.444V7.795h8.47V6.5h-5v-.563h5V4.541H1.926A1.927 1.927 0 000 6.471v22.625c0 1.063.86 1.927 1.927 1.927h11.142a1.928 1.928 0 001.928-1.927v-1.403H11.84a1.927 1.927 0 01-1.927-1.927zM7.5 29.12z" fill="url(#g)"/><radialGradient id="h" cx="18.623" cy="13.241" r="10.76" gradientUnits="userSpaceOnUse"><stop offset=".574" stop-color="#171718"/><stop offset=".798" stop-color="#171718"/><stop offset="1" stop-color="#171718"/></radialGradient><path d="M24.194 0H13.05a1.927 1.927 0 00-1.927 1.93v2.796h.169v.562h-.169v19.267c0 1.063.86 1.927 1.927 1.927h11.143a1.928 1.928 0 001.927-1.927V5.288h-.168v-.562h.168V1.93C26.12.864 25.257 0 24.193 0zm-1.27 1.207a.493.493 0 11-.002.986.493.493 0 01.001-.986zm-6.885.188h5.167v.563h-5.167v-.563zm2.584 22.95a1.07 1.07 0 110-2.14 1.07 1.07 0 010 2.14zM24.676 3.33v17.03H12.57V5.244a.482.482 0 01-.053-.214.48.48 0 01.053-.212V3.254h12.107v.076z" fill="url(#h)"/></svg>