<svg xmlns="http://www.w3.org/2000/svg" xmlns:xlink="http://www.w3.org/1999/xlink" width="81" height="88"><defs><path id="a" d="M0 89.725h83V0H0z"/></defs><g fill="none" fill-rule="evenodd" transform="translate(-1 -1)"><path stroke="#505050" d="M49.045 77.033l-5.659 5.677 5.66 5.677"/><path stroke="#505050" d="M43.386 82.71h32.069c3.125 0 5.659-2.542 5.659-5.677V42.97M33.955 12.692l5.659-5.677-5.66-5.677"/><path stroke="#505050" d="M39.614 7.015H7.545c-3.125 0-5.659 2.542-5.659 5.677v34.063"/><mask id="b" fill="#fff"><use xlink:href="#a"/></mask><path stroke="#1476F2" d="M13.205 69.463h56.59V20.262h-56.59zm5.659-43.524h3.772m1.887 0h3.772m-15.09 5.677h56.59" mask="url(#b)"/><path stroke="#505050" d="M20.75 61.894h18.864V39.185H20.75zm24.523-22.709h18.863m-18.863 7.57h18.863m-18.863 7.569H56.59m24.524-15.139v-3.784m0-3.785V27.83M1.886 61.894v-3.785m0-3.785V50.54" mask="url(#b)"/></g></svg>