<svg xmlns="http://www.w3.org/2000/svg" width="92" height="68"><g fill="none" fill-rule="evenodd"><path stroke="#323232" d="M91 55.353H55.783l-3.913 3.882h-9.783l-5.87-3.882H1v3.882a7.717 7.717 0 002.289 5.487A7.875 7.875 0 008.827 67h74.346a7.875 7.875 0 005.538-2.278A7.717 7.717 0 0091 59.235v-3.882zm-5.87 0V4.883a3.858 3.858 0 00-1.144-2.744A3.937 3.937 0 0081.216 1H10.784a3.93 3.93 0 00-2.769 1.139A3.858 3.858 0 006.87 4.882v50.47"/><path stroke="#1476F2" d="M22.522 14.588l3.913 3.882 7.827-7.765m-11.74 17.47l3.913 3.885 7.827-7.765m-11.74 17.47l3.913 3.882 7.827-7.765m5.868-23.294h27.392M40.13 28.176h27.392M40.13 41.764h27.392"/></g></svg>